0
SECTION
2
HEADER
9
$INSUNITS
70
4
9
$ACADVER
1
AC1014
9
$HANDSEED
5
FFFF
0
ENDSEC
0
SECTION
2
TABLES
0
TABLE
2
VPORT
5
8
100
AcDbSymbolTable
0
ENDTAB
0
TABLE
2
LTYPE
5
5
100
AcDbSymbolTable
0
LTYPE
5
14
100
AcDbSymbolTableRecord
100
AcDbLinetypeTableRecord
2
BYBLOCK
70
0
0
LTYPE
5
15
100
AcDbSymbolTableRecord
100
AcDbLinetypeTableRecord
2
BYLAYER
70
0
0
ENDTAB
0
TABLE
2
LAYER
5
2
100
AcDbSymbolTable
70
2
0
LAYER
5
50
100
AcDbSymbolTableRecord
100
AcDbLayerTableRecord
2
0
70
0
6
CONTINUOUS
0
ENDTAB
0
TABLE
2
STYLE
5
3
100
AcDbSymbolTable
70
1
0
STYLE
5
11
100
AcDbSymbolTableRecord
100
AcDbTextStyleTableRecord
2
STANDARD
70
0
0
ENDTAB
0
TABLE
2
VIEW
5
6
100
AcDbSymbolTable
70
0
0
ENDTAB
0
TABLE
2
UCS
5
7
100
AcDbSymbolTable
70
0
0
ENDTAB
0
TABLE
2
APPID
5
9
100
AcDbSymbolTable
70
2
0
APPID
5
12
100
AcDbSymbolTableRecord
100
AcDbRegAppTableRecord
2
ACAD
70
0
0
ENDTAB
0
TABLE
2
DIMSTYLE
5
A
100
AcDbSymbolTable
70
1
0
ENDTAB
0
TABLE
2
BLOCK_RECORD
5
1
100
AcDbSymbolTable
70
1
0
BLOCK_RECORD
5
1F
100
AcDbSymbolTableRecord
100
AcDbBlockTableRecord
2
*MODEL_SPACE
0
BLOCK_RECORD
5
1B
100
AcDbSymbolTableRecord
100
AcDbBlockTableRecord
2
*PAPER_SPACE
0
ENDTAB
0
ENDSEC
0
SECTION
2
BLOCKS
0
BLOCK
5
20
100
AcDbEntity
100
AcDbBlockBegin
2
*MODEL_SPACE
0
ENDBLK
5
21
100
AcDbEntity
100
AcDbBlockEnd
0
BLOCK
5
1C
100
AcDbEntity
100
AcDbBlockBegin
2
*PAPER_SPACE
0
ENDBLK
5
1D
100
AcDbEntity
100
AcDbBlockEnd
0
ENDSEC
0
SECTION
2
ENTITIES
0
LWPOLYLINE
5
100
100
AcDbEntity
8
0
100
AcDbPolyline
90
4
70
1
43
0.0
10
120.98266564839568
20
60.356124373384617
10
120.98266564839568
20
74.356604373384585
10
106.98472564839568
20
74.356604373384585
10
106.98472564839568
20
60.356124373384631
0
LWPOLYLINE
5
101
100
AcDbEntity
8
0
100
AcDbPolyline
90
28
70
1
43
0.0
10
123.41689564839571
20
117.10130937338462
10
123.41689564839567
20
64.138093330757386
10
147.1660353356136
20
64.138093330757386
10
147.16459185387546
20
58.064594445561156
10
147.19279037720622
20
40.482315174976605
42
-0.11054809404765804
10
146.54691765596544
20
37.574917601537116
10
144.1612650812431
20
32.509854217633162
10
130.68682930696039
20
9.1673480731077888
42
-0.37298845770049049
10
128.02331935753813
20
8.2453351463458269
10
95.944714380080072
20
21.08614105550906
42
0.095481021393804877
10
92.514085648395664
20
21.747288358483488
10
77.295111882567952
20
21.747288378211536
42
0.067852067921304715
10
73.816656349023305
20
21.273202347438076
10
58.325704125032019
20
16.97004173569194
42
-0.067852198190940932
10
54.857275084297342
20
16.497208358799735
10
39.133795634145308
20
16.49720824874619
42
-0.26165235643000034
10
37.295580024686323
20
17.530398023790497
10
28.810098154421183
20
31.467033917907862
42
0.24028390378941833
10
28.69268444489526
20
31.539328858806073
10
9.9795363017168057
20
33.044807097280646
42
-0.39098314982120941
10
8.0001356967812143
20
35.190694144960361
10
8.0271356880753491
20
111.08206381628526
42
-0.36777873143872841
10
9.8348467112174731
20
113.20558333314146
10
45.414181425297038
20
118.88398225483559
42
-0.040831518106179333
10
50.044795091495295
20
119.2638171607942
10
122.17999764839574
20
119.3382103882858
10
123.41690003566363
20
119.3382103882858
10
123.41690003566363
20
118.33821037338461
0
LWPOLYLINE
5
102
100
AcDbEntity
8
0
100
AcDbPolyline
90
6
70
1
43
0.0
10
101.65326764839568
20
37.610426373384584
10
98.031227648395685
20
24.087468373384588
10
103.99867231777915
20
22.488004897950667
42
0.26990935493126456
10
105.45669603155372
20
22.097208534397645
10
111.55418764839565
20
20.462888373384594
10
115.1762276483957
20
33.98584837338457
0
CIRCLE
5
103
100
AcDbEntity
8
0
100
AcDbCircle
10
104.87031664839571
20
58.063660873384705
30
0
40
1.0999999999999943
210
0
220
0
230
1
0
LWPOLYLINE
5
104
100
AcDbEntity
8
0
100
AcDbPolyline
90
4
70
1
43
0.0
10
49.882985648395639
20
43.655625373384623
10
63.883465648395671
20
43.655625373384623
10
63.883465648395671
20
57.656105373384598
10
49.88298564839566
20
57.656105373384598
0
LWPOLYLINE
5
105
100
AcDbEntity
8
0
100
AcDbPolyline
90
4
70
1
43
0.0
10
63.883465648395671
20
62.756425373384616
10
63.883465648395671
20
76.756905373384612
10
49.88298564839566
20
76.756905373384612
10
49.88298564839566
20
62.756425373384616
0
CIRCLE
5
106
100
AcDbEntity
8
0
100
AcDbCircle
10
28.670316648395684
20
93.863660873384731
30
0
40
1.0999999999999985
210
0
220
0
230
1
0
LWPOLYLINE
5
107
100
AcDbEntity
8
0
100
AcDbPolyline
90
4
70
1
43
0.0
10
68.884725648395687
20
83.155166373384631
10
82.882665648395715
20
83.155166373384631
10
82.882665648395715
20
97.155646373384613
10
68.884725648395687
20
97.155646373384627
0
LWPOLYLINE
5
108
100
AcDbEntity
8
0
100
AcDbPolyline
90
4
70
1
43
0.0
10
101.9834556483957
20
114.85687137338462
10
87.982975648395694
20
114.85687137338462
10
87.982975648395694
20
100.85639137338461
10
101.9834556483957
20
100.85639137338461
0
LWPOLYLINE
5
109
100
AcDbEntity
8
0
100
AcDbPolyline
90
4
70
1
43
0.0
10
25.783465648395634
20
94.55468437338466
10
25.783465648395634
20
108.55516437338464
10
11.782985648395687
20
108.55516437338464
10
11.782985648395687
20
94.55468437338466
0
LWPOLYLINE
5
110
100
AcDbEntity
8
0
100
AcDbPolyline
90
4
70
1
43
0.0
10
82.882665648395715
20
102.24580637338461
10
82.882665648395715
20
116.24628637338462
10
68.884725648395687
20
116.24628637338463
10
68.884725648395687
20
102.24580637338465
0
LWPOLYLINE
5
111
100
AcDbEntity
8
0
100
AcDbPolyline
90
4
70
1
43
0.0
10
87.982985648395683
20
81.755625373384618
10
101.98346564839571
20
81.755625373384618
10
101.98346564839571
20
95.756105373384614
10
87.982985648395683
20
95.756105373384614
0
LWPOLYLINE
5
112
100
AcDbEntity
8
0
100
AcDbPolyline
90
4
70
1
43
0.0
10
44.782665648395707
20
91.156165373384653
10
30.784725648395703
20
91.156165373384653
10
30.784725648395703
20
77.155685373384614
10
44.782665648395707
20
77.155685373384614
0
LWPOLYLINE
5
113
100
AcDbEntity
8
0
100
AcDbPolyline
90
4
70
1
43
0.0
10
30.784725648395703
20
71.956305373384623
10
30.784725648395685
20
57.95582537338462
10
44.874396648395688
20
57.955825373384613
10
44.874396648395688
20
71.956305373384623
0
LWPOLYLINE
5
114
100
AcDbEntity
8
0
100
AcDbPolyline
90
4
70
1
43
0.0
10
82.882665648395715
20
45.055163373384623
10
82.882665648395715
20
59.055643373384619
10
68.884725648395687
20
59.055643373384619
10
68.884725648395687
20
45.055163373384623
0
CIRCLE
5
115
100
AcDbEntity
8
0
100
AcDbCircle
10
28.670316648395684
20
55.663660873384714
30
0
40
1.1000000000000032
210
0
220
0
230
1
0
LWPOLYLINE
5
116
100
AcDbEntity
8
0
100
AcDbPolyline
90
4
70
1
43
0.0
10
92.483865648395692
20
38.705165373384617
10
78.483385648395668
20
38.705165373384617
10
78.483385648395668
20
24.70468837338462
10
92.483865648395664
20
24.704688373384617
0
LWPOLYLINE
5
117
100
AcDbEntity
8
0
100
AcDbPolyline
90
4
70
1
43
0.0
10
118.96082664839567
20
22.822548373384592
10
131.0867866483957
20
15.824848373384581
10
138.08702664839569
20
27.948268373384579
10
125.96106664839569
20
34.948508373384598
0
LWPOLYLINE
5
118
100
AcDbEntity
8
0
100
AcDbPolyline
90
4
70
1
43
0.0
10
40.284325648395658
20
20.556868373384614
10
54.28480564839564
20
20.556868373384614
10
54.28480564839564
20
34.554808373384624
10
40.284325648395658
20
34.554808373384624
0
LWPOLYLINE
5
119
100
AcDbEntity
8
0
100
AcDbPolyline
90
4
70
1
43
0.0
10
30.784725648395685
20
38.956625373384611
10
44.782665648395707
20
38.956625373384611
10
44.782665648395707
20
52.957105373384643
10
30.784725648395685
20
52.95710537338465
0
LWPOLYLINE
5
120
100
AcDbEntity
8
0
100
AcDbPolyline
90
4
70
1
43
0.0
10
120.98266564839568
20
41.356924373384587
10
120.98266564839568
20
55.354864373384601
10
106.98472564839568
20
55.354864373384615
10
106.98472564839568
20
41.356924373384587
0
LWPOLYLINE
5
121
100
AcDbEntity
8
0
100
AcDbPolyline
90
4
70
1
43
0.0
10
68.884725648395687
20
64.056906373384621
10
82.882665648395715
20
64.056906373384621
10
82.882665648395715
20
78.054846373384592
10
68.884725648395687
20
78.054846373384592
0
LWPOLYLINE
5
122
100
AcDbEntity
8
0
100
AcDbPolyline
90
4
70
1
43
0.0
10
11.782985648395687
20
75.65708437338462
10
25.783465648395634
20
75.65708437338462
10
25.783465648395634
20
89.655024373384634
10
11.782985648395687
20
89.655024373384634
0
CIRCLE
5
123
100
AcDbEntity
8
0
100
AcDbCircle
10
104.87031664839571
20
96.06366087338472
30
0
40
1.0999999999999943
210
0
220
0
230
1
0
LWPOLYLINE
5
124
100
AcDbEntity
8
0
100
AcDbPolyline
90
4
70
1
43
0.0
10
120.98265564839568
20
98.456091373384595
10
120.98265564839568
20
112.45657137338462
10
106.98471564839566
20
112.45657137338462
10
106.98471564839566
20
98.456091373384595
0
LWPOLYLINE
5
125
100
AcDbEntity
8
0
100
AcDbPolyline
90
4
70
1
43
0.0
10
44.782665648395707
20
96.055825373384621
10
44.782665648395707
20
110.05630537338465
10
30.784725648395721
20
110.05630537338465
10
30.784725648395703
20
96.055825373384621
0
LWPOLYLINE
5
126
100
AcDbEntity
8
0
100
AcDbPolyline
90
4
70
1
43
0.0
10
63.883465648395671
20
100.85642537338461
10
63.883465648395671
20
114.85690537338463
10
49.88298564839566
20
114.85690537338463
10
49.88298564839566
20
100.85642537338461
0
LWPOLYLINE
5
127
100
AcDbEntity
8
0
100
AcDbPolyline
90
4
70
1
43
0.0
10
106.98472564839568
20
79.35532437338459
10
120.98266564839568
20
79.355324373384576
10
120.9826656483957
20
93.355804373384615
10
106.9847256483957
20
93.355804373384615
0
LWPOLYLINE
5
128
100
AcDbEntity
8
0
100
AcDbPolyline
90
4
70
1
43
0.0
10
63.883465648395671
20
81.854685373384626
10
63.883465648395671
20
95.855165373384622
10
49.88298564839566
20
95.855165373384622
10
49.88298564839566
20
81.854685373384626
0
LWPOLYLINE
5
129
100
AcDbEntity
8
0
100
AcDbPolyline
90
4
70
1
43
0.0
10
25.783465648395634
20
70.455164373384633
10
11.782985648395687
20
70.455164373384633
10
11.78298564839567
20
56.454684373384623
10
25.783465648395616
20
56.454684373384623
0
LWPOLYLINE
5
130
100
AcDbEntity
8
0
100
AcDbPolyline
90
4
70
1
43
0.0
10
87.982985648395669
20
76.756905373384612
10
87.982985648395669
20
62.756425373384616
10
101.98346564839569
20
62.756425373384616
10
101.98346564839569
20
76.756905373384612
0
LWPOLYLINE
5
131
100
AcDbEntity
8
0
100
AcDbPolyline
90
4
70
1
43
0.0
10
101.98346564839569
20
43.655625373384588
10
101.98346564839569
20
57.656105373384598
10
87.982985648395669
20
57.656105373384598
10
87.982985648395669
20
43.655625373384623
0
LWPOLYLINE
5
132
100
AcDbEntity
8
0
100
AcDbPolyline
90
4
70
1
43
0.0
10
25.732665648395674
20
51.45596437338461
10
11.734725648395674
20
51.45596437338461
10
11.734725648395674
20
37.455484373384628
10
25.732665648395674
20
37.455484373384621
0
LWPOLYLINE
5
133
100
AcDbEntity
8
0
100
AcDbPolyline
90
4
70
1
43
0.0
10
73.383065648395686
20
38.705165373384617
10
59.382585648395661
20
38.705165373384617
10
59.382585648395661
20
24.70468837338462
10
73.383065648395686
20
24.70468837338462
0
CIRCLE
5
134
100
AcDbEntity
8
0
100
AcDbCircle
10
129.47031664839574
20
40.863660873384696
30
0
40
1.1000000000000119
210
0
220
0
230
1
0
LWPOLYLINE
5
135
100
AcDbEntity
8
0
100
AcDbPolyline
90
4
70
1
43
0.0
10
126.67031664839573
20
57.913660873384686
10
126.67031664839573
20
44.413660873384693
10
142.77031664839572
20
44.413660873384693
10
142.77031664839572
20
57.913660873384686
0
ENDSEC
0
SECTION
2
OBJECTS
0
DICTIONARY
5
C
100
AcDbDictionary
3
ACAD_GROUP
350
D
3
ACAD_MLINESTYLE
350
17
0
DICTIONARY
5
D
100
AcDbDictionary
0
DICTIONARY
5
1A
330
C
100
AcDbDictionary
0
DICTIONARY
5
17
100
AcDbDictionary
0
ENDSEC
0
EOF
