  0
SECTION
  2
HEADER
  9
$ACADVER
  1
AC1014
  9
$HANDSEED
  5
FFFF
  9
$MEASUREMENT
 70
     1
  0
ENDSEC
  0
SECTION
  2
TABLES
  0
TABLE
  2
VPORT
  5
8
330
0
100
AcDbSymbolTable
 70
     4
  0
VPORT
  5
2E
330
8
100
AcDbSymbolTableRecord
100
AcDbViewportTableRecord
  2
*ACTIVE
 70
     0
 10
0.0
 20
0.0
 11
1.0
 21
1.0
 12
210.0
 22
148.5
 13
0.0
 23
0.0
 14
10.0
 24
10.0
 15
10.0
 25
10.0
 16
0.0
 26
0.0
 36
1.0
 17
0.0
 27
0.0
 37
0.0
 40
341.0
 41
1.24
 42
50.0
 43
0.0
 44
0.0
 50
0.0
 51
0.0
 71
     0
 72
   100
 73
     1
 74
     3
 75
     0
 76
     0
 77
     0
 78
     0
  0
ENDTAB
  0
TABLE
  2
LTYPE
  5
5
330
0
100
AcDbSymbolTable
 70
     1
  0
LTYPE
  5
14
330
5
100
AcDbSymbolTableRecord
100
AcDbLinetypeTableRecord
  2
BYBLOCK
 70
     0
  3

 72
    65
 73
     0
 40
0.0
  0
LTYPE
  5
15
330
5
100
AcDbSymbolTableRecord
100
AcDbLinetypeTableRecord
  2
BYLAYER
 70
     0
  3

 72
    65
 73
     0
 40
0.0
  0
LTYPE
  5
16
330
5
100
AcDbSymbolTableRecord
100
AcDbLinetypeTableRecord
  2
CONTINUOUS
 70
     0
  3
Solid line
 72
    65
 73
     0
 40
0.0
  0
ENDTAB
  0
TABLE
  2
LAYER
  5
2
100
AcDbSymbolTable
 70
2
  0
LAYER
  5
50
100
AcDbSymbolTableRecord
100
AcDbLayerTableRecord
  2
0
 70
0
  6
CONTINUOUS
  0
LAYER
  5
51
100
AcDbSymbolTableRecord
100
AcDbLayerTableRecord
  2
Ebene_1
 70
0
  6
CONTINUOUS
  0
ENDTAB
  0
TABLE
  2
STYLE
  5
3
330
0
100
AcDbSymbolTable
 70
     1
  0
STYLE
  5
11
330
3
100
AcDbSymbolTableRecord
100
AcDbTextStyleTableRecord
  2
STANDARD
 70
     0
 40
0.0
 41
1.0
 50
0.0
 71
     0
 42
2.5
  3
txt
  4

  0
ENDTAB
  0
TABLE
  2
VIEW
  5
6
330
0
100
AcDbSymbolTable
 70
     0
  0
ENDTAB
  0
TABLE
  2
UCS
  5
7
330
0
100
AcDbSymbolTable
 70
     0
  0
ENDTAB
  0
TABLE
  2
APPID
  5
9
330
0
100
AcDbSymbolTable
 70
     2
  0
APPID
  5
12
330
9
100
AcDbSymbolTableRecord
100
AcDbRegAppTableRecord
  2
ACAD
 70
     0
  0
ENDTAB
  0
TABLE
  2
DIMSTYLE
  5
A
330
0
100
AcDbSymbolTable
 70
     1
  0
DIMSTYLE
105
27
330
A
100
AcDbSymbolTableRecord
100
AcDbDimStyleTableRecord
  2
ISO-25
 70
     0
  3

  4

  5

  6

  7

 40
1.0
 41
2.5
 42
0.625
 43
3.75
 44
1.25
 45
0.0
 46
0.0
 47
0.0
 48
0.0
140
2.5
141
2.5
142
0.0
143
0.03937007874016
144
1.0
145
0.0
146
1.0
147
0.625
 71
     0
 72
     0
 73
     0
 74
     0
 75
     0
 76
     0
 77
     1
 78
     8
170
     0
171
     3
172
     1
173
     0
174
     0
175
     0
176
     0
177
     0
178
     0
270
     2
271
     2
272
     2
273
     2
274
     3
340
11
275
     0
280
     0
281
     0
282
     0
283
     0
284
     8
285
     0
286
     0
287
     3
288
     0
  0
ENDTAB
  0
TABLE
  2
BLOCK_RECORD
  5
1
330
0
100
AcDbSymbolTable
 70
     1
  0
BLOCK_RECORD
  5
1F
330
1
100
AcDbSymbolTableRecord
100
AcDbBlockTableRecord
  2
*MODEL_SPACE
  0
BLOCK_RECORD
  5
1B
330
1
100
AcDbSymbolTableRecord
100
AcDbBlockTableRecord
  2
*PAPER_SPACE
  0
ENDTAB
  0
ENDSEC
  0
SECTION
  2
BLOCKS
  0
BLOCK
  5
20
330
1F
100
AcDbEntity
  8
0
100
AcDbBlockBegin
  2
*MODEL_SPACE
 70
     0
 10
0.0
 20
0.0
 30
0.0
  3
*MODEL_SPACE
  1

  0
ENDBLK
  5
21
330
1F
100
AcDbEntity
  8
0
100
AcDbBlockEnd
  0
BLOCK
  5
1C
330
1B
100
AcDbEntity
 67
     1
  8
0
100
AcDbBlockBegin
  2
*PAPER_SPACE
  1

  0
ENDBLK
  5
1D
330
1B
100
AcDbEntity
 67
     1
  8
0
100
AcDbBlockEnd
  0
ENDSEC
  0
SECTION
  2
ENTITIES
  0
SPLINE
  5
100
100
AcDbEntity
  8
Ebene_1
 62
5
100
AcDbSpline
 70
8
 71
3
 72
8
 73
4
 74
0
 40
0
 40
0
 40
0
 40
0
 40
1
 40
1
 40
1
 40
1
 10
52.104843
 20
133.193201
 30
0.0
 10
52.104650
 20
133.586321
 30
0.0
 10
52.314266
 20
133.949661
 30
0.0
 10
52.654686
 20
134.146276
 30
0.0
  0
SPLINE
  5
101
100
AcDbEntity
  8
Ebene_1
 62
5
100
AcDbSpline
 70
8
 71
3
 72
8
 73
4
 74
0
 40
0
 40
0
 40
0
 40
0
 40
1
 40
1
 40
1
 40
1
 10
52.654686
 20
134.146276
 30
0.0
 10
52.995105
 20
134.342892
 30
0.0
 10
53.414575
 20
134.342892
 30
0.0
 10
53.754995
 20
134.146276
 30
0.0
  0
SPLINE
  5
102
100
AcDbEntity
  8
Ebene_1
 62
5
100
AcDbSpline
 70
8
 71
3
 72
8
 73
4
 74
0
 40
0
 40
0
 40
0
 40
0
 40
1
 40
1
 40
1
 40
1
 10
53.754995
 20
134.146276
 30
0.0
 10
54.095414
 20
133.949661
 30
0.0
 10
54.305030
 20
133.586321
 30
0.0
 10
54.304837
 20
133.193201
 30
0.0
  0
SPLINE
  5
103
100
AcDbEntity
  8
Ebene_1
 62
5
100
AcDbSpline
 70
8
 71
3
 72
8
 73
4
 74
0
 40
0
 40
0
 40
0
 40
0
 40
1
 40
1
 40
1
 40
1
 10
54.304837
 20
133.193201
 30
0.0
 10
54.305030
 20
132.800082
 30
0.0
 10
54.095414
 20
132.436742
 30
0.0
 10
53.754995
 20
132.240126
 30
0.0
  0
SPLINE
  5
104
100
AcDbEntity
  8
Ebene_1
 62
5
100
AcDbSpline
 70
8
 71
3
 72
8
 73
4
 74
0
 40
0
 40
0
 40
0
 40
0
 40
1
 40
1
 40
1
 40
1
 10
53.754995
 20
132.240126
 30
0.0
 10
53.414575
 20
132.043511
 30
0.0
 10
52.995105
 20
132.043511
 30
0.0
 10
52.654686
 20
132.240126
 30
0.0
  0
SPLINE
  5
105
100
AcDbEntity
  8
Ebene_1
 62
5
100
AcDbSpline
 70
8
 71
3
 72
8
 73
4
 74
0
 40
0
 40
0
 40
0
 40
0
 40
1
 40
1
 40
1
 40
1
 10
52.654686
 20
132.240126
 30
0.0
 10
52.314266
 20
132.436742
 30
0.0
 10
52.104650
 20
132.800082
 30
0.0
 10
52.104843
 20
133.193201
 30
0.0
  0
SPLINE
  5
106
100
AcDbEntity
  8
Ebene_1
 62
5
100
AcDbSpline
 70
8
 71
3
 72
8
 73
4
 74
0
 40
0
 40
0
 40
0
 40
0
 40
1
 40
1
 40
1
 40
1
 10
8.532618
 20
116.868231
 30
0.0
 10
8.532026
 20
117.797514
 30
0.0
 10
9.027452
 20
118.656461
 30
0.0
 10
9.832136
 20
119.121274
 30
0.0
  0
SPLINE
  5
107
100
AcDbEntity
  8
Ebene_1
 62
5
100
AcDbSpline
 70
8
 71
3
 72
8
 73
4
 74
0
 40
0
 40
0
 40
0
 40
0
 40
1
 40
1
 40
1
 40
1
 10
9.832136
 20
119.121274
 30
0.0
 10
10.636820
 20
119.586087
 30
0.0
 10
11.628403
 20
119.586087
 30
0.0
 10
12.433087
 20
119.121274
 30
0.0
  0
SPLINE
  5
108
100
AcDbEntity
  8
Ebene_1
 62
5
100
AcDbSpline
 70
8
 71
3
 72
8
 73
4
 74
0
 40
0
 40
0
 40
0
 40
0
 40
1
 40
1
 40
1
 40
1
 10
12.433087
 20
119.121274
 30
0.0
 10
13.237771
 20
118.656461
 30
0.0
 10
13.733197
 20
117.797514
 30
0.0
 10
13.732604
 20
116.868231
 30
0.0
  0
SPLINE
  5
109
100
AcDbEntity
  8
Ebene_1
 62
5
100
AcDbSpline
 70
8
 71
3
 72
8
 73
4
 74
0
 40
0
 40
0
 40
0
 40
0
 40
1
 40
1
 40
1
 40
1
 10
13.732604
 20
116.868231
 30
0.0
 10
13.733197
 20
115.938948
 30
0.0
 10
13.237771
 20
115.080001
 30
0.0
 10
12.433087
 20
114.615189
 30
0.0
  0
SPLINE
  5
10a
100
AcDbEntity
  8
Ebene_1
 62
5
100
AcDbSpline
 70
8
 71
3
 72
8
 73
4
 74
0
 40
0
 40
0
 40
0
 40
0
 40
1
 40
1
 40
1
 40
1
 10
12.433087
 20
114.615189
 30
0.0
 10
11.628403
 20
114.150376
 30
0.0
 10
10.636820
 20
114.150376
 30
0.0
 10
9.832136
 20
114.615189
 30
0.0
  0
SPLINE
  5
10b
100
AcDbEntity
  8
Ebene_1
 62
5
100
AcDbSpline
 70
8
 71
3
 72
8
 73
4
 74
0
 40
0
 40
0
 40
0
 40
0
 40
1
 40
1
 40
1
 40
1
 10
9.832136
 20
114.615189
 30
0.0
 10
9.027452
 20
115.080001
 30
0.0
 10
8.532026
 20
115.938948
 30
0.0
 10
8.532618
 20
116.868231
 30
0.0
  0
LWPOLYLINE
  5
10c
100
AcDbEntity
  8
Ebene_1
 62
5
100
AcDbPolyline
 90
1
 70
1
 10
52.104843
 20
133.193201
 30
0.0
  0
SPLINE
  5
10d
100
AcDbEntity
  8
Ebene_1
 62
5
100
AcDbSpline
 70
8
 71
3
 72
8
 73
4
 74
0
 40
0
 40
0
 40
0
 40
0
 40
1
 40
1
 40
1
 40
1
 10
21.584378
 20
21.588375
 30
0.0
 10
21.584378
 20
22.517264
 30
0.0
 10
22.079934
 20
23.375592
 30
0.0
 10
22.884375
 20
23.840037
 30
0.0
  0
SPLINE
  5
10e
100
AcDbEntity
  8
Ebene_1
 62
5
100
AcDbSpline
 70
8
 71
3
 72
8
 73
4
 74
0
 40
0
 40
0
 40
0
 40
0
 40
1
 40
1
 40
1
 40
1
 10
22.884375
 20
23.840037
 30
0.0
 10
23.688816
 20
24.304481
 30
0.0
 10
24.679929
 20
24.304481
 30
0.0
 10
25.484370
 20
23.840037
 30
0.0
  0
SPLINE
  5
10f
100
AcDbEntity
  8
Ebene_1
 62
5
100
AcDbSpline
 70
8
 71
3
 72
8
 73
4
 74
0
 40
0
 40
0
 40
0
 40
0
 40
1
 40
1
 40
1
 40
1
 10
25.484370
 20
23.840037
 30
0.0
 10
26.288811
 20
23.375592
 30
0.0
 10
26.784367
 20
22.517264
 30
0.0
 10
26.784367
 20
21.588375
 30
0.0
  0
SPLINE
  5
110
100
AcDbEntity
  8
Ebene_1
 62
5
100
AcDbSpline
 70
8
 71
3
 72
8
 73
4
 74
0
 40
0
 40
0
 40
0
 40
0
 40
1
 40
1
 40
1
 40
1
 10
26.784367
 20
21.588375
 30
0.0
 10
26.784367
 20
20.659487
 30
0.0
 10
26.288811
 20
19.801159
 30
0.0
 10
25.484370
 20
19.336714
 30
0.0
  0
SPLINE
  5
111
100
AcDbEntity
  8
Ebene_1
 62
5
100
AcDbSpline
 70
8
 71
3
 72
8
 73
4
 74
0
 40
0
 40
0
 40
0
 40
0
 40
1
 40
1
 40
1
 40
1
 10
25.484370
 20
19.336714
 30
0.0
 10
24.679929
 20
18.872270
 30
0.0
 10
23.688816
 20
18.872270
 30
0.0
 10
22.884375
 20
19.336714
 30
0.0
  0
SPLINE
  5
112
100
AcDbEntity
  8
Ebene_1
 62
5
100
AcDbSpline
 70
8
 71
3
 72
8
 73
4
 74
0
 40
0
 40
0
 40
0
 40
0
 40
1
 40
1
 40
1
 40
1
 10
22.884375
 20
19.336714
 30
0.0
 10
22.079934
 20
19.801159
 30
0.0
 10
21.584378
 20
20.659487
 30
0.0
 10
21.584378
 20
21.588375
 30
0.0
  0
LWPOLYLINE
  5
113
100
AcDbEntity
  8
Ebene_1
 62
5
100
AcDbPolyline
 90
1
 70
1
 10
8.532618
 20
116.868231
 30
0.0
  0
SPLINE
  5
114
100
AcDbEntity
  8
Ebene_1
 62
5
100
AcDbSpline
 70
8
 71
3
 72
8
 73
4
 74
0
 40
0
 40
0
 40
0
 40
0
 40
1
 40
1
 40
1
 40
1
 10
175.700435
 20
108.863534
 30
0.0
 10
175.700435
 20
109.792422
 30
0.0
 10
176.195991
 20
110.650750
 30
0.0
 10
177.000432
 20
111.115194
 30
0.0
  0
SPLINE
  5
115
100
AcDbEntity
  8
Ebene_1
 62
5
100
AcDbSpline
 70
8
 71
3
 72
8
 73
4
 74
0
 40
0
 40
0
 40
0
 40
0
 40
1
 40
1
 40
1
 40
1
 10
177.000432
 20
111.115194
 30
0.0
 10
177.804872
 20
111.579639
 30
0.0
 10
178.795984
 20
111.579639
 30
0.0
 10
179.600425
 20
111.115194
 30
0.0
  0
SPLINE
  5
116
100
AcDbEntity
  8
Ebene_1
 62
5
100
AcDbSpline
 70
8
 71
3
 72
8
 73
4
 74
0
 40
0
 40
0
 40
0
 40
0
 40
1
 40
1
 40
1
 40
1
 10
179.600425
 20
111.115194
 30
0.0
 10
180.404866
 20
110.650750
 30
0.0
 10
180.900422
 20
109.792422
 30
0.0
 10
180.900422
 20
108.863534
 30
0.0
  0
SPLINE
  5
117
100
AcDbEntity
  8
Ebene_1
 62
5
100
AcDbSpline
 70
8
 71
3
 72
8
 73
4
 74
0
 40
0
 40
0
 40
0
 40
0
 40
1
 40
1
 40
1
 40
1
 10
180.900422
 20
108.863534
 30
0.0
 10
180.900422
 20
107.934646
 30
0.0
 10
180.404866
 20
107.076318
 30
0.0
 10
179.600425
 20
106.611874
 30
0.0
  0
SPLINE
  5
118
100
AcDbEntity
  8
Ebene_1
 62
5
100
AcDbSpline
 70
8
 71
3
 72
8
 73
4
 74
0
 40
0
 40
0
 40
0
 40
0
 40
1
 40
1
 40
1
 40
1
 10
179.600425
 20
106.611874
 30
0.0
 10
178.795984
 20
106.147429
 30
0.0
 10
177.804872
 20
106.147429
 30
0.0
 10
177.000432
 20
106.611874
 30
0.0
  0
SPLINE
  5
119
100
AcDbEntity
  8
Ebene_1
 62
5
100
AcDbSpline
 70
8
 71
3
 72
8
 73
4
 74
0
 40
0
 40
0
 40
0
 40
0
 40
1
 40
1
 40
1
 40
1
 10
177.000432
 20
106.611874
 30
0.0
 10
176.195991
 20
107.076318
 30
0.0
 10
175.700435
 20
107.934646
 30
0.0
 10
175.700435
 20
108.863534
 30
0.0
  0
LWPOLYLINE
  5
11a
100
AcDbEntity
  8
Ebene_1
 62
5
100
AcDbPolyline
 90
1
 70
1
 10
21.584378
 20
21.588375
 30
0.0
  0
SPLINE
  5
11b
100
AcDbEntity
  8
Ebene_1
 62
5
100
AcDbSpline
 70
8
 71
3
 72
8
 73
4
 74
0
 40
0
 40
0
 40
0
 40
0
 40
1
 40
1
 40
1
 40
1
 10
175.718579
 20
57.863670
 30
0.0
 10
175.718579
 20
58.792558
 30
0.0
 10
176.214135
 20
59.650886
 30
0.0
 10
177.018576
 20
60.115330
 30
0.0
  0
SPLINE
  5
11c
100
AcDbEntity
  8
Ebene_1
 62
5
100
AcDbSpline
 70
8
 71
3
 72
8
 73
4
 74
0
 40
0
 40
0
 40
0
 40
0
 40
1
 40
1
 40
1
 40
1
 10
177.018576
 20
60.115330
 30
0.0
 10
177.823017
 20
60.579774
 30
0.0
 10
178.814129
 20
60.579774
 30
0.0
 10
179.618569
 20
60.115330
 30
0.0
  0
SPLINE
  5
11d
100
AcDbEntity
  8
Ebene_1
 62
5
100
AcDbSpline
 70
8
 71
3
 72
8
 73
4
 74
0
 40
0
 40
0
 40
0
 40
0
 40
1
 40
1
 40
1
 40
1
 10
179.618569
 20
60.115330
 30
0.0
 10
180.423010
 20
59.650886
 30
0.0
 10
180.918566
 20
58.792558
 30
0.0
 10
180.918566
 20
57.863670
 30
0.0
  0
SPLINE
  5
11e
100
AcDbEntity
  8
Ebene_1
 62
5
100
AcDbSpline
 70
8
 71
3
 72
8
 73
4
 74
0
 40
0
 40
0
 40
0
 40
0
 40
1
 40
1
 40
1
 40
1
 10
180.918566
 20
57.863670
 30
0.0
 10
180.918566
 20
56.934781
 30
0.0
 10
180.423010
 20
56.076453
 30
0.0
 10
179.618569
 20
55.612009
 30
0.0
  0
SPLINE
  5
11f
100
AcDbEntity
  8
Ebene_1
 62
5
100
AcDbSpline
 70
8
 71
3
 72
8
 73
4
 74
0
 40
0
 40
0
 40
0
 40
0
 40
1
 40
1
 40
1
 40
1
 10
179.618569
 20
55.612009
 30
0.0
 10
178.814129
 20
55.147565
 30
0.0
 10
177.823017
 20
55.147565
 30
0.0
 10
177.018576
 20
55.612009
 30
0.0
  0
SPLINE
  5
120
100
AcDbEntity
  8
Ebene_1
 62
5
100
AcDbSpline
 70
8
 71
3
 72
8
 73
4
 74
0
 40
0
 40
0
 40
0
 40
0
 40
1
 40
1
 40
1
 40
1
 10
177.018576
 20
55.612009
 30
0.0
 10
176.214135
 20
56.076453
 30
0.0
 10
175.718579
 20
56.934781
 30
0.0
 10
175.718579
 20
57.863670
 30
0.0
  0
LWPOLYLINE
  5
121
100
AcDbEntity
  8
Ebene_1
 62
5
100
AcDbPolyline
 90
1
 70
1
 10
175.700435
 20
108.863534
 30
0.0
  0
SPLINE
  5
122
100
AcDbEntity
  8
Ebene_1
 62
5
100
AcDbSpline
 70
8
 71
3
 72
8
 73
4
 74
0
 40
0
 40
0
 40
0
 40
0
 40
1
 40
1
 40
1
 40
1
 10
20.030706
 20
89.127628
 30
0.0
 10
20.030706
 20
89.520619
 30
0.0
 10
20.240365
 20
89.883758
 30
0.0
 10
20.580705
 20
90.080253
 30
0.0
  0
SPLINE
  5
123
100
AcDbEntity
  8
Ebene_1
 62
5
100
AcDbSpline
 70
8
 71
3
 72
8
 73
4
 74
0
 40
0
 40
0
 40
0
 40
0
 40
1
 40
1
 40
1
 40
1
 10
20.580705
 20
90.080253
 30
0.0
 10
20.921045
 20
90.276749
 30
0.0
 10
21.340362
 20
90.276749
 30
0.0
 10
21.680702
 20
90.080253
 30
0.0
  0
SPLINE
  5
124
100
AcDbEntity
  8
Ebene_1
 62
5
100
AcDbSpline
 70
8
 71
3
 72
8
 73
4
 74
0
 40
0
 40
0
 40
0
 40
0
 40
1
 40
1
 40
1
 40
1
 10
21.680702
 20
90.080253
 30
0.0
 10
22.021042
 20
89.883758
 30
0.0
 10
22.230701
 20
89.520619
 30
0.0
 10
22.230701
 20
89.127628
 30
0.0
  0
SPLINE
  5
125
100
AcDbEntity
  8
Ebene_1
 62
5
100
AcDbSpline
 70
8
 71
3
 72
8
 73
4
 74
0
 40
0
 40
0
 40
0
 40
0
 40
1
 40
1
 40
1
 40
1
 10
22.230701
 20
89.127628
 30
0.0
 10
22.230701
 20
88.734637
 30
0.0
 10
22.021042
 20
88.371498
 30
0.0
 10
21.680702
 20
88.175002
 30
0.0
  0
SPLINE
  5
126
100
AcDbEntity
  8
Ebene_1
 62
5
100
AcDbSpline
 70
8
 71
3
 72
8
 73
4
 74
0
 40
0
 40
0
 40
0
 40
0
 40
1
 40
1
 40
1
 40
1
 10
21.680702
 20
88.175002
 30
0.0
 10
21.340362
 20
87.978507
 30
0.0
 10
20.921045
 20
87.978507
 30
0.0
 10
20.580705
 20
88.175002
 30
0.0
  0
SPLINE
  5
127
100
AcDbEntity
  8
Ebene_1
 62
5
100
AcDbSpline
 70
8
 71
3
 72
8
 73
4
 74
0
 40
0
 40
0
 40
0
 40
0
 40
1
 40
1
 40
1
 40
1
 10
20.580705
 20
88.175002
 30
0.0
 10
20.240365
 20
88.371498
 30
0.0
 10
20.030706
 20
88.734637
 30
0.0
 10
20.030706
 20
89.127628
 30
0.0
  0
LWPOLYLINE
  5
128
100
AcDbEntity
  8
Ebene_1
 62
5
100
AcDbPolyline
 90
1
 70
1
 10
175.718579
 20
57.863670
 30
0.0
  0
SPLINE
  5
129
100
AcDbEntity
  8
Ebene_1
 62
5
100
AcDbSpline
 70
8
 71
3
 72
8
 73
4
 74
0
 40
0
 40
0
 40
0
 40
0
 40
1
 40
1
 40
1
 40
1
 10
21.824609
 20
131.702257
 30
0.0
 10
21.824416
 20
132.095376
 30
0.0
 10
22.034032
 20
132.458716
 30
0.0
 10
22.374451
 20
132.655332
 30
0.0
  0
SPLINE
  5
12a
100
AcDbEntity
  8
Ebene_1
 62
5
100
AcDbSpline
 70
8
 71
3
 72
8
 73
4
 74
0
 40
0
 40
0
 40
0
 40
0
 40
1
 40
1
 40
1
 40
1
 10
22.374451
 20
132.655332
 30
0.0
 10
22.714871
 20
132.851947
 30
0.0
 10
23.134341
 20
132.851947
 30
0.0
 10
23.474760
 20
132.655332
 30
0.0
  0
SPLINE
  5
12b
100
AcDbEntity
  8
Ebene_1
 62
5
100
AcDbSpline
 70
8
 71
3
 72
8
 73
4
 74
0
 40
0
 40
0
 40
0
 40
0
 40
1
 40
1
 40
1
 40
1
 10
23.474760
 20
132.655332
 30
0.0
 10
23.815180
 20
132.458716
 30
0.0
 10
24.024796
 20
132.095376
 30
0.0
 10
24.024603
 20
131.702257
 30
0.0
  0
SPLINE
  5
12c
100
AcDbEntity
  8
Ebene_1
 62
5
100
AcDbSpline
 70
8
 71
3
 72
8
 73
4
 74
0
 40
0
 40
0
 40
0
 40
0
 40
1
 40
1
 40
1
 40
1
 10
24.024603
 20
131.702257
 30
0.0
 10
24.024796
 20
131.309137
 30
0.0
 10
23.815180
 20
130.945797
 30
0.0
 10
23.474760
 20
130.749182
 30
0.0
  0
SPLINE
  5
12d
100
AcDbEntity
  8
Ebene_1
 62
5
100
AcDbSpline
 70
8
 71
3
 72
8
 73
4
 74
0
 40
0
 40
0
 40
0
 40
0
 40
1
 40
1
 40
1
 40
1
 10
23.474760
 20
130.749182
 30
0.0
 10
23.134341
 20
130.552566
 30
0.0
 10
22.714871
 20
130.552566
 30
0.0
 10
22.374451
 20
130.749182
 30
0.0
  0
SPLINE
  5
12e
100
AcDbEntity
  8
Ebene_1
 62
5
100
AcDbSpline
 70
8
 71
3
 72
8
 73
4
 74
0
 40
0
 40
0
 40
0
 40
0
 40
1
 40
1
 40
1
 40
1
 10
22.374451
 20
130.749182
 30
0.0
 10
22.034032
 20
130.945797
 30
0.0
 10
21.824416
 20
131.309137
 30
0.0
 10
21.824609
 20
131.702257
 30
0.0
  0
LWPOLYLINE
  5
12f
100
AcDbEntity
  8
Ebene_1
 62
5
100
AcDbPolyline
 90
1
 70
1
 10
20.030706
 20
89.127628
 30
0.0
  0
SPLINE
  5
130
100
AcDbEntity
  8
Ebene_1
 62
5
100
AcDbSpline
 70
8
 71
3
 72
8
 73
4
 74
0
 40
0
 40
0
 40
0
 40
0
 40
1
 40
1
 40
1
 40
1
 10
165.829556
 20
125.009850
 30
0.0
 10
165.829556
 20
125.402841
 30
0.0
 10
166.039214
 20
125.765980
 30
0.0
 10
166.379555
 20
125.962475
 30
0.0
  0
SPLINE
  5
131
100
AcDbEntity
  8
Ebene_1
 62
5
100
AcDbSpline
 70
8
 71
3
 72
8
 73
4
 74
0
 40
0
 40
0
 40
0
 40
0
 40
1
 40
1
 40
1
 40
1
 10
166.379555
 20
125.962475
 30
0.0
 10
166.719895
 20
126.158971
 30
0.0
 10
167.139212
 20
126.158971
 30
0.0
 10
167.479552
 20
125.962475
 30
0.0
  0
SPLINE
  5
132
100
AcDbEntity
  8
Ebene_1
 62
5
100
AcDbSpline
 70
8
 71
3
 72
8
 73
4
 74
0
 40
0
 40
0
 40
0
 40
0
 40
1
 40
1
 40
1
 40
1
 10
167.479552
 20
125.962475
 30
0.0
 10
167.819892
 20
125.765980
 30
0.0
 10
168.029550
 20
125.402841
 30
0.0
 10
168.029550
 20
125.009850
 30
0.0
  0
SPLINE
  5
133
100
AcDbEntity
  8
Ebene_1
 62
5
100
AcDbSpline
 70
8
 71
3
 72
8
 73
4
 74
0
 40
0
 40
0
 40
0
 40
0
 40
1
 40
1
 40
1
 40
1
 10
168.029550
 20
125.009850
 30
0.0
 10
168.029550
 20
124.616859
 30
0.0
 10
167.819892
 20
124.253720
 30
0.0
 10
167.479552
 20
124.057224
 30
0.0
  0
SPLINE
  5
134
100
AcDbEntity
  8
Ebene_1
 62
5
100
AcDbSpline
 70
8
 71
3
 72
8
 73
4
 74
0
 40
0
 40
0
 40
0
 40
0
 40
1
 40
1
 40
1
 40
1
 10
167.479552
 20
124.057224
 30
0.0
 10
167.139212
 20
123.860729
 30
0.0
 10
166.719895
 20
123.860729
 30
0.0
 10
166.379555
 20
124.057224
 30
0.0
  0
SPLINE
  5
135
100
AcDbEntity
  8
Ebene_1
 62
5
100
AcDbSpline
 70
8
 71
3
 72
8
 73
4
 74
0
 40
0
 40
0
 40
0
 40
0
 40
1
 40
1
 40
1
 40
1
 10
166.379555
 20
124.057224
 30
0.0
 10
166.039214
 20
124.253720
 30
0.0
 10
165.829556
 20
124.616859
 30
0.0
 10
165.829556
 20
125.009850
 30
0.0
  0
LWPOLYLINE
  5
136
100
AcDbEntity
  8
Ebene_1
 62
5
100
AcDbPolyline
 90
1
 70
1
 10
21.824609
 20
131.702257
 30
0.0
  0
SPLINE
  5
137
100
AcDbEntity
  8
Ebene_1
 62
5
100
AcDbSpline
 70
8
 71
3
 72
8
 73
4
 74
0
 40
0
 40
0
 40
0
 40
0
 40
1
 40
1
 40
1
 40
1
 10
165.702417
 20
40.772841
 30
0.0
 10
165.702417
 20
41.165832
 30
0.0
 10
165.912075
 20
41.528971
 30
0.0
 10
166.252416
 20
41.725467
 30
0.0
  0
SPLINE
  5
138
100
AcDbEntity
  8
Ebene_1
 62
5
100
AcDbSpline
 70
8
 71
3
 72
8
 73
4
 74
0
 40
0
 40
0
 40
0
 40
0
 40
1
 40
1
 40
1
 40
1
 10
166.252416
 20
41.725467
 30
0.0
 10
166.592756
 20
41.921962
 30
0.0
 10
167.012073
 20
41.921962
 30
0.0
 10
167.352413
 20
41.725467
 30
0.0
  0
SPLINE
  5
139
100
AcDbEntity
  8
Ebene_1
 62
5
100
AcDbSpline
 70
8
 71
3
 72
8
 73
4
 74
0
 40
0
 40
0
 40
0
 40
0
 40
1
 40
1
 40
1
 40
1
 10
167.352413
 20
41.725467
 30
0.0
 10
167.692753
 20
41.528971
 30
0.0
 10
167.902412
 20
41.165832
 30
0.0
 10
167.902412
 20
40.772841
 30
0.0
  0
SPLINE
  5
13a
100
AcDbEntity
  8
Ebene_1
 62
5
100
AcDbSpline
 70
8
 71
3
 72
8
 73
4
 74
0
 40
0
 40
0
 40
0
 40
0
 40
1
 40
1
 40
1
 40
1
 10
167.902412
 20
40.772841
 30
0.0
 10
167.902412
 20
40.379850
 30
0.0
 10
167.692753
 20
40.016711
 30
0.0
 10
167.352413
 20
39.820216
 30
0.0
  0
SPLINE
  5
13b
100
AcDbEntity
  8
Ebene_1
 62
5
100
AcDbSpline
 70
8
 71
3
 72
8
 73
4
 74
0
 40
0
 40
0
 40
0
 40
0
 40
1
 40
1
 40
1
 40
1
 10
167.352413
 20
39.820216
 30
0.0
 10
167.012073
 20
39.623720
 30
0.0
 10
166.592756
 20
39.623720
 30
0.0
 10
166.252416
 20
39.820216
 30
0.0
  0
SPLINE
  5
13c
100
AcDbEntity
  8
Ebene_1
 62
5
100
AcDbSpline
 70
8
 71
3
 72
8
 73
4
 74
0
 40
0
 40
0
 40
0
 40
0
 40
1
 40
1
 40
1
 40
1
 10
166.252416
 20
39.820216
 30
0.0
 10
165.912075
 20
40.016711
 30
0.0
 10
165.702417
 20
40.379850
 30
0.0
 10
165.702417
 20
40.772841
 30
0.0
  0
LWPOLYLINE
  5
13d
100
AcDbEntity
  8
Ebene_1
 62
5
100
AcDbPolyline
 90
1
 70
1
 10
165.829556
 20
125.009850
 30
0.0
  0
SPLINE
  5
13e
100
AcDbEntity
  8
Ebene_1
 62
5
100
AcDbSpline
 70
8
 71
3
 72
8
 73
4
 74
0
 40
0
 40
0
 40
0
 40
0
 40
1
 40
1
 40
1
 40
1
 10
40.353319
 20
14.153364
 30
0.0
 10
40.353127
 20
14.546484
 30
0.0
 10
40.562743
 20
14.909824
 30
0.0
 10
40.903162
 20
15.106440
 30
0.0
  0
SPLINE
  5
13f
100
AcDbEntity
  8
Ebene_1
 62
5
100
AcDbSpline
 70
8
 71
3
 72
8
 73
4
 74
0
 40
0
 40
0
 40
0
 40
0
 40
1
 40
1
 40
1
 40
1
 10
40.903162
 20
15.106440
 30
0.0
 10
41.243582
 20
15.303055
 30
0.0
 10
41.663051
 20
15.303055
 30
0.0
 10
42.003471
 20
15.106440
 30
0.0
  0
SPLINE
  5
140
100
AcDbEntity
  8
Ebene_1
 62
5
100
AcDbSpline
 70
8
 71
3
 72
8
 73
4
 74
0
 40
0
 40
0
 40
0
 40
0
 40
1
 40
1
 40
1
 40
1
 10
42.003471
 20
15.106440
 30
0.0
 10
42.343890
 20
14.909824
 30
0.0
 10
42.553506
 20
14.546484
 30
0.0
 10
42.553314
 20
14.153364
 30
0.0
  0
SPLINE
  5
141
100
AcDbEntity
  8
Ebene_1
 62
5
100
AcDbSpline
 70
8
 71
3
 72
8
 73
4
 74
0
 40
0
 40
0
 40
0
 40
0
 40
1
 40
1
 40
1
 40
1
 10
42.553314
 20
14.153364
 30
0.0
 10
42.553506
 20
13.760245
 30
0.0
 10
42.343890
 20
13.396905
 30
0.0
 10
42.003471
 20
13.200289
 30
0.0
  0
SPLINE
  5
142
100
AcDbEntity
  8
Ebene_1
 62
5
100
AcDbSpline
 70
8
 71
3
 72
8
 73
4
 74
0
 40
0
 40
0
 40
0
 40
0
 40
1
 40
1
 40
1
 40
1
 10
42.003471
 20
13.200289
 30
0.0
 10
41.663051
 20
13.003674
 30
0.0
 10
41.243582
 20
13.003674
 30
0.0
 10
40.903162
 20
13.200289
 30
0.0
  0
SPLINE
  5
143
100
AcDbEntity
  8
Ebene_1
 62
5
100
AcDbSpline
 70
8
 71
3
 72
8
 73
4
 74
0
 40
0
 40
0
 40
0
 40
0
 40
1
 40
1
 40
1
 40
1
 10
40.903162
 20
13.200289
 30
0.0
 10
40.562743
 20
13.396905
 30
0.0
 10
40.353127
 20
13.760245
 30
0.0
 10
40.353319
 20
14.153364
 30
0.0
  0
LWPOLYLINE
  5
144
100
AcDbEntity
  8
Ebene_1
 62
5
100
AcDbPolyline
 90
1
 70
1
 10
165.702417
 20
40.772841
 30
0.0
  0
LWPOLYLINE
  5
145
100
AcDbEntity
  8
Ebene_1
 62
5
100
AcDbPolyline
 90
1
 70
1
 10
40.353319
 20
14.153364
 30
0.0
  0
SPLINE
  5
146
100
AcDbEntity
  8
Ebene_1
 62
5
100
AcDbSpline
 70
8
 71
3
 72
8
 73
4
 74
0
 40
0
 40
0
 40
0
 40
0
 40
1
 40
1
 40
1
 40
1
 10
17.130714
 20
50.239199
 30
0.0
 10
17.127431
 20
48.116103
 30
0.0
 10
17.596137
 20
46.018825
 30
0.0
 10
18.502919
 20
44.099114
 30
0.0
  0
LWPOLYLINE
  5
147
100
AcDbEntity
  8
Ebene_1
 62
5
100
AcDbPolyline
 90
2
 70
0
 10
17.130714
 20
105.641864
 30
0.0
 10
17.130714
 20
50.239199
 30
0.0
  0
SPLINE
  5
148
100
AcDbEntity
  8
Ebene_1
 62
5
100
AcDbSpline
 70
8
 71
3
 72
8
 73
4
 74
0
 40
0
 40
0
 40
0
 40
0
 40
1
 40
1
 40
1
 40
1
 10
23.948662
 20
34.331973
 30
0.0
 10
25.183290
 20
31.562419
 30
0.0
 10
24.060089
 20
28.309898
 30
0.0
 10
21.379530
 20
26.892385
 30
0.0
  0
SPLINE
  5
149
100
AcDbEntity
  8
Ebene_1
 62
5
100
AcDbSpline
 70
8
 71
3
 72
8
 73
4
 74
0
 40
0
 40
0
 40
0
 40
0
 40
1
 40
1
 40
1
 40
1
 10
21.379530
 20
26.892385
 30
0.0
 10
19.469863
 20
25.882815
 30
0.0
 10
18.250279
 20
23.924660
 30
0.0
 10
18.186387
 20
21.765499
 30
0.0
  0
SPLINE
  5
14a
100
AcDbEntity
  8
Ebene_1
 62
5
100
AcDbSpline
 70
8
 71
3
 72
8
 73
4
 74
0
 40
0
 40
0
 40
0
 40
0
 40
1
 40
1
 40
1
 40
1
 10
18.186387
 20
21.765499
 30
0.0
 10
18.122494
 20
19.606338
 30
0.0
 10
19.224156
 20
17.579495
 30
0.0
 10
21.070785
 20
16.458771
 30
0.0
  0
SPLINE
  5
14b
100
AcDbEntity
  8
Ebene_1
 62
5
100
AcDbSpline
 70
8
 71
3
 72
8
 73
4
 74
0
 40
0
 40
0
 40
0
 40
0
 40
1
 40
1
 40
1
 40
1
 10
21.070785
 20
16.458771
 30
0.0
 10
22.917414
 20
15.338047
 30
0.0
 10
25.223931
 20
15.296456
 30
0.0
 10
27.109764
 20
16.349877
 30
0.0
  0
SPLINE
  5
14c
100
AcDbEntity
  8
Ebene_1
 62
5
100
AcDbSpline
 70
8
 71
3
 72
8
 73
4
 74
0
 40
0
 40
0
 40
0
 40
0
 40
1
 40
1
 40
1
 40
1
 10
27.109764
 20
16.349877
 30
0.0
 10
29.728639
 20
17.812357
 30
0.0
 10
33.023401
 20
17.138686
 30
0.0
 10
34.858030
 20
14.765609
 30
0.0
  0
LWPOLYLINE
  5
14d
100
AcDbEntity
  8
Ebene_1
 62
5
100
AcDbPolyline
 90
2
 70
0
 10
18.502919
 20
44.099114
 30
0.0
 10
23.948662
 20
34.331973
 30
0.0
  0
SPLINE
  5
14e
100
AcDbEntity
  8
Ebene_1
 62
5
100
AcDbSpline
 70
8
 71
3
 72
8
 73
4
 74
0
 40
0
 40
0
 40
0
 40
0
 40
1
 40
1
 40
1
 40
1
 10
34.886790
 20
14.714015
 30
0.0
 10
37.304669
 20
10.518345
 30
0.0
 10
42.439519
 20
8.738728
 30
0.0
 10
46.935213
 20
10.538319
 30
0.0
  0
LWPOLYLINE
  5
14f
100
AcDbEntity
  8
Ebene_1
 62
5
100
AcDbPolyline
 90
2
 70
0
 10
34.858030
 20
14.765609
 30
0.0
 10
34.886790
 20
14.714015
 30
0.0
  0
SPLINE
  5
150
100
AcDbEntity
  8
Ebene_1
 62
5
100
AcDbSpline
 70
8
 71
3
 72
8
 73
4
 74
0
 40
0
 40
0
 40
0
 40
0
 40
1
 40
1
 40
1
 40
1
 10
79.263571
 20
23.479110
 30
0.0
 10
79.467421
 20
23.560713
 30
0.0
 10
79.684978
 20
23.602642
 30
0.0
 10
79.904554
 20
23.602643
 30
0.0
  0
LWPOLYLINE
  5
151
100
AcDbEntity
  8
Ebene_1
 62
5
100
AcDbPolyline
 90
2
 70
0
 10
46.935213
 20
10.538319
 30
0.0
 10
79.263571
 20
23.479110
 30
0.0
  0
SPLINE
  5
152
100
AcDbEntity
  8
Ebene_1
 62
5
100
AcDbSpline
 70
8
 71
3
 72
8
 73
4
 74
0
 40
0
 40
0
 40
0
 40
0
 40
1
 40
1
 40
1
 40
1
 10
94.960877
 20
23.602643
 30
0.0
 10
95.457717
 20
23.602658
 30
0.0
 10
95.952261
 20
23.535254
 30
0.0
 10
96.430975
 20
23.402275
 30
0.0
  0
LWPOLYLINE
  5
153
100
AcDbEntity
  8
Ebene_1
 62
5
100
AcDbPolyline
 90
2
 70
0
 10
79.904554
 20
23.602643
 30
0.0
 10
94.960877
 20
23.602643
 30
0.0
  0
SPLINE
  5
154
100
AcDbEntity
  8
Ebene_1
 62
5
100
AcDbSpline
 70
8
 71
3
 72
8
 73
4
 74
0
 40
0
 40
0
 40
0
 40
0
 40
1
 40
1
 40
1
 40
1
 10
111.986790
 20
19.081084
 30
0.0
 10
113.726851
 20
18.597622
 30
0.0
 10
115.524474
 20
18.352543
 30
0.0
 10
117.330450
 20
18.352556
 30
0.0
  0
LWPOLYLINE
  5
155
100
AcDbEntity
  8
Ebene_1
 62
5
100
AcDbPolyline
 90
2
 70
0
 10
96.430975
 20
23.402275
 30
0.0
 10
111.986790
 20
19.081084
 30
0.0
  0
SPLINE
  5
156
100
AcDbEntity
  8
Ebene_1
 62
5
100
AcDbSpline
 70
8
 71
3
 72
8
 73
4
 74
0
 40
0
 40
0
 40
0
 40
0
 40
1
 40
1
 40
1
 40
1
 10
133.451395
 20
18.352556
 30
0.0
 10
136.832189
 20
18.353745
 30
0.0
 10
139.968043
 20
20.116550
 30
0.0
 10
141.726220
 20
23.004210
 30
0.0
  0
LWPOLYLINE
  5
157
100
AcDbEntity
  8
Ebene_1
 62
5
100
AcDbPolyline
 90
2
 70
0
 10
117.330450
 20
18.352556
 30
0.0
 10
133.451395
 20
18.352556
 30
0.0
  0
SPLINE
  5
158
100
AcDbEntity
  8
Ebene_1
 62
5
100
AcDbSpline
 70
8
 71
3
 72
8
 73
4
 74
0
 40
0
 40
0
 40
0
 40
0
 40
1
 40
1
 40
1
 40
1
 10
147.733073
 20
32.869916
 30
0.0
 10
148.066430
 20
33.417420
 30
0.0
 10
148.642018
 20
33.771964
 30
0.0
 10
149.280958
 20
33.823366
 30
0.0
  0
LWPOLYLINE
  5
159
100
AcDbEntity
  8
Ebene_1
 62
5
100
AcDbPolyline
 90
2
 70
0
 10
141.726220
 20
23.004210
 30
0.0
 10
147.733073
 20
32.869916
 30
0.0
  0
SPLINE
  5
15a
100
AcDbEntity
  8
Ebene_1
 62
5
100
AcDbSpline
 70
8
 71
3
 72
8
 73
4
 74
0
 40
0
 40
0
 40
0
 40
0
 40
1
 40
1
 40
1
 40
1
 10
163.365346
 20
34.956468
 30
0.0
 10
168.426200
 20
35.363855
 30
0.0
 10
172.325086
 20
39.590710
 30
0.0
 10
172.323282
 20
44.667935
 30
0.0
  0
LWPOLYLINE
  5
15b
100
AcDbEntity
  8
Ebene_1
 62
5
100
AcDbPolyline
 90
2
 70
0
 10
149.280958
 20
33.823366
 30
0.0
 10
163.365346
 20
34.956468
 30
0.0
  0
SPLINE
  5
15c
100
AcDbEntity
  8
Ebene_1
 62
5
100
AcDbSpline
 70
8
 71
3
 72
8
 73
4
 74
0
 40
0
 40
0
 40
0
 40
0
 40
1
 40
1
 40
1
 40
1
 10
172.322604
 20
46.572483
 30
0.0
 10
172.705682
 20
49.593402
 30
0.0
 10
175.273464
 20
51.859366
 30
0.0
 10
178.318573
 20
51.863681
 30
0.0
  0
LWPOLYLINE
  5
15d
100
AcDbEntity
  8
Ebene_1
 62
5
100
AcDbPolyline
 90
2
 70
0
 10
172.323282
 20
44.667935
 30
0.0
 10
172.322604
 20
46.572483
 30
0.0
  0
SPLINE
  5
15e
100
AcDbEntity
  8
Ebene_1
 62
5
100
AcDbSpline
 70
8
 71
3
 72
8
 73
4
 74
0
 40
0
 40
0
 40
0
 40
0
 40
1
 40
1
 40
1
 40
1
 10
178.322843
 20
51.863686
 30
0.0
 10
181.635228
 20
51.866722
 30
0.0
 10
184.318507
 20
54.553417
 30
0.0
 10
184.317328
 20
57.865804
 30
0.0
  0
SPLINE
  5
15f
100
AcDbEntity
  8
Ebene_1
 62
5
100
AcDbSpline
 70
8
 71
3
 72
8
 73
4
 74
0
 40
0
 40
0
 40
0
 40
0
 40
1
 40
1
 40
1
 40
1
 10
184.317328
 20
57.865804
 30
0.0
 10
184.316149
 20
61.178190
 30
0.0
 10
181.630959
 20
63.862975
 30
0.0
 10
178.318573
 20
63.863653
 30
0.0
  0
SPLINE
  5
160
100
AcDbEntity
  8
Ebene_1
 62
5
100
AcDbSpline
 70
8
 71
3
 72
8
 73
4
 74
0
 40
0
 40
0
 40
0
 40
0
 40
1
 40
1
 40
1
 40
1
 10
178.318573
 20
63.863653
 30
0.0
 10
175.271835
 20
63.863653
 30
0.0
 10
172.700003
 20
66.128327
 30
0.0
 10
172.314572
 20
69.150586
 30
0.0
  0
LWPOLYLINE
  5
161
100
AcDbEntity
  8
Ebene_1
 62
5
100
AcDbPolyline
 90
2
 70
0
 10
178.318573
 20
51.863681
 30
0.0
 10
178.322843
 20
51.863686
 30
0.0
  0
SPLINE
  5
162
100
AcDbEntity
  8
Ebene_1
 62
5
100
AcDbSpline
 70
8
 71
3
 72
8
 73
4
 74
0
 40
0
 40
0
 40
0
 40
0
 40
1
 40
1
 40
1
 40
1
 10
172.304454
 20
97.588950
 30
0.0
 10
172.695275
 20
100.604090
 30
0.0
 10
175.262200
 20
102.861385
 30
0.0
 10
178.302563
 20
102.863548
 30
0.0
  0
SPLINE
  5
163
100
AcDbEntity
  8
Ebene_1
 62
5
100
AcDbSpline
 70
8
 71
3
 72
8
 73
4
 74
0
 40
0
 40
0
 40
0
 40
0
 40
1
 40
1
 40
1
 40
1
 10
178.302563
 20
102.863548
 30
0.0
 10
181.616263
 20
102.864727
 30
0.0
 10
184.301592
 20
105.551968
 30
0.0
 10
184.300412
 20
108.865668
 30
0.0
  0
SPLINE
  5
164
100
AcDbEntity
  8
Ebene_1
 62
5
100
AcDbSpline
 70
8
 71
3
 72
8
 73
4
 74
0
 40
0
 40
0
 40
0
 40
0
 40
1
 40
1
 40
1
 40
1
 10
184.300412
 20
108.865668
 30
0.0
 10
184.299233
 20
112.179368
 30
0.0
 10
181.611993
 20
114.864697
 30
0.0
 10
178.298293
 20
114.863517
 30
0.0
  0
SPLINE
  5
165
100
AcDbEntity
  8
Ebene_1
 62
5
100
AcDbSpline
 70
8
 71
3
 72
8
 73
4
 74
0
 40
0
 40
0
 40
0
 40
0
 40
1
 40
1
 40
1
 40
1
 10
178.298293
 20
114.863517
 30
0.0
 10
175.257928
 20
114.863517
 30
0.0
 10
172.689398
 20
117.118986
 30
0.0
 10
172.296432
 20
120.133848
 30
0.0
  0
LWPOLYLINE
  5
166
100
AcDbEntity
  8
Ebene_1
 62
5
100
AcDbPolyline
 90
2
 70
0
 10
172.314572
 20
69.150586
 30
0.0
 10
172.304454
 20
97.588950
 30
0.0
  0
SPLINE
  5
167
100
AcDbEntity
  8
Ebene_1
 62
5
100
AcDbSpline
 70
8
 71
3
 72
8
 73
4
 74
0
 40
0
 40
0
 40
0
 40
0
 40
1
 40
1
 40
1
 40
1
 10
172.296018
 20
121.299613
 30
0.0
 10
172.294443
 20
126.070623
 30
0.0
 10
168.833421
 20
130.136526
 30
0.0
 10
164.123890
 20
130.899979
 30
0.0
  0
LWPOLYLINE
  5
168
100
AcDbEntity
  8
Ebene_1
 62
5
100
AcDbPolyline
 90
2
 70
0
 10
172.296432
 20
120.133848
 30
0.0
 10
172.296018
 20
121.299613
 30
0.0
  0
SPLINE
  5
169
100
AcDbEntity
  8
Ebene_1
 62
5
100
AcDbSpline
 70
8
 71
3
 72
8
 73
4
 74
0
 40
0
 40
0
 40
0
 40
0
 40
1
 40
1
 40
1
 40
1
 10
128.124377
 20
136.735783
 30
0.0
 10
126.246351
 20
137.040226
 30
0.0
 10
124.346888
 20
137.193188
 30
0.0
 10
122.444346
 20
137.193191
 30
0.0
  0
LWPOLYLINE
  5
16a
100
AcDbEntity
  8
Ebene_1
 62
5
100
AcDbPolyline
 90
2
 70
0
 10
164.123890
 20
130.899979
 30
0.0
 10
128.124377
 20
136.735783
 30
0.0
  0
SPLINE
  5
16b
100
AcDbEntity
  8
Ebene_1
 62
5
100
AcDbSpline
 70
8
 71
3
 72
8
 73
4
 74
0
 40
0
 40
0
 40
0
 40
0
 40
1
 40
1
 40
1
 40
1
 10
26.740181
 20
137.193191
 30
0.0
 10
21.653566
 20
137.193191
 30
0.0
 10
17.444560
 20
133.236344
 30
0.0
 10
17.130714
 20
128.159421
 30
0.0
  0
SPLINE
  5
16c
100
AcDbEntity
  8
Ebene_1
 62
5
100
AcDbSpline
 70
8
 71
3
 72
8
 73
4
 74
0
 40
0
 40
0
 40
0
 40
0
 40
1
 40
1
 40
1
 40
1
 10
17.130714
 20
128.159421
 30
0.0
 10
16.747432
 20
125.136888
 30
0.0
 10
14.177213
 20
122.870385
 30
0.0
 10
11.130476
 20
122.868217
 30
0.0
  0
SPLINE
  5
16d
100
AcDbEntity
  8
Ebene_1
 62
5
100
AcDbSpline
 70
8
 71
3
 72
8
 73
4
 74
0
 40
0
 40
0
 40
0
 40
0
 40
1
 40
1
 40
1
 40
1
 10
11.130476
 20
122.868217
 30
0.0
 10
8.986888
 20
122.867456
 30
0.0
 10
7.006537
 20
121.723163
 30
0.0
 10
5.935402
 20
119.866380
 30
0.0
  0
SPLINE
  5
16e
100
AcDbEntity
  8
Ebene_1
 62
5
100
AcDbSpline
 70
8
 71
3
 72
8
 73
4
 74
0
 40
0
 40
0
 40
0
 40
0
 40
1
 40
1
 40
1
 40
1
 10
5.935402
 20
119.866380
 30
0.0
 10
4.864267
 20
118.009598
 30
0.0
 10
4.865079
 20
115.722417
 30
0.0
 10
5.937532
 20
113.866396
 30
0.0
  0
SPLINE
  5
16f
100
AcDbEntity
  8
Ebene_1
 62
5
100
AcDbSpline
 70
8
 71
3
 72
8
 73
4
 74
0
 40
0
 40
0
 40
0
 40
0
 40
1
 40
1
 40
1
 40
1
 10
5.937532
 20
113.866396
 30
0.0
 10
7.009985
 20
112.010374
 30
0.0
 10
8.991148
 20
110.867487
 30
0.0
 10
11.134736
 20
110.868248
 30
0.0
  0
SPLINE
  5
170
100
AcDbEntity
  8
Ebene_1
 62
5
100
AcDbSpline
 70
8
 71
3
 72
8
 73
4
 74
0
 40
0
 40
0
 40
0
 40
0
 40
1
 40
1
 40
1
 40
1
 10
11.134736
 20
110.868248
 30
0.0
 10
14.158233
 20
110.868247
 30
0.0
 10
16.717965
 20
108.637058
 30
0.0
 10
17.130703
 20
105.641864
 30
0.0
  0
LWPOLYLINE
  5
171
100
AcDbEntity
  8
Ebene_1
 62
5
100
AcDbPolyline
 90
2
 70
0
 10
122.444346
 20
137.193191
 30
0.0
 10
26.740181
 20
137.193191
 30
0.0
  0
LWPOLYLINE
  5
172
100
AcDbEntity
  8
Ebene_1
 62
5
100
AcDbPolyline
 90
1
 70
1
 10
17.130703
 20
105.641864
 30
0.0
  0
ENDSEC
  0
SECTION
  2
OBJECTS
  0
DICTIONARY
  5
C
330
0
100
AcDbDictionary
  3
ACAD_GROUP
350
D
  3
ACAD_MLINESTYLE
350
17
  0
DICTIONARY
  5
D
330
C
100
AcDbDictionary
  0
DICTIONARY
  5
1A
330
C
100
AcDbDictionary
  0
DICTIONARY
  5
17
330
C
100
AcDbDictionary
  3
STANDARD
350
18
  0
DICTIONARY
  5
19
330
C
100
AcDbDictionary
  0
ENDSEC
  0
EOF
