  0
SECTION
  2
HEADER
  9
$ACADVER
  1
AC1014
  9
$HANDSEED
  5
FFFF
  9
$MEASUREMENT
 70
     1
  0
ENDSEC
  0
SECTION
  2
TABLES
  0
TABLE
  2
VPORT
  5
8
330
0
100
AcDbSymbolTable
 70
     4
  0
VPORT
  5
2E
330
8
100
AcDbSymbolTableRecord
100
AcDbViewportTableRecord
  2
*ACTIVE
 70
     0
 10
0.0
 20
0.0
 11
1.0
 21
1.0
 12
210.0
 22
148.5
 13
0.0
 23
0.0
 14
10.0
 24
10.0
 15
10.0
 25
10.0
 16
0.0
 26
0.0
 36
1.0
 17
0.0
 27
0.0
 37
0.0
 40
341.0
 41
1.24
 42
50.0
 43
0.0
 44
0.0
 50
0.0
 51
0.0
 71
     0
 72
   100
 73
     1
 74
     3
 75
     0
 76
     0
 77
     0
 78
     0
  0
ENDTAB
  0
TABLE
  2
LTYPE
  5
5
330
0
100
AcDbSymbolTable
 70
     1
  0
LTYPE
  5
14
330
5
100
AcDbSymbolTableRecord
100
AcDbLinetypeTableRecord
  2
BYBLOCK
 70
     0
  3

 72
    65
 73
     0
 40
0.0
  0
LTYPE
  5
15
330
5
100
AcDbSymbolTableRecord
100
AcDbLinetypeTableRecord
  2
BYLAYER
 70
     0
  3

 72
    65
 73
     0
 40
0.0
  0
LTYPE
  5
16
330
5
100
AcDbSymbolTableRecord
100
AcDbLinetypeTableRecord
  2
CONTINUOUS
 70
     0
  3
Solid line
 72
    65
 73
     0
 40
0.0
  0
ENDTAB
  0
TABLE
  2
LAYER
  5
2
100
AcDbSymbolTable
 70
2
  0
LAYER
  5
50
100
AcDbSymbolTableRecord
100
AcDbLayerTableRecord
  2
0
 70
0
  6
CONTINUOUS
  0
LAYER
  5
51
100
AcDbSymbolTableRecord
100
AcDbLayerTableRecord
  2
Ebene_1
 70
0
  6
CONTINUOUS
  0
ENDTAB
  0
TABLE
  2
STYLE
  5
3
330
0
100
AcDbSymbolTable
 70
     1
  0
STYLE
  5
11
330
3
100
AcDbSymbolTableRecord
100
AcDbTextStyleTableRecord
  2
STANDARD
 70
     0
 40
0.0
 41
1.0
 50
0.0
 71
     0
 42
2.5
  3
txt
  4

  0
ENDTAB
  0
TABLE
  2
VIEW
  5
6
330
0
100
AcDbSymbolTable
 70
     0
  0
ENDTAB
  0
TABLE
  2
UCS
  5
7
330
0
100
AcDbSymbolTable
 70
     0
  0
ENDTAB
  0
TABLE
  2
APPID
  5
9
330
0
100
AcDbSymbolTable
 70
     2
  0
APPID
  5
12
330
9
100
AcDbSymbolTableRecord
100
AcDbRegAppTableRecord
  2
ACAD
 70
     0
  0
ENDTAB
  0
TABLE
  2
DIMSTYLE
  5
A
330
0
100
AcDbSymbolTable
 70
     1
  0
DIMSTYLE
105
27
330
A
100
AcDbSymbolTableRecord
100
AcDbDimStyleTableRecord
  2
ISO-25
 70
     0
  3

  4

  5

  6

  7

 40
1.0
 41
2.5
 42
0.625
 43
3.75
 44
1.25
 45
0.0
 46
0.0
 47
0.0
 48
0.0
140
2.5
141
2.5
142
0.0
143
0.03937007874016
144
1.0
145
0.0
146
1.0
147
0.625
 71
     0
 72
     0
 73
     0
 74
     0
 75
     0
 76
     0
 77
     1
 78
     8
170
     0
171
     3
172
     1
173
     0
174
     0
175
     0
176
     0
177
     0
178
     0
270
     2
271
     2
272
     2
273
     2
274
     3
340
11
275
     0
280
     0
281
     0
282
     0
283
     0
284
     8
285
     0
286
     0
287
     3
288
     0
  0
ENDTAB
  0
TABLE
  2
BLOCK_RECORD
  5
1
330
0
100
AcDbSymbolTable
 70
     1
  0
BLOCK_RECORD
  5
1F
330
1
100
AcDbSymbolTableRecord
100
AcDbBlockTableRecord
  2
*MODEL_SPACE
  0
BLOCK_RECORD
  5
1B
330
1
100
AcDbSymbolTableRecord
100
AcDbBlockTableRecord
  2
*PAPER_SPACE
  0
ENDTAB
  0
ENDSEC
  0
SECTION
  2
BLOCKS
  0
BLOCK
  5
20
330
1F
100
AcDbEntity
  8
0
100
AcDbBlockBegin
  2
*MODEL_SPACE
 70
     0
 10
0.0
 20
0.0
 30
0.0
  3
*MODEL_SPACE
  1

  0
ENDBLK
  5
21
330
1F
100
AcDbEntity
  8
0
100
AcDbBlockEnd
  0
BLOCK
  5
1C
330
1B
100
AcDbEntity
 67
     1
  8
0
100
AcDbBlockBegin
  2
*PAPER_SPACE
  1

  0
ENDBLK
  5
1D
330
1B
100
AcDbEntity
 67
     1
  8
0
100
AcDbBlockEnd
  0
ENDSEC
  0
SECTION
  2
ENTITIES
  0
SPLINE
  5
100
100
AcDbEntity
  8
Ebene_1
 62
5
100
AcDbSpline
 70
8
 71
3
 72
8
 73
4
 74
0
 40
0
 40
0
 40
0
 40
0
 40
1
 40
1
 40
1
 40
1
 10
51.154156
 20
128.485431
 30
0.0
 10
51.154156
 20
129.217825
 30
0.0
 10
51.544883
 20
129.894584
 30
0.0
 10
52.179155
 20
130.260781
 30
0.0
  0
SPLINE
  5
101
100
AcDbEntity
  8
Ebene_1
 62
5
100
AcDbSpline
 70
8
 71
3
 72
8
 73
4
 74
0
 40
0
 40
0
 40
0
 40
0
 40
1
 40
1
 40
1
 40
1
 10
52.179155
 20
130.260781
 30
0.0
 10
52.813426
 20
130.626978
 30
0.0
 10
53.594881
 20
130.626978
 30
0.0
 10
54.229152
 20
130.260781
 30
0.0
  0
SPLINE
  5
102
100
AcDbEntity
  8
Ebene_1
 62
5
100
AcDbSpline
 70
8
 71
3
 72
8
 73
4
 74
0
 40
0
 40
0
 40
0
 40
0
 40
1
 40
1
 40
1
 40
1
 10
54.229152
 20
130.260781
 30
0.0
 10
54.863423
 20
129.894584
 30
0.0
 10
55.254151
 20
129.217825
 30
0.0
 10
55.254151
 20
128.485431
 30
0.0
  0
SPLINE
  5
103
100
AcDbEntity
  8
Ebene_1
 62
5
100
AcDbSpline
 70
8
 71
3
 72
8
 73
4
 74
0
 40
0
 40
0
 40
0
 40
0
 40
1
 40
1
 40
1
 40
1
 10
55.254151
 20
128.485431
 30
0.0
 10
55.254151
 20
127.753038
 30
0.0
 10
54.863423
 20
127.076278
 30
0.0
 10
54.229152
 20
126.710081
 30
0.0
  0
SPLINE
  5
104
100
AcDbEntity
  8
Ebene_1
 62
5
100
AcDbSpline
 70
8
 71
3
 72
8
 73
4
 74
0
 40
0
 40
0
 40
0
 40
0
 40
1
 40
1
 40
1
 40
1
 10
54.229152
 20
126.710081
 30
0.0
 10
53.594881
 20
126.343885
 30
0.0
 10
52.813426
 20
126.343885
 30
0.0
 10
52.179155
 20
126.710081
 30
0.0
  0
SPLINE
  5
105
100
AcDbEntity
  8
Ebene_1
 62
5
100
AcDbSpline
 70
8
 71
3
 72
8
 73
4
 74
0
 40
0
 40
0
 40
0
 40
0
 40
1
 40
1
 40
1
 40
1
 10
52.179155
 20
126.710081
 30
0.0
 10
51.544883
 20
127.076278
 30
0.0
 10
51.154156
 20
127.753038
 30
0.0
 10
51.154156
 20
128.485431
 30
0.0
  0
SPLINE
  5
106
100
AcDbEntity
  8
Ebene_1
 62
5
100
AcDbSpline
 70
8
 71
3
 72
8
 73
4
 74
0
 40
0
 40
0
 40
0
 40
0
 40
1
 40
1
 40
1
 40
1
 10
8.531874
 20
112.160441
 30
0.0
 10
8.531243
 20
113.089751
 30
0.0
 10
9.026661
 20
113.948739
 30
0.0
 10
9.831362
 20
114.413577
 30
0.0
  0
SPLINE
  5
107
100
AcDbEntity
  8
Ebene_1
 62
5
100
AcDbSpline
 70
8
 71
3
 72
8
 73
4
 74
0
 40
0
 40
0
 40
0
 40
0
 40
1
 40
1
 40
1
 40
1
 10
9.831362
 20
114.413577
 30
0.0
 10
10.636063
 20
114.878414
 30
0.0
 10
11.627678
 20
114.878414
 30
0.0
 10
12.432379
 20
114.413577
 30
0.0
  0
SPLINE
  5
108
100
AcDbEntity
  8
Ebene_1
 62
5
100
AcDbSpline
 70
8
 71
3
 72
8
 73
4
 74
0
 40
0
 40
0
 40
0
 40
0
 40
1
 40
1
 40
1
 40
1
 10
12.432379
 20
114.413577
 30
0.0
 10
13.237080
 20
113.948739
 30
0.0
 10
13.732498
 20
113.089751
 30
0.0
 10
13.731867
 20
112.160441
 30
0.0
  0
SPLINE
  5
109
100
AcDbEntity
  8
Ebene_1
 62
5
100
AcDbSpline
 70
8
 71
3
 72
8
 73
4
 74
0
 40
0
 40
0
 40
0
 40
0
 40
1
 40
1
 40
1
 40
1
 10
13.731867
 20
112.160441
 30
0.0
 10
13.732498
 20
111.231132
 30
0.0
 10
13.237080
 20
110.372144
 30
0.0
 10
12.432379
 20
109.907306
 30
0.0
  0
SPLINE
  5
10a
100
AcDbEntity
  8
Ebene_1
 62
5
100
AcDbSpline
 70
8
 71
3
 72
8
 73
4
 74
0
 40
0
 40
0
 40
0
 40
0
 40
1
 40
1
 40
1
 40
1
 10
12.432379
 20
109.907306
 30
0.0
 10
11.627678
 20
109.442469
 30
0.0
 10
10.636063
 20
109.442469
 30
0.0
 10
9.831362
 20
109.907306
 30
0.0
  0
SPLINE
  5
10b
100
AcDbEntity
  8
Ebene_1
 62
5
100
AcDbSpline
 70
8
 71
3
 72
8
 73
4
 74
0
 40
0
 40
0
 40
0
 40
0
 40
1
 40
1
 40
1
 40
1
 10
9.831362
 20
109.907306
 30
0.0
 10
9.026661
 20
110.372144
 30
0.0
 10
8.531243
 20
111.231132
 30
0.0
 10
8.531874
 20
112.160441
 30
0.0
  0
LWPOLYLINE
  5
10c
100
AcDbEntity
  8
Ebene_1
 62
5
100
AcDbPolyline
 90
1
 70
1
 10
51.154156
 20
128.485431
 30
0.0
  0
SPLINE
  5
10d
100
AcDbEntity
  8
Ebene_1
 62
5
100
AcDbSpline
 70
8
 71
3
 72
8
 73
4
 74
0
 40
0
 40
0
 40
0
 40
0
 40
1
 40
1
 40
1
 40
1
 10
21.583650
 20
16.880469
 30
0.0
 10
21.583650
 20
17.809359
 30
0.0
 10
22.079207
 20
18.667688
 30
0.0
 10
22.883649
 20
19.132133
 30
0.0
  0
SPLINE
  5
10e
100
AcDbEntity
  8
Ebene_1
 62
5
100
AcDbSpline
 70
8
 71
3
 72
8
 73
4
 74
0
 40
0
 40
0
 40
0
 40
0
 40
1
 40
1
 40
1
 40
1
 10
22.883649
 20
19.132133
 30
0.0
 10
23.688091
 20
19.596578
 30
0.0
 10
24.679205
 20
19.596578
 30
0.0
 10
25.483647
 20
19.132133
 30
0.0
  0
SPLINE
  5
10f
100
AcDbEntity
  8
Ebene_1
 62
5
100
AcDbSpline
 70
8
 71
3
 72
8
 73
4
 74
0
 40
0
 40
0
 40
0
 40
0
 40
1
 40
1
 40
1
 40
1
 10
25.483647
 20
19.132133
 30
0.0
 10
26.288089
 20
18.667688
 30
0.0
 10
26.783646
 20
17.809359
 30
0.0
 10
26.783646
 20
16.880469
 30
0.0
  0
SPLINE
  5
110
100
AcDbEntity
  8
Ebene_1
 62
5
100
AcDbSpline
 70
8
 71
3
 72
8
 73
4
 74
0
 40
0
 40
0
 40
0
 40
0
 40
1
 40
1
 40
1
 40
1
 10
26.783646
 20
16.880469
 30
0.0
 10
26.783646
 20
15.951579
 30
0.0
 10
26.288089
 20
15.093250
 30
0.0
 10
25.483647
 20
14.628805
 30
0.0
  0
SPLINE
  5
111
100
AcDbEntity
  8
Ebene_1
 62
5
100
AcDbSpline
 70
8
 71
3
 72
8
 73
4
 74
0
 40
0
 40
0
 40
0
 40
0
 40
1
 40
1
 40
1
 40
1
 10
25.483647
 20
14.628805
 30
0.0
 10
24.679205
 20
14.164360
 30
0.0
 10
23.688091
 20
14.164360
 30
0.0
 10
22.883649
 20
14.628805
 30
0.0
  0
SPLINE
  5
112
100
AcDbEntity
  8
Ebene_1
 62
5
100
AcDbSpline
 70
8
 71
3
 72
8
 73
4
 74
0
 40
0
 40
0
 40
0
 40
0
 40
1
 40
1
 40
1
 40
1
 10
22.883649
 20
14.628805
 30
0.0
 10
22.079207
 20
15.093250
 30
0.0
 10
21.583650
 20
15.951579
 30
0.0
 10
21.583650
 20
16.880469
 30
0.0
  0
LWPOLYLINE
  5
113
100
AcDbEntity
  8
Ebene_1
 62
5
100
AcDbPolyline
 90
1
 70
1
 10
8.531874
 20
112.160441
 30
0.0
  0
SPLINE
  5
114
100
AcDbEntity
  8
Ebene_1
 62
5
100
AcDbSpline
 70
8
 71
3
 72
8
 73
4
 74
0
 40
0
 40
0
 40
0
 40
0
 40
1
 40
1
 40
1
 40
1
 10
175.699903
 20
104.155731
 30
0.0
 10
175.699645
 20
105.084792
 30
0.0
 10
176.195146
 20
105.943391
 30
0.0
 10
176.999693
 20
106.407996
 30
0.0
  0
SPLINE
  5
115
100
AcDbEntity
  8
Ebene_1
 62
5
100
AcDbSpline
 70
8
 71
3
 72
8
 73
4
 74
0
 40
0
 40
0
 40
0
 40
0
 40
1
 40
1
 40
1
 40
1
 10
176.999693
 20
106.407996
 30
0.0
 10
177.804241
 20
106.872601
 30
0.0
 10
178.795559
 20
106.872601
 30
0.0
 10
179.600106
 20
106.407996
 30
0.0
  0
SPLINE
  5
116
100
AcDbEntity
  8
Ebene_1
 62
5
100
AcDbSpline
 70
8
 71
3
 72
8
 73
4
 74
0
 40
0
 40
0
 40
0
 40
0
 40
1
 40
1
 40
1
 40
1
 10
179.600106
 20
106.407996
 30
0.0
 10
180.404654
 20
105.943391
 30
0.0
 10
180.900154
 20
105.084792
 30
0.0
 10
180.899897
 20
104.155731
 30
0.0
  0
SPLINE
  5
117
100
AcDbEntity
  8
Ebene_1
 62
5
100
AcDbSpline
 70
8
 71
3
 72
8
 73
4
 74
0
 40
0
 40
0
 40
0
 40
0
 40
1
 40
1
 40
1
 40
1
 10
180.899897
 20
104.155731
 30
0.0
 10
180.900154
 20
103.226670
 30
0.0
 10
180.404654
 20
102.368072
 30
0.0
 10
179.600106
 20
101.903467
 30
0.0
  0
SPLINE
  5
118
100
AcDbEntity
  8
Ebene_1
 62
5
100
AcDbSpline
 70
8
 71
3
 72
8
 73
4
 74
0
 40
0
 40
0
 40
0
 40
0
 40
1
 40
1
 40
1
 40
1
 10
179.600106
 20
101.903467
 30
0.0
 10
178.795559
 20
101.438862
 30
0.0
 10
177.804241
 20
101.438862
 30
0.0
 10
176.999693
 20
101.903467
 30
0.0
  0
SPLINE
  5
119
100
AcDbEntity
  8
Ebene_1
 62
5
100
AcDbSpline
 70
8
 71
3
 72
8
 73
4
 74
0
 40
0
 40
0
 40
0
 40
0
 40
1
 40
1
 40
1
 40
1
 10
176.999693
 20
101.903467
 30
0.0
 10
176.195146
 20
102.368072
 30
0.0
 10
175.699645
 20
103.226670
 30
0.0
 10
175.699903
 20
104.155731
 30
0.0
  0
LWPOLYLINE
  5
11a
100
AcDbEntity
  8
Ebene_1
 62
5
100
AcDbPolyline
 90
1
 70
1
 10
21.583650
 20
16.880469
 30
0.0
  0
SPLINE
  5
11b
100
AcDbEntity
  8
Ebene_1
 62
5
100
AcDbSpline
 70
8
 71
3
 72
8
 73
4
 74
0
 40
0
 40
0
 40
0
 40
0
 40
1
 40
1
 40
1
 40
1
 10
175.718053
 20
53.155804
 30
0.0
 10
175.717795
 20
54.084865
 30
0.0
 10
176.213295
 20
54.943464
 30
0.0
 10
177.017843
 20
55.408069
 30
0.0
  0
SPLINE
  5
11c
100
AcDbEntity
  8
Ebene_1
 62
5
100
AcDbSpline
 70
8
 71
3
 72
8
 73
4
 74
0
 40
0
 40
0
 40
0
 40
0
 40
1
 40
1
 40
1
 40
1
 10
177.017843
 20
55.408069
 30
0.0
 10
177.822391
 20
55.872674
 30
0.0
 10
178.813709
 20
55.872674
 30
0.0
 10
179.618256
 20
55.408069
 30
0.0
  0
SPLINE
  5
11d
100
AcDbEntity
  8
Ebene_1
 62
5
100
AcDbSpline
 70
8
 71
3
 72
8
 73
4
 74
0
 40
0
 40
0
 40
0
 40
0
 40
1
 40
1
 40
1
 40
1
 10
179.618256
 20
55.408069
 30
0.0
 10
180.422804
 20
54.943464
 30
0.0
 10
180.918304
 20
54.084865
 30
0.0
 10
180.918047
 20
53.155804
 30
0.0
  0
SPLINE
  5
11e
100
AcDbEntity
  8
Ebene_1
 62
5
100
AcDbSpline
 70
8
 71
3
 72
8
 73
4
 74
0
 40
0
 40
0
 40
0
 40
0
 40
1
 40
1
 40
1
 40
1
 10
180.918047
 20
53.155804
 30
0.0
 10
180.918304
 20
52.226743
 30
0.0
 10
180.422804
 20
51.368145
 30
0.0
 10
179.618256
 20
50.903540
 30
0.0
  0
SPLINE
  5
11f
100
AcDbEntity
  8
Ebene_1
 62
5
100
AcDbSpline
 70
8
 71
3
 72
8
 73
4
 74
0
 40
0
 40
0
 40
0
 40
0
 40
1
 40
1
 40
1
 40
1
 10
179.618256
 20
50.903540
 30
0.0
 10
178.813709
 20
50.438935
 30
0.0
 10
177.822391
 20
50.438935
 30
0.0
 10
177.017843
 20
50.903540
 30
0.0
  0
SPLINE
  5
120
100
AcDbEntity
  8
Ebene_1
 62
5
100
AcDbSpline
 70
8
 71
3
 72
8
 73
4
 74
0
 40
0
 40
0
 40
0
 40
0
 40
1
 40
1
 40
1
 40
1
 10
177.017843
 20
50.903540
 30
0.0
 10
176.213295
 20
51.368145
 30
0.0
 10
175.717795
 20
52.226743
 30
0.0
 10
175.718053
 20
53.155804
 30
0.0
  0
LWPOLYLINE
  5
121
100
AcDbEntity
  8
Ebene_1
 62
5
100
AcDbPolyline
 90
1
 70
1
 10
175.699903
 20
104.155731
 30
0.0
  0
SPLINE
  5
122
100
AcDbEntity
  8
Ebene_1
 62
5
100
AcDbSpline
 70
8
 71
3
 72
8
 73
4
 74
0
 40
0
 40
0
 40
0
 40
0
 40
1
 40
1
 40
1
 40
1
 10
19.079978
 20
84.419806
 30
0.0
 10
19.079978
 20
85.152200
 30
0.0
 10
19.470706
 20
85.828960
 30
0.0
 10
20.104978
 20
86.195156
 30
0.0
  0
SPLINE
  5
123
100
AcDbEntity
  8
Ebene_1
 62
5
100
AcDbSpline
 70
8
 71
3
 72
8
 73
4
 74
0
 40
0
 40
0
 40
0
 40
0
 40
1
 40
1
 40
1
 40
1
 10
20.104978
 20
86.195156
 30
0.0
 10
20.739249
 20
86.561353
 30
0.0
 10
21.520704
 20
86.561353
 30
0.0
 10
22.154976
 20
86.195156
 30
0.0
  0
SPLINE
  5
124
100
AcDbEntity
  8
Ebene_1
 62
5
100
AcDbSpline
 70
8
 71
3
 72
8
 73
4
 74
0
 40
0
 40
0
 40
0
 40
0
 40
1
 40
1
 40
1
 40
1
 10
22.154976
 20
86.195156
 30
0.0
 10
22.789248
 20
85.828960
 30
0.0
 10
23.179975
 20
85.152200
 30
0.0
 10
23.179975
 20
84.419806
 30
0.0
  0
SPLINE
  5
125
100
AcDbEntity
  8
Ebene_1
 62
5
100
AcDbSpline
 70
8
 71
3
 72
8
 73
4
 74
0
 40
0
 40
0
 40
0
 40
0
 40
1
 40
1
 40
1
 40
1
 10
23.179975
 20
84.419806
 30
0.0
 10
23.179975
 20
83.687412
 30
0.0
 10
22.789248
 20
83.010652
 30
0.0
 10
22.154976
 20
82.644455
 30
0.0
  0
SPLINE
  5
126
100
AcDbEntity
  8
Ebene_1
 62
5
100
AcDbSpline
 70
8
 71
3
 72
8
 73
4
 74
0
 40
0
 40
0
 40
0
 40
0
 40
1
 40
1
 40
1
 40
1
 10
22.154976
 20
82.644455
 30
0.0
 10
21.520704
 20
82.278258
 30
0.0
 10
20.739249
 20
82.278258
 30
0.0
 10
20.104978
 20
82.644455
 30
0.0
  0
SPLINE
  5
127
100
AcDbEntity
  8
Ebene_1
 62
5
100
AcDbSpline
 70
8
 71
3
 72
8
 73
4
 74
0
 40
0
 40
0
 40
0
 40
0
 40
1
 40
1
 40
1
 40
1
 10
20.104978
 20
82.644455
 30
0.0
 10
19.470706
 20
83.010652
 30
0.0
 10
19.079978
 20
83.687412
 30
0.0
 10
19.079978
 20
84.419806
 30
0.0
  0
LWPOLYLINE
  5
128
100
AcDbEntity
  8
Ebene_1
 62
5
100
AcDbPolyline
 90
1
 70
1
 10
175.718053
 20
53.155804
 30
0.0
  0
SPLINE
  5
129
100
AcDbEntity
  8
Ebene_1
 62
5
100
AcDbSpline
 70
8
 71
3
 72
8
 73
4
 74
0
 40
0
 40
0
 40
0
 40
0
 40
1
 40
1
 40
1
 40
1
 10
164.751876
 20
36.064955
 30
0.0
 10
164.751876
 20
36.797349
 30
0.0
 10
165.142604
 20
37.474109
 30
0.0
 10
165.776875
 20
37.840305
 30
0.0
  0
SPLINE
  5
12a
100
AcDbEntity
  8
Ebene_1
 62
5
100
AcDbSpline
 70
8
 71
3
 72
8
 73
4
 74
0
 40
0
 40
0
 40
0
 40
0
 40
1
 40
1
 40
1
 40
1
 10
165.776875
 20
37.840305
 30
0.0
 10
166.411147
 20
38.206502
 30
0.0
 10
167.192601
 20
38.206502
 30
0.0
 10
167.826873
 20
37.840305
 30
0.0
  0
SPLINE
  5
12b
100
AcDbEntity
  8
Ebene_1
 62
5
100
AcDbSpline
 70
8
 71
3
 72
8
 73
4
 74
0
 40
0
 40
0
 40
0
 40
0
 40
1
 40
1
 40
1
 40
1
 10
167.826873
 20
37.840305
 30
0.0
 10
168.461144
 20
37.474109
 30
0.0
 10
168.851871
 20
36.797349
 30
0.0
 10
168.851871
 20
36.064955
 30
0.0
  0
SPLINE
  5
12c
100
AcDbEntity
  8
Ebene_1
 62
5
100
AcDbSpline
 70
8
 71
3
 72
8
 73
4
 74
0
 40
0
 40
0
 40
0
 40
0
 40
1
 40
1
 40
1
 40
1
 10
168.851871
 20
36.064955
 30
0.0
 10
168.851871
 20
35.332562
 30
0.0
 10
168.461144
 20
34.655802
 30
0.0
 10
167.826873
 20
34.289606
 30
0.0
  0
SPLINE
  5
12d
100
AcDbEntity
  8
Ebene_1
 62
5
100
AcDbSpline
 70
8
 71
3
 72
8
 73
4
 74
0
 40
0
 40
0
 40
0
 40
0
 40
1
 40
1
 40
1
 40
1
 10
167.826873
 20
34.289606
 30
0.0
 10
167.192601
 20
33.923409
 30
0.0
 10
166.411147
 20
33.923409
 30
0.0
 10
165.776875
 20
34.289606
 30
0.0
  0
SPLINE
  5
12e
100
AcDbEntity
  8
Ebene_1
 62
5
100
AcDbSpline
 70
8
 71
3
 72
8
 73
4
 74
0
 40
0
 40
0
 40
0
 40
0
 40
1
 40
1
 40
1
 40
1
 10
165.776875
 20
34.289606
 30
0.0
 10
165.142604
 20
34.655802
 30
0.0
 10
164.751876
 20
35.332562
 30
0.0
 10
164.751876
 20
36.064955
 30
0.0
  0
LWPOLYLINE
  5
12f
100
AcDbEntity
  8
Ebene_1
 62
5
100
AcDbPolyline
 90
1
 70
1
 10
19.079978
 20
84.419806
 30
0.0
  0
SPLINE
  5
130
100
AcDbEntity
  8
Ebene_1
 62
5
100
AcDbSpline
 70
8
 71
3
 72
8
 73
4
 74
0
 40
0
 40
0
 40
0
 40
0
 40
1
 40
1
 40
1
 40
1
 10
164.879016
 20
120.302071
 30
0.0
 10
164.879016
 20
121.034465
 30
0.0
 10
165.269744
 20
121.711224
 30
0.0
 10
165.904015
 20
122.077421
 30
0.0
  0
SPLINE
  5
131
100
AcDbEntity
  8
Ebene_1
 62
5
100
AcDbSpline
 70
8
 71
3
 72
8
 73
4
 74
0
 40
0
 40
0
 40
0
 40
0
 40
1
 40
1
 40
1
 40
1
 10
165.904015
 20
122.077421
 30
0.0
 10
166.538286
 20
122.443618
 30
0.0
 10
167.319741
 20
122.443618
 30
0.0
 10
167.954013
 20
122.077421
 30
0.0
  0
SPLINE
  5
132
100
AcDbEntity
  8
Ebene_1
 62
5
100
AcDbSpline
 70
8
 71
3
 72
8
 73
4
 74
0
 40
0
 40
0
 40
0
 40
0
 40
1
 40
1
 40
1
 40
1
 10
167.954013
 20
122.077421
 30
0.0
 10
168.588284
 20
121.711224
 30
0.0
 10
168.979011
 20
121.034465
 30
0.0
 10
168.979011
 20
120.302071
 30
0.0
  0
SPLINE
  5
133
100
AcDbEntity
  8
Ebene_1
 62
5
100
AcDbSpline
 70
8
 71
3
 72
8
 73
4
 74
0
 40
0
 40
0
 40
0
 40
0
 40
1
 40
1
 40
1
 40
1
 10
168.979011
 20
120.302071
 30
0.0
 10
168.979011
 20
119.569678
 30
0.0
 10
168.588284
 20
118.892918
 30
0.0
 10
167.954013
 20
118.526722
 30
0.0
  0
SPLINE
  5
134
100
AcDbEntity
  8
Ebene_1
 62
5
100
AcDbSpline
 70
8
 71
3
 72
8
 73
4
 74
0
 40
0
 40
0
 40
0
 40
0
 40
1
 40
1
 40
1
 40
1
 10
167.954013
 20
118.526722
 30
0.0
 10
167.319741
 20
118.160525
 30
0.0
 10
166.538286
 20
118.160525
 30
0.0
 10
165.904015
 20
118.526722
 30
0.0
  0
SPLINE
  5
135
100
AcDbEntity
  8
Ebene_1
 62
5
100
AcDbSpline
 70
8
 71
3
 72
8
 73
4
 74
0
 40
0
 40
0
 40
0
 40
0
 40
1
 40
1
 40
1
 40
1
 10
165.904015
 20
118.526722
 30
0.0
 10
165.269744
 20
118.892918
 30
0.0
 10
164.879016
 20
119.569678
 30
0.0
 10
164.879016
 20
120.302071
 30
0.0
  0
LWPOLYLINE
  5
136
100
AcDbEntity
  8
Ebene_1
 62
5
100
AcDbPolyline
 90
1
 70
1
 10
164.751876
 20
36.064955
 30
0.0
  0
SPLINE
  5
137
100
AcDbEntity
  8
Ebene_1
 62
5
100
AcDbSpline
 70
8
 71
3
 72
8
 73
4
 74
0
 40
0
 40
0
 40
0
 40
0
 40
1
 40
1
 40
1
 40
1
 10
20.873883
 20
126.994483
 30
0.0
 10
20.873883
 20
127.726877
 30
0.0
 10
21.264611
 20
128.403637
 30
0.0
 10
21.898882
 20
128.769834
 30
0.0
  0
SPLINE
  5
138
100
AcDbEntity
  8
Ebene_1
 62
5
100
AcDbSpline
 70
8
 71
3
 72
8
 73
4
 74
0
 40
0
 40
0
 40
0
 40
0
 40
1
 40
1
 40
1
 40
1
 10
21.898882
 20
128.769834
 30
0.0
 10
22.533154
 20
129.136031
 30
0.0
 10
23.314609
 20
129.136031
 30
0.0
 10
23.948881
 20
128.769834
 30
0.0
  0
SPLINE
  5
139
100
AcDbEntity
  8
Ebene_1
 62
5
100
AcDbSpline
 70
8
 71
3
 72
8
 73
4
 74
0
 40
0
 40
0
 40
0
 40
0
 40
1
 40
1
 40
1
 40
1
 10
23.948881
 20
128.769834
 30
0.0
 10
24.583153
 20
128.403637
 30
0.0
 10
24.973880
 20
127.726877
 30
0.0
 10
24.973880
 20
126.994483
 30
0.0
  0
SPLINE
  5
13a
100
AcDbEntity
  8
Ebene_1
 62
5
100
AcDbSpline
 70
8
 71
3
 72
8
 73
4
 74
0
 40
0
 40
0
 40
0
 40
0
 40
1
 40
1
 40
1
 40
1
 10
24.973880
 20
126.994483
 30
0.0
 10
24.973880
 20
126.262089
 30
0.0
 10
24.583153
 20
125.585329
 30
0.0
 10
23.948881
 20
125.219132
 30
0.0
  0
SPLINE
  5
13b
100
AcDbEntity
  8
Ebene_1
 62
5
100
AcDbSpline
 70
8
 71
3
 72
8
 73
4
 74
0
 40
0
 40
0
 40
0
 40
0
 40
1
 40
1
 40
1
 40
1
 10
23.948881
 20
125.219132
 30
0.0
 10
23.314609
 20
124.852935
 30
0.0
 10
22.533154
 20
124.852935
 30
0.0
 10
21.898882
 20
125.219132
 30
0.0
  0
SPLINE
  5
13c
100
AcDbEntity
  8
Ebene_1
 62
5
100
AcDbSpline
 70
8
 71
3
 72
8
 73
4
 74
0
 40
0
 40
0
 40
0
 40
0
 40
1
 40
1
 40
1
 40
1
 10
21.898882
 20
125.219132
 30
0.0
 10
21.264611
 20
125.585329
 30
0.0
 10
20.873883
 20
126.262089
 30
0.0
 10
20.873883
 20
126.994483
 30
0.0
  0
LWPOLYLINE
  5
13d
100
AcDbEntity
  8
Ebene_1
 62
5
100
AcDbPolyline
 90
1
 70
1
 10
164.879016
 20
120.302071
 30
0.0
  0
SPLINE
  5
13e
100
AcDbEntity
  8
Ebene_1
 62
5
100
AcDbSpline
 70
8
 71
3
 72
8
 73
4
 74
0
 40
0
 40
0
 40
0
 40
0
 40
1
 40
1
 40
1
 40
1
 10
39.402617
 20
9.445448
 30
0.0
 10
39.402106
 20
10.178183
 30
0.0
 10
39.792721
 20
10.855476
 30
0.0
 10
40.427202
 20
11.221991
 30
0.0
  0
SPLINE
  5
13f
100
AcDbEntity
  8
Ebene_1
 62
5
100
AcDbSpline
 70
8
 71
3
 72
8
 73
4
 74
0
 40
0
 40
0
 40
0
 40
0
 40
1
 40
1
 40
1
 40
1
 10
40.427202
 20
11.221991
 30
0.0
 10
41.061684
 20
11.588506
 30
0.0
 10
41.843545
 20
11.588506
 30
0.0
 10
42.478026
 20
11.221991
 30
0.0
  0
SPLINE
  5
140
100
AcDbEntity
  8
Ebene_1
 62
5
100
AcDbSpline
 70
8
 71
3
 72
8
 73
4
 74
0
 40
0
 40
0
 40
0
 40
0
 40
1
 40
1
 40
1
 40
1
 10
42.478026
 20
11.221991
 30
0.0
 10
43.112508
 20
10.855476
 30
0.0
 10
43.503123
 20
10.178183
 30
0.0
 10
43.502611
 20
9.445448
 30
0.0
  0
SPLINE
  5
141
100
AcDbEntity
  8
Ebene_1
 62
5
100
AcDbSpline
 70
8
 71
3
 72
8
 73
4
 74
0
 40
0
 40
0
 40
0
 40
0
 40
1
 40
1
 40
1
 40
1
 10
43.502611
 20
9.445448
 30
0.0
 10
43.503123
 20
8.712714
 30
0.0
 10
43.112508
 20
8.035420
 30
0.0
 10
42.478026
 20
7.668905
 30
0.0
  0
SPLINE
  5
142
100
AcDbEntity
  8
Ebene_1
 62
5
100
AcDbSpline
 70
8
 71
3
 72
8
 73
4
 74
0
 40
0
 40
0
 40
0
 40
0
 40
1
 40
1
 40
1
 40
1
 10
42.478026
 20
7.668905
 30
0.0
 10
41.843545
 20
7.302390
 30
0.0
 10
41.061684
 20
7.302390
 30
0.0
 10
40.427202
 20
7.668905
 30
0.0
  0
SPLINE
  5
143
100
AcDbEntity
  8
Ebene_1
 62
5
100
AcDbSpline
 70
8
 71
3
 72
8
 73
4
 74
0
 40
0
 40
0
 40
0
 40
0
 40
1
 40
1
 40
1
 40
1
 10
40.427202
 20
7.668905
 30
0.0
 10
39.792721
 20
8.035420
 30
0.0
 10
39.402106
 20
8.712714
 30
0.0
 10
39.402617
 20
9.445448
 30
0.0
  0
LWPOLYLINE
  5
144
100
AcDbEntity
  8
Ebene_1
 62
5
100
AcDbPolyline
 90
1
 70
1
 10
20.873883
 20
126.994483
 30
0.0
  0
LWPOLYLINE
  5
145
100
AcDbEntity
  8
Ebene_1
 62
5
100
AcDbPolyline
 90
1
 70
1
 10
39.402617
 20
9.445448
 30
0.0
  0
SPLINE
  5
146
100
AcDbEntity
  8
Ebene_1
 62
5
100
AcDbSpline
 70
8
 71
3
 72
8
 73
4
 74
0
 40
0
 40
0
 40
0
 40
0
 40
1
 40
1
 40
1
 40
1
 10
25.144239
 20
122.557409
 30
0.0
 10
25.181046
 20
123.632778
 30
0.0
 10
26.063470
 20
124.485516
 30
0.0
 10
27.139469
 20
124.485516
 30
0.0
  0
LWPOLYLINE
  5
147
100
AcDbEntity
  8
Ebene_1
 62
5
100
AcDbPolyline
 90
2
 70
0
 10
25.158339
 20
63.211982
 30
0.0
 10
25.144239
 20
122.557409
 30
0.0
  0
SPLINE
  5
148
100
AcDbEntity
  8
Ebene_1
 62
5
100
AcDbSpline
 70
8
 71
3
 72
8
 73
4
 74
0
 40
0
 40
0
 40
0
 40
0
 40
1
 40
1
 40
1
 40
1
 10
122.278019
 20
124.411116
 30
0.0
 10
123.829320
 20
124.410764
 30
0.0
 10
125.378001
 20
124.283729
 30
0.0
 10
126.908623
 20
124.031277
 30
0.0
  0
LWPOLYLINE
  5
149
100
AcDbEntity
  8
Ebene_1
 62
5
100
AcDbPolyline
 90
3
 70
0
 10
27.139469
 20
124.485516
 30
0.0
 10
50.142906
 20
124.485516
 30
0.0
 10
122.278019
 20
124.411116
 30
0.0
  0
SPLINE
  5
14a
100
AcDbEntity
  8
Ebene_1
 62
5
100
AcDbSpline
 70
8
 71
3
 72
8
 73
4
 74
0
 40
0
 40
0
 40
0
 40
0
 40
1
 40
1
 40
1
 40
1
 10
162.487909
 20
118.352894
 30
0.0
 10
163.529631
 20
118.184022
 30
0.0
 10
164.295208
 20
117.284697
 30
0.0
 10
164.295617
 20
116.229376
 30
0.0
  0
LWPOLYLINE
  5
14b
100
AcDbEntity
  8
Ebene_1
 62
5
100
AcDbPolyline
 90
2
 70
0
 10
126.908623
 20
124.031277
 30
0.0
 10
162.487909
 20
118.352894
 30
0.0
  0
SPLINE
  5
14c
100
AcDbEntity
  8
Ebene_1
 62
5
100
AcDbSpline
 70
8
 71
3
 72
8
 73
4
 74
0
 40
0
 40
0
 40
0
 40
0
 40
1
 40
1
 40
1
 40
1
 10
164.322617
 20
40.338100
 30
0.0
 10
164.323018
 20
39.216209
 30
0.0
 10
163.461494
 20
38.282222
 30
0.0
 10
162.343219
 20
38.192213
 30
0.0
  0
LWPOLYLINE
  5
14d
100
AcDbEntity
  8
Ebene_1
 62
5
100
AcDbPolyline
 90
2
 70
0
 10
164.295617
 20
116.229376
 30
0.0
 10
164.322617
 20
40.338100
 30
0.0
  0
SPLINE
  5
14e
100
AcDbEntity
  8
Ebene_1
 62
5
100
AcDbSpline
 70
8
 71
3
 72
8
 73
4
 74
0
 40
0
 40
0
 40
0
 40
0
 40
1
 40
1
 40
1
 40
1
 10
143.630103
 20
36.686745
 30
0.0
 10
143.581640
 20
36.682847
 30
0.0
 10
143.537980
 20
36.655964
 30
0.0
 10
143.512683
 20
36.614445
 30
0.0
  0
LWPOLYLINE
  5
14f
100
AcDbEntity
  8
Ebene_1
 62
5
100
AcDbPolyline
 90
2
 70
0
 10
162.343219
 20
38.192213
 30
0.0
 10
143.630103
 20
36.686745
 30
0.0
  0
SPLINE
  5
150
100
AcDbEntity
  8
Ebene_1
 62
5
100
AcDbSpline
 70
8
 71
3
 72
8
 73
4
 74
0
 40
0
 40
0
 40
0
 40
0
 40
1
 40
1
 40
1
 40
1
 10
135.027213
 20
22.677822
 30
0.0
 10
134.636643
 20
22.036362
 30
0.0
 10
133.940006
 20
21.644817
 30
0.0
 10
133.188995
 20
21.644653
 30
0.0
  0
LWPOLYLINE
  5
151
100
AcDbEntity
  8
Ebene_1
 62
5
100
AcDbPolyline
 90
2
 70
0
 10
143.512683
 20
36.614445
 30
0.0
 10
135.027213
 20
22.677822
 30
0.0
  0
SPLINE
  5
152
100
AcDbEntity
  8
Ebene_1
 62
5
100
AcDbSpline
 70
8
 71
3
 72
8
 73
4
 74
0
 40
0
 40
0
 40
0
 40
0
 40
1
 40
1
 40
1
 40
1
 10
117.465545
 20
21.644653
 30
0.0
 10
116.293337
 20
21.644647
 30
0.0
 10
115.126549
 20
21.803712
 30
0.0
 10
113.997119
 20
22.117493
 30
0.0
  0
LWPOLYLINE
  5
153
100
AcDbEntity
  8
Ebene_1
 62
5
100
AcDbPolyline
 90
2
 70
0
 10
133.188995
 20
21.644653
 30
0.0
 10
117.465545
 20
21.644653
 30
0.0
  0
SPLINE
  5
154
100
AcDbEntity
  8
Ebene_1
 62
5
100
AcDbSpline
 70
8
 71
3
 72
8
 73
4
 74
0
 40
0
 40
0
 40
0
 40
0
 40
1
 40
1
 40
1
 40
1
 10
98.506178
 20
26.420637
 30
0.0
 10
97.373479
 20
26.735283
 30
0.0
 10
96.203321
 20
26.894764
 30
0.0
 10
95.027733
 20
26.894717
 30
0.0
  0
LWPOLYLINE
  5
155
100
AcDbEntity
  8
Ebene_1
 62
5
100
AcDbPolyline
 90
2
 70
0
 10
113.997119
 20
22.117493
 30
0.0
 10
98.506178
 20
26.420637
 30
0.0
  0
SPLINE
  5
156
100
AcDbEntity
  8
Ebene_1
 62
5
100
AcDbSpline
 70
8
 71
3
 72
8
 73
4
 74
0
 40
0
 40
0
 40
0
 40
0
 40
1
 40
1
 40
1
 40
1
 10
79.808771
 20
26.894717
 30
0.0
 10
78.633574
 20
26.894718
 30
0.0
 10
77.469185
 20
26.670320
 30
0.0
 10
76.378156
 20
26.233578
 30
0.0
  0
LWPOLYLINE
  5
157
100
AcDbEntity
  8
Ebene_1
 62
5
100
AcDbPolyline
 90
2
 70
0
 10
95.027733
 20
26.894717
 30
0.0
 10
79.808771
 20
26.894717
 30
0.0
  0
SPLINE
  5
158
100
AcDbEntity
  8
Ebene_1
 62
5
100
AcDbSpline
 70
8
 71
3
 72
8
 73
4
 74
0
 40
0
 40
0
 40
0
 40
0
 40
1
 40
1
 40
1
 40
1
 10
44.299590
 20
13.392783
 30
0.0
 10
43.306002
 20
12.995060
 30
0.0
 10
42.171134
 20
13.387914
 30
0.0
 10
41.636084
 20
14.314802
 30
0.0
  0
LWPOLYLINE
  5
159
100
AcDbEntity
  8
Ebene_1
 62
5
100
AcDbPolyline
 90
2
 70
0
 10
76.378156
 20
26.233578
 30
0.0
 10
44.299590
 20
13.392783
 30
0.0
  0
SPLINE
  5
15a
100
AcDbEntity
  8
Ebene_1
 62
5
100
AcDbSpline
 70
8
 71
3
 72
8
 73
4
 74
0
 40
0
 40
0
 40
0
 40
0
 40
1
 40
1
 40
1
 40
1
 10
25.776015
 20
42.722327
 30
0.0
 10
25.349084
 20
43.632016
 30
0.0
 10
25.128530
 20
44.624835
 30
0.0
 10
25.130142
 20
45.629724
 30
0.0
  0
LWPOLYLINE
  5
15b
100
AcDbEntity
  8
Ebene_1
 62
5
100
AcDbPolyline
 90
3
 70
0
 10
41.636084
 20
14.314802
 30
0.0
 10
28.161665
 20
37.657273
 30
0.0
 10
25.776015
 20
42.722327
 30
0.0
  0
LWPOLYLINE
  5
15c
100
AcDbEntity
  8
Ebene_1
 62
5
100
AcDbPolyline
 90
2
 70
0
 10
25.130142
 20
45.629724
 30
0.0
 10
25.158339
 20
63.211982
 30
0.0
  0
SPLINE
  5
15d
100
AcDbEntity
  8
Ebene_1
 62
5
100
AcDbSpline
 70
8
 71
3
 72
8
 73
4
 74
0
 40
0
 40
0
 40
0
 40
0
 40
1
 40
1
 40
1
 40
1
 10
17.129981
 20
45.531324
 30
0.0
 10
17.126698
 20
43.408225
 30
0.0
 10
17.595404
 20
41.310945
 30
0.0
 10
18.502187
 20
39.391231
 30
0.0
  0
LWPOLYLINE
  5
15e
100
AcDbEntity
  8
Ebene_1
 62
5
100
AcDbPolyline
 90
2
 70
0
 10
17.129981
 20
100.934065
 30
0.0
 10
17.129981
 20
45.531324
 30
0.0
  0
SPLINE
  5
15f
100
AcDbEntity
  8
Ebene_1
 62
5
100
AcDbSpline
 70
8
 71
3
 72
8
 73
4
 74
0
 40
0
 40
0
 40
0
 40
0
 40
1
 40
1
 40
1
 40
1
 10
23.947938
 20
29.624083
 30
0.0
 10
25.182569
 20
26.854524
 30
0.0
 10
24.059366
 20
23.601998
 30
0.0
 10
21.378803
 20
22.184483
 30
0.0
  0
SPLINE
  5
160
100
AcDbEntity
  8
Ebene_1
 62
5
100
AcDbSpline
 70
8
 71
3
 72
8
 73
4
 74
0
 40
0
 40
0
 40
0
 40
0
 40
1
 40
1
 40
1
 40
1
 10
21.378803
 20
22.184483
 30
0.0
 10
19.469215
 20
21.174867
 30
0.0
 10
18.249709
 20
19.216733
 30
0.0
 10
18.185843
 20
17.057620
 30
0.0
  0
SPLINE
  5
161
100
AcDbEntity
  8
Ebene_1
 62
5
100
AcDbSpline
 70
8
 71
3
 72
8
 73
4
 74
0
 40
0
 40
0
 40
0
 40
0
 40
1
 40
1
 40
1
 40
1
 10
18.185843
 20
17.057620
 30
0.0
 10
18.121978
 20
14.898507
 30
0.0
 10
19.223612
 20
12.871715
 30
0.0
 10
21.070185
 20
11.750994
 30
0.0
  0
SPLINE
  5
162
100
AcDbEntity
  8
Ebene_1
 62
5
100
AcDbSpline
 70
8
 71
3
 72
8
 73
4
 74
0
 40
0
 40
0
 40
0
 40
0
 40
1
 40
1
 40
1
 40
1
 10
21.070185
 20
11.750994
 30
0.0
 10
22.916758
 20
10.630273
 30
0.0
 10
25.223216
 20
10.588627
 30
0.0
 10
27.109044
 20
11.641956
 30
0.0
  0
SPLINE
  5
163
100
AcDbEntity
  8
Ebene_1
 62
5
100
AcDbSpline
 70
8
 71
3
 72
8
 73
4
 74
0
 40
0
 40
0
 40
0
 40
0
 40
1
 40
1
 40
1
 40
1
 10
27.109044
 20
11.641956
 30
0.0
 10
29.727922
 20
13.104439
 30
0.0
 10
33.022688
 20
12.430767
 30
0.0
 10
34.857320
 20
10.057688
 30
0.0
  0
LWPOLYLINE
  5
164
100
AcDbEntity
  8
Ebene_1
 62
5
100
AcDbPolyline
 90
2
 70
0
 10
18.502187
 20
39.391231
 30
0.0
 10
23.947938
 20
29.624083
 30
0.0
  0
SPLINE
  5
165
100
AcDbEntity
  8
Ebene_1
 62
5
100
AcDbSpline
 70
8
 71
3
 72
8
 73
4
 74
0
 40
0
 40
0
 40
0
 40
0
 40
1
 40
1
 40
1
 40
1
 10
34.886080
 20
10.006088
 30
0.0
 10
37.303961
 20
5.810411
 30
0.0
 10
42.438818
 20
4.030790
 30
0.0
 10
46.934518
 20
5.830383
 30
0.0
  0
LWPOLYLINE
  5
166
100
AcDbEntity
  8
Ebene_1
 62
5
100
AcDbPolyline
 90
2
 70
0
 10
34.857320
 20
10.057688
 30
0.0
 10
34.886080
 20
10.006088
 30
0.0
  0
SPLINE
  5
167
100
AcDbEntity
  8
Ebene_1
 62
5
100
AcDbSpline
 70
8
 71
3
 72
8
 73
4
 74
0
 40
0
 40
0
 40
0
 40
0
 40
1
 40
1
 40
1
 40
1
 10
79.262922
 20
18.771187
 30
0.0
 10
79.466770
 20
18.852792
 30
0.0
 10
79.684326
 20
18.894722
 30
0.0
 10
79.903901
 20
18.894727
 30
0.0
  0
LWPOLYLINE
  5
168
100
AcDbEntity
  8
Ebene_1
 62
5
100
AcDbPolyline
 90
2
 70
0
 10
46.934518
 20
5.830383
 30
0.0
 10
79.262922
 20
18.771187
 30
0.0
  0
SPLINE
  5
169
100
AcDbEntity
  8
Ebene_1
 62
5
100
AcDbSpline
 70
8
 71
3
 72
8
 73
4
 74
0
 40
0
 40
0
 40
0
 40
0
 40
1
 40
1
 40
1
 40
1
 10
94.960243
 20
18.894727
 30
0.0
 10
95.457083
 20
18.894741
 30
0.0
 10
95.951627
 20
18.827336
 30
0.0
 10
96.430341
 20
18.694357
 30
0.0
  0
LWPOLYLINE
  5
16a
100
AcDbEntity
  8
Ebene_1
 62
5
100
AcDbPolyline
 90
2
 70
0
 10
79.903901
 20
18.894727
 30
0.0
 10
94.960243
 20
18.894727
 30
0.0
  0
SPLINE
  5
16b
100
AcDbEntity
  8
Ebene_1
 62
5
100
AcDbSpline
 70
8
 71
3
 72
8
 73
4
 74
0
 40
0
 40
0
 40
0
 40
0
 40
1
 40
1
 40
1
 40
1
 10
111.986182
 20
14.373162
 30
0.0
 10
113.726244
 20
13.889700
 30
0.0
 10
115.523868
 20
13.644620
 30
0.0
 10
117.329845
 20
13.644633
 30
0.0
  0
LWPOLYLINE
  5
16c
100
AcDbEntity
  8
Ebene_1
 62
5
100
AcDbPolyline
 90
2
 70
0
 10
96.430341
 20
18.694357
 30
0.0
 10
111.986182
 20
14.373162
 30
0.0
  0
SPLINE
  5
16d
100
AcDbEntity
  8
Ebene_1
 62
5
100
AcDbSpline
 70
8
 71
3
 72
8
 73
4
 74
0
 40
0
 40
0
 40
0
 40
0
 40
1
 40
1
 40
1
 40
1
 10
133.450815
 20
13.644633
 30
0.0
 10
136.831610
 20
13.645823
 30
0.0
 10
139.967465
 20
15.408628
 30
0.0
 10
141.725645
 20
18.296287
 30
0.0
  0
LWPOLYLINE
  5
16e
100
AcDbEntity
  8
Ebene_1
 62
5
100
AcDbPolyline
 90
2
 70
0
 10
117.329845
 20
13.644633
 30
0.0
 10
133.450815
 20
13.644633
 30
0.0
  0
SPLINE
  5
16f
100
AcDbEntity
  8
Ebene_1
 62
5
100
AcDbSpline
 70
8
 71
3
 72
8
 73
4
 74
0
 40
0
 40
0
 40
0
 40
0
 40
1
 40
1
 40
1
 40
1
 10
147.732508
 20
28.162005
 30
0.0
 10
148.065863
 20
28.709513
 30
0.0
 10
148.641452
 20
29.064061
 30
0.0
 10
149.280396
 20
29.115464
 30
0.0
  0
LWPOLYLINE
  5
170
100
AcDbEntity
  8
Ebene_1
 62
5
100
AcDbPolyline
 90
2
 70
0
 10
141.725645
 20
18.296287
 30
0.0
 10
147.732508
 20
28.162005
 30
0.0
  0
SPLINE
  5
171
100
AcDbEntity
  8
Ebene_1
 62
5
100
AcDbSpline
 70
8
 71
3
 72
8
 73
4
 74
0
 40
0
 40
0
 40
0
 40
0
 40
1
 40
1
 40
1
 40
1
 10
163.364798
 20
30.248563
 30
0.0
 10
168.425659
 20
30.655950
 30
0.0
 10
172.324550
 20
34.882810
 30
0.0
 10
172.322747
 20
39.960041
 30
0.0
  0
LWPOLYLINE
  5
172
100
AcDbEntity
  8
Ebene_1
 62
5
100
AcDbPolyline
 90
2
 70
0
 10
149.280396
 20
29.115464
 30
0.0
 10
163.364798
 20
30.248563
 30
0.0
  0
SPLINE
  5
173
100
AcDbEntity
  8
Ebene_1
 62
5
100
AcDbSpline
 70
8
 71
3
 72
8
 73
4
 74
0
 40
0
 40
0
 40
0
 40
0
 40
1
 40
1
 40
1
 40
1
 10
172.322067
 20
41.864598
 30
0.0
 10
172.705146
 20
44.885524
 30
0.0
 10
175.272935
 20
47.151491
 30
0.0
 10
178.318050
 20
47.155802
 30
0.0
  0
LWPOLYLINE
  5
174
100
AcDbEntity
  8
Ebene_1
 62
5
100
AcDbPolyline
 90
2
 70
0
 10
172.322747
 20
39.960041
 30
0.0
 10
172.322067
 20
41.864598
 30
0.0
  0
SPLINE
  5
175
100
AcDbEntity
  8
Ebene_1
 62
5
100
AcDbSpline
 70
8
 71
3
 72
8
 73
4
 74
0
 40
0
 40
0
 40
0
 40
0
 40
1
 40
1
 40
1
 40
1
 10
178.322050
 20
47.155802
 30
0.0
 10
181.635754
 20
47.156906
 30
0.0
 10
184.321147
 20
49.844090
 30
0.0
 10
184.320042
 20
53.157794
 30
0.0
  0
SPLINE
  5
176
100
AcDbEntity
  8
Ebene_1
 62
5
100
AcDbSpline
 70
8
 71
3
 72
8
 73
4
 74
0
 40
0
 40
0
 40
0
 40
0
 40
1
 40
1
 40
1
 40
1
 10
184.320042
 20
53.157794
 30
0.0
 10
184.318938
 20
56.471499
 30
0.0
 10
181.631754
 20
59.156891
 30
0.0
 10
178.318050
 20
59.155787
 30
0.0
  0
SPLINE
  5
177
100
AcDbEntity
  8
Ebene_1
 62
5
100
AcDbSpline
 70
8
 71
3
 72
8
 73
4
 74
0
 40
0
 40
0
 40
0
 40
0
 40
1
 40
1
 40
1
 40
1
 10
178.318050
 20
59.155787
 30
0.0
 10
175.271305
 20
59.155785
 30
0.0
 10
172.699468
 20
61.420464
 30
0.0
 10
172.314037
 20
64.442730
 30
0.0
  0
LWPOLYLINE
  5
178
100
AcDbEntity
  8
Ebene_1
 62
5
100
AcDbPolyline
 90
2
 70
0
 10
178.318050
 20
47.155802
 30
0.0
 10
178.322050
 20
47.155802
 30
0.0
  0
SPLINE
  5
179
100
AcDbEntity
  8
Ebene_1
 62
5
100
AcDbSpline
 70
8
 71
3
 72
8
 73
4
 74
0
 40
0
 40
0
 40
0
 40
0
 40
1
 40
1
 40
1
 40
1
 10
172.303937
 20
92.881125
 30
0.0
 10
172.694759
 20
95.896271
 30
0.0
 10
175.261691
 20
98.153569
 30
0.0
 10
178.302060
 20
98.155729
 30
0.0
  0
SPLINE
  5
17a
100
AcDbEntity
  8
Ebene_1
 62
5
100
AcDbSpline
 70
8
 71
3
 72
8
 73
4
 74
0
 40
0
 40
0
 40
0
 40
0
 40
1
 40
1
 40
1
 40
1
 10
178.302060
 20
98.155729
 30
0.0
 10
180.445651
 20
98.156443
 30
0.0
 10
182.426029
 20
99.300696
 30
0.0
 10
183.497206
 20
101.157457
 30
0.0
  0
SPLINE
  5
17b
100
AcDbEntity
  8
Ebene_1
 62
5
100
AcDbSpline
 70
8
 71
3
 72
8
 73
4
 74
0
 40
0
 40
0
 40
0
 40
0
 40
1
 40
1
 40
1
 40
1
 10
183.497206
 20
101.157457
 30
0.0
 10
184.568382
 20
103.014219
 30
0.0
 10
184.567620
 20
105.301403
 30
0.0
 10
183.495206
 20
107.157450
 30
0.0
  0
SPLINE
  5
17c
100
AcDbEntity
  8
Ebene_1
 62
5
100
AcDbSpline
 70
8
 71
3
 72
8
 73
4
 74
0
 40
0
 40
0
 40
0
 40
0
 40
1
 40
1
 40
1
 40
1
 10
183.495206
 20
107.157450
 30
0.0
 10
182.422791
 20
109.013497
 30
0.0
 10
180.441651
 20
110.156428
 30
0.0
 10
178.298060
 20
110.155714
 30
0.0
  0
SPLINE
  5
17d
100
AcDbEntity
  8
Ebene_1
 62
5
100
AcDbSpline
 70
8
 71
3
 72
8
 73
4
 74
0
 40
0
 40
0
 40
0
 40
0
 40
1
 40
1
 40
1
 40
1
 10
178.298060
 20
110.155714
 30
0.0
 10
175.257688
 20
110.155712
 30
0.0
 10
172.689150
 20
112.411187
 30
0.0
 10
172.296187
 20
115.426057
 30
0.0
  0
LWPOLYLINE
  5
17e
100
AcDbEntity
  8
Ebene_1
 62
5
100
AcDbPolyline
 90
2
 70
0
 10
172.314037
 20
64.442730
 30
0.0
 10
172.303937
 20
92.881125
 30
0.0
  0
SPLINE
  5
17f
100
AcDbEntity
  8
Ebene_1
 62
5
100
AcDbSpline
 70
8
 71
3
 72
8
 73
4
 74
0
 40
0
 40
0
 40
0
 40
0
 40
1
 40
1
 40
1
 40
1
 10
172.295777
 20
116.591816
 30
0.0
 10
172.294202
 20
121.362833
 30
0.0
 10
168.833175
 20
125.428741
 30
0.0
 10
164.123637
 20
126.192194
 30
0.0
  0
LWPOLYLINE
  5
180
100
AcDbEntity
  8
Ebene_1
 62
5
100
AcDbPolyline
 90
2
 70
0
 10
172.296187
 20
115.426057
 30
0.0
 10
172.295777
 20
116.591816
 30
0.0
  0
SPLINE
  5
181
100
AcDbEntity
  8
Ebene_1
 62
5
100
AcDbSpline
 70
8
 71
3
 72
8
 73
4
 74
0
 40
0
 40
0
 40
0
 40
0
 40
1
 40
1
 40
1
 40
1
 10
128.124072
 20
132.028007
 30
0.0
 10
126.246045
 20
132.332450
 30
0.0
 10
124.346582
 20
132.485413
 30
0.0
 10
122.444039
 20
132.485416
 30
0.0
  0
LWPOLYLINE
  5
182
100
AcDbEntity
  8
Ebene_1
 62
5
100
AcDbPolyline
 90
2
 70
0
 10
164.123637
 20
126.192194
 30
0.0
 10
128.124072
 20
132.028007
 30
0.0
  0
SPLINE
  5
183
100
AcDbEntity
  8
Ebene_1
 62
5
100
AcDbSpline
 70
8
 71
3
 72
8
 73
4
 74
0
 40
0
 40
0
 40
0
 40
0
 40
1
 40
1
 40
1
 40
1
 10
26.739461
 20
132.485416
 30
0.0
 10
21.652840
 20
132.485417
 30
0.0
 10
17.443829
 20
128.528566
 30
0.0
 10
17.129981
 20
123.451637
 30
0.0
  0
SPLINE
  5
184
100
AcDbEntity
  8
Ebene_1
 62
5
100
AcDbSpline
 70
8
 71
3
 72
8
 73
4
 74
0
 40
0
 40
0
 40
0
 40
0
 40
1
 40
1
 40
1
 40
1
 10
17.129981
 20
123.451637
 30
0.0
 10
16.746701
 20
120.429099
 30
0.0
 10
14.176477
 20
118.162592
 30
0.0
 10
11.129735
 20
118.160424
 30
0.0
  0
SPLINE
  5
185
100
AcDbEntity
  8
Ebene_1
 62
5
100
AcDbSpline
 70
8
 71
3
 72
8
 73
4
 74
0
 40
0
 40
0
 40
0
 40
0
 40
1
 40
1
 40
1
 40
1
 10
11.129735
 20
118.160424
 30
0.0
 10
7.816195
 20
118.159004
 30
0.0
 10
5.131127
 20
115.471821
 30
0.0
 10
5.132314
 20
112.158282
 30
0.0
  0
SPLINE
  5
186
100
AcDbEntity
  8
Ebene_1
 62
5
100
AcDbSpline
 70
8
 71
3
 72
8
 73
4
 74
0
 40
0
 40
0
 40
0
 40
0
 40
1
 40
1
 40
1
 40
1
 10
5.132314
 20
112.158282
 30
0.0
 10
5.133501
 20
108.844742
 30
0.0
 10
7.820495
 20
106.159484
 30
0.0
 10
11.134035
 20
106.160439
 30
0.0
  0
SPLINE
  5
187
100
AcDbEntity
  8
Ebene_1
 62
5
100
AcDbSpline
 70
8
 71
3
 72
8
 73
4
 74
0
 40
0
 40
0
 40
0
 40
0
 40
1
 40
1
 40
1
 40
1
 10
11.134035
 20
106.160439
 30
0.0
 10
14.157534
 20
106.160439
 30
0.0
 10
16.717268
 20
103.929250
 30
0.0
 10
17.130010
 20
100.934055
 30
0.0
  0
LWPOLYLINE
  5
188
100
AcDbEntity
  8
Ebene_1
 62
5
100
AcDbPolyline
 90
2
 70
0
 10
122.444039
 20
132.485416
 30
0.0
 10
26.739461
 20
132.485416
 30
0.0
  0
LWPOLYLINE
  5
189
100
AcDbEntity
  8
Ebene_1
 62
5
100
AcDbPolyline
 90
1
 70
1
 10
17.130010
 20
100.934055
 30
0.0
  0
ENDSEC
  0
SECTION
  2
OBJECTS
  0
DICTIONARY
  5
C
330
0
100
AcDbDictionary
  3
ACAD_GROUP
350
D
  3
ACAD_MLINESTYLE
350
17
  0
DICTIONARY
  5
D
330
C
100
AcDbDictionary
  0
DICTIONARY
  5
1A
330
C
100
AcDbDictionary
  0
DICTIONARY
  5
17
330
C
100
AcDbDictionary
  3
STANDARD
350
18
  0
DICTIONARY
  5
19
330
C
100
AcDbDictionary
  0
ENDSEC
  0
EOF
