<?xml version="1.0" encoding="UTF-8" standalone="no"?>
<svg
   xmlns:dc="http://purl.org/dc/elements/1.1/"
   xmlns:cc="http://creativecommons.org/ns#"
   xmlns:rdf="http://www.w3.org/1999/02/22-rdf-syntax-ns#"
   xmlns:svg="http://www.w3.org/2000/svg"
   xmlns="http://www.w3.org/2000/svg"
   xmlns:sodipodi="http://sodipodi.sourceforge.net/DTD/sodipodi-0.dtd"
   xmlns:inkscape="http://www.inkscape.org/namespaces/inkscape"
   width="165.45757mm"
   height="137.61781mm"
   viewBox="0 0 165.45757 137.61781"
   version="1.1"
   id="svg2582"
   inkscape:version="1.0.2-2 (e86c870879, 2021-01-15)"
   sodipodi:docname="Layer 1.svg">
  <defs
     id="defs2576" />
  <sodipodi:namedview
     id="base"
     pagecolor="#ffffff"
     bordercolor="#666666"
     borderopacity="1.0"
     inkscape:pageopacity="0.0"
     inkscape:pageshadow="2"
     inkscape:zoom="1.4"
     inkscape:cx="501.33028"
     inkscape:cy="214.88229"
     inkscape:document-units="mm"
     inkscape:current-layer="layer1"
     inkscape:document-rotation="0"
     showgrid="false"
     inkscape:window-width="1920"
     inkscape:window-height="1051"
     inkscape:window-x="-9"
     inkscape:window-y="-9"
     inkscape:window-maximized="1"
     fit-margin-top="5"
     fit-margin-left="5"
     fit-margin-bottom="5"
     fit-margin-right="5" />
  <metadata
     id="metadata2579">
    <rdf:RDF>
      <cc:Work
         rdf:about="">
        <dc:format>image/svg+xml</dc:format>
        <dc:type
           rdf:resource="http://purl.org/dc/dcmitype/StillImage" />
        <dc:title />
      </cc:Work>
    </rdf:RDF>
  </metadata>
  <g
     inkscape:label="Ebene 1"
     inkscape:groupmode="layer"
     id="layer1"
     transform="translate(-20.836699,-114.88753)">
    <path
       d="m 33.412741,132.2032 a 2.050005,2.050005 0 1 0 -4.10001,0 2.050005,2.050005 0 1 0 4.10001,0 z"
       style="fill:none;stroke:#0000ff;stroke-width:0.264583;stroke-opacity:1"
       id="path2846-1" />
    <path
       d="m 147.13774,124.01982 a 2.05,2.05 0 1 0 -4.1,0 2.05,2.05 0 1 0 4.1,0 z"
       style="fill:none;stroke:#0000ff;stroke-width:0.264583;stroke-opacity:1"
       id="path2848-6" />
    <path
       d="m 158.88929,243.05994 a 2.05,2.05 0 1 0 -4.1,0 2.05,2.05 0 1 0 4.1,0 z"
       style="fill:none;stroke:#0000ff;stroke-width:0.264583;stroke-opacity:1"
       id="path2850-1" />
    <path
       d="m 167.13931,189.94427 h -13.4 v 12.5 h 13.4 z"
       style="fill:none;stroke:#0000ff;stroke-width:0.264583;stroke-opacity:1"
       id="path2852-5" />
    <path
       d="m 33.539871,216.44039 a 2.05,2.05 0 1 0 -4.09999,0 2.05,2.05 0 1 0 4.09999,0 z"
       style="fill:none;stroke:#0000ff;stroke-width:0.264583;stroke-opacity:1"
       id="path2854-5" />
    <path
       d="m 150.00166,204.84538 a 0.35000009,0.35000009 0 0 1 -0.35,-0.35 v -21.27554 h 23.51029 a 7.9999998,7.9999998 0 0 1 8,8 v 15.75417 a 14.32429,14.32429 0 0 1 -1.37221,6.1401 l -16.38391,29.38517 a 9.7317882,9.7317882 0 0 1 -12.04845,4.17571 l -32.32844,-12.94082 a 1.7247859,1.7247859 0 0 0 -0.64099,-0.12354 h -15.05636 a 5.4920377,5.4920377 0 0 0 -1.4701,0.20037 l -15.555849,4.3212 a 19.960771,19.960771 0 0 1 -5.34368,0.72853 h -16.12098 a 9.6919554,9.6919554 0 0 1 -8.27485,-4.65166 l -6.00687,-9.86573 a 1.9999999,1.9999999 0 0 0 -1.54789,-0.95345 l -14.08442,-1.13311 a 9.7394336,9.7394336 0 0 1 -8.95796,-9.71149 l 0.0273,-76.63187 a 9.7289693,9.7289693 0 0 1 8.17215,-9.60038 l 35.9996,-5.83581 a 35.496476,35.496476 0 0 1 5.68004,-0.45741 h 73.206599 a 3,3 0 0 1 3,3.00001 v 4.99991 h -2.66879 v 0.99999 1.2369 1.94474 h -18.03193 l -0.90126,-2.4003 h -18.21777 l -1.00031,-1.3894 H 92.450581 l -0.90126,1.38938 h -18.27586 l -1.00032,4.8006 h -17.93732 l -0.90126,1.50114 h -18.38216 l -0.0491,76.49966 h 19.10582 l 0.95206,-1.50114 h 8.49214 v 18.39976 h 19.26266 l 0.99778,-4.14782 h 36.683599 l 0.90138,0.0154 17.49091,4.6881 0.69363,-0.005 16.08688,9.28349 2.69903,-4.67701 9.05023,-15.67371 2.69981,-4.67667 -16.39066,-9.46223 z"
       style="fill:none;stroke:#0000ff;stroke-width:0.264583;stroke-opacity:1"
       id="path2856-7" />
    <path
       d="m 158.53471,126.06133 a 3,3 0 0 1 2.99998,-3.00002 h 0.49781 a 9.6278356,9.6278356 0 0 1 9.60945,9.03379 6.0526445,6.0526445 0 0 0 6.00026,5.29124 6.0000009,6.0000009 0 0 1 -0.004,11.99999 6.0526445,6.0526445 0 0 0 -5.99599,5.22636 v 13.64866 a 7.9999997,7.9999997 0 0 1 -7.99997,8.00001 h -0.0247 l 0.0102,-43.272 a 1.9964022,1.9964022 0 0 0 -1.9952,-1.92811 h -3.09782 z"
       style="fill:none;stroke:#0000ff;stroke-width:0.264583;stroke-opacity:1"
       id="path2526-7-1" />
    <path
       d="m 167.89806,128.55226 a 2.0500093,2.0500093 0 1 0 -4.10001,0 2.0500093,2.0500093 0 1 0 4.10001,0 z"
       style="fill:none;stroke:#0000ff;stroke-width:0.264583;stroke-opacity:1"
       id="path2528-8-0" />
    <path
       d="m 169.69194,171.127 a 2.0500053,2.0500053 0 1 0 -4.09998,0 2.0500053,2.0500053 0 1 0 4.09998,0 z"
       style="fill:none;stroke:#0000ff;stroke-width:0.264583;stroke-opacity:1"
       id="path2530-2-0" />
    <path
       d="m 180.24007,143.38632 a 2.6000002,2.6000002 0 1 0 -5.19998,0 2.6000002,2.6000002 0 1 0 5.19998,0 z"
       style="fill:none;stroke:#0000ff;stroke-width:0.264583;stroke-opacity:1"
       id="path2532-3-5" />
  </g>
</svg>
