<?xml version="1.0" encoding="UTF-8" standalone="no"?>
<svg
   xmlns:dc="http://purl.org/dc/elements/1.1/"
   xmlns:cc="http://creativecommons.org/ns#"
   xmlns:rdf="http://www.w3.org/1999/02/22-rdf-syntax-ns#"
   xmlns:svg="http://www.w3.org/2000/svg"
   xmlns="http://www.w3.org/2000/svg"
   xmlns:sodipodi="http://sodipodi.sourceforge.net/DTD/sodipodi-0.dtd"
   xmlns:inkscape="http://www.inkscape.org/namespaces/inkscape"
   width="177.44691mm"
   height="137.61784mm"
   viewBox="0 0 177.44691 137.61784"
   version="1.1"
   id="svg3246"
   inkscape:version="1.0.2-2 (e86c870879, 2021-01-15)"
   sodipodi:docname="Layer -1.svg">
  <defs
     id="defs3240" />
  <sodipodi:namedview
     id="base"
     pagecolor="#ffffff"
     bordercolor="#666666"
     borderopacity="1.0"
     inkscape:pageopacity="0.0"
     inkscape:pageshadow="2"
     inkscape:zoom="1.4"
     inkscape:cx="510.98511"
     inkscape:cy="204.2876"
     inkscape:document-units="mm"
     inkscape:current-layer="layer1"
     inkscape:document-rotation="0"
     showgrid="false"
     fit-margin-top="5"
     fit-margin-left="5"
     fit-margin-right="5"
     fit-margin-bottom="5"
     inkscape:window-width="1436"
     inkscape:window-height="1033"
     inkscape:window-x="32"
     inkscape:window-y="0"
     inkscape:window-maximized="0" />
  <metadata
     id="metadata3243">
    <rdf:RDF>
      <cc:Work
         rdf:about="">
        <dc:format>image/svg+xml</dc:format>
        <dc:type
           rdf:resource="http://purl.org/dc/dcmitype/StillImage" />
        <dc:title></dc:title>
      </cc:Work>
    </rdf:RDF>
  </metadata>
  <g
     inkscape:label="Ebene 1"
     inkscape:groupmode="layer"
     id="layer1"
     transform="translate(-10.30555,-19.637499)">
    <path
       d="m 34.99569,121.19038 a 2.050005,2.050005 0 1 0 -4.09998,0 2.050005,2.050005 0 1 0 4.09998,0 z"
       style="fill:none;stroke:#0000ff;stroke-width:0.264583;stroke-opacity:1"
       id="path2510-0-7" />
    <path
       d="m 34.86858,36.95318 a 2.0500095,2.0500095 0 1 0 -4.10001,0 2.0500095,2.0500095 0 1 0 4.10001,0 z"
       style="fill:none;stroke:#0000ff;stroke-width:0.264583;stroke-opacity:1"
       id="path2512-7-1" />
    <path
       d="m 160.34504,147.80993 a 2.05001,2.05001 0 1 0 -4.10002,0 2.05001,2.05001 0 1 0 4.10002,0 z"
       style="fill:none;stroke:#0000ff;stroke-width:0.264583;stroke-opacity:1"
       id="path2514-2-7" />
    <path
       d="m 24.02952,104.09949 a 2.6000092,2.6000092 0 1 0 -5.20001,0 2.6000092,2.6000092 0 1 0 5.20001,0 z"
       style="fill:none;stroke:#0000ff;stroke-width:0.264583;stroke-opacity:1"
       id="path2516-4-2" />
    <path
       d="m 24.04766,53.0995 a 2.60001,2.60001 0 1 0 -5.20002,0 2.60001,2.60001 0 1 0 5.20002,0 z"
       style="fill:none;stroke:#0000ff;stroke-width:0.264583;stroke-opacity:1"
       id="path2518-7-7" />
    <path
       d="m 178.16405,140.37489 a 2.6000076,2.6000076 0 1 0 -5.20001,0 2.6000076,2.6000076 0 1 0 5.20001,0 z"
       style="fill:none;stroke:#0000ff;stroke-width:0.264583;stroke-opacity:1"
       id="path2520-5-9" />
    <path
       d="m 148.59348,28.76979 a 2.05001,2.05001 0 1 0 -4.10002,0 2.05001,2.05001 0 1 0 4.10002,0 z"
       style="fill:none;stroke:#0000ff;stroke-width:0.264583;stroke-opacity:1"
       id="path2522-7-4" />
    <path
       d="m 150.51044,24.76979 a 3,3 0 0 1 2.99999,3.00002 v 4.99992 h -3.90571 l -72.13512,0.0744 a 28.494606,28.494606 0 0 0 -4.6306,0.37983 l -35.57932,5.67839 a 2.1520856,2.1520856 0 0 0 -1.80774,2.12351 l -0.0272,75.89139 a 2.1520588,2.1520588 0 0 0 1.9794,2.14591 l 18.71313,1.50545 a 0.15174437,0.15174437 0 0 1 0.11744,0.0723 l 8.48564,13.93663 a 2.1527046,2.1527046 0 0 0 1.83822,1.03318 h 15.72352 a 12.956936,12.956936 0 0 0 3.4684,-0.47283 l 15.49094,-4.30315 a 12.994359,12.994359 0 0 1 3.47842,-0.4741 h 15.21897 a 9.2311722,9.2311722 0 0 1 3.43063,0.66114 l 32.07861,12.84083 a 2.1520116,2.1520116 0 0 0 2.66351,-0.92202 l 13.47441,-23.34249 2.38566,-5.06508 a 6.8175542,6.8175542 0 0 0 0.6459,-2.90738 l -0.0282,-17.582274 0.004,-6.07353 h 0.0268 a 7.9999997,7.9999997 0 0 1 8.00002,8.00002 v 15.754174 a 14.324291,14.324291 0 0 1 -1.3722,6.1401 l -5.44576,9.76718 a 5.7619207,5.7619207 0 0 0 2.56914,7.43959 5.9999999,5.9999999 0 1 1 -5.73024,10.54255 6.0594697,6.0594697 0 0 0 -7.74835,1.58425 l -0.0289,0.0516 a 9.7317882,9.7317882 0 0 1 -12.04845,4.17569 l -32.32845,-12.9408 a 1.7247859,1.7247859 0 0 0 -0.64096,-0.12354 H 104.789 a 5.492038,5.492038 0 0 0 -1.47013,0.20037 L 87.7631,142.8822 a 19.960772,19.960772 0 0 1 -5.34367,0.72855 H 66.29844 a 9.6919558,9.6919558 0 0 1 -8.27486,-4.65169 l -6.00685,-9.86571 a 2,2 0 0 0 -1.54788,-0.95349 l -14.08448,-1.13305 a 9.7394336,9.7394336 0 0 1 -8.9578,-9.71151 v -1.90454 a 6.0526445,6.0526445 0 0 0 -6.00026,-5.29125 5.9999999,5.9999999 0 0 1 0.004,-11.999984 6.0526445,6.0526445 0 0 0 6.004,-5.28697 l 0.01,-28.438406 a 6.0526445,6.0526445 0 0 0 -5.99814,-5.27463 6.0000104,6.0000104 0 0 1 0.004,-12.00001 6.0526445,6.0526445 0 0 0 6.00184,-5.27029 v -1.16579 a 9.7289695,9.7289695 0 0 1 8.17217,-9.6004 L 71.6238,25.22721 a 35.496475,35.496475 0 0 1 5.68008,-0.45741 z"
       style="fill:none;stroke:#0000ff;stroke-width:0.264583;stroke-opacity:1"
       id="path2524-3-2" />
    <path
       d="m 158.96487,32.323212 a 3,3 0 0 1 2.99999,-3.000022 h 0.4978 a 9.6278356,9.6278356 0 0 1 9.60946,9.033792 6.0526445,6.0526445 0 0 0 6.00025,5.291243 6.0000009,6.0000009 0 0 1 -0.004,11.999983 6.0526445,6.0526445 0 0 0 -5.99598,5.226367 V 74.52323 a 7.9999997,7.9999997 0 0 1 -7.99998,8.000012 h -0.0247 l 0.0102,-43.272004 a 1.9964022,1.9964022 0 0 0 -1.99521,-1.928107 h -3.09781 z"
       style="fill:none;stroke:#0000ff;stroke-width:0.264583;stroke-opacity:1"
       id="path2526-7-1" />
    <path
       d="m 168.32823,34.814141 a 2.05001,2.05001 0 1 0 -4.10002,0 2.05001,2.05001 0 1 0 4.10002,0 z"
       style="fill:none;stroke:#0000ff;stroke-width:0.264583;stroke-opacity:1"
       id="path2528-8-0" />
    <path
       d="m 170.1221,77.388879 a 2.0500053,2.0500053 0 1 0 -4.09998,0 2.0500053,2.0500053 0 1 0 4.09998,0 z"
       style="fill:none;stroke:#0000ff;stroke-width:0.264583;stroke-opacity:1"
       id="path2530-2-0" />
    <path
       d="m 180.67023,49.648199 a 2.6000002,2.6000002 0 1 0 -5.19998,0 2.6000002,2.6000002 0 1 0 5.19998,0 z"
       style="fill:none;stroke:#0000ff;stroke-width:0.264583;stroke-opacity:1"
       id="path2532-3-5" />
  </g>
</svg>
