<?xml version="1.0" encoding="UTF-8" standalone="no"?>
<svg
   xmlns:dc="http://purl.org/dc/elements/1.1/"
   xmlns:cc="http://creativecommons.org/ns#"
   xmlns:rdf="http://www.w3.org/1999/02/22-rdf-syntax-ns#"
   xmlns:svg="http://www.w3.org/2000/svg"
   xmlns="http://www.w3.org/2000/svg"
   xmlns:sodipodi="http://sodipodi.sourceforge.net/DTD/sodipodi-0.dtd"
   xmlns:inkscape="http://www.inkscape.org/namespaces/inkscape"
   width="189.45253mm"
   height="137.61783mm"
   viewBox="0 0 189.45253 137.61783"
   version="1.1"
   id="svg4528"
   inkscape:version="1.0.2-2 (e86c870879, 2021-01-15)"
   sodipodi:docname="Layer -3.svg">
  <defs
     id="defs4522" />
  <sodipodi:namedview
     id="base"
     pagecolor="#ffffff"
     bordercolor="#666666"
     borderopacity="1.0"
     inkscape:pageopacity="0.0"
     inkscape:pageshadow="2"
     inkscape:zoom="0.35"
     inkscape:cx="263.72788"
     inkscape:cy="160.39071"
     inkscape:document-units="mm"
     inkscape:current-layer="layer1"
     inkscape:document-rotation="0"
     showgrid="false"
     fit-margin-top="5"
     fit-margin-left="5"
     fit-margin-bottom="5"
     fit-margin-right="5"
     inkscape:window-width="1436"
     inkscape:window-height="1033"
     inkscape:window-x="160"
     inkscape:window-y="0"
     inkscape:window-maximized="0" />
  <metadata
     id="metadata4525">
    <rdf:RDF>
      <cc:Work
         rdf:about="">
        <dc:format>image/svg+xml</dc:format>
        <dc:type
           rdf:resource="http://purl.org/dc/dcmitype/StillImage" />
        <dc:title></dc:title>
      </cc:Work>
    </rdf:RDF>
  </metadata>
  <g
     inkscape:label="Ebene 1"
     inkscape:groupmode="layer"
     id="layer1"
     transform="translate(-36.055331,-105.72996)">
    <path
       d="m 87.209519,114.86224 a 2.05,2.05 0 1 1 4.1,0 2.05,2.05 0 1 1 -4.1,0 z"
       style="fill:none;stroke:#0000ff;stroke-width:0.264583;stroke-opacity:1"
       id="path2429-7" />
    <path
       d="m 44.587185,131.18725 a 2.6000001,2.6000001 0 1 1 5.199999,0 2.6000001,2.6000001 0 1 1 -5.199999,0 z"
       style="fill:none;stroke:#0000ff;stroke-width:0.264583;stroke-opacity:1"
       id="path2431-0" />
    <path
       d="m 57.638977,226.46734 a 2.600001,2.600001 0 1 1 5.200002,0 2.600001,2.600001 0 1 1 -5.200002,0 z"
       style="fill:none;stroke:#0000ff;stroke-width:0.264583;stroke-opacity:1"
       id="path2433-5" />
    <path
       d="m 211.75542,139.19197 a 2.6000001,2.6000001 0 1 1 5.2,0 2.6000001,2.6000001 0 1 1 -5.2,0 z"
       style="fill:none;stroke:#0000ff;stroke-width:0.264583;stroke-opacity:1"
       id="path2435-2" />
    <path
       d="m 211.77357,190.19196 a 2.6000001,2.6000001 0 1 1 5.2,0 2.6000001,2.6000001 0 1 1 -5.2,0 z"
       style="fill:none;stroke:#0000ff;stroke-width:0.264583;stroke-opacity:1"
       id="path2437-2" />
    <path
       d="m 55.135302,158.92792 a 2.050001,2.050001 0 1 1 4.100002,0 2.050001,2.050001 0 1 1 -4.100002,0 z"
       style="fill:none;stroke:#0000ff;stroke-width:0.264583;stroke-opacity:1"
       id="path2439-6" />
    <path
       d="m 200.80738,207.28283 a 2.05,2.05 0 1 1 4.1,0 2.05,2.05 0 1 1 -4.1,0 z"
       style="fill:none;stroke:#0000ff;stroke-width:0.264583;stroke-opacity:1"
       id="path2441-2" />
    <path
       d="m 200.93452,123.04561 a 2.05,2.05 0 1 1 4.1,0 2.05,2.05 0 1 1 -4.1,0 z"
       style="fill:none;stroke:#0000ff;stroke-width:0.264583;stroke-opacity:1"
       id="path2443-5" />
    <path
       d="m 56.929209,116.35319 a 2.050001,2.050001 0 1 1 4.100002,0 2.050001,2.050001 0 1 1 -4.100002,0 z"
       style="fill:none;stroke:#0000ff;stroke-width:0.264583;stroke-opacity:1"
       id="path2445-2" />
    <path
       d="m 75.457966,233.90237 a 2.05,2.05 0 1 1 4.099999,0 2.05,2.05 0 1 1 -4.099999,0 z"
       style="fill:none;stroke:#0000ff;stroke-width:0.264583;stroke-opacity:1"
       id="path2447-9" />
    <path
       d="m 61.21367,180.13577 -0.0141,-59.3455 a 1.9964021,1.9964021 0 0 1 1.995233,-1.92811 h 23.003465 l 72.135202,0.0744 a 28.494606,28.494606 0 0 1 4.63061,0.37984 l 35.57933,5.67839 a 2.1520856,2.1520856 0 0 1 1.80771,2.12352 l 0.027,75.89137 a 2.1520586,2.1520586 0 0 1 -1.9794,2.14589 l -18.71314,1.50547 a 0.15174436,0.15174436 0 0 0 -0.11742,0.0723 l -8.48548,13.93664 a 2.1527045,2.1527045 0 0 1 -1.83822,1.03317 h -15.72347 a 12.956935,12.956935 0 0 1 -3.46843,-0.47284 l -15.49096,-4.30315 a 12.994359,12.994359 0 0 0 -3.47845,-0.47408 h -15.21898 a 9.2311722,9.2311722 0 0 0 -3.43062,0.66114 l -32.078605,12.84081 a 2.1520115,2.1520115 0 0 1 -2.66351,-0.92202 L 64.217,205.69051 61.831347,200.62545 a 6.8175541,6.8175541 0 0 1 -0.645874,-2.9074 z"
       style="fill:none;stroke:#0000ff;stroke-width:0.264583;stroke-opacity:1"
       id="path2449-4" />
    <path
       d="m 53.185302,142.41364 v 55.40281 a 14.32429,14.32429 0 0 0 1.372208,6.1401 l 5.445758,9.76716 a 5.7619206,5.7619206 0 0 1 -2.569139,7.43961 5.9999998,5.9999998 0 1 0 5.730248,10.54254 6.0594697,6.0594697 0 0 1 7.748286,1.58427 l 0.02876,0.0516 a 9.7317882,9.7317882 0 0 0 12.048453,4.17571 l 32.328444,-12.94082 a 1.7247859,1.7247859 0 0 1 0.64098,-0.12354 h 15.05636 a 5.4920377,5.4920377 0 0 1 1.4701,0.20037 l 15.55586,4.3212 a 19.960771,19.960771 0 0 0 5.34367,0.72853 h 16.12099 a 9.6919554,9.6919554 0 0 0 8.27484,-4.65166 l 6.00687,-9.86573 a 1.9999999,1.9999999 0 0 1 1.54789,-0.95346 l 14.08442,-1.1331 a 9.7394336,9.7394336 0 0 0 8.95796,-9.71149 l -6.8e-4,-1.90456 a 6.0526442,6.0526442 0 0 1 5.99599,-5.29121 6.052644,6.052644 0 0 1 0.004,0 6.0000003,6.0000003 0 0 0 -0.004,-12 6.0526442,6.0526442 0 0 1 -6.00402,-5.28695 l -0.0101,-28.43843 a 6.0526442,6.0526442 0 0 1 5.99813,-5.27461 6.0000003,6.0000003 0 0 0 -0.004,-12 6.0526442,6.0526442 0 0 1 -6.00188,-5.27035 l -4.1e-4,-1.16576 a 9.7289693,9.7289693 0 0 0 -8.17215,-9.60039 l -35.99961,-5.83582 a 35.496476,35.496476 0 0 0 -5.68004,-0.45741 H 62.794794 a 9.6278352,9.6278352 0 0 0 -9.609492,9.03379 6.0526442,6.0526442 0 0 1 -6.000253,5.29122 6.0000004,6.0000004 0 0 0 0.0043,12 6.0526442,6.0526442 0 0 1 5.995982,5.22639 z"
       style="fill:none;stroke:#0000ff;stroke-width:0.264583;stroke-opacity:1"
       id="path2451-0" />
  </g>
</svg>
