  0
SECTION
  2
HEADER
  9
$ACADVER
  1
AC1014
  9
$HANDSEED
  5
FFFF
  9
$MEASUREMENT
 70
     1
  0
ENDSEC
  0
SECTION
  2
TABLES
  0
TABLE
  2
VPORT
  5
8
330
0
100
AcDbSymbolTable
 70
     4
  0
VPORT
  5
2E
330
8
100
AcDbSymbolTableRecord
100
AcDbViewportTableRecord
  2
*ACTIVE
 70
     0
 10
0.0
 20
0.0
 11
1.0
 21
1.0
 12
210.0
 22
148.5
 13
0.0
 23
0.0
 14
10.0
 24
10.0
 15
10.0
 25
10.0
 16
0.0
 26
0.0
 36
1.0
 17
0.0
 27
0.0
 37
0.0
 40
341.0
 41
1.24
 42
50.0
 43
0.0
 44
0.0
 50
0.0
 51
0.0
 71
     0
 72
   100
 73
     1
 74
     3
 75
     0
 76
     0
 77
     0
 78
     0
  0
ENDTAB
  0
TABLE
  2
LTYPE
  5
5
330
0
100
AcDbSymbolTable
 70
     1
  0
LTYPE
  5
14
330
5
100
AcDbSymbolTableRecord
100
AcDbLinetypeTableRecord
  2
BYBLOCK
 70
     0
  3

 72
    65
 73
     0
 40
0.0
  0
LTYPE
  5
15
330
5
100
AcDbSymbolTableRecord
100
AcDbLinetypeTableRecord
  2
BYLAYER
 70
     0
  3

 72
    65
 73
     0
 40
0.0
  0
LTYPE
  5
16
330
5
100
AcDbSymbolTableRecord
100
AcDbLinetypeTableRecord
  2
CONTINUOUS
 70
     0
  3
Solid line
 72
    65
 73
     0
 40
0.0
  0
ENDTAB
  0
TABLE
  2
LAYER
  5
2
100
AcDbSymbolTable
 70
2
  0
LAYER
  5
50
100
AcDbSymbolTableRecord
100
AcDbLayerTableRecord
  2
0
 70
0
  6
CONTINUOUS
  0
LAYER
  5
51
100
AcDbSymbolTableRecord
100
AcDbLayerTableRecord
  2
Ebene_1
 70
0
  6
CONTINUOUS
  0
ENDTAB
  0
TABLE
  2
STYLE
  5
3
330
0
100
AcDbSymbolTable
 70
     1
  0
STYLE
  5
11
330
3
100
AcDbSymbolTableRecord
100
AcDbTextStyleTableRecord
  2
STANDARD
 70
     0
 40
0.0
 41
1.0
 50
0.0
 71
     0
 42
2.5
  3
txt
  4

  0
ENDTAB
  0
TABLE
  2
VIEW
  5
6
330
0
100
AcDbSymbolTable
 70
     0
  0
ENDTAB
  0
TABLE
  2
UCS
  5
7
330
0
100
AcDbSymbolTable
 70
     0
  0
ENDTAB
  0
TABLE
  2
APPID
  5
9
330
0
100
AcDbSymbolTable
 70
     2
  0
APPID
  5
12
330
9
100
AcDbSymbolTableRecord
100
AcDbRegAppTableRecord
  2
ACAD
 70
     0
  0
ENDTAB
  0
TABLE
  2
DIMSTYLE
  5
A
330
0
100
AcDbSymbolTable
 70
     1
  0
DIMSTYLE
105
27
330
A
100
AcDbSymbolTableRecord
100
AcDbDimStyleTableRecord
  2
ISO-25
 70
     0
  3

  4

  5

  6

  7

 40
1.0
 41
2.5
 42
0.625
 43
3.75
 44
1.25
 45
0.0
 46
0.0
 47
0.0
 48
0.0
140
2.5
141
2.5
142
0.0
143
0.03937007874016
144
1.0
145
0.0
146
1.0
147
0.625
 71
     0
 72
     0
 73
     0
 74
     0
 75
     0
 76
     0
 77
     1
 78
     8
170
     0
171
     3
172
     1
173
     0
174
     0
175
     0
176
     0
177
     0
178
     0
270
     2
271
     2
272
     2
273
     2
274
     3
340
11
275
     0
280
     0
281
     0
282
     0
283
     0
284
     8
285
     0
286
     0
287
     3
288
     0
  0
ENDTAB
  0
TABLE
  2
BLOCK_RECORD
  5
1
330
0
100
AcDbSymbolTable
 70
     1
  0
BLOCK_RECORD
  5
1F
330
1
100
AcDbSymbolTableRecord
100
AcDbBlockTableRecord
  2
*MODEL_SPACE
  0
BLOCK_RECORD
  5
1B
330
1
100
AcDbSymbolTableRecord
100
AcDbBlockTableRecord
  2
*PAPER_SPACE
  0
ENDTAB
  0
ENDSEC
  0
SECTION
  2
BLOCKS
  0
BLOCK
  5
20
330
1F
100
AcDbEntity
  8
0
100
AcDbBlockBegin
  2
*MODEL_SPACE
 70
     0
 10
0.0
 20
0.0
 30
0.0
  3
*MODEL_SPACE
  1

  0
ENDBLK
  5
21
330
1F
100
AcDbEntity
  8
0
100
AcDbBlockEnd
  0
BLOCK
  5
1C
330
1B
100
AcDbEntity
 67
     1
  8
0
100
AcDbBlockBegin
  2
*PAPER_SPACE
  1

  0
ENDBLK
  5
1D
330
1B
100
AcDbEntity
 67
     1
  8
0
100
AcDbBlockEnd
  0
ENDSEC
  0
SECTION
  2
ENTITIES
  0
SPLINE
  5
100
100
AcDbEntity
  8
Ebene_1
 62
5
100
AcDbSpline
 70
8
 71
3
 72
8
 73
4
 74
0
 40
0
 40
0
 40
0
 40
0
 40
1
 40
1
 40
1
 40
1
 10
12.576024
 20
120.302444
 30
0.0
 10
12.576024
 20
121.034839
 30
0.0
 10
12.185295
 20
121.711600
 30
0.0
 10
11.551023
 20
122.077798
 30
0.0
  0
SPLINE
  5
101
100
AcDbEntity
  8
Ebene_1
 62
5
100
AcDbSpline
 70
8
 71
3
 72
8
 73
4
 74
0
 40
0
 40
0
 40
0
 40
0
 40
1
 40
1
 40
1
 40
1
 10
11.551023
 20
122.077798
 30
0.0
 10
10.916750
 20
122.443995
 30
0.0
 10
10.135293
 20
122.443995
 30
0.0
 10
9.501020
 20
122.077798
 30
0.0
  0
SPLINE
  5
102
100
AcDbEntity
  8
Ebene_1
 62
5
100
AcDbSpline
 70
8
 71
3
 72
8
 73
4
 74
0
 40
0
 40
0
 40
0
 40
0
 40
1
 40
1
 40
1
 40
1
 10
9.501020
 20
122.077798
 30
0.0
 10
8.866748
 20
121.711600
 30
0.0
 10
8.476019
 20
121.034839
 30
0.0
 10
8.476019
 20
120.302444
 30
0.0
  0
SPLINE
  5
103
100
AcDbEntity
  8
Ebene_1
 62
5
100
AcDbSpline
 70
8
 71
3
 72
8
 73
4
 74
0
 40
0
 40
0
 40
0
 40
0
 40
1
 40
1
 40
1
 40
1
 10
8.476019
 20
120.302444
 30
0.0
 10
8.476019
 20
119.570049
 30
0.0
 10
8.866748
 20
118.893288
 30
0.0
 10
9.501020
 20
118.527090
 30
0.0
  0
SPLINE
  5
104
100
AcDbEntity
  8
Ebene_1
 62
5
100
AcDbSpline
 70
8
 71
3
 72
8
 73
4
 74
0
 40
0
 40
0
 40
0
 40
0
 40
1
 40
1
 40
1
 40
1
 10
9.501020
 20
118.527090
 30
0.0
 10
10.135293
 20
118.160892
 30
0.0
 10
10.916750
 20
118.160892
 30
0.0
 10
11.551023
 20
118.527090
 30
0.0
  0
SPLINE
  5
105
100
AcDbEntity
  8
Ebene_1
 62
5
100
AcDbSpline
 70
8
 71
3
 72
8
 73
4
 74
0
 40
0
 40
0
 40
0
 40
0
 40
1
 40
1
 40
1
 40
1
 10
11.551023
 20
118.527090
 30
0.0
 10
12.185295
 20
118.893288
 30
0.0
 10
12.576024
 20
119.570049
 30
0.0
 10
12.576024
 20
120.302444
 30
0.0
  0
SPLINE
  5
106
100
AcDbEntity
  8
Ebene_1
 62
5
100
AcDbSpline
 70
8
 71
3
 72
8
 73
4
 74
0
 40
0
 40
0
 40
0
 40
0
 40
1
 40
1
 40
1
 40
1
 10
126.300866
 20
128.485813
 30
0.0
 10
126.300866
 20
129.218206
 30
0.0
 10
125.910138
 20
129.894966
 30
0.0
 10
125.275867
 20
130.261162
 30
0.0
  0
SPLINE
  5
107
100
AcDbEntity
  8
Ebene_1
 62
5
100
AcDbSpline
 70
8
 71
3
 72
8
 73
4
 74
0
 40
0
 40
0
 40
0
 40
0
 40
1
 40
1
 40
1
 40
1
 10
125.275867
 20
130.261162
 30
0.0
 10
124.641596
 20
130.627359
 30
0.0
 10
123.860141
 20
130.627359
 30
0.0
 10
123.225870
 20
130.261162
 30
0.0
  0
SPLINE
  5
108
100
AcDbEntity
  8
Ebene_1
 62
5
100
AcDbSpline
 70
8
 71
3
 72
8
 73
4
 74
0
 40
0
 40
0
 40
0
 40
0
 40
1
 40
1
 40
1
 40
1
 10
123.225870
 20
130.261162
 30
0.0
 10
122.591599
 20
129.894966
 30
0.0
 10
122.200871
 20
129.218206
 30
0.0
 10
122.200871
 20
128.485813
 30
0.0
  0
SPLINE
  5
109
100
AcDbEntity
  8
Ebene_1
 62
5
100
AcDbSpline
 70
8
 71
3
 72
8
 73
4
 74
0
 40
0
 40
0
 40
0
 40
0
 40
1
 40
1
 40
1
 40
1
 10
122.200871
 20
128.485813
 30
0.0
 10
122.200871
 20
127.753419
 30
0.0
 10
122.591599
 20
127.076660
 30
0.0
 10
123.225870
 20
126.710463
 30
0.0
  0
SPLINE
  5
10a
100
AcDbEntity
  8
Ebene_1
 62
5
100
AcDbSpline
 70
8
 71
3
 72
8
 73
4
 74
0
 40
0
 40
0
 40
0
 40
0
 40
1
 40
1
 40
1
 40
1
 10
123.225870
 20
126.710463
 30
0.0
 10
123.860141
 20
126.344266
 30
0.0
 10
124.641596
 20
126.344266
 30
0.0
 10
125.275867
 20
126.710463
 30
0.0
  0
SPLINE
  5
10b
100
AcDbEntity
  8
Ebene_1
 62
5
100
AcDbSpline
 70
8
 71
3
 72
8
 73
4
 74
0
 40
0
 40
0
 40
0
 40
0
 40
1
 40
1
 40
1
 40
1
 10
125.275867
 20
126.710463
 30
0.0
 10
125.910138
 20
127.076660
 30
0.0
 10
126.300866
 20
127.753419
 30
0.0
 10
126.300866
 20
128.485813
 30
0.0
  0
LWPOLYLINE
  5
10c
100
AcDbEntity
  8
Ebene_1
 62
5
100
AcDbPolyline
 90
1
 70
1
 10
12.576024
 20
120.302444
 30
0.0
  0
SPLINE
  5
10d
100
AcDbEntity
  8
Ebene_1
 62
5
100
AcDbSpline
 70
8
 71
3
 72
8
 73
4
 74
0
 40
0
 40
0
 40
0
 40
0
 40
1
 40
1
 40
1
 40
1
 10
138.052399
 20
9.445857
 30
0.0
 10
138.052399
 20
10.178250
 30
0.0
 10
137.661672
 20
10.855010
 30
0.0
 10
137.027401
 20
11.221207
 30
0.0
  0
SPLINE
  5
10e
100
AcDbEntity
  8
Ebene_1
 62
5
100
AcDbSpline
 70
8
 71
3
 72
8
 73
4
 74
0
 40
0
 40
0
 40
0
 40
0
 40
1
 40
1
 40
1
 40
1
 10
137.027401
 20
11.221207
 30
0.0
 10
136.393130
 20
11.587404
 30
0.0
 10
135.611675
 20
11.587404
 30
0.0
 10
134.977404
 20
11.221207
 30
0.0
  0
SPLINE
  5
10f
100
AcDbEntity
  8
Ebene_1
 62
5
100
AcDbSpline
 70
8
 71
3
 72
8
 73
4
 74
0
 40
0
 40
0
 40
0
 40
0
 40
1
 40
1
 40
1
 40
1
 10
134.977404
 20
11.221207
 30
0.0
 10
134.343132
 20
10.855010
 30
0.0
 10
133.952405
 20
10.178250
 30
0.0
 10
133.952405
 20
9.445857
 30
0.0
  0
SPLINE
  5
110
100
AcDbEntity
  8
Ebene_1
 62
5
100
AcDbSpline
 70
8
 71
3
 72
8
 73
4
 74
0
 40
0
 40
0
 40
0
 40
0
 40
1
 40
1
 40
1
 40
1
 10
133.952405
 20
9.445857
 30
0.0
 10
133.952405
 20
8.713463
 30
0.0
 10
134.343132
 20
8.036704
 30
0.0
 10
134.977404
 20
7.670507
 30
0.0
  0
SPLINE
  5
111
100
AcDbEntity
  8
Ebene_1
 62
5
100
AcDbSpline
 70
8
 71
3
 72
8
 73
4
 74
0
 40
0
 40
0
 40
0
 40
0
 40
1
 40
1
 40
1
 40
1
 10
134.977404
 20
7.670507
 30
0.0
 10
135.611675
 20
7.304310
 30
0.0
 10
136.393130
 20
7.304310
 30
0.0
 10
137.027401
 20
7.670507
 30
0.0
  0
SPLINE
  5
112
100
AcDbEntity
  8
Ebene_1
 62
5
100
AcDbSpline
 70
8
 71
3
 72
8
 73
4
 74
0
 40
0
 40
0
 40
0
 40
0
 40
1
 40
1
 40
1
 40
1
 10
137.027401
 20
7.670507
 30
0.0
 10
137.661672
 20
8.036704
 30
0.0
 10
138.052399
 20
8.713463
 30
0.0
 10
138.052399
 20
9.445857
 30
0.0
  0
LWPOLYLINE
  5
113
100
AcDbEntity
  8
Ebene_1
 62
5
100
AcDbPolyline
 90
1
 70
1
 10
126.300866
 20
128.485813
 30
0.0
  0
LWPOLYLINE
  5
114
100
AcDbEntity
  8
Ebene_1
 62
5
100
AcDbPolyline
 90
1
 70
1
 10
138.052399
 20
9.445857
 30
0.0
  0
SPLINE
  5
115
100
AcDbEntity
  8
Ebene_1
 62
5
100
AcDbSpline
 70
8
 71
3
 72
8
 73
4
 74
0
 40
0
 40
0
 40
0
 40
0
 40
1
 40
1
 40
1
 40
1
 10
12.703153
 20
36.065370
 30
0.0
 10
12.704773
 20
36.798840
 30
0.0
 10
12.314402
 20
37.477289
 30
0.0
 10
11.679467
 20
37.844492
 30
0.0
  0
SPLINE
  5
116
100
AcDbEntity
  8
Ebene_1
 62
5
100
AcDbSpline
 70
8
 71
3
 72
8
 73
4
 74
0
 40
0
 40
0
 40
0
 40
0
 40
1
 40
1
 40
1
 40
1
 10
11.679467
 20
37.844492
 30
0.0
 10
11.044531
 20
38.211696
 30
0.0
 10
10.261791
 20
38.211696
 30
0.0
 10
9.626856
 20
37.844492
 30
0.0
  0
SPLINE
  5
117
100
AcDbEntity
  8
Ebene_1
 62
5
100
AcDbSpline
 70
8
 71
3
 72
8
 73
4
 74
0
 40
0
 40
0
 40
0
 40
0
 40
1
 40
1
 40
1
 40
1
 10
9.626856
 20
37.844492
 30
0.0
 10
8.991921
 20
37.477289
 30
0.0
 10
8.601549
 20
36.798840
 30
0.0
 10
8.603169
 20
36.065370
 30
0.0
  0
SPLINE
  5
118
100
AcDbEntity
  8
Ebene_1
 62
5
100
AcDbSpline
 70
8
 71
3
 72
8
 73
4
 74
0
 40
0
 40
0
 40
0
 40
0
 40
1
 40
1
 40
1
 40
1
 10
8.603169
 20
36.065370
 30
0.0
 10
8.601549
 20
35.331900
 30
0.0
 10
8.991921
 20
34.653452
 30
0.0
 10
9.626856
 20
34.286248
 30
0.0
  0
SPLINE
  5
119
100
AcDbEntity
  8
Ebene_1
 62
5
100
AcDbSpline
 70
8
 71
3
 72
8
 73
4
 74
0
 40
0
 40
0
 40
0
 40
0
 40
1
 40
1
 40
1
 40
1
 10
9.626856
 20
34.286248
 30
0.0
 10
10.261791
 20
33.919044
 30
0.0
 10
11.044531
 20
33.919044
 30
0.0
 10
11.679467
 20
34.286248
 30
0.0
  0
SPLINE
  5
11a
100
AcDbEntity
  8
Ebene_1
 62
5
100
AcDbSpline
 70
8
 71
3
 72
8
 73
4
 74
0
 40
0
 40
0
 40
0
 40
0
 40
1
 40
1
 40
1
 40
1
 10
11.679467
 20
34.286248
 30
0.0
 10
12.314402
 20
34.653452
 30
0.0
 10
12.704773
 20
35.331900
 30
0.0
 10
12.703153
 20
36.065370
 30
0.0
  0
LWPOLYLINE
  5
11b
100
AcDbEntity
  8
Ebene_1
 62
5
100
AcDbPolyline
 90
4
 70
1
 10
146.302408
 20
62.561454
 30
0.0
 10
132.902427
 20
62.561454
 30
0.0
 10
132.902427
 20
50.061471
 30
0.0
 10
146.302408
 20
50.061471
 30
0.0
  0
SPLINE
  5
11c
100
AcDbEntity
  8
Ebene_1
 62
5
100
AcDbSpline
 70
8
 71
3
 72
8
 73
4
 74
0
 40
0
 40
0
 40
0
 40
0
 40
1
 40
1
 40
1
 40
1
 10
129.164782
 20
47.660364
 30
0.0
 10
128.971482
 20
47.660364
 30
0.0
 10
128.814782
 20
47.817064
 30
0.0
 10
128.814782
 20
48.010364
 30
0.0
  0
LWPOLYLINE
  5
11d
100
AcDbEntity
  8
Ebene_1
 62
5
100
AcDbPolyline
 90
1
 70
1
 10
12.703153
 20
36.065370
 30
0.0
  0
SPLINE
  5
11e
100
AcDbEntity
  8
Ebene_1
 62
5
100
AcDbSpline
 70
8
 71
3
 72
8
 73
4
 74
0
 40
0
 40
0
 40
0
 40
0
 40
1
 40
1
 40
1
 40
1
 10
152.325040
 20
69.285874
 30
0.0
 10
154.446769
 20
69.285874
 30
0.0
 10
156.481597
 20
68.443021
 30
0.0
 10
157.981886
 20
66.942732
 30
0.0
  0
SPLINE
  5
11f
100
AcDbEntity
  8
Ebene_1
 62
5
100
AcDbSpline
 70
8
 71
3
 72
8
 73
4
 74
0
 40
0
 40
0
 40
0
 40
0
 40
1
 40
1
 40
1
 40
1
 10
157.981886
 20
66.942732
 30
0.0
 10
159.482175
 20
65.442443
 30
0.0
 10
160.325029
 20
63.407614
 30
0.0
 10
160.325029
 20
61.285885
 30
0.0
  0
LWPOLYLINE
  5
120
100
AcDbEntity
  8
Ebene_1
 62
5
100
AcDbPolyline
 90
3
 70
0
 10
128.814782
 20
48.010364
 30
0.0
 10
128.814782
 20
69.285874
 30
0.0
 10
152.325040
 20
69.285874
 30
0.0
  0
SPLINE
  5
121
100
AcDbEntity
  8
Ebene_1
 62
5
100
AcDbSpline
 70
8
 71
3
 72
8
 73
4
 74
0
 40
0
 40
0
 40
0
 40
0
 40
1
 40
1
 40
1
 40
1
 10
160.325029
 20
45.531737
 30
0.0
 10
160.328311
 20
43.408639
 30
0.0
 10
159.859604
 20
41.311359
 30
0.0
 10
158.952821
 20
39.391646
 30
0.0
  0
LWPOLYLINE
  5
122
100
AcDbEntity
  8
Ebene_1
 62
5
100
AcDbPolyline
 90
2
 70
0
 10
160.325029
 20
61.285885
 30
0.0
 10
160.325029
 20
45.531737
 30
0.0
  0
SPLINE
  5
123
100
AcDbEntity
  8
Ebene_1
 62
5
100
AcDbSpline
 70
8
 71
3
 72
8
 73
4
 74
0
 40
0
 40
0
 40
0
 40
0
 40
1
 40
1
 40
1
 40
1
 10
142.568933
 20
10.006516
 30
0.0
 10
140.151053
 20
5.810841
 30
0.0
 10
135.016198
 20
4.031221
 30
0.0
 10
130.520500
 20
5.830812
 30
0.0
  0
LWPOLYLINE
  5
124
100
AcDbEntity
  8
Ebene_1
 62
5
100
AcDbPolyline
 90
2
 70
0
 10
158.952821
 20
39.391646
 30
0.0
 10
142.568933
 20
10.006516
 30
0.0
  0
SPLINE
  5
125
100
AcDbEntity
  8
Ebene_1
 62
5
100
AcDbSpline
 70
8
 71
3
 72
8
 73
4
 74
0
 40
0
 40
0
 40
0
 40
0
 40
1
 40
1
 40
1
 40
1
 10
98.192104
 20
18.771614
 30
0.0
 10
97.988253
 20
18.853220
 30
0.0
 10
97.770694
 20
18.895151
 30
0.0
 10
97.551115
 20
18.895154
 30
0.0
  0
LWPOLYLINE
  5
126
100
AcDbEntity
  8
Ebene_1
 62
5
100
AcDbPolyline
 90
2
 70
0
 10
130.520500
 20
5.830812
 30
0.0
 10
98.192104
 20
18.771614
 30
0.0
  0
SPLINE
  5
127
100
AcDbEntity
  8
Ebene_1
 62
5
100
AcDbSpline
 70
8
 71
3
 72
8
 73
4
 74
0
 40
0
 40
0
 40
0
 40
0
 40
1
 40
1
 40
1
 40
1
 10
82.494776
 20
18.895154
 30
0.0
 10
81.997936
 20
18.895168
 30
0.0
 10
81.503392
 20
18.827763
 30
0.0
 10
81.024678
 20
18.694784
 30
0.0
  0
LWPOLYLINE
  5
128
100
AcDbEntity
  8
Ebene_1
 62
5
100
AcDbPolyline
 90
2
 70
0
 10
97.551115
 20
18.895154
 30
0.0
 10
82.494776
 20
18.895154
 30
0.0
  0
SPLINE
  5
129
100
AcDbEntity
  8
Ebene_1
 62
5
100
AcDbSpline
 70
8
 71
3
 72
8
 73
4
 74
0
 40
0
 40
0
 40
0
 40
0
 40
1
 40
1
 40
1
 40
1
 10
65.468851
 20
14.373590
 30
0.0
 10
63.728786
 20
13.890127
 30
0.0
 10
61.931158
 20
13.645047
 30
0.0
 10
60.125178
 20
13.645061
 30
0.0
  0
LWPOLYLINE
  5
12a
100
AcDbEntity
  8
Ebene_1
 62
5
100
AcDbPolyline
 90
2
 70
0
 10
81.024678
 20
18.694784
 30
0.0
 10
65.468851
 20
14.373590
 30
0.0
  0
SPLINE
  5
12b
100
AcDbEntity
  8
Ebene_1
 62
5
100
AcDbSpline
 70
8
 71
3
 72
8
 73
4
 74
0
 40
0
 40
0
 40
0
 40
0
 40
1
 40
1
 40
1
 40
1
 10
44.004220
 20
13.645061
 30
0.0
 10
40.623422
 20
13.646247
 30
0.0
 10
37.487564
 20
15.409052
 30
0.0
 10
35.729382
 20
18.296715
 30
0.0
  0
LWPOLYLINE
  5
12c
100
AcDbEntity
  8
Ebene_1
 62
5
100
AcDbPolyline
 90
2
 70
0
 10
60.125178
 20
13.645061
 30
0.0
 10
44.004220
 20
13.645061
 30
0.0
  0
SPLINE
  5
12d
100
AcDbEntity
  8
Ebene_1
 62
5
100
AcDbSpline
 70
8
 71
3
 72
8
 73
4
 74
0
 40
0
 40
0
 40
0
 40
0
 40
1
 40
1
 40
1
 40
1
 10
29.722520
 20
28.162431
 30
0.0
 10
29.389162
 20
28.709935
 30
0.0
 10
28.813573
 20
29.064479
 30
0.0
 10
28.174632
 20
29.115880
 30
0.0
  0
LWPOLYLINE
  5
12e
100
AcDbEntity
  8
Ebene_1
 62
5
100
AcDbPolyline
 90
2
 70
0
 10
35.729382
 20
18.296715
 30
0.0
 10
29.722520
 20
28.162431
 30
0.0
  0
SPLINE
  5
12f
100
AcDbEntity
  8
Ebene_1
 62
5
100
AcDbSpline
 70
8
 71
3
 72
8
 73
4
 74
0
 40
0
 40
0
 40
0
 40
0
 40
1
 40
1
 40
1
 40
1
 10
14.090232
 20
30.248988
 30
0.0
 10
9.029372
 20
30.656375
 30
0.0
 10
5.130481
 20
34.883235
 30
0.0
 10
5.132284
 20
39.960465
 30
0.0
  0
LWPOLYLINE
  5
130
100
AcDbEntity
  8
Ebene_1
 62
5
100
AcDbPolyline
 90
2
 70
0
 10
28.174632
 20
29.115880
 30
0.0
 10
14.090232
 20
30.248988
 30
0.0
  0
SPLINE
  5
131
100
AcDbEntity
  8
Ebene_1
 62
5
100
AcDbSpline
 70
8
 71
3
 72
8
 73
4
 74
0
 40
0
 40
0
 40
0
 40
0
 40
1
 40
1
 40
1
 40
1
 10
5.159584
 20
116.592229
 30
0.0
 10
5.161164
 20
121.363241
 30
0.0
 10
8.622190
 20
125.429144
 30
0.0
 10
13.331723
 20
126.192596
 30
0.0
  0
LWPOLYLINE
  5
132
100
AcDbEntity
  8
Ebene_1
 62
5
100
AcDbPolyline
 90
2
 70
0
 10
5.132284
 20
39.960465
 30
0.0
 10
5.159584
 20
116.592229
 30
0.0
  0
SPLINE
  5
133
100
AcDbEntity
  8
Ebene_1
 62
5
100
AcDbSpline
 70
8
 71
3
 72
8
 73
4
 74
0
 40
0
 40
0
 40
0
 40
0
 40
1
 40
1
 40
1
 40
1
 10
49.331273
 20
132.028398
 30
0.0
 10
51.209299
 20
132.332841
 30
0.0
 10
53.108762
 20
132.485803
 30
0.0
 10
55.011305
 20
132.485807
 30
0.0
  0
LWPOLYLINE
  5
134
100
AcDbEntity
  8
Ebene_1
 62
5
100
AcDbPolyline
 90
2
 70
0
 10
13.331723
 20
126.192596
 30
0.0
 10
49.331273
 20
132.028398
 30
0.0
  0
SPLINE
  5
135
100
AcDbEntity
  8
Ebene_1
 62
5
100
AcDbSpline
 70
8
 71
3
 72
8
 73
4
 74
0
 40
0
 40
0
 40
0
 40
0
 40
1
 40
1
 40
1
 40
1
 10
128.217803
 20
132.485807
 30
0.0
 10
129.013453
 20
132.485807
 30
0.0
 10
129.776515
 20
132.169736
 30
0.0
 10
130.339124
 20
131.607125
 30
0.0
  0
SPLINE
  5
136
100
AcDbEntity
  8
Ebene_1
 62
5
100
AcDbSpline
 70
8
 71
3
 72
8
 73
4
 74
0
 40
0
 40
0
 40
0
 40
0
 40
1
 40
1
 40
1
 40
1
 10
130.339124
 20
131.607125
 30
0.0
 10
130.901733
 20
131.044515
 30
0.0
 10
131.217801
 20
130.281451
 30
0.0
 10
131.217799
 20
129.485801
 30
0.0
  0
LWPOLYLINE
  5
137
100
AcDbEntity
  8
Ebene_1
 62
5
100
AcDbPolyline
 90
2
 70
0
 10
55.011305
 20
132.485807
 30
0.0
 10
128.217803
 20
132.485807
 30
0.0
  0
SPLINE
  5
138
100
AcDbEntity
  8
Ebene_1
 62
5
100
AcDbSpline
 70
8
 71
3
 72
8
 73
4
 74
0
 40
0
 40
0
 40
0
 40
0
 40
1
 40
1
 40
1
 40
1
 10
137.697820
 20
126.444305
 30
0.0
 10
137.697815
 20
127.239954
 30
0.0
 10
138.013880
 20
128.003017
 30
0.0
 10
138.576484
 20
128.565629
 30
0.0
  0
SPLINE
  5
139
100
AcDbEntity
  8
Ebene_1
 62
5
100
AcDbSpline
 70
8
 71
3
 72
8
 73
4
 74
0
 40
0
 40
0
 40
0
 40
0
 40
1
 40
1
 40
1
 40
1
 10
138.576484
 20
128.565629
 30
0.0
 10
139.139089
 20
129.128241
 30
0.0
 10
139.902147
 20
129.444316
 30
0.0
 10
140.697796
 20
129.444321
 30
0.0
  0
LWPOLYLINE
  5
13a
100
AcDbEntity
  8
Ebene_1
 62
5
100
AcDbPolyline
 90
34
 70
0
 10
131.217799
 20
129.485801
 30
0.0
 10
131.217799
 20
124.485898
 30
0.0
 10
128.549013
 20
124.485898
 30
0.0
 10
128.549013
 20
123.485910
 30
0.0
 10
128.549013
 20
122.249011
 30
0.0
 10
128.549013
 20
120.304274
 30
0.0
 10
110.517107
 20
120.304274
 30
0.0
 10
109.615849
 20
122.704571
 30
0.0
 10
91.398104
 20
122.704571
 30
0.0
 10
90.397795
 20
124.093969
 30
0.0
 10
71.613782
 20
124.093969
 30
0.0
 10
70.712523
 20
122.704591
 30
0.0
 10
52.436689
 20
122.704591
 30
0.0
 10
51.436370
 20
117.903997
 30
0.0
 10
33.499075
 20
117.903997
 30
0.0
 10
32.597816
 20
116.402859
 30
0.0
 10
14.215681
 20
116.402859
 30
0.0
 10
14.166581
 20
39.903305
 30
0.0
 10
33.272375
 20
39.903305
 30
0.0
 10
34.224434
 20
41.404443
 30
0.0
 10
42.716562
 20
41.404443
 30
0.0
 10
42.716562
 20
23.004708
 30
0.0
 10
61.979195
 20
23.004708
 30
0.0
 10
62.976974
 20
27.152523
 30
0.0
 10
99.660522
 20
27.152523
 30
0.0
 10
100.561901
 20
27.137123
 30
0.0
 10
118.052787
 20
22.449029
 30
0.0
 10
118.746416
 20
22.454029
 30
0.0
 10
134.833274
 20
13.170552
 30
0.0
 10
137.532300
 20
17.847555
 30
0.0
 10
146.582518
 20
33.521244
 30
0.0
 10
149.282324
 20
38.197907
 30
0.0
 10
132.891687
 20
47.660124
 30
0.0
 10
129.164782
 20
47.660364
 30
0.0
  0
SPLINE
  5
13b
100
AcDbEntity
  8
Ebene_1
 62
5
100
AcDbSpline
 70
8
 71
3
 72
8
 73
4
 74
0
 40
0
 40
0
 40
0
 40
0
 40
1
 40
1
 40
1
 40
1
 10
141.195605
 20
129.444321
 30
0.0
 10
146.282209
 20
129.444299
 30
0.0
 10
150.491194
 20
125.487456
 30
0.0
 10
150.805042
 20
120.410544
 30
0.0
  0
SPLINE
  5
13c
100
AcDbEntity
  8
Ebene_1
 62
5
100
AcDbSpline
 70
8
 71
3
 72
8
 73
4
 74
0
 40
0
 40
0
 40
0
 40
0
 40
1
 40
1
 40
1
 40
1
 10
150.805042
 20
120.410544
 30
0.0
 10
151.188313
 20
117.387995
 30
0.0
 10
153.758543
 20
115.121477
 30
0.0
 10
156.805294
 20
115.119311
 30
0.0
  0
SPLINE
  5
13d
100
AcDbEntity
  8
Ebene_1
 62
5
100
AcDbSpline
 70
8
 71
3
 72
8
 73
4
 74
0
 40
0
 40
0
 40
0
 40
0
 40
1
 40
1
 40
1
 40
1
 10
156.805294
 20
115.119311
 30
0.0
 10
160.115802
 20
115.113698
 30
0.0
 10
162.796216
 20
112.427840
 30
0.0
 10
162.795113
 20
109.117327
 30
0.0
  0
SPLINE
  5
13e
100
AcDbEntity
  8
Ebene_1
 62
5
100
AcDbSpline
 70
8
 71
3
 72
8
 73
4
 74
0
 40
0
 40
0
 40
0
 40
0
 40
1
 40
1
 40
1
 40
1
 10
162.795113
 20
109.117327
 30
0.0
 10
162.794009
 20
105.806814
 30
0.0
 10
160.111805
 20
103.122744
 30
0.0
 10
156.801294
 20
103.119338
 30
0.0
  0
SPLINE
  5
13f
100
AcDbEntity
  8
Ebene_1
 62
5
100
AcDbSpline
 70
8
 71
3
 72
8
 73
4
 74
0
 40
0
 40
0
 40
0
 40
0
 40
1
 40
1
 40
1
 40
1
 10
156.801294
 20
103.119338
 30
0.0
 10
153.777802
 20
103.119343
 30
0.0
 10
151.218068
 20
100.888170
 30
0.0
 10
150.805312
 20
97.892985
 30
0.0
  0
LWPOLYLINE
  5
140
100
AcDbEntity
  8
Ebene_1
 62
5
100
AcDbPolyline
 90
2
 70
0
 10
140.697796
 20
129.444321
 30
0.0
 10
141.195605
 20
129.444321
 30
0.0
  0
SPLINE
  5
141
100
AcDbEntity
  8
Ebene_1
 62
5
100
AcDbSpline
 70
8
 71
3
 72
8
 73
4
 74
0
 40
0
 40
0
 40
0
 40
0
 40
1
 40
1
 40
1
 40
1
 10
150.805312
 20
84.244344
 30
0.0
 10
150.805317
 20
79.826080
 30
0.0
 10
147.223617
 20
76.244361
 30
0.0
 10
142.805353
 20
76.244345
 30
0.0
  0
LWPOLYLINE
  5
142
100
AcDbEntity
  8
Ebene_1
 62
5
100
AcDbPolyline
 90
2
 70
0
 10
150.805312
 20
97.892985
 30
0.0
 10
150.805312
 20
84.244344
 30
0.0
  0
SPLINE
  5
143
100
AcDbEntity
  8
Ebene_1
 62
5
100
AcDbSpline
 70
8
 71
3
 72
8
 73
4
 74
0
 40
0
 40
0
 40
0
 40
0
 40
1
 40
1
 40
1
 40
1
 10
142.790853
 20
119.516285
 30
0.0
 10
142.754046
 20
120.591642
 30
0.0
 10
141.871642
 20
121.444374
 30
0.0
 10
140.795656
 20
121.444392
 30
0.0
  0
LWPOLYLINE
  5
144
100
AcDbEntity
  8
Ebene_1
 62
5
100
AcDbPolyline
 90
3
 70
0
 10
142.805353
 20
76.244345
 30
0.0
 10
142.780653
 20
76.244345
 30
0.0
 10
142.790853
 20
119.516285
 30
0.0
  0
SPLINE
  5
145
100
AcDbEntity
  8
Ebene_1
 62
5
100
AcDbSpline
 70
8
 71
3
 72
8
 73
4
 74
0
 40
0
 40
0
 40
0
 40
0
 40
1
 40
1
 40
1
 40
1
 10
147.061157
 20
123.953379
 30
0.0
 10
147.062659
 20
124.686774
 30
0.0
 10
146.672260
 20
125.365103
 30
0.0
 10
146.037370
 20
125.732235
 30
0.0
  0
SPLINE
  5
146
100
AcDbEntity
  8
Ebene_1
 62
5
100
AcDbSpline
 70
8
 71
3
 72
8
 73
4
 74
0
 40
0
 40
0
 40
0
 40
0
 40
1
 40
1
 40
1
 40
1
 10
146.037370
 20
125.732235
 30
0.0
 10
145.402480
 20
126.099367
 30
0.0
 10
144.619830
 20
126.099367
 30
0.0
 10
143.984940
 20
125.732235
 30
0.0
  0
SPLINE
  5
147
100
AcDbEntity
  8
Ebene_1
 62
5
100
AcDbSpline
 70
8
 71
3
 72
8
 73
4
 74
0
 40
0
 40
0
 40
0
 40
0
 40
1
 40
1
 40
1
 40
1
 10
143.984940
 20
125.732235
 30
0.0
 10
143.350050
 20
125.365103
 30
0.0
 10
142.959650
 20
124.686774
 30
0.0
 10
142.961153
 20
123.953379
 30
0.0
  0
SPLINE
  5
148
100
AcDbEntity
  8
Ebene_1
 62
5
100
AcDbSpline
 70
8
 71
3
 72
8
 73
4
 74
0
 40
0
 40
0
 40
0
 40
0
 40
1
 40
1
 40
1
 40
1
 10
142.961153
 20
123.953379
 30
0.0
 10
142.959650
 20
123.219983
 30
0.0
 10
143.350050
 20
122.541655
 30
0.0
 10
143.984940
 20
122.174523
 30
0.0
  0
SPLINE
  5
149
100
AcDbEntity
  8
Ebene_1
 62
5
100
AcDbSpline
 70
8
 71
3
 72
8
 73
4
 74
0
 40
0
 40
0
 40
0
 40
0
 40
1
 40
1
 40
1
 40
1
 10
143.984940
 20
122.174523
 30
0.0
 10
144.619830
 20
121.807391
 30
0.0
 10
145.402480
 20
121.807391
 30
0.0
 10
146.037370
 20
122.174523
 30
0.0
  0
SPLINE
  5
14a
100
AcDbEntity
  8
Ebene_1
 62
5
100
AcDbSpline
 70
8
 71
3
 72
8
 73
4
 74
0
 40
0
 40
0
 40
0
 40
0
 40
1
 40
1
 40
1
 40
1
 10
146.037370
 20
122.174523
 30
0.0
 10
146.672260
 20
122.541655
 30
0.0
 10
147.062659
 20
123.219983
 30
0.0
 10
147.061157
 20
123.953379
 30
0.0
  0
LWPOLYLINE
  5
14b
100
AcDbEntity
  8
Ebene_1
 62
5
100
AcDbPolyline
 90
3
 70
0
 10
140.795656
 20
121.444392
 30
0.0
 10
137.697840
 20
121.444392
 30
0.0
 10
137.697820
 20
126.444305
 30
0.0
  0
SPLINE
  5
14c
100
AcDbEntity
  8
Ebene_1
 62
5
100
AcDbSpline
 70
8
 71
3
 72
8
 73
4
 74
0
 40
0
 40
0
 40
0
 40
0
 40
1
 40
1
 40
1
 40
1
 10
148.855034
 20
81.378698
 30
0.0
 10
148.857871
 20
82.112974
 30
0.0
 10
148.467768
 20
82.792691
 30
0.0
 10
147.832334
 20
83.160651
 30
0.0
  0
SPLINE
  5
14d
100
AcDbEntity
  8
Ebene_1
 62
5
100
AcDbSpline
 70
8
 71
3
 72
8
 73
4
 74
0
 40
0
 40
0
 40
0
 40
0
 40
1
 40
1
 40
1
 40
1
 10
147.832334
 20
83.160651
 30
0.0
 10
147.196900
 20
83.528610
 30
0.0
 10
146.413194
 20
83.528610
 30
0.0
 10
145.777761
 20
83.160651
 30
0.0
  0
SPLINE
  5
14e
100
AcDbEntity
  8
Ebene_1
 62
5
100
AcDbSpline
 70
8
 71
3
 72
8
 73
4
 74
0
 40
0
 40
0
 40
0
 40
0
 40
1
 40
1
 40
1
 40
1
 10
145.777761
 20
83.160651
 30
0.0
 10
145.142327
 20
82.792691
 30
0.0
 10
144.752223
 20
82.112974
 30
0.0
 10
144.755060
 20
81.378698
 30
0.0
  0
SPLINE
  5
14f
100
AcDbEntity
  8
Ebene_1
 62
5
100
AcDbSpline
 70
8
 71
3
 72
8
 73
4
 74
0
 40
0
 40
0
 40
0
 40
0
 40
1
 40
1
 40
1
 40
1
 10
144.755060
 20
81.378698
 30
0.0
 10
144.752223
 20
80.644421
 30
0.0
 10
145.142327
 20
79.964704
 30
0.0
 10
145.777761
 20
79.596745
 30
0.0
  0
SPLINE
  5
150
100
AcDbEntity
  8
Ebene_1
 62
5
100
AcDbSpline
 70
8
 71
3
 72
8
 73
4
 74
0
 40
0
 40
0
 40
0
 40
0
 40
1
 40
1
 40
1
 40
1
 10
145.777761
 20
79.596745
 30
0.0
 10
146.413194
 20
79.228785
 30
0.0
 10
147.196900
 20
79.228785
 30
0.0
 10
147.832334
 20
79.596745
 30
0.0
  0
SPLINE
  5
151
100
AcDbEntity
  8
Ebene_1
 62
5
100
AcDbSpline
 70
8
 71
3
 72
8
 73
4
 74
0
 40
0
 40
0
 40
0
 40
0
 40
1
 40
1
 40
1
 40
1
 10
147.832334
 20
79.596745
 30
0.0
 10
148.467768
 20
79.964704
 30
0.0
 10
148.857871
 20
80.644421
 30
0.0
 10
148.855034
 20
81.378698
 30
0.0
  0
LWPOLYLINE
  5
152
100
AcDbEntity
  8
Ebene_1
 62
5
100
AcDbPolyline
 90
1
 70
1
 10
147.061157
 20
123.953379
 30
0.0
  0
SPLINE
  5
153
100
AcDbEntity
  8
Ebene_1
 62
5
100
AcDbSpline
 70
8
 71
3
 72
8
 73
4
 74
0
 40
0
 40
0
 40
0
 40
0
 40
1
 40
1
 40
1
 40
1
 10
159.403150
 20
109.119339
 30
0.0
 10
159.405757
 20
110.049960
 30
0.0
 10
158.910773
 20
110.911006
 30
0.0
 10
158.105264
 20
111.377071
 30
0.0
  0
SPLINE
  5
154
100
AcDbEntity
  8
Ebene_1
 62
5
100
AcDbSpline
 70
8
 71
3
 72
8
 73
4
 74
0
 40
0
 40
0
 40
0
 40
0
 40
1
 40
1
 40
1
 40
1
 10
158.105264
 20
111.377071
 30
0.0
 10
157.299754
 20
111.843135
 30
0.0
 10
156.306573
 20
111.843135
 30
0.0
 10
155.501063
 20
111.377071
 30
0.0
  0
SPLINE
  5
155
100
AcDbEntity
  8
Ebene_1
 62
5
100
AcDbSpline
 70
8
 71
3
 72
8
 73
4
 74
0
 40
0
 40
0
 40
0
 40
0
 40
1
 40
1
 40
1
 40
1
 10
155.501063
 20
111.377071
 30
0.0
 10
154.695554
 20
110.911006
 30
0.0
 10
154.200570
 20
110.049960
 30
0.0
 10
154.203177
 20
109.119339
 30
0.0
  0
SPLINE
  5
156
100
AcDbEntity
  8
Ebene_1
 62
5
100
AcDbSpline
 70
8
 71
3
 72
8
 73
4
 74
0
 40
0
 40
0
 40
0
 40
0
 40
1
 40
1
 40
1
 40
1
 10
154.203177
 20
109.119339
 30
0.0
 10
154.200570
 20
108.188719
 30
0.0
 10
154.695554
 20
107.327673
 30
0.0
 10
155.501063
 20
106.861608
 30
0.0
  0
SPLINE
  5
157
100
AcDbEntity
  8
Ebene_1
 62
5
100
AcDbSpline
 70
8
 71
3
 72
8
 73
4
 74
0
 40
0
 40
0
 40
0
 40
0
 40
1
 40
1
 40
1
 40
1
 10
155.501063
 20
106.861608
 30
0.0
 10
156.306573
 20
106.395544
 30
0.0
 10
157.299754
 20
106.395544
 30
0.0
 10
158.105264
 20
106.861608
 30
0.0
  0
SPLINE
  5
158
100
AcDbEntity
  8
Ebene_1
 62
5
100
AcDbSpline
 70
8
 71
3
 72
8
 73
4
 74
0
 40
0
 40
0
 40
0
 40
0
 40
1
 40
1
 40
1
 40
1
 10
158.105264
 20
106.861608
 30
0.0
 10
158.910773
 20
107.327673
 30
0.0
 10
159.405757
 20
108.188719
 30
0.0
 10
159.403150
 20
109.119339
 30
0.0
  0
LWPOLYLINE
  5
159
100
AcDbEntity
  8
Ebene_1
 62
5
100
AcDbPolyline
 90
1
 70
1
 10
148.855034
 20
81.378698
 30
0.0
  0
LWPOLYLINE
  5
15a
100
AcDbEntity
  8
Ebene_1
 62
5
100
AcDbPolyline
 90
1
 70
1
 10
159.403150
 20
109.119339
 30
0.0
  0
ENDSEC
  0
SECTION
  2
OBJECTS
  0
DICTIONARY
  5
C
330
0
100
AcDbDictionary
  3
ACAD_GROUP
350
D
  3
ACAD_MLINESTYLE
350
17
  0
DICTIONARY
  5
D
330
C
100
AcDbDictionary
  0
DICTIONARY
  5
1A
330
C
100
AcDbDictionary
  0
DICTIONARY
  5
17
330
C
100
AcDbDictionary
  3
STANDARD
350
18
  0
DICTIONARY
  5
19
330
C
100
AcDbDictionary
  0
ENDSEC
  0
EOF
