  0
SECTION
  2
HEADER
  9
$ACADVER
  1
AC1014
  9
$HANDSEED
  5
FFFF
  9
$MEASUREMENT
 70
     1
  0
ENDSEC
  0
SECTION
  2
TABLES
  0
TABLE
  2
VPORT
  5
8
330
0
100
AcDbSymbolTable
 70
     4
  0
VPORT
  5
2E
330
8
100
AcDbSymbolTableRecord
100
AcDbViewportTableRecord
  2
*ACTIVE
 70
     0
 10
0.0
 20
0.0
 11
1.0
 21
1.0
 12
210.0
 22
148.5
 13
0.0
 23
0.0
 14
10.0
 24
10.0
 15
10.0
 25
10.0
 16
0.0
 26
0.0
 36
1.0
 17
0.0
 27
0.0
 37
0.0
 40
341.0
 41
1.24
 42
50.0
 43
0.0
 44
0.0
 50
0.0
 51
0.0
 71
     0
 72
   100
 73
     1
 74
     3
 75
     0
 76
     0
 77
     0
 78
     0
  0
ENDTAB
  0
TABLE
  2
LTYPE
  5
5
330
0
100
AcDbSymbolTable
 70
     1
  0
LTYPE
  5
14
330
5
100
AcDbSymbolTableRecord
100
AcDbLinetypeTableRecord
  2
BYBLOCK
 70
     0
  3

 72
    65
 73
     0
 40
0.0
  0
LTYPE
  5
15
330
5
100
AcDbSymbolTableRecord
100
AcDbLinetypeTableRecord
  2
BYLAYER
 70
     0
  3

 72
    65
 73
     0
 40
0.0
  0
LTYPE
  5
16
330
5
100
AcDbSymbolTableRecord
100
AcDbLinetypeTableRecord
  2
CONTINUOUS
 70
     0
  3
Solid line
 72
    65
 73
     0
 40
0.0
  0
ENDTAB
  0
TABLE
  2
LAYER
  5
2
100
AcDbSymbolTable
 70
2
  0
LAYER
  5
50
100
AcDbSymbolTableRecord
100
AcDbLayerTableRecord
  2
0
 70
0
  6
CONTINUOUS
  0
LAYER
  5
51
100
AcDbSymbolTableRecord
100
AcDbLayerTableRecord
  2
Ebene_1
 70
0
  6
CONTINUOUS
  0
ENDTAB
  0
TABLE
  2
STYLE
  5
3
330
0
100
AcDbSymbolTable
 70
     1
  0
STYLE
  5
11
330
3
100
AcDbSymbolTableRecord
100
AcDbTextStyleTableRecord
  2
STANDARD
 70
     0
 40
0.0
 41
1.0
 50
0.0
 71
     0
 42
2.5
  3
txt
  4

  0
ENDTAB
  0
TABLE
  2
VIEW
  5
6
330
0
100
AcDbSymbolTable
 70
     0
  0
ENDTAB
  0
TABLE
  2
UCS
  5
7
330
0
100
AcDbSymbolTable
 70
     0
  0
ENDTAB
  0
TABLE
  2
APPID
  5
9
330
0
100
AcDbSymbolTable
 70
     2
  0
APPID
  5
12
330
9
100
AcDbSymbolTableRecord
100
AcDbRegAppTableRecord
  2
ACAD
 70
     0
  0
ENDTAB
  0
TABLE
  2
DIMSTYLE
  5
A
330
0
100
AcDbSymbolTable
 70
     1
  0
DIMSTYLE
105
27
330
A
100
AcDbSymbolTableRecord
100
AcDbDimStyleTableRecord
  2
ISO-25
 70
     0
  3

  4

  5

  6

  7

 40
1.0
 41
2.5
 42
0.625
 43
3.75
 44
1.25
 45
0.0
 46
0.0
 47
0.0
 48
0.0
140
2.5
141
2.5
142
0.0
143
0.03937007874016
144
1.0
145
0.0
146
1.0
147
0.625
 71
     0
 72
     0
 73
     0
 74
     0
 75
     0
 76
     0
 77
     1
 78
     8
170
     0
171
     3
172
     1
173
     0
174
     0
175
     0
176
     0
177
     0
178
     0
270
     2
271
     2
272
     2
273
     2
274
     3
340
11
275
     0
280
     0
281
     0
282
     0
283
     0
284
     8
285
     0
286
     0
287
     3
288
     0
  0
ENDTAB
  0
TABLE
  2
BLOCK_RECORD
  5
1
330
0
100
AcDbSymbolTable
 70
     1
  0
BLOCK_RECORD
  5
1F
330
1
100
AcDbSymbolTableRecord
100
AcDbBlockTableRecord
  2
*MODEL_SPACE
  0
BLOCK_RECORD
  5
1B
330
1
100
AcDbSymbolTableRecord
100
AcDbBlockTableRecord
  2
*PAPER_SPACE
  0
ENDTAB
  0
ENDSEC
  0
SECTION
  2
BLOCKS
  0
BLOCK
  5
20
330
1F
100
AcDbEntity
  8
0
100
AcDbBlockBegin
  2
*MODEL_SPACE
 70
     0
 10
0.0
 20
0.0
 30
0.0
  3
*MODEL_SPACE
  1

  0
ENDBLK
  5
21
330
1F
100
AcDbEntity
  8
0
100
AcDbBlockEnd
  0
BLOCK
  5
1C
330
1B
100
AcDbEntity
 67
     1
  8
0
100
AcDbBlockBegin
  2
*PAPER_SPACE
  1

  0
ENDBLK
  5
1D
330
1B
100
AcDbEntity
 67
     1
  8
0
100
AcDbBlockEnd
  0
ENDSEC
  0
SECTION
  2
ENTITIES
  0
SPLINE
  5
100
100
AcDbEntity
  8
Ebene_1
 62
5
100
AcDbSpline
 70
8
 71
3
 72
8
 73
4
 74
0
 40
0
 40
0
 40
0
 40
0
 40
1
 40
1
 40
1
 40
1
 10
24.690061
 20
36.064918
 30
0.0
 10
24.692870
 20
36.799176
 30
0.0
 10
24.302760
 20
37.478864
 30
0.0
 10
23.667338
 20
37.846806
 30
0.0
  0
SPLINE
  5
101
100
AcDbEntity
  8
Ebene_1
 62
5
100
AcDbSpline
 70
8
 71
3
 72
8
 73
4
 74
0
 40
0
 40
0
 40
0
 40
0
 40
1
 40
1
 40
1
 40
1
 10
23.667338
 20
37.846806
 30
0.0
 10
23.031916
 20
38.214748
 30
0.0
 10
22.248232
 20
38.214748
 30
0.0
 10
21.612809
 20
37.846806
 30
0.0
  0
SPLINE
  5
102
100
AcDbEntity
  8
Ebene_1
 62
5
100
AcDbSpline
 70
8
 71
3
 72
8
 73
4
 74
0
 40
0
 40
0
 40
0
 40
0
 40
1
 40
1
 40
1
 40
1
 10
21.612809
 20
37.846806
 30
0.0
 10
20.977387
 20
37.478864
 30
0.0
 10
20.587277
 20
36.799176
 30
0.0
 10
20.590086
 20
36.064918
 30
0.0
  0
SPLINE
  5
103
100
AcDbEntity
  8
Ebene_1
 62
5
100
AcDbSpline
 70
8
 71
3
 72
8
 73
4
 74
0
 40
0
 40
0
 40
0
 40
0
 40
1
 40
1
 40
1
 40
1
 10
20.590086
 20
36.064918
 30
0.0
 10
20.587277
 20
35.330660
 30
0.0
 10
20.977387
 20
34.650972
 30
0.0
 10
21.612809
 20
34.283030
 30
0.0
  0
SPLINE
  5
104
100
AcDbEntity
  8
Ebene_1
 62
5
100
AcDbSpline
 70
8
 71
3
 72
8
 73
4
 74
0
 40
0
 40
0
 40
0
 40
0
 40
1
 40
1
 40
1
 40
1
 10
21.612809
 20
34.283030
 30
0.0
 10
22.248232
 20
33.915088
 30
0.0
 10
23.031916
 20
33.915088
 30
0.0
 10
23.667338
 20
34.283030
 30
0.0
  0
SPLINE
  5
105
100
AcDbEntity
  8
Ebene_1
 62
5
100
AcDbSpline
 70
8
 71
3
 72
8
 73
4
 74
0
 40
0
 40
0
 40
0
 40
0
 40
1
 40
1
 40
1
 40
1
 10
23.667338
 20
34.283030
 30
0.0
 10
24.302760
 20
34.650972
 30
0.0
 10
24.692870
 20
35.330660
 30
0.0
 10
24.690061
 20
36.064918
 30
0.0
  0
SPLINE
  5
106
100
AcDbEntity
  8
Ebene_1
 62
5
100
AcDbSpline
 70
8
 71
3
 72
8
 73
4
 74
0
 40
0
 40
0
 40
0
 40
0
 40
1
 40
1
 40
1
 40
1
 10
24.562951
 20
120.302020
 30
0.0
 10
24.564488
 20
121.035439
 30
0.0
 10
24.174096
 20
121.713804
 30
0.0
 10
23.539192
 20
122.080957
 30
0.0
  0
SPLINE
  5
107
100
AcDbEntity
  8
Ebene_1
 62
5
100
AcDbSpline
 70
8
 71
3
 72
8
 73
4
 74
0
 40
0
 40
0
 40
0
 40
0
 40
1
 40
1
 40
1
 40
1
 10
23.539192
 20
122.080957
 30
0.0
 10
22.904288
 20
122.448111
 30
0.0
 10
22.121610
 20
122.448111
 30
0.0
 10
21.486706
 20
122.080957
 30
0.0
  0
SPLINE
  5
108
100
AcDbEntity
  8
Ebene_1
 62
5
100
AcDbSpline
 70
8
 71
3
 72
8
 73
4
 74
0
 40
0
 40
0
 40
0
 40
0
 40
1
 40
1
 40
1
 40
1
 10
21.486706
 20
122.080957
 30
0.0
 10
20.851801
 20
121.713804
 30
0.0
 10
20.461409
 20
121.035439
 30
0.0
 10
20.462946
 20
120.302020
 30
0.0
  0
SPLINE
  5
109
100
AcDbEntity
  8
Ebene_1
 62
5
100
AcDbSpline
 70
8
 71
3
 72
8
 73
4
 74
0
 40
0
 40
0
 40
0
 40
0
 40
1
 40
1
 40
1
 40
1
 10
20.462946
 20
120.302020
 30
0.0
 10
20.461409
 20
119.568602
 30
0.0
 10
20.851801
 20
118.890236
 30
0.0
 10
21.486706
 20
118.523083
 30
0.0
  0
SPLINE
  5
10a
100
AcDbEntity
  8
Ebene_1
 62
5
100
AcDbSpline
 70
8
 71
3
 72
8
 73
4
 74
0
 40
0
 40
0
 40
0
 40
0
 40
1
 40
1
 40
1
 40
1
 10
21.486706
 20
118.523083
 30
0.0
 10
22.121610
 20
118.155929
 30
0.0
 10
22.904288
 20
118.155929
 30
0.0
 10
23.539192
 20
118.523083
 30
0.0
  0
SPLINE
  5
10b
100
AcDbEntity
  8
Ebene_1
 62
5
100
AcDbSpline
 70
8
 71
3
 72
8
 73
4
 74
0
 40
0
 40
0
 40
0
 40
0
 40
1
 40
1
 40
1
 40
1
 10
23.539192
 20
118.523083
 30
0.0
 10
24.174096
 20
118.890236
 30
0.0
 10
24.564488
 20
119.568602
 30
0.0
 10
24.562951
 20
120.302020
 30
0.0
  0
LWPOLYLINE
  5
10c
100
AcDbEntity
  8
Ebene_1
 62
5
100
AcDbPolyline
 90
1
 70
1
 10
24.690061
 20
36.064918
 30
0.0
  0
SPLINE
  5
10d
100
AcDbEntity
  8
Ebene_1
 62
5
100
AcDbSpline
 70
8
 71
3
 72
8
 73
4
 74
0
 40
0
 40
0
 40
0
 40
0
 40
1
 40
1
 40
1
 40
1
 10
150.039266
 20
9.445399
 30
0.0
 10
150.039266
 20
10.177796
 30
0.0
 10
149.648536
 20
10.854559
 30
0.0
 10
149.014262
 20
11.220758
 30
0.0
  0
SPLINE
  5
10e
100
AcDbEntity
  8
Ebene_1
 62
5
100
AcDbSpline
 70
8
 71
3
 72
8
 73
4
 74
0
 40
0
 40
0
 40
0
 40
0
 40
1
 40
1
 40
1
 40
1
 10
149.014262
 20
11.220758
 30
0.0
 10
148.379987
 20
11.586956
 30
0.0
 10
147.598529
 20
11.586956
 30
0.0
 10
146.964254
 20
11.220758
 30
0.0
  0
SPLINE
  5
10f
100
AcDbEntity
  8
Ebene_1
 62
5
100
AcDbSpline
 70
8
 71
3
 72
8
 73
4
 74
0
 40
0
 40
0
 40
0
 40
0
 40
1
 40
1
 40
1
 40
1
 10
146.964254
 20
11.220758
 30
0.0
 10
146.329980
 20
10.854559
 30
0.0
 10
145.939250
 20
10.177796
 30
0.0
 10
145.939250
 20
9.445399
 30
0.0
  0
SPLINE
  5
110
100
AcDbEntity
  8
Ebene_1
 62
5
100
AcDbSpline
 70
8
 71
3
 72
8
 73
4
 74
0
 40
0
 40
0
 40
0
 40
0
 40
1
 40
1
 40
1
 40
1
 10
145.939250
 20
9.445399
 30
0.0
 10
145.939250
 20
8.713002
 30
0.0
 10
146.329980
 20
8.036239
 30
0.0
 10
146.964254
 20
7.670040
 30
0.0
  0
SPLINE
  5
111
100
AcDbEntity
  8
Ebene_1
 62
5
100
AcDbSpline
 70
8
 71
3
 72
8
 73
4
 74
0
 40
0
 40
0
 40
0
 40
0
 40
1
 40
1
 40
1
 40
1
 10
146.964254
 20
7.670040
 30
0.0
 10
147.598529
 20
7.303842
 30
0.0
 10
148.379987
 20
7.303842
 30
0.0
 10
149.014262
 20
7.670040
 30
0.0
  0
SPLINE
  5
112
100
AcDbEntity
  8
Ebene_1
 62
5
100
AcDbSpline
 70
8
 71
3
 72
8
 73
4
 74
0
 40
0
 40
0
 40
0
 40
0
 40
1
 40
1
 40
1
 40
1
 10
149.014262
 20
7.670040
 30
0.0
 10
149.648536
 20
8.036239
 30
0.0
 10
150.039266
 20
8.713002
 30
0.0
 10
150.039266
 20
9.445399
 30
0.0
  0
LWPOLYLINE
  5
113
100
AcDbEntity
  8
Ebene_1
 62
5
100
AcDbPolyline
 90
1
 70
1
 10
24.562951
 20
120.302020
 30
0.0
  0
SPLINE
  5
114
100
AcDbEntity
  8
Ebene_1
 62
5
100
AcDbSpline
 70
8
 71
3
 72
8
 73
4
 74
0
 40
0
 40
0
 40
0
 40
0
 40
1
 40
1
 40
1
 40
1
 10
13.723904
 20
53.155788
 30
0.0
 10
13.725576
 20
54.085793
 30
0.0
 10
13.230384
 20
54.945868
 30
0.0
 10
12.425254
 20
55.411354
 30
0.0
  0
SPLINE
  5
115
100
AcDbEntity
  8
Ebene_1
 62
5
100
AcDbSpline
 70
8
 71
3
 72
8
 73
4
 74
0
 40
0
 40
0
 40
0
 40
0
 40
1
 40
1
 40
1
 40
1
 10
12.425254
 20
55.411354
 30
0.0
 10
11.620124
 20
55.876839
 30
0.0
 10
10.627680
 20
55.876839
 30
0.0
 10
9.822550
 20
55.411354
 30
0.0
  0
SPLINE
  5
116
100
AcDbEntity
  8
Ebene_1
 62
5
100
AcDbSpline
 70
8
 71
3
 72
8
 73
4
 74
0
 40
0
 40
0
 40
0
 40
0
 40
1
 40
1
 40
1
 40
1
 10
9.822550
 20
55.411354
 30
0.0
 10
9.017420
 20
54.945868
 30
0.0
 10
8.522228
 20
54.085793
 30
0.0
 10
8.523900
 20
53.155788
 30
0.0
  0
SPLINE
  5
117
100
AcDbEntity
  8
Ebene_1
 62
5
100
AcDbSpline
 70
8
 71
3
 72
8
 73
4
 74
0
 40
0
 40
0
 40
0
 40
0
 40
1
 40
1
 40
1
 40
1
 10
8.523900
 20
53.155788
 30
0.0
 10
8.522228
 20
52.225784
 30
0.0
 10
9.017420
 20
51.365708
 30
0.0
 10
9.822550
 20
50.900223
 30
0.0
  0
SPLINE
  5
118
100
AcDbEntity
  8
Ebene_1
 62
5
100
AcDbSpline
 70
8
 71
3
 72
8
 73
4
 74
0
 40
0
 40
0
 40
0
 40
0
 40
1
 40
1
 40
1
 40
1
 10
9.822550
 20
50.900223
 30
0.0
 10
10.627680
 20
50.434737
 30
0.0
 10
11.620124
 20
50.434737
 30
0.0
 10
12.425254
 20
50.900223
 30
0.0
  0
SPLINE
  5
119
100
AcDbEntity
  8
Ebene_1
 62
5
100
AcDbSpline
 70
8
 71
3
 72
8
 73
4
 74
0
 40
0
 40
0
 40
0
 40
0
 40
1
 40
1
 40
1
 40
1
 10
12.425254
 20
50.900223
 30
0.0
 10
13.230384
 20
51.365708
 30
0.0
 10
13.725576
 20
52.225784
 30
0.0
 10
13.723904
 20
53.155788
 30
0.0
  0
LWPOLYLINE
  5
11a
100
AcDbEntity
  8
Ebene_1
 62
5
100
AcDbPolyline
 90
1
 70
1
 10
150.039266
 20
9.445399
 30
0.0
  0
SPLINE
  5
11b
100
AcDbEntity
  8
Ebene_1
 62
5
100
AcDbSpline
 70
8
 71
3
 72
8
 73
4
 74
0
 40
0
 40
0
 40
0
 40
0
 40
1
 40
1
 40
1
 40
1
 10
13.742044
 20
104.155719
 30
0.0
 10
13.742044
 20
105.084612
 30
0.0
 10
13.246485
 20
105.942944
 30
0.0
 10
12.442041
 20
106.407391
 30
0.0
  0
SPLINE
  5
11c
100
AcDbEntity
  8
Ebene_1
 62
5
100
AcDbSpline
 70
8
 71
3
 72
8
 73
4
 74
0
 40
0
 40
0
 40
0
 40
0
 40
1
 40
1
 40
1
 40
1
 10
12.442041
 20
106.407391
 30
0.0
 10
11.637596
 20
106.871838
 30
0.0
 10
10.646479
 20
106.871838
 30
0.0
 10
9.842034
 20
106.407391
 30
0.0
  0
SPLINE
  5
11d
100
AcDbEntity
  8
Ebene_1
 62
5
100
AcDbSpline
 70
8
 71
3
 72
8
 73
4
 74
0
 40
0
 40
0
 40
0
 40
0
 40
1
 40
1
 40
1
 40
1
 10
9.842034
 20
106.407391
 30
0.0
 10
9.037589
 20
105.942944
 30
0.0
 10
8.542030
 20
105.084612
 30
0.0
 10
8.542030
 20
104.155719
 30
0.0
  0
SPLINE
  5
11e
100
AcDbEntity
  8
Ebene_1
 62
5
100
AcDbSpline
 70
8
 71
3
 72
8
 73
4
 74
0
 40
0
 40
0
 40
0
 40
0
 40
1
 40
1
 40
1
 40
1
 10
8.542030
 20
104.155719
 30
0.0
 10
8.542030
 20
103.226826
 30
0.0
 10
9.037589
 20
102.368493
 30
0.0
 10
9.842034
 20
101.904047
 30
0.0
  0
SPLINE
  5
11f
100
AcDbEntity
  8
Ebene_1
 62
5
100
AcDbSpline
 70
8
 71
3
 72
8
 73
4
 74
0
 40
0
 40
0
 40
0
 40
0
 40
1
 40
1
 40
1
 40
1
 10
9.842034
 20
101.904047
 30
0.0
 10
10.646479
 20
101.439600
 30
0.0
 10
11.637596
 20
101.439600
 30
0.0
 10
12.442041
 20
101.904047
 30
0.0
  0
SPLINE
  5
120
100
AcDbEntity
  8
Ebene_1
 62
5
100
AcDbSpline
 70
8
 71
3
 72
8
 73
4
 74
0
 40
0
 40
0
 40
0
 40
0
 40
1
 40
1
 40
1
 40
1
 10
12.442041
 20
101.904047
 30
0.0
 10
13.246485
 20
102.368493
 30
0.0
 10
13.742044
 20
103.226826
 30
0.0
 10
13.742044
 20
104.155719
 30
0.0
  0
LWPOLYLINE
  5
121
100
AcDbEntity
  8
Ebene_1
 62
5
100
AcDbPolyline
 90
1
 70
1
 10
13.723904
 20
53.155788
 30
0.0
  0
SPLINE
  5
122
100
AcDbEntity
  8
Ebene_1
 62
5
100
AcDbSpline
 70
8
 71
3
 72
8
 73
4
 74
0
 40
0
 40
0
 40
0
 40
0
 40
1
 40
1
 40
1
 40
1
 10
167.858255
 20
16.880430
 30
0.0
 10
167.859570
 20
17.810197
 30
0.0
 10
167.364300
 20
18.669901
 30
0.0
 10
166.559316
 20
19.135164
 30
0.0
  0
SPLINE
  5
123
100
AcDbEntity
  8
Ebene_1
 62
5
100
AcDbSpline
 70
8
 71
3
 72
8
 73
4
 74
0
 40
0
 40
0
 40
0
 40
0
 40
1
 40
1
 40
1
 40
1
 10
166.559316
 20
19.135164
 30
0.0
 10
165.754333
 20
19.600428
 30
0.0
 10
164.762173
 20
19.600428
 30
0.0
 10
163.957189
 20
19.135164
 30
0.0
  0
SPLINE
  5
124
100
AcDbEntity
  8
Ebene_1
 62
5
100
AcDbSpline
 70
8
 71
3
 72
8
 73
4
 74
0
 40
0
 40
0
 40
0
 40
0
 40
1
 40
1
 40
1
 40
1
 10
163.957189
 20
19.135164
 30
0.0
 10
163.152206
 20
18.669901
 30
0.0
 10
162.656936
 20
17.810197
 30
0.0
 10
162.658251
 20
16.880430
 30
0.0
  0
SPLINE
  5
125
100
AcDbEntity
  8
Ebene_1
 62
5
100
AcDbSpline
 70
8
 71
3
 72
8
 73
4
 74
0
 40
0
 40
0
 40
0
 40
0
 40
1
 40
1
 40
1
 40
1
 10
162.658251
 20
16.880430
 30
0.0
 10
162.656936
 20
15.950663
 30
0.0
 10
163.152206
 20
15.090960
 30
0.0
 10
163.957189
 20
14.625696
 30
0.0
  0
SPLINE
  5
126
100
AcDbEntity
  8
Ebene_1
 62
5
100
AcDbSpline
 70
8
 71
3
 72
8
 73
4
 74
0
 40
0
 40
0
 40
0
 40
0
 40
1
 40
1
 40
1
 40
1
 10
163.957189
 20
14.625696
 30
0.0
 10
164.762173
 20
14.160433
 30
0.0
 10
165.754333
 20
14.160433
 30
0.0
 10
166.559316
 20
14.625696
 30
0.0
  0
SPLINE
  5
127
100
AcDbEntity
  8
Ebene_1
 62
5
100
AcDbSpline
 70
8
 71
3
 72
8
 73
4
 74
0
 40
0
 40
0
 40
0
 40
0
 40
1
 40
1
 40
1
 40
1
 10
166.559316
 20
14.625696
 30
0.0
 10
167.364300
 20
15.090960
 30
0.0
 10
167.859570
 20
15.950663
 30
0.0
 10
167.858255
 20
16.880430
 30
0.0
  0
LWPOLYLINE
  5
128
100
AcDbEntity
  8
Ebene_1
 62
5
100
AcDbPolyline
 90
1
 70
1
 10
13.742044
 20
104.155719
 30
0.0
  0
SPLINE
  5
129
100
AcDbEntity
  8
Ebene_1
 62
5
100
AcDbSpline
 70
8
 71
3
 72
8
 73
4
 74
0
 40
0
 40
0
 40
0
 40
0
 40
1
 40
1
 40
1
 40
1
 10
138.287719
 20
128.485401
 30
0.0
 10
138.287719
 20
129.217798
 30
0.0
 10
137.896990
 20
129.894561
 30
0.0
 10
137.262715
 20
130.260759
 30
0.0
  0
SPLINE
  5
12a
100
AcDbEntity
  8
Ebene_1
 62
5
100
AcDbSpline
 70
8
 71
3
 72
8
 73
4
 74
0
 40
0
 40
0
 40
0
 40
0
 40
1
 40
1
 40
1
 40
1
 10
137.262715
 20
130.260759
 30
0.0
 10
136.628441
 20
130.626958
 30
0.0
 10
135.846982
 20
130.626958
 30
0.0
 10
135.212708
 20
130.260759
 30
0.0
  0
SPLINE
  5
12b
100
AcDbEntity
  8
Ebene_1
 62
5
100
AcDbSpline
 70
8
 71
3
 72
8
 73
4
 74
0
 40
0
 40
0
 40
0
 40
0
 40
1
 40
1
 40
1
 40
1
 10
135.212708
 20
130.260759
 30
0.0
 10
134.578433
 20
129.894561
 30
0.0
 10
134.187704
 20
129.217798
 30
0.0
 10
134.187704
 20
128.485401
 30
0.0
  0
SPLINE
  5
12c
100
AcDbEntity
  8
Ebene_1
 62
5
100
AcDbSpline
 70
8
 71
3
 72
8
 73
4
 74
0
 40
0
 40
0
 40
0
 40
0
 40
1
 40
1
 40
1
 40
1
 10
134.187704
 20
128.485401
 30
0.0
 10
134.187704
 20
127.753003
 30
0.0
 10
134.578433
 20
127.076241
 30
0.0
 10
135.212708
 20
126.710042
 30
0.0
  0
SPLINE
  5
12d
100
AcDbEntity
  8
Ebene_1
 62
5
100
AcDbSpline
 70
8
 71
3
 72
8
 73
4
 74
0
 40
0
 40
0
 40
0
 40
0
 40
1
 40
1
 40
1
 40
1
 10
135.212708
 20
126.710042
 30
0.0
 10
135.846982
 20
126.343843
 30
0.0
 10
136.628441
 20
126.343843
 30
0.0
 10
137.262715
 20
126.710042
 30
0.0
  0
SPLINE
  5
12e
100
AcDbEntity
  8
Ebene_1
 62
5
100
AcDbSpline
 70
8
 71
3
 72
8
 73
4
 74
0
 40
0
 40
0
 40
0
 40
0
 40
1
 40
1
 40
1
 40
1
 10
137.262715
 20
126.710042
 30
0.0
 10
137.896990
 20
127.076241
 30
0.0
 10
138.287719
 20
127.753003
 30
0.0
 10
138.287719
 20
128.485401
 30
0.0
  0
LWPOLYLINE
  5
12f
100
AcDbEntity
  8
Ebene_1
 62
5
100
AcDbPolyline
 90
1
 70
1
 10
167.858255
 20
16.880430
 30
0.0
  0
SPLINE
  5
130
100
AcDbEntity
  8
Ebene_1
 62
5
100
AcDbSpline
 70
8
 71
3
 72
8
 73
4
 74
0
 40
0
 40
0
 40
0
 40
0
 40
1
 40
1
 40
1
 40
1
 10
140.204677
 20
132.485396
 30
0.0
 10
141.000327
 20
132.485393
 30
0.0
 10
141.763389
 20
132.169319
 30
0.0
 10
142.325995
 20
131.606707
 30
0.0
  0
SPLINE
  5
131
100
AcDbEntity
  8
Ebene_1
 62
5
100
AcDbSpline
 70
8
 71
3
 72
8
 73
4
 74
0
 40
0
 40
0
 40
0
 40
0
 40
1
 40
1
 40
1
 40
1
 10
142.325995
 20
131.606707
 30
0.0
 10
142.888602
 20
131.044094
 30
0.0
 10
143.204669
 20
130.281030
 30
0.0
 10
143.204664
 20
129.485379
 30
0.0
  0
LWPOLYLINE
  5
132
100
AcDbEntity
  8
Ebene_1
 62
5
100
AcDbPolyline
 90
1
 70
1
 10
138.287719
 20
128.485401
 30
0.0
  0
SPLINE
  5
133
100
AcDbEntity
  8
Ebene_1
 62
5
100
AcDbSpline
 70
8
 71
3
 72
8
 73
4
 74
0
 40
0
 40
0
 40
0
 40
0
 40
1
 40
1
 40
1
 40
1
 10
67.163922
 20
124.411065
 30
0.0
 10
65.612624
 20
124.410716
 30
0.0
 10
64.063946
 20
124.283684
 30
0.0
 10
62.533327
 20
124.031236
 30
0.0
  0
LWPOLYLINE
  5
134
100
AcDbEntity
  8
Ebene_1
 62
5
100
AcDbPolyline
 90
4
 70
0
 10
143.204664
 20
129.485379
 30
0.0
 10
143.204664
 20
124.485465
 30
0.0
 10
139.298958
 20
124.485465
 30
0.0
 10
67.163922
 20
124.411065
 30
0.0
  0
SPLINE
  5
135
100
AcDbEntity
  8
Ebene_1
 62
5
100
AcDbSpline
 70
8
 71
3
 72
8
 73
4
 74
0
 40
0
 40
0
 40
0
 40
0
 40
1
 40
1
 40
1
 40
1
 10
26.954049
 20
118.352852
 30
0.0
 10
25.912319
 20
118.183994
 30
0.0
 10
25.146727
 20
117.284671
 30
0.0
 10
25.146311
 20
116.229345
 30
0.0
  0
LWPOLYLINE
  5
136
100
AcDbEntity
  8
Ebene_1
 62
5
100
AcDbPolyline
 90
2
 70
0
 10
62.533327
 20
124.031236
 30
0.0
 10
26.954049
 20
118.352852
 30
0.0
  0
SPLINE
  5
137
100
AcDbEntity
  8
Ebene_1
 62
5
100
AcDbSpline
 70
8
 71
3
 72
8
 73
4
 74
0
 40
0
 40
0
 40
0
 40
0
 40
1
 40
1
 40
1
 40
1
 10
25.119111
 20
40.338043
 30
0.0
 10
25.118700
 20
39.216144
 30
0.0
 10
25.980226
 20
38.282145
 30
0.0
 10
27.098508
 20
38.192136
 30
0.0
  0
LWPOLYLINE
  5
138
100
AcDbEntity
  8
Ebene_1
 62
5
100
AcDbPolyline
 90
2
 70
0
 10
25.146311
 20
116.229345
 30
0.0
 10
25.119111
 20
40.338043
 30
0.0
  0
SPLINE
  5
139
100
AcDbEntity
  8
Ebene_1
 62
5
100
AcDbSpline
 70
8
 71
3
 72
8
 73
4
 74
0
 40
0
 40
0
 40
0
 40
0
 40
1
 40
1
 40
1
 40
1
 10
45.811617
 20
36.686687
 30
0.0
 10
45.860086
 20
36.682796
 30
0.0
 10
45.903755
 20
36.655912
 30
0.0
 10
45.929057
 20
36.614387
 30
0.0
  0
LWPOLYLINE
  5
13a
100
AcDbEntity
  8
Ebene_1
 62
5
100
AcDbPolyline
 90
2
 70
0
 10
27.098508
 20
38.192136
 30
0.0
 10
45.811617
 20
36.686687
 30
0.0
  0
SPLINE
  5
13b
100
AcDbEntity
  8
Ebene_1
 62
5
100
AcDbSpline
 70
8
 71
3
 72
8
 73
4
 74
0
 40
0
 40
0
 40
0
 40
0
 40
1
 40
1
 40
1
 40
1
 10
54.414687
 20
22.677774
 30
0.0
 10
54.805254
 20
22.036309
 30
0.0
 10
55.501892
 20
21.644761
 30
0.0
 10
56.252905
 20
21.644595
 30
0.0
  0
LWPOLYLINE
  5
13c
100
AcDbEntity
  8
Ebene_1
 62
5
100
AcDbPolyline
 90
2
 70
0
 10
45.929057
 20
36.614387
 30
0.0
 10
54.414687
 20
22.677774
 30
0.0
  0
SPLINE
  5
13d
100
AcDbEntity
  8
Ebene_1
 62
5
100
AcDbSpline
 70
8
 71
3
 72
8
 73
4
 74
0
 40
0
 40
0
 40
0
 40
0
 40
1
 40
1
 40
1
 40
1
 10
71.976406
 20
21.644595
 30
0.0
 10
73.148604
 20
21.644588
 30
0.0
 10
74.315381
 20
21.803649
 30
0.0
 10
75.444802
 20
22.117424
 30
0.0
  0
LWPOLYLINE
  5
13e
100
AcDbEntity
  8
Ebene_1
 62
5
100
AcDbPolyline
 90
2
 70
0
 10
56.252905
 20
21.644595
 30
0.0
 10
71.976406
 20
21.644595
 30
0.0
  0
SPLINE
  5
13f
100
AcDbEntity
  8
Ebene_1
 62
5
100
AcDbSpline
 70
8
 71
3
 72
8
 73
4
 74
0
 40
0
 40
0
 40
0
 40
0
 40
1
 40
1
 40
1
 40
1
 10
90.935724
 20
26.420569
 30
0.0
 10
92.068413
 20
26.735219
 30
0.0
 10
93.238561
 20
26.894707
 30
0.0
 10
94.414140
 20
26.894669
 30
0.0
  0
LWPOLYLINE
  5
140
100
AcDbEntity
  8
Ebene_1
 62
5
100
AcDbPolyline
 90
2
 70
0
 10
75.444802
 20
22.117424
 30
0.0
 10
90.935724
 20
26.420569
 30
0.0
  0
SPLINE
  5
141
100
AcDbEntity
  8
Ebene_1
 62
5
100
AcDbSpline
 70
8
 71
3
 72
8
 73
4
 74
0
 40
0
 40
0
 40
0
 40
0
 40
1
 40
1
 40
1
 40
1
 10
109.633093
 20
26.894669
 30
0.0
 10
110.808293
 20
26.894671
 30
0.0
 10
111.972686
 20
26.670273
 30
0.0
 10
113.063719
 20
26.233529
 30
0.0
  0
LWPOLYLINE
  5
142
100
AcDbEntity
  8
Ebene_1
 62
5
100
AcDbPolyline
 90
2
 70
0
 10
94.414140
 20
26.894669
 30
0.0
 10
109.633093
 20
26.894669
 30
0.0
  0
SPLINE
  5
143
100
AcDbEntity
  8
Ebene_1
 62
5
100
AcDbSpline
 70
8
 71
3
 72
8
 73
4
 74
0
 40
0
 40
0
 40
0
 40
0
 40
1
 40
1
 40
1
 40
1
 10
145.142291
 20
13.392714
 30
0.0
 10
146.135879
 20
12.994991
 30
0.0
 10
147.270747
 20
13.387845
 30
0.0
 10
147.805798
 20
14.314733
 30
0.0
  0
LWPOLYLINE
  5
144
100
AcDbEntity
  8
Ebene_1
 62
5
100
AcDbPolyline
 90
2
 70
0
 10
113.063719
 20
26.233529
 30
0.0
 10
145.142291
 20
13.392714
 30
0.0
  0
SPLINE
  5
145
100
AcDbEntity
  8
Ebene_1
 62
5
100
AcDbSpline
 70
8
 71
3
 72
8
 73
4
 74
0
 40
0
 40
0
 40
0
 40
0
 40
1
 40
1
 40
1
 40
1
 10
163.665850
 20
42.722270
 30
0.0
 10
164.092787
 20
43.631951
 30
0.0
 10
164.313349
 20
44.624763
 30
0.0
 10
164.311749
 20
45.629647
 30
0.0
  0
LWPOLYLINE
  5
146
100
AcDbEntity
  8
Ebene_1
 62
5
100
AcDbPolyline
 90
3
 70
0
 10
147.805798
 20
14.314733
 30
0.0
 10
161.280192
 20
37.657196
 30
0.0
 10
163.665850
 20
42.722270
 30
0.0
  0
SPLINE
  5
147
100
AcDbEntity
  8
Ebene_1
 62
5
100
AcDbSpline
 70
8
 71
3
 72
8
 73
4
 74
0
 40
0
 40
0
 40
0
 40
0
 40
1
 40
1
 40
1
 40
1
 10
164.314349
 20
69.285423
 30
0.0
 10
166.436085
 20
69.285429
 30
0.0
 10
168.470923
 20
68.442575
 30
0.0
 10
169.971217
 20
66.942281
 30
0.0
  0
SPLINE
  5
148
100
AcDbEntity
  8
Ebene_1
 62
5
100
AcDbSpline
 70
8
 71
3
 72
8
 73
4
 74
0
 40
0
 40
0
 40
0
 40
0
 40
1
 40
1
 40
1
 40
1
 10
169.971217
 20
66.942281
 30
0.0
 10
171.471511
 20
65.441986
 30
0.0
 10
172.314365
 20
63.407149
 30
0.0
 10
172.314360
 20
61.285413
 30
0.0
  0
LWPOLYLINE
  5
149
100
AcDbEntity
  8
Ebene_1
 62
5
100
AcDbPolyline
 90
4
 70
0
 10
164.311749
 20
45.629647
 30
0.0
 10
164.283549
 20
63.211901
 30
0.0
 10
164.287549
 20
69.285423
 30
0.0
 10
164.314349
 20
69.285423
 30
0.0
  0
SPLINE
  5
14a
100
AcDbEntity
  8
Ebene_1
 62
5
100
AcDbSpline
 70
8
 71
3
 72
8
 73
4
 74
0
 40
0
 40
0
 40
0
 40
0
 40
1
 40
1
 40
1
 40
1
 10
172.314360
 20
45.531257
 30
0.0
 10
172.317645
 20
43.408159
 30
0.0
 10
171.848942
 20
41.310879
 30
0.0
 10
170.942161
 20
39.391164
 30
0.0
  0
LWPOLYLINE
  5
14b
100
AcDbEntity
  8
Ebene_1
 62
5
100
AcDbPolyline
 90
2
 70
0
 10
172.314360
 20
61.285413
 30
0.0
 10
172.314360
 20
45.531257
 30
0.0
  0
SPLINE
  5
14c
100
AcDbEntity
  8
Ebene_1
 62
5
100
AcDbSpline
 70
8
 71
3
 72
8
 73
4
 74
0
 40
0
 40
0
 40
0
 40
0
 40
1
 40
1
 40
1
 40
1
 10
165.496408
 20
29.623996
 30
0.0
 10
164.261789
 20
26.854441
 30
0.0
 10
165.384991
 20
23.601928
 30
0.0
 10
168.065545
 20
22.184414
 30
0.0
  0
SPLINE
  5
14d
100
AcDbEntity
  8
Ebene_1
 62
5
100
AcDbSpline
 70
8
 71
3
 72
8
 73
4
 74
0
 40
0
 40
0
 40
0
 40
0
 40
1
 40
1
 40
1
 40
1
 10
168.065545
 20
22.184414
 30
0.0
 10
169.975055
 20
21.174757
 30
0.0
 10
171.194487
 20
19.216647
 30
0.0
 10
171.258328
 20
17.057582
 30
0.0
  0
SPLINE
  5
14e
100
AcDbEntity
  8
Ebene_1
 62
5
100
AcDbSpline
 70
8
 71
3
 72
8
 73
4
 74
0
 40
0
 40
0
 40
0
 40
0
 40
1
 40
1
 40
1
 40
1
 10
171.258328
 20
17.057582
 30
0.0
 10
171.322169
 20
14.898518
 30
0.0
 10
170.220566
 20
12.871777
 30
0.0
 10
168.374049
 20
11.751058
 30
0.0
  0
SPLINE
  5
14f
100
AcDbEntity
  8
Ebene_1
 62
5
100
AcDbSpline
 70
8
 71
3
 72
8
 73
4
 74
0
 40
0
 40
0
 40
0
 40
0
 40
1
 40
1
 40
1
 40
1
 10
168.374049
 20
11.751058
 30
0.0
 10
166.527532
 20
10.630339
 30
0.0
 10
164.221134
 20
10.588639
 30
0.0
 10
162.335311
 20
11.641876
 30
0.0
  0
SPLINE
  5
150
100
AcDbEntity
  8
Ebene_1
 62
5
100
AcDbSpline
 70
8
 71
3
 72
8
 73
4
 74
0
 40
0
 40
0
 40
0
 40
0
 40
1
 40
1
 40
1
 40
1
 10
162.335311
 20
11.641876
 30
0.0
 10
159.716422
 20
13.104401
 30
0.0
 10
156.421615
 20
12.430736
 30
0.0
 10
154.586970
 20
10.057628
 30
0.0
  0
LWPOLYLINE
  5
151
100
AcDbEntity
  8
Ebene_1
 62
5
100
AcDbPolyline
 90
2
 70
0
 10
170.942161
 20
39.391164
 30
0.0
 10
165.496408
 20
29.623996
 30
0.0
  0
SPLINE
  5
152
100
AcDbEntity
  8
Ebene_1
 62
5
100
AcDbSpline
 70
8
 71
3
 72
8
 73
4
 74
0
 40
0
 40
0
 40
0
 40
0
 40
1
 40
1
 40
1
 40
1
 10
154.558070
 20
10.006028
 30
0.0
 10
152.140183
 20
5.810360
 30
0.0
 10
147.005329
 20
4.030749
 30
0.0
 10
142.509634
 20
5.830343
 30
0.0
  0
LWPOLYLINE
  5
153
100
AcDbEntity
  8
Ebene_1
 62
5
100
AcDbPolyline
 90
2
 70
0
 10
154.586970
 20
10.057628
 30
0.0
 10
154.558070
 20
10.006028
 30
0.0
  0
SPLINE
  5
154
100
AcDbEntity
  8
Ebene_1
 62
5
100
AcDbSpline
 70
8
 71
3
 72
8
 73
4
 74
0
 40
0
 40
0
 40
0
 40
0
 40
1
 40
1
 40
1
 40
1
 10
110.181222
 20
18.771128
 30
0.0
 10
109.977380
 20
18.852731
 30
0.0
 10
109.759832
 20
18.894661
 30
0.0
 10
109.540263
 20
18.894668
 30
0.0
  0
LWPOLYLINE
  5
155
100
AcDbEntity
  8
Ebene_1
 62
5
100
AcDbPolyline
 90
2
 70
0
 10
142.509634
 20
5.830343
 30
0.0
 10
110.181222
 20
18.771128
 30
0.0
  0
SPLINE
  5
156
100
AcDbEntity
  8
Ebene_1
 62
5
100
AcDbSpline
 70
8
 71
3
 72
8
 73
4
 74
0
 40
0
 40
0
 40
0
 40
0
 40
1
 40
1
 40
1
 40
1
 10
94.483290
 20
18.894668
 30
0.0
 10
93.986440
 20
18.894685
 30
0.0
 10
93.491885
 20
18.827280
 30
0.0
 10
93.013162
 20
18.694298
 30
0.0
  0
LWPOLYLINE
  5
157
100
AcDbEntity
  8
Ebene_1
 62
5
100
AcDbPolyline
 90
2
 70
0
 10
109.540263
 20
18.894668
 30
0.0
 10
94.483290
 20
18.894668
 30
0.0
  0
SPLINE
  5
158
100
AcDbEntity
  8
Ebene_1
 62
5
100
AcDbSpline
 70
8
 71
3
 72
8
 73
4
 74
0
 40
0
 40
0
 40
0
 40
0
 40
1
 40
1
 40
1
 40
1
 10
77.457410
 20
14.373123
 30
0.0
 10
75.717349
 20
13.889654
 30
0.0
 10
73.919724
 20
13.644568
 30
0.0
 10
72.113746
 20
13.644574
 30
0.0
  0
LWPOLYLINE
  5
159
100
AcDbEntity
  8
Ebene_1
 62
5
100
AcDbPolyline
 90
2
 70
0
 10
93.013162
 20
18.694298
 30
0.0
 10
77.457410
 20
14.373123
 30
0.0
  0
SPLINE
  5
15a
100
AcDbEntity
  8
Ebene_1
 62
5
100
AcDbSpline
 70
8
 71
3
 72
8
 73
4
 74
0
 40
0
 40
0
 40
0
 40
0
 40
1
 40
1
 40
1
 40
1
 10
55.992775
 20
13.644574
 30
0.0
 10
52.611966
 20
13.645763
 30
0.0
 10
49.476101
 20
15.408581
 30
0.0
 10
47.717925
 20
18.296259
 30
0.0
  0
LWPOLYLINE
  5
15b
100
AcDbEntity
  8
Ebene_1
 62
5
100
AcDbPolyline
 90
2
 70
0
 10
72.113746
 20
13.644574
 30
0.0
 10
55.992775
 20
13.644574
 30
0.0
  0
SPLINE
  5
15c
100
AcDbEntity
  8
Ebene_1
 62
5
100
AcDbSpline
 70
8
 71
3
 72
8
 73
4
 74
0
 40
0
 40
0
 40
0
 40
0
 40
1
 40
1
 40
1
 40
1
 10
41.711082
 20
28.161957
 30
0.0
 10
41.377735
 20
28.709474
 30
0.0
 10
40.802149
 20
29.064033
 30
0.0
 10
40.163203
 20
29.115446
 30
0.0
  0
LWPOLYLINE
  5
15d
100
AcDbEntity
  8
Ebene_1
 62
5
100
AcDbPolyline
 90
2
 70
0
 10
47.717925
 20
18.296259
 30
0.0
 10
41.711082
 20
28.161957
 30
0.0
  0
SPLINE
  5
15e
100
AcDbEntity
  8
Ebene_1
 62
5
100
AcDbSpline
 70
8
 71
3
 72
8
 73
4
 74
0
 40
0
 40
0
 40
0
 40
0
 40
1
 40
1
 40
1
 40
1
 10
26.078740
 20
30.248495
 30
0.0
 10
21.017934
 20
30.655961
 30
0.0
 10
17.119130
 20
34.882812
 30
0.0
 10
17.120950
 20
39.959994
 30
0.0
  0
LWPOLYLINE
  5
15f
100
AcDbEntity
  8
Ebene_1
 62
5
100
AcDbPolyline
 90
2
 70
0
 10
40.163203
 20
29.115446
 30
0.0
 10
26.078740
 20
30.248495
 30
0.0
  0
SPLINE
  5
160
100
AcDbEntity
  8
Ebene_1
 62
5
100
AcDbSpline
 70
8
 71
3
 72
8
 73
4
 74
0
 40
0
 40
0
 40
0
 40
0
 40
1
 40
1
 40
1
 40
1
 10
17.120950
 20
41.864531
 30
0.0
 10
16.737683
 20
44.887084
 30
0.0
 10
14.167452
 20
47.153609
 30
0.0
 10
11.120697
 20
47.155775
 30
0.0
  0
SPLINE
  5
161
100
AcDbEntity
  8
Ebene_1
 62
5
100
AcDbSpline
 70
8
 71
3
 72
8
 73
4
 74
0
 40
0
 40
0
 40
0
 40
0
 40
1
 40
1
 40
1
 40
1
 10
11.120697
 20
47.155775
 30
0.0
 10
7.810719
 20
47.162135
 30
0.0
 10
5.131130
 20
49.847773
 30
0.0
 10
5.132233
 20
53.157757
 30
0.0
  0
SPLINE
  5
162
100
AcDbEntity
  8
Ebene_1
 62
5
100
AcDbSpline
 70
8
 71
3
 72
8
 73
4
 74
0
 40
0
 40
0
 40
0
 40
0
 40
1
 40
1
 40
1
 40
1
 10
5.132233
 20
53.157757
 30
0.0
 10
5.133337
 20
56.467741
 30
0.0
 10
7.814716
 20
59.151592
 30
0.0
 10
11.124697
 20
59.155745
 30
0.0
  0
SPLINE
  5
163
100
AcDbEntity
  8
Ebene_1
 62
5
100
AcDbSpline
 70
8
 71
3
 72
8
 73
4
 74
0
 40
0
 40
0
 40
0
 40
0
 40
1
 40
1
 40
1
 40
1
 10
11.124697
 20
59.155745
 30
0.0
 10
14.171441
 20
59.155755
 30
0.0
 10
16.743269
 20
61.420442
 30
0.0
 10
17.128690
 20
64.442709
 30
0.0
  0
LWPOLYLINE
  5
164
100
AcDbEntity
  8
Ebene_1
 62
5
100
AcDbPolyline
 90
2
 70
0
 10
17.120950
 20
39.959994
 30
0.0
 10
17.120950
 20
41.864531
 30
0.0
  0
SPLINE
  5
165
100
AcDbEntity
  8
Ebene_1
 62
5
100
AcDbSpline
 70
8
 71
3
 72
8
 73
4
 74
0
 40
0
 40
0
 40
0
 40
0
 40
1
 40
1
 40
1
 40
1
 10
17.138690
 20
92.881082
 30
0.0
 10
16.747877
 20
95.896240
 30
0.0
 10
14.180936
 20
98.153549
 30
0.0
 10
11.140557
 20
98.155706
 30
0.0
  0
SPLINE
  5
166
100
AcDbEntity
  8
Ebene_1
 62
5
100
AcDbSpline
 70
8
 71
3
 72
8
 73
4
 74
0
 40
0
 40
0
 40
0
 40
0
 40
1
 40
1
 40
1
 40
1
 10
11.140557
 20
98.155706
 30
0.0
 10
7.829896
 20
98.161112
 30
0.0
 10
5.149248
 20
100.847036
 30
0.0
 10
5.150351
 20
104.157701
 30
0.0
  0
SPLINE
  5
167
100
AcDbEntity
  8
Ebene_1
 62
5
100
AcDbSpline
 70
8
 71
3
 72
8
 73
4
 74
0
 40
0
 40
0
 40
0
 40
0
 40
1
 40
1
 40
1
 40
1
 10
5.150351
 20
104.157701
 30
0.0
 10
5.151455
 20
107.468367
 30
0.0
 10
7.833893
 20
110.152503
 30
0.0
 10
11.144557
 20
110.155702
 30
0.0
  0
SPLINE
  5
168
100
AcDbEntity
  8
Ebene_1
 62
5
100
AcDbSpline
 70
8
 71
3
 72
8
 73
4
 74
0
 40
0
 40
0
 40
0
 40
0
 40
1
 40
1
 40
1
 40
1
 10
11.144557
 20
110.155702
 30
0.0
 10
14.184894
 20
110.155716
 30
0.0
 10
16.753401
 20
112.411155
 30
0.0
 10
17.146390
 20
115.425986
 30
0.0
  0
LWPOLYLINE
  5
169
100
AcDbEntity
  8
Ebene_1
 62
5
100
AcDbPolyline
 90
2
 70
0
 10
17.128690
 20
64.442709
 30
0.0
 10
17.138690
 20
92.881082
 30
0.0
  0
SPLINE
  5
16a
100
AcDbEntity
  8
Ebene_1
 62
5
100
AcDbSpline
 70
8
 71
3
 72
8
 73
4
 74
0
 40
0
 40
0
 40
0
 40
0
 40
1
 40
1
 40
1
 40
1
 10
17.146390
 20
116.591774
 30
0.0
 10
17.147962
 20
121.362802
 30
0.0
 10
20.609001
 20
125.428719
 30
0.0
 10
25.318551
 20
126.192163
 30
0.0
  0
LWPOLYLINE
  5
16b
100
AcDbEntity
  8
Ebene_1
 62
5
100
AcDbPolyline
 90
2
 70
0
 10
17.146390
 20
115.425986
 30
0.0
 10
17.146390
 20
116.591774
 30
0.0
  0
SPLINE
  5
16c
100
AcDbEntity
  8
Ebene_1
 62
5
100
AcDbSpline
 70
8
 71
3
 72
8
 73
4
 74
0
 40
0
 40
0
 40
0
 40
0
 40
1
 40
1
 40
1
 40
1
 10
61.318129
 20
132.027976
 30
0.0
 10
63.196169
 20
132.332422
 30
0.0
 10
65.095646
 20
132.485384
 30
0.0
 10
66.998202
 20
132.485386
 30
0.0
  0
LWPOLYLINE
  5
16d
100
AcDbEntity
  8
Ebene_1
 62
5
100
AcDbPolyline
 90
2
 70
0
 10
25.318551
 20
126.192163
 30
0.0
 10
61.318129
 20
132.027976
 30
0.0
  0
SPLINE
  5
16e
100
AcDbEntity
  8
Ebene_1
 62
5
100
AcDbSpline
 70
8
 71
3
 72
8
 73
4
 74
0
 40
0
 40
0
 40
0
 40
0
 40
1
 40
1
 40
1
 40
1
 10
148.659097
 20
124.931983
 30
0.0
 10
148.659091
 20
125.727633
 30
0.0
 10
148.975158
 20
126.490698
 30
0.0
 10
149.537764
 20
127.053311
 30
0.0
  0
SPLINE
  5
16f
100
AcDbEntity
  8
Ebene_1
 62
5
100
AcDbSpline
 70
8
 71
3
 72
8
 73
4
 74
0
 40
0
 40
0
 40
0
 40
0
 40
1
 40
1
 40
1
 40
1
 10
149.537764
 20
127.053311
 30
0.0
 10
150.100371
 20
127.615924
 30
0.0
 10
150.863433
 20
127.931999
 30
0.0
 10
151.659084
 20
127.932001
 30
0.0
  0
LWPOLYLINE
  5
170
100
AcDbEntity
  8
Ebene_1
 62
5
100
AcDbPolyline
 90
2
 70
0
 10
66.998202
 20
132.485386
 30
0.0
 10
140.204677
 20
132.485396
 30
0.0
  0
SPLINE
  5
171
100
AcDbEntity
  8
Ebene_1
 62
5
100
AcDbSpline
 70
8
 71
3
 72
8
 73
4
 74
0
 40
0
 40
0
 40
0
 40
0
 40
1
 40
1
 40
1
 40
1
 10
152.156883
 20
127.932001
 30
0.0
 10
157.243492
 20
127.931985
 30
0.0
 10
161.452485
 20
123.975137
 30
0.0
 10
161.766332
 20
118.898220
 30
0.0
  0
SPLINE
  5
172
100
AcDbEntity
  8
Ebene_1
 62
5
100
AcDbSpline
 70
8
 71
3
 72
8
 73
4
 74
0
 40
0
 40
0
 40
0
 40
0
 40
1
 40
1
 40
1
 40
1
 10
161.766332
 20
118.898220
 30
0.0
 10
162.149602
 20
115.875673
 30
0.0
 10
164.719826
 20
113.609154
 30
0.0
 10
167.766575
 20
113.606983
 30
0.0
  0
SPLINE
  5
173
100
AcDbEntity
  8
Ebene_1
 62
5
100
AcDbSpline
 70
8
 71
3
 72
8
 73
4
 74
0
 40
0
 40
0
 40
0
 40
0
 40
1
 40
1
 40
1
 40
1
 10
167.766575
 20
113.606983
 30
0.0
 10
171.076200
 20
113.600126
 30
0.0
 10
173.755241
 20
110.914634
 30
0.0
 10
173.754138
 20
107.605002
 30
0.0
  0
SPLINE
  5
174
100
AcDbEntity
  8
Ebene_1
 62
5
100
AcDbSpline
 70
8
 71
3
 72
8
 73
4
 74
0
 40
0
 40
0
 40
0
 40
0
 40
1
 40
1
 40
1
 40
1
 10
173.754138
 20
107.605002
 30
0.0
 10
173.753035
 20
104.295370
 30
0.0
 10
171.072204
 20
101.611664
 30
0.0
 10
167.762575
 20
101.607014
 30
0.0
  0
SPLINE
  5
175
100
AcDbEntity
  8
Ebene_1
 62
5
100
AcDbSpline
 70
8
 71
3
 72
8
 73
4
 74
0
 40
0
 40
0
 40
0
 40
0
 40
1
 40
1
 40
1
 40
1
 10
167.762575
 20
101.607014
 30
0.0
 10
164.739084
 20
101.607014
 30
0.0
 10
162.179354
 20
99.375838
 30
0.0
 10
161.766602
 20
96.380653
 30
0.0
  0
LWPOLYLINE
  5
176
100
AcDbEntity
  8
Ebene_1
 62
5
100
AcDbPolyline
 90
2
 70
0
 10
151.659084
 20
127.932001
 30
0.0
 10
152.156883
 20
127.932001
 30
0.0
  0
SPLINE
  5
177
100
AcDbEntity
  8
Ebene_1
 62
5
100
AcDbSpline
 70
8
 71
3
 72
8
 73
4
 74
0
 40
0
 40
0
 40
0
 40
0
 40
1
 40
1
 40
1
 40
1
 10
161.766602
 20
82.732014
 30
0.0
 10
161.766609
 20
78.313744
 30
0.0
 10
158.184901
 20
74.732022
 30
0.0
 10
153.766631
 20
74.732011
 30
0.0
  0
LWPOLYLINE
  5
178
100
AcDbEntity
  8
Ebene_1
 62
5
100
AcDbPolyline
 90
2
 70
0
 10
161.766602
 20
96.380653
 30
0.0
 10
161.766602
 20
82.732014
 30
0.0
  0
SPLINE
  5
179
100
AcDbEntity
  8
Ebene_1
 62
5
100
AcDbSpline
 70
8
 71
3
 72
8
 73
4
 74
0
 40
0
 40
0
 40
0
 40
0
 40
1
 40
1
 40
1
 40
1
 10
153.752131
 20
118.003965
 30
0.0
 10
153.715323
 20
119.079324
 30
0.0
 10
152.832913
 20
119.932057
 30
0.0
 10
151.756924
 20
119.932070
 30
0.0
  0
LWPOLYLINE
  5
17a
100
AcDbEntity
  8
Ebene_1
 62
5
100
AcDbPolyline
 90
3
 70
0
 10
153.766631
 20
74.732011
 30
0.0
 10
153.741931
 20
74.732011
 30
0.0
 10
153.752131
 20
118.003965
 30
0.0
  0
SPLINE
  5
17b
100
AcDbEntity
  8
Ebene_1
 62
5
100
AcDbSpline
 70
8
 71
3
 72
8
 73
4
 74
0
 40
0
 40
0
 40
0
 40
0
 40
1
 40
1
 40
1
 40
1
 10
158.022446
 20
122.441057
 30
0.0
 10
158.022446
 20
123.173454
 30
0.0
 10
157.631717
 20
123.850217
 30
0.0
 10
156.997442
 20
124.216415
 30
0.0
  0
SPLINE
  5
17c
100
AcDbEntity
  8
Ebene_1
 62
5
100
AcDbSpline
 70
8
 71
3
 72
8
 73
4
 74
0
 40
0
 40
0
 40
0
 40
0
 40
1
 40
1
 40
1
 40
1
 10
156.997442
 20
124.216415
 30
0.0
 10
156.363168
 20
124.582614
 30
0.0
 10
155.581709
 20
124.582614
 30
0.0
 10
154.947435
 20
124.216415
 30
0.0
  0
SPLINE
  5
17d
100
AcDbEntity
  8
Ebene_1
 62
5
100
AcDbSpline
 70
8
 71
3
 72
8
 73
4
 74
0
 40
0
 40
0
 40
0
 40
0
 40
1
 40
1
 40
1
 40
1
 10
154.947435
 20
124.216415
 30
0.0
 10
154.313160
 20
123.850217
 30
0.0
 10
153.922431
 20
123.173454
 30
0.0
 10
153.922431
 20
122.441057
 30
0.0
  0
SPLINE
  5
17e
100
AcDbEntity
  8
Ebene_1
 62
5
100
AcDbSpline
 70
8
 71
3
 72
8
 73
4
 74
0
 40
0
 40
0
 40
0
 40
0
 40
1
 40
1
 40
1
 40
1
 10
153.922431
 20
122.441057
 30
0.0
 10
153.922431
 20
121.708659
 30
0.0
 10
154.313160
 20
121.031897
 30
0.0
 10
154.947435
 20
120.665698
 30
0.0
  0
SPLINE
  5
17f
100
AcDbEntity
  8
Ebene_1
 62
5
100
AcDbSpline
 70
8
 71
3
 72
8
 73
4
 74
0
 40
0
 40
0
 40
0
 40
0
 40
1
 40
1
 40
1
 40
1
 10
154.947435
 20
120.665698
 30
0.0
 10
155.581709
 20
120.299499
 30
0.0
 10
156.363168
 20
120.299499
 30
0.0
 10
156.997442
 20
120.665698
 30
0.0
  0
SPLINE
  5
180
100
AcDbEntity
  8
Ebene_1
 62
5
100
AcDbSpline
 70
8
 71
3
 72
8
 73
4
 74
0
 40
0
 40
0
 40
0
 40
0
 40
1
 40
1
 40
1
 40
1
 10
156.997442
 20
120.665698
 30
0.0
 10
157.631717
 20
121.031897
 30
0.0
 10
158.022446
 20
121.708659
 30
0.0
 10
158.022446
 20
122.441057
 30
0.0
  0
LWPOLYLINE
  5
181
100
AcDbEntity
  8
Ebene_1
 62
5
100
AcDbPolyline
 90
3
 70
0
 10
151.756924
 20
119.932070
 30
0.0
 10
148.659117
 20
119.932070
 30
0.0
 10
148.659097
 20
124.931983
 30
0.0
  0
SPLINE
  5
182
100
AcDbEntity
  8
Ebene_1
 62
5
100
AcDbSpline
 70
8
 71
3
 72
8
 73
4
 74
0
 40
0
 40
0
 40
0
 40
0
 40
1
 40
1
 40
1
 40
1
 10
159.816314
 20
79.866368
 30
0.0
 10
159.819151
 20
80.600645
 30
0.0
 10
159.429047
 20
81.280362
 30
0.0
 10
158.793614
 20
81.648321
 30
0.0
  0
SPLINE
  5
183
100
AcDbEntity
  8
Ebene_1
 62
5
100
AcDbSpline
 70
8
 71
3
 72
8
 73
4
 74
0
 40
0
 40
0
 40
0
 40
0
 40
1
 40
1
 40
1
 40
1
 10
158.793614
 20
81.648321
 30
0.0
 10
158.158180
 20
82.016281
 30
0.0
 10
157.374473
 20
82.016281
 30
0.0
 10
156.739040
 20
81.648321
 30
0.0
  0
SPLINE
  5
184
100
AcDbEntity
  8
Ebene_1
 62
5
100
AcDbSpline
 70
8
 71
3
 72
8
 73
4
 74
0
 40
0
 40
0
 40
0
 40
0
 40
1
 40
1
 40
1
 40
1
 10
156.739040
 20
81.648321
 30
0.0
 10
156.103606
 20
81.280362
 30
0.0
 10
155.713502
 20
80.600645
 30
0.0
 10
155.716339
 20
79.866368
 30
0.0
  0
SPLINE
  5
185
100
AcDbEntity
  8
Ebene_1
 62
5
100
AcDbSpline
 70
8
 71
3
 72
8
 73
4
 74
0
 40
0
 40
0
 40
0
 40
0
 40
1
 40
1
 40
1
 40
1
 10
155.716339
 20
79.866368
 30
0.0
 10
155.713502
 20
79.132091
 30
0.0
 10
156.103606
 20
78.452375
 30
0.0
 10
156.739040
 20
78.084415
 30
0.0
  0
SPLINE
  5
186
100
AcDbEntity
  8
Ebene_1
 62
5
100
AcDbSpline
 70
8
 71
3
 72
8
 73
4
 74
0
 40
0
 40
0
 40
0
 40
0
 40
1
 40
1
 40
1
 40
1
 10
156.739040
 20
78.084415
 30
0.0
 10
157.374473
 20
77.716455
 30
0.0
 10
158.158180
 20
77.716455
 30
0.0
 10
158.793614
 20
78.084415
 30
0.0
  0
SPLINE
  5
187
100
AcDbEntity
  8
Ebene_1
 62
5
100
AcDbSpline
 70
8
 71
3
 72
8
 73
4
 74
0
 40
0
 40
0
 40
0
 40
0
 40
1
 40
1
 40
1
 40
1
 10
158.793614
 20
78.084415
 30
0.0
 10
159.429047
 20
78.452375
 30
0.0
 10
159.819151
 20
79.132091
 30
0.0
 10
159.816314
 20
79.866368
 30
0.0
  0
LWPOLYLINE
  5
188
100
AcDbEntity
  8
Ebene_1
 62
5
100
AcDbPolyline
 90
1
 70
1
 10
158.022446
 20
122.441057
 30
0.0
  0
SPLINE
  5
189
100
AcDbEntity
  8
Ebene_1
 62
5
100
AcDbSpline
 70
8
 71
3
 72
8
 73
4
 74
0
 40
0
 40
0
 40
0
 40
0
 40
1
 40
1
 40
1
 40
1
 10
170.364432
 20
107.607016
 30
0.0
 10
170.367039
 20
108.537637
 30
0.0
 10
169.872055
 20
109.398683
 30
0.0
 10
169.066545
 20
109.864748
 30
0.0
  0
SPLINE
  5
18a
100
AcDbEntity
  8
Ebene_1
 62
5
100
AcDbSpline
 70
8
 71
3
 72
8
 73
4
 74
0
 40
0
 40
0
 40
0
 40
0
 40
1
 40
1
 40
1
 40
1
 10
169.066545
 20
109.864748
 30
0.0
 10
168.261036
 20
110.330812
 30
0.0
 10
167.267854
 20
110.330812
 30
0.0
 10
166.462345
 20
109.864748
 30
0.0
  0
SPLINE
  5
18b
100
AcDbEntity
  8
Ebene_1
 62
5
100
AcDbSpline
 70
8
 71
3
 72
8
 73
4
 74
0
 40
0
 40
0
 40
0
 40
0
 40
1
 40
1
 40
1
 40
1
 10
166.462345
 20
109.864748
 30
0.0
 10
165.656835
 20
109.398683
 30
0.0
 10
165.161851
 20
108.537637
 30
0.0
 10
165.164458
 20
107.607016
 30
0.0
  0
SPLINE
  5
18c
100
AcDbEntity
  8
Ebene_1
 62
5
100
AcDbSpline
 70
8
 71
3
 72
8
 73
4
 74
0
 40
0
 40
0
 40
0
 40
0
 40
1
 40
1
 40
1
 40
1
 10
165.164458
 20
107.607016
 30
0.0
 10
165.161851
 20
106.676395
 30
0.0
 10
165.656835
 20
105.815349
 30
0.0
 10
166.462345
 20
105.349284
 30
0.0
  0
SPLINE
  5
18d
100
AcDbEntity
  8
Ebene_1
 62
5
100
AcDbSpline
 70
8
 71
3
 72
8
 73
4
 74
0
 40
0
 40
0
 40
0
 40
0
 40
1
 40
1
 40
1
 40
1
 10
166.462345
 20
105.349284
 30
0.0
 10
167.267854
 20
104.883220
 30
0.0
 10
168.261036
 20
104.883220
 30
0.0
 10
169.066545
 20
105.349284
 30
0.0
  0
SPLINE
  5
18e
100
AcDbEntity
  8
Ebene_1
 62
5
100
AcDbSpline
 70
8
 71
3
 72
8
 73
4
 74
0
 40
0
 40
0
 40
0
 40
0
 40
1
 40
1
 40
1
 40
1
 10
169.066545
 20
105.349284
 30
0.0
 10
169.872055
 20
105.815349
 30
0.0
 10
170.367039
 20
106.676395
 30
0.0
 10
170.364432
 20
107.607016
 30
0.0
  0
LWPOLYLINE
  5
18f
100
AcDbEntity
  8
Ebene_1
 62
5
100
AcDbPolyline
 90
1
 70
1
 10
159.816314
 20
79.866368
 30
0.0
  0
LWPOLYLINE
  5
190
100
AcDbEntity
  8
Ebene_1
 62
5
100
AcDbPolyline
 90
1
 70
1
 10
170.364432
 20
107.607016
 30
0.0
  0
ENDSEC
  0
SECTION
  2
OBJECTS
  0
DICTIONARY
  5
C
330
0
100
AcDbDictionary
  3
ACAD_GROUP
350
D
  3
ACAD_MLINESTYLE
350
17
  0
DICTIONARY
  5
D
330
C
100
AcDbDictionary
  0
DICTIONARY
  5
1A
330
C
100
AcDbDictionary
  0
DICTIONARY
  5
17
330
C
100
AcDbDictionary
  3
STANDARD
350
18
  0
DICTIONARY
  5
19
330
C
100
AcDbDictionary
  0
ENDSEC
  0
EOF
