  0
SECTION
  2
HEADER
  9
$ACADVER
  1
AC1014
  9
$HANDSEED
  5
FFFF
  9
$MEASUREMENT
 70
     1
  0
ENDSEC
  0
SECTION
  2
TABLES
  0
TABLE
  2
VPORT
  5
8
330
0
100
AcDbSymbolTable
 70
     4
  0
VPORT
  5
2E
330
8
100
AcDbSymbolTableRecord
100
AcDbViewportTableRecord
  2
*ACTIVE
 70
     0
 10
0.0
 20
0.0
 11
1.0
 21
1.0
 12
210.0
 22
148.5
 13
0.0
 23
0.0
 14
10.0
 24
10.0
 15
10.0
 25
10.0
 16
0.0
 26
0.0
 36
1.0
 17
0.0
 27
0.0
 37
0.0
 40
341.0
 41
1.24
 42
50.0
 43
0.0
 44
0.0
 50
0.0
 51
0.0
 71
     0
 72
   100
 73
     1
 74
     3
 75
     0
 76
     0
 77
     0
 78
     0
  0
ENDTAB
  0
TABLE
  2
LTYPE
  5
5
330
0
100
AcDbSymbolTable
 70
     1
  0
LTYPE
  5
14
330
5
100
AcDbSymbolTableRecord
100
AcDbLinetypeTableRecord
  2
BYBLOCK
 70
     0
  3

 72
    65
 73
     0
 40
0.0
  0
LTYPE
  5
15
330
5
100
AcDbSymbolTableRecord
100
AcDbLinetypeTableRecord
  2
BYLAYER
 70
     0
  3

 72
    65
 73
     0
 40
0.0
  0
LTYPE
  5
16
330
5
100
AcDbSymbolTableRecord
100
AcDbLinetypeTableRecord
  2
CONTINUOUS
 70
     0
  3
Solid line
 72
    65
 73
     0
 40
0.0
  0
ENDTAB
  0
TABLE
  2
LAYER
  5
2
100
AcDbSymbolTable
 70
2
  0
LAYER
  5
50
100
AcDbSymbolTableRecord
100
AcDbLayerTableRecord
  2
0
 70
0
  6
CONTINUOUS
  0
LAYER
  5
51
100
AcDbSymbolTableRecord
100
AcDbLayerTableRecord
  2
Ebene_1
 70
0
  6
CONTINUOUS
  0
ENDTAB
  0
TABLE
  2
STYLE
  5
3
330
0
100
AcDbSymbolTable
 70
     1
  0
STYLE
  5
11
330
3
100
AcDbSymbolTableRecord
100
AcDbTextStyleTableRecord
  2
STANDARD
 70
     0
 40
0.0
 41
1.0
 50
0.0
 71
     0
 42
2.5
  3
txt
  4

  0
ENDTAB
  0
TABLE
  2
VIEW
  5
6
330
0
100
AcDbSymbolTable
 70
     0
  0
ENDTAB
  0
TABLE
  2
UCS
  5
7
330
0
100
AcDbSymbolTable
 70
     0
  0
ENDTAB
  0
TABLE
  2
APPID
  5
9
330
0
100
AcDbSymbolTable
 70
     2
  0
APPID
  5
12
330
9
100
AcDbSymbolTableRecord
100
AcDbRegAppTableRecord
  2
ACAD
 70
     0
  0
ENDTAB
  0
TABLE
  2
DIMSTYLE
  5
A
330
0
100
AcDbSymbolTable
 70
     1
  0
DIMSTYLE
105
27
330
A
100
AcDbSymbolTableRecord
100
AcDbDimStyleTableRecord
  2
ISO-25
 70
     0
  3

  4

  5

  6

  7

 40
1.0
 41
2.5
 42
0.625
 43
3.75
 44
1.25
 45
0.0
 46
0.0
 47
0.0
 48
0.0
140
2.5
141
2.5
142
0.0
143
0.03937007874016
144
1.0
145
0.0
146
1.0
147
0.625
 71
     0
 72
     0
 73
     0
 74
     0
 75
     0
 76
     0
 77
     1
 78
     8
170
     0
171
     3
172
     1
173
     0
174
     0
175
     0
176
     0
177
     0
178
     0
270
     2
271
     2
272
     2
273
     2
274
     3
340
11
275
     0
280
     0
281
     0
282
     0
283
     0
284
     8
285
     0
286
     0
287
     3
288
     0
  0
ENDTAB
  0
TABLE
  2
BLOCK_RECORD
  5
1
330
0
100
AcDbSymbolTable
 70
     1
  0
BLOCK_RECORD
  5
1F
330
1
100
AcDbSymbolTableRecord
100
AcDbBlockTableRecord
  2
*MODEL_SPACE
  0
BLOCK_RECORD
  5
1B
330
1
100
AcDbSymbolTableRecord
100
AcDbBlockTableRecord
  2
*PAPER_SPACE
  0
ENDTAB
  0
ENDSEC
  0
SECTION
  2
BLOCKS
  0
BLOCK
  5
20
330
1F
100
AcDbEntity
  8
0
100
AcDbBlockBegin
  2
*MODEL_SPACE
 70
     0
 10
0.0
 20
0.0
 30
0.0
  3
*MODEL_SPACE
  1

  0
ENDBLK
  5
21
330
1F
100
AcDbEntity
  8
0
100
AcDbBlockEnd
  0
BLOCK
  5
1C
330
1B
100
AcDbEntity
 67
     1
  8
0
100
AcDbBlockBegin
  2
*PAPER_SPACE
  1

  0
ENDBLK
  5
1D
330
1B
100
AcDbEntity
 67
     1
  8
0
100
AcDbBlockEnd
  0
ENDSEC
  0
SECTION
  2
ENTITIES
  0
SPLINE
  5
100
100
AcDbEntity
  8
Ebene_1
 62
5
100
AcDbSpline
 70
8
 71
3
 72
8
 73
4
 74
0
 40
0
 40
0
 40
0
 40
0
 40
1
 40
1
 40
1
 40
1
 10
138.894601
 20
44.195039
 30
0.0
 10
138.531310
 20
44.930157
 30
0.0
 10
139.052691
 20
45.794165
 30
0.0
 10
139.872401
 20
45.815401
 30
0.0
  0
SPLINE
  5
101
100
AcDbEntity
  8
Ebene_1
 62
5
100
AcDbSpline
 70
8
 71
3
 72
8
 73
4
 74
0
 40
0
 40
0
 40
0
 40
0
 40
1
 40
1
 40
1
 40
1
 10
139.872401
 20
45.815401
 30
0.0
 10
147.097855
 20
46.002596
 30
0.0
 10
151.977897
 20
53.263986
 30
0.0
 10
149.422026
 20
60.024829
 30
0.0
  0
SPLINE
  5
102
100
AcDbEntity
  8
Ebene_1
 62
5
100
AcDbSpline
 70
8
 71
3
 72
8
 73
4
 74
0
 40
0
 40
0
 40
0
 40
0
 40
1
 40
1
 40
1
 40
1
 10
149.422026
 20
60.024829
 30
0.0
 10
146.866165
 20
66.785670
 30
0.0
 10
138.402880
 20
69.002754
 30
0.0
 10
132.860585
 20
64.363231
 30
0.0
  0
LWPOLYLINE
  5
103
100
AcDbEntity
  8
Ebene_1
 62
5
100
AcDbPolyline
 90
4
 70
0
 10
137.275720
 20
17.997852
 30
0.0
 10
146.323834
 20
33.672789
 30
0.0
 10
149.023006
 20
38.349802
 30
0.0
 10
138.894601
 20
44.195039
 30
0.0
  0
SPLINE
  5
104
100
AcDbEntity
  8
Ebene_1
 62
5
100
AcDbSpline
 70
8
 71
3
 72
8
 73
4
 74
0
 40
0
 40
0
 40
0
 40
0
 40
1
 40
1
 40
1
 40
1
 10
49.318879
 20
132.016778
 30
0.0
 10
51.196870
 20
132.321476
 30
0.0
 10
53.096318
 20
132.474695
 30
0.0
 10
54.998866
 20
132.474955
 30
0.0
  0
LWPOLYLINE
  5
105
100
AcDbEntity
  8
Ebene_1
 62
5
100
AcDbPolyline
 90
31
 70
0
 10
132.860585
 20
64.363231
 30
0.0
 10
128.811717
 20
64.362683
 30
0.0
 10
128.809717
 20
79.476437
 30
0.0
 10
128.813517
 20
116.485007
 30
0.0
 10
128.805917
 20
116.485006
 30
0.0
 10
128.805400
 20
120.303369
 30
0.0
 10
110.506455
 20
120.300869
 30
0.0
 10
109.604870
 20
122.701048
 30
0.0
 10
91.387089
 20
122.698548
 30
0.0
 10
90.386591
 20
124.087829
 30
0.0
 10
71.602537
 20
124.085329
 30
0.0
 10
70.701467
 20
122.695826
 30
0.0
 10
52.425597
 20
122.693326
 30
0.0
 10
51.425925
 20
117.892589
 30
0.0
 10
33.488592
 20
117.890189
 30
0.0
 10
32.587534
 20
116.388923
 30
0.0
 10
14.205365
 20
116.386423
 30
0.0
 10
14.166765
 20
40.186698
 30
0.0
 10
33.107418
 20
40.189298
 30
0.0
 10
34.059276
 20
41.690571
 30
0.0
 10
43.016400
 20
41.691771
 30
0.0
 10
43.018890
 20
23.292005
 30
0.0
 10
62.053729
 20
23.294605
 30
0.0
 10
63.050949
 20
27.442561
 30
0.0
 10
99.692401
 20
27.447561
 30
0.0
 10
99.692401
 20
27.447561
 30
0.0
 10
100.605774
 20
27.432341
 30
0.0
 10
118.362053
 20
22.675653
 30
0.0
 10
134.577294
 20
13.321036
 30
0.0
 10
137.275690
 20
17.998390
 30
0.0
 10
137.275720
 20
17.997852
 30
0.0
  0
SPLINE
  5
106
100
AcDbEntity
  8
Ebene_1
 62
5
100
AcDbSpline
 70
8
 71
3
 72
8
 73
4
 74
0
 40
0
 40
0
 40
0
 40
0
 40
1
 40
1
 40
1
 40
1
 10
150.703317
 20
132.487895
 30
0.0
 10
155.789950
 20
132.488587
 30
0.0
 10
159.999507
 20
128.532296
 30
0.0
 10
160.314042
 20
123.455397
 30
0.0
  0
LWPOLYLINE
  5
107
100
AcDbEntity
  8
Ebene_1
 62
5
100
AcDbPolyline
 90
2
 70
0
 10
54.998866
 20
132.474955
 30
0.0
 10
150.703317
 20
132.487895
 30
0.0
  0
SPLINE
  5
108
100
AcDbEntity
  8
Ebene_1
 62
5
100
AcDbSpline
 70
8
 71
3
 72
8
 73
4
 74
0
 40
0
 40
0
 40
0
 40
0
 40
1
 40
1
 40
1
 40
1
 10
160.315042
 20
112.314446
 30
0.0
 10
160.312545
 20
112.214280
 30
0.0
 10
160.312559
 20
112.114068
 30
0.0
 10
160.315082
 20
112.013903
 30
0.0
  0
LWPOLYLINE
  5
109
100
AcDbEntity
  8
Ebene_1
 62
5
100
AcDbPolyline
 90
2
 70
0
 10
160.314042
 20
123.455397
 30
0.0
 10
160.315042
 20
112.314446
 30
0.0
  0
SPLINE
  5
10a
100
AcDbEntity
  8
Ebene_1
 62
5
100
AcDbSpline
 70
8
 71
3
 72
8
 73
4
 74
0
 40
0
 40
0
 40
0
 40
0
 40
1
 40
1
 40
1
 40
1
 10
160.324082
 20
45.534939
 30
0.0
 10
160.327651
 20
43.411837
 30
0.0
 10
159.859227
 20
41.314490
 30
0.0
 10
158.952701
 20
39.394650
 30
0.0
  0
LWPOLYLINE
  5
10b
100
AcDbEntity
  8
Ebene_1
 62
5
100
AcDbPolyline
 90
2
 70
0
 10
160.315082
 20
112.013903
 30
0.0
 10
160.324082
 20
45.534939
 30
0.0
  0
SPLINE
  5
10c
100
AcDbEntity
  8
Ebene_1
 62
5
100
AcDbSpline
 70
8
 71
3
 72
8
 73
4
 74
0
 40
0
 40
0
 40
0
 40
0
 40
1
 40
1
 40
1
 40
1
 10
142.573253
 20
10.007248
 30
0.0
 10
140.155933
 20
5.811236
 30
0.0
 10
135.021305
 20
4.030919
 30
0.0
 10
130.525353
 20
5.829910
 30
0.0
  0
LWPOLYLINE
  5
10d
100
AcDbEntity
  8
Ebene_1
 62
5
100
AcDbPolyline
 90
2
 70
0
 10
158.952701
 20
39.394650
 30
0.0
 10
142.573253
 20
10.007248
 30
0.0
  0
SPLINE
  5
10e
100
AcDbEntity
  8
Ebene_1
 62
5
100
AcDbSpline
 70
8
 71
3
 72
8
 73
4
 74
0
 40
0
 40
0
 40
0
 40
0
 40
1
 40
1
 40
1
 40
1
 10
98.195148
 20
18.766369
 30
0.0
 10
97.991286
 20
18.847945
 30
0.0
 10
97.773723
 20
18.889844
 30
0.0
 10
97.554146
 20
18.889817
 30
0.0
  0
LWPOLYLINE
  5
10f
100
AcDbEntity
  8
Ebene_1
 62
5
100
AcDbPolyline
 90
2
 70
0
 10
130.525353
 20
5.829910
 30
0.0
 10
98.195148
 20
18.766369
 30
0.0
  0
SPLINE
  5
110
100
AcDbEntity
  8
Ebene_1
 62
5
100
AcDbSpline
 70
8
 71
3
 72
8
 73
4
 74
0
 40
0
 40
0
 40
0
 40
0
 40
1
 40
1
 40
1
 40
1
 10
82.497778
 20
18.887817
 30
0.0
 10
82.000936
 20
18.887764
 30
0.0
 10
81.506399
 20
18.820293
 30
0.0
 10
81.027702
 20
18.687249
 30
0.0
  0
LWPOLYLINE
  5
111
100
AcDbEntity
  8
Ebene_1
 62
5
100
AcDbPolyline
 90
2
 70
0
 10
97.554146
 20
18.889817
 30
0.0
 10
82.497778
 20
18.887817
 30
0.0
  0
SPLINE
  5
112
100
AcDbEntity
  8
Ebene_1
 62
5
100
AcDbSpline
 70
8
 71
3
 72
8
 73
4
 74
0
 40
0
 40
0
 40
0
 40
0
 40
1
 40
1
 40
1
 40
1
 10
65.472424
 20
14.363941
 30
0.0
 10
63.732424
 20
13.880242
 30
0.0
 10
61.934828
 20
13.634919
 30
0.0
 10
60.128848
 20
13.634688
 30
0.0
  0
LWPOLYLINE
  5
113
100
AcDbEntity
  8
Ebene_1
 62
5
100
AcDbPolyline
 90
2
 70
0
 10
81.027702
 20
18.687249
 30
0.0
 10
65.472424
 20
14.363941
 30
0.0
  0
SPLINE
  5
114
100
AcDbEntity
  8
Ebene_1
 62
5
100
AcDbSpline
 70
8
 71
3
 72
8
 73
4
 74
0
 40
0
 40
0
 40
0
 40
0
 40
1
 40
1
 40
1
 40
1
 10
44.007853
 20
13.632488
 30
0.0
 10
40.627052
 20
13.633216
 30
0.0
 10
37.490951
 20
15.395597
 30
0.0
 10
35.732374
 20
18.283022
 30
0.0
  0
LWPOLYLINE
  5
115
100
AcDbEntity
  8
Ebene_1
 62
5
100
AcDbPolyline
 90
2
 70
0
 10
60.128848
 20
13.634688
 30
0.0
 10
44.007853
 20
13.632488
 30
0.0
  0
SPLINE
  5
116
100
AcDbEntity
  8
Ebene_1
 62
5
100
AcDbSpline
 70
8
 71
3
 72
8
 73
4
 74
0
 40
0
 40
0
 40
0
 40
0
 40
1
 40
1
 40
1
 40
1
 10
29.724169
 20
28.147945
 30
0.0
 10
29.390737
 20
28.695406
 30
0.0
 10
28.815100
 20
29.049873
 30
0.0
 10
28.176150
 20
29.101189
 30
0.0
  0
LWPOLYLINE
  5
117
100
AcDbEntity
  8
Ebene_1
 62
5
100
AcDbPolyline
 90
2
 70
0
 10
35.732374
 20
18.283022
 30
0.0
 10
29.724169
 20
28.147945
 30
0.0
  0
SPLINE
  5
118
100
AcDbEntity
  8
Ebene_1
 62
5
100
AcDbSpline
 70
8
 71
3
 72
8
 73
4
 74
0
 40
0
 40
0
 40
0
 40
0
 40
1
 40
1
 40
1
 40
1
 10
14.091567
 20
30.232389
 30
0.0
 10
9.030643
 20
30.639093
 30
0.0
 10
5.131173
 20
34.865435
 30
0.0
 10
5.132291
 20
39.942674
 30
0.0
  0
LWPOLYLINE
  5
119
100
AcDbEntity
  8
Ebene_1
 62
5
100
AcDbPolyline
 90
2
 70
0
 10
28.176150
 20
29.101189
 30
0.0
 10
14.091567
 20
30.232389
 30
0.0
  0
SPLINE
  5
11a
100
AcDbEntity
  8
Ebene_1
 62
5
100
AcDbSpline
 70
8
 71
3
 72
8
 73
4
 74
0
 40
0
 40
0
 40
0
 40
0
 40
1
 40
1
 40
1
 40
1
 10
5.149191
 20
116.574587
 30
0.0
 10
5.150120
 20
121.345612
 30
0.0
 10
8.610604
 20
125.411996
 30
0.0
 10
13.320046
 20
126.176087
 30
0.0
  0
LWPOLYLINE
  5
11b
100
AcDbEntity
  8
Ebene_1
 62
5
100
AcDbPolyline
 90
2
 70
0
 10
5.132291
 20
39.942674
 30
0.0
 10
5.149191
 20
116.574587
 30
0.0
  0
LWPOLYLINE
  5
11c
100
AcDbEntity
  8
Ebene_1
 62
5
100
AcDbPolyline
 90
2
 70
0
 10
13.320046
 20
126.176087
 30
0.0
 10
49.318879
 20
132.016778
 30
0.0
  0
SPLINE
  5
11d
100
AcDbEntity
  8
Ebene_1
 62
5
100
AcDbSpline
 70
8
 71
3
 72
8
 73
4
 74
0
 40
0
 40
0
 40
0
 40
0
 40
1
 40
1
 40
1
 40
1
 10
10.499739
 20
122.238777
 30
0.0
 10
9.710317
 20
122.238777
 30
0.0
 10
8.998626
 20
121.763241
 30
0.0
 10
8.696527
 20
121.033910
 30
0.0
  0
SPLINE
  5
11e
100
AcDbEntity
  8
Ebene_1
 62
5
100
AcDbSpline
 70
8
 71
3
 72
8
 73
4
 74
0
 40
0
 40
0
 40
0
 40
0
 40
1
 40
1
 40
1
 40
1
 10
8.696527
 20
121.033910
 30
0.0
 10
8.394429
 20
120.304579
 30
0.0
 10
8.561415
 20
119.465083
 30
0.0
 10
9.119621
 20
118.906877
 30
0.0
  0
SPLINE
  5
11f
100
AcDbEntity
  8
Ebene_1
 62
5
100
AcDbSpline
 70
8
 71
3
 72
8
 73
4
 74
0
 40
0
 40
0
 40
0
 40
0
 40
1
 40
1
 40
1
 40
1
 10
9.119621
 20
118.906877
 30
0.0
 10
9.677827
 20
118.348671
 30
0.0
 10
10.517323
 20
118.181685
 30
0.0
 10
11.246654
 20
118.483784
 30
0.0
  0
SPLINE
  5
120
100
AcDbEntity
  8
Ebene_1
 62
5
100
AcDbSpline
 70
8
 71
3
 72
8
 73
4
 74
0
 40
0
 40
0
 40
0
 40
0
 40
1
 40
1
 40
1
 40
1
 10
11.246654
 20
118.483784
 30
0.0
 10
11.975985
 20
118.785882
 30
0.0
 10
12.451522
 20
119.497573
 30
0.0
 10
12.451522
 20
120.286995
 30
0.0
  0
SPLINE
  5
121
100
AcDbEntity
  8
Ebene_1
 62
5
100
AcDbSpline
 70
8
 71
3
 72
8
 73
4
 74
0
 40
0
 40
0
 40
0
 40
0
 40
1
 40
1
 40
1
 40
1
 10
12.451522
 20
120.286995
 30
0.0
 10
12.451522
 20
120.804640
 30
0.0
 10
12.245888
 20
121.301083
 30
0.0
 10
11.879858
 20
121.667114
 30
0.0
  0
SPLINE
  5
122
100
AcDbEntity
  8
Ebene_1
 62
5
100
AcDbSpline
 70
8
 71
3
 72
8
 73
4
 74
0
 40
0
 40
0
 40
0
 40
0
 40
1
 40
1
 40
1
 40
1
 10
11.879858
 20
121.667114
 30
0.0
 10
11.513828
 20
122.033144
 30
0.0
 10
11.017384
 20
122.238777
 30
0.0
 10
10.499739
 20
122.238777
 30
0.0
  0
LWPOLYLINE
  5
123
100
AcDbEntity
  8
Ebene_1
 62
5
100
AcDbPolyline
 90
5
 70
1
 10
144.799264
 20
116.487169
 30
0.0
 10
144.798544
 20
121.862172
 30
0.0
 10
132.298531
 20
121.860472
 30
0.0
 10
132.303631
 20
83.860453
 30
0.0
 10
144.795884
 20
83.862143
 30
0.0
  0
SPLINE
  5
124
100
AcDbEntity
  8
Ebene_1
 62
5
100
AcDbSpline
 70
8
 71
3
 72
8
 73
4
 74
0
 40
0
 40
0
 40
0
 40
0
 40
1
 40
1
 40
1
 40
1
 10
10.638268
 20
38.001537
 30
0.0
 10
9.848846
 20
38.001537
 30
0.0
 10
9.137155
 20
37.526000
 30
0.0
 10
8.835057
 20
36.796669
 30
0.0
  0
SPLINE
  5
125
100
AcDbEntity
  8
Ebene_1
 62
5
100
AcDbSpline
 70
8
 71
3
 72
8
 73
4
 74
0
 40
0
 40
0
 40
0
 40
0
 40
1
 40
1
 40
1
 40
1
 10
8.835057
 20
36.796669
 30
0.0
 10
8.532958
 20
36.067338
 30
0.0
 10
8.699944
 20
35.227842
 30
0.0
 10
9.258150
 20
34.669636
 30
0.0
  0
SPLINE
  5
126
100
AcDbEntity
  8
Ebene_1
 62
5
100
AcDbSpline
 70
8
 71
3
 72
8
 73
4
 74
0
 40
0
 40
0
 40
0
 40
0
 40
1
 40
1
 40
1
 40
1
 10
9.258150
 20
34.669636
 30
0.0
 10
9.816356
 20
34.111430
 30
0.0
 10
10.655852
 20
33.944444
 30
0.0
 10
11.385183
 20
34.246543
 30
0.0
  0
SPLINE
  5
127
100
AcDbEntity
  8
Ebene_1
 62
5
100
AcDbSpline
 70
8
 71
3
 72
8
 73
4
 74
0
 40
0
 40
0
 40
0
 40
0
 40
1
 40
1
 40
1
 40
1
 10
11.385183
 20
34.246543
 30
0.0
 10
12.114514
 20
34.548642
 30
0.0
 10
12.590051
 20
35.260332
 30
0.0
 10
12.590051
 20
36.049754
 30
0.0
  0
SPLINE
  5
128
100
AcDbEntity
  8
Ebene_1
 62
5
100
AcDbSpline
 70
8
 71
3
 72
8
 73
4
 74
0
 40
0
 40
0
 40
0
 40
0
 40
1
 40
1
 40
1
 40
1
 10
12.590051
 20
36.049754
 30
0.0
 10
12.590051
 20
36.567399
 30
0.0
 10
12.384417
 20
37.063843
 30
0.0
 10
12.018387
 20
37.429873
 30
0.0
  0
SPLINE
  5
129
100
AcDbEntity
  8
Ebene_1
 62
5
100
AcDbSpline
 70
8
 71
3
 72
8
 73
4
 74
0
 40
0
 40
0
 40
0
 40
0
 40
1
 40
1
 40
1
 40
1
 10
12.018387
 20
37.429873
 30
0.0
 10
11.652357
 20
37.795903
 30
0.0
 10
11.155913
 20
38.001537
 30
0.0
 10
10.638268
 20
38.001537
 30
0.0
  0
LWPOLYLINE
  5
12a
100
AcDbEntity
  8
Ebene_1
 62
5
100
AcDbPolyline
 90
1
 70
1
 10
10.499739
 20
122.238777
 30
0.0
  0
SPLINE
  5
12b
100
AcDbEntity
  8
Ebene_1
 62
5
100
AcDbSpline
 70
8
 71
3
 72
8
 73
4
 74
0
 40
0
 40
0
 40
0
 40
0
 40
1
 40
1
 40
1
 40
1
 10
136.006779
 20
11.397504
 30
0.0
 10
135.217357
 20
11.397504
 30
0.0
 10
134.505666
 20
10.921968
 30
0.0
 10
134.203567
 20
10.192637
 30
0.0
  0
SPLINE
  5
12c
100
AcDbEntity
  8
Ebene_1
 62
5
100
AcDbSpline
 70
8
 71
3
 72
8
 73
4
 74
0
 40
0
 40
0
 40
0
 40
0
 40
1
 40
1
 40
1
 40
1
 10
134.203567
 20
10.192637
 30
0.0
 10
133.901468
 20
9.463305
 30
0.0
 10
134.068455
 20
8.623809
 30
0.0
 10
134.626661
 20
8.065603
 30
0.0
  0
SPLINE
  5
12d
100
AcDbEntity
  8
Ebene_1
 62
5
100
AcDbSpline
 70
8
 71
3
 72
8
 73
4
 74
0
 40
0
 40
0
 40
0
 40
0
 40
1
 40
1
 40
1
 40
1
 10
134.626661
 20
8.065603
 30
0.0
 10
135.184866
 20
7.507398
 30
0.0
 10
136.024363
 20
7.340411
 30
0.0
 10
136.753694
 20
7.642510
 30
0.0
  0
SPLINE
  5
12e
100
AcDbEntity
  8
Ebene_1
 62
5
100
AcDbSpline
 70
8
 71
3
 72
8
 73
4
 74
0
 40
0
 40
0
 40
0
 40
0
 40
1
 40
1
 40
1
 40
1
 10
136.753694
 20
7.642510
 30
0.0
 10
137.483025
 20
7.944609
 30
0.0
 10
137.958562
 20
8.656300
 30
0.0
 10
137.958562
 20
9.445722
 30
0.0
  0
SPLINE
  5
12f
100
AcDbEntity
  8
Ebene_1
 62
5
100
AcDbSpline
 70
8
 71
3
 72
8
 73
4
 74
0
 40
0
 40
0
 40
0
 40
0
 40
1
 40
1
 40
1
 40
1
 10
137.958562
 20
9.445722
 30
0.0
 10
137.958562
 20
10.523661
 30
0.0
 10
137.084719
 20
11.397504
 30
0.0
 10
136.006779
 20
11.397504
 30
0.0
  0
LWPOLYLINE
  5
130
100
AcDbEntity
  8
Ebene_1
 62
5
100
AcDbPolyline
 90
1
 70
1
 10
10.638268
 20
38.001537
 30
0.0
  0
SPLINE
  5
131
100
AcDbEntity
  8
Ebene_1
 62
5
100
AcDbSpline
 70
8
 71
3
 72
8
 73
4
 74
0
 40
0
 40
0
 40
0
 40
0
 40
1
 40
1
 40
1
 40
1
 10
156.319300
 20
86.374729
 30
0.0
 10
155.529877
 20
86.374729
 30
0.0
 10
154.818186
 20
85.899193
 30
0.0
 10
154.516088
 20
85.169862
 30
0.0
  0
SPLINE
  5
132
100
AcDbEntity
  8
Ebene_1
 62
5
100
AcDbSpline
 70
8
 71
3
 72
8
 73
4
 74
0
 40
0
 40
0
 40
0
 40
0
 40
1
 40
1
 40
1
 40
1
 10
154.516088
 20
85.169862
 30
0.0
 10
154.213989
 20
84.440531
 30
0.0
 10
154.380975
 20
83.601034
 30
0.0
 10
154.939181
 20
83.042829
 30
0.0
  0
SPLINE
  5
133
100
AcDbEntity
  8
Ebene_1
 62
5
100
AcDbSpline
 70
8
 71
3
 72
8
 73
4
 74
0
 40
0
 40
0
 40
0
 40
0
 40
1
 40
1
 40
1
 40
1
 10
154.939181
 20
83.042829
 30
0.0
 10
155.497387
 20
82.484623
 30
0.0
 10
156.336883
 20
82.317637
 30
0.0
 10
157.066214
 20
82.619735
 30
0.0
  0
SPLINE
  5
134
100
AcDbEntity
  8
Ebene_1
 62
5
100
AcDbSpline
 70
8
 71
3
 72
8
 73
4
 74
0
 40
0
 40
0
 40
0
 40
0
 40
1
 40
1
 40
1
 40
1
 10
157.066214
 20
82.619735
 30
0.0
 10
157.795545
 20
82.921834
 30
0.0
 10
158.271082
 20
83.633525
 30
0.0
 10
158.271082
 20
84.422947
 30
0.0
  0
SPLINE
  5
135
100
AcDbEntity
  8
Ebene_1
 62
5
100
AcDbSpline
 70
8
 71
3
 72
8
 73
4
 74
0
 40
0
 40
0
 40
0
 40
0
 40
1
 40
1
 40
1
 40
1
 10
158.271082
 20
84.422947
 30
0.0
 10
158.271082
 20
84.940592
 30
0.0
 10
158.065448
 20
85.437035
 30
0.0
 10
157.699418
 20
85.803065
 30
0.0
  0
SPLINE
  5
136
100
AcDbEntity
  8
Ebene_1
 62
5
100
AcDbSpline
 70
8
 71
3
 72
8
 73
4
 74
0
 40
0
 40
0
 40
0
 40
0
 40
1
 40
1
 40
1
 40
1
 10
157.699418
 20
85.803065
 30
0.0
 10
157.333388
 20
86.169096
 30
0.0
 10
156.836944
 20
86.374729
 30
0.0
 10
156.319300
 20
86.374729
 30
0.0
  0
LWPOLYLINE
  5
137
100
AcDbEntity
  8
Ebene_1
 62
5
100
AcDbPolyline
 90
1
 70
1
 10
136.006779
 20
11.397504
 30
0.0
  0
SPLINE
  5
138
100
AcDbEntity
  8
Ebene_1
 62
5
100
AcDbSpline
 70
8
 71
3
 72
8
 73
4
 74
0
 40
0
 40
0
 40
0
 40
0
 40
1
 40
1
 40
1
 40
1
 10
154.519639
 20
128.949253
 30
0.0
 10
153.730216
 20
128.949253
 30
0.0
 10
153.018526
 20
128.473716
 30
0.0
 10
152.716427
 20
127.744385
 30
0.0
  0
SPLINE
  5
139
100
AcDbEntity
  8
Ebene_1
 62
5
100
AcDbSpline
 70
8
 71
3
 72
8
 73
4
 74
0
 40
0
 40
0
 40
0
 40
0
 40
1
 40
1
 40
1
 40
1
 10
152.716427
 20
127.744385
 30
0.0
 10
152.414328
 20
127.015054
 30
0.0
 10
152.581314
 20
126.175558
 30
0.0
 10
153.139520
 20
125.617352
 30
0.0
  0
SPLINE
  5
13a
100
AcDbEntity
  8
Ebene_1
 62
5
100
AcDbSpline
 70
8
 71
3
 72
8
 73
4
 74
0
 40
0
 40
0
 40
0
 40
0
 40
1
 40
1
 40
1
 40
1
 10
153.139520
 20
125.617352
 30
0.0
 10
153.697726
 20
125.059146
 30
0.0
 10
154.537222
 20
124.892160
 30
0.0
 10
155.266553
 20
125.194259
 30
0.0
  0
SPLINE
  5
13b
100
AcDbEntity
  8
Ebene_1
 62
5
100
AcDbSpline
 70
8
 71
3
 72
8
 73
4
 74
0
 40
0
 40
0
 40
0
 40
0
 40
1
 40
1
 40
1
 40
1
 10
155.266553
 20
125.194259
 30
0.0
 10
155.995885
 20
125.496358
 30
0.0
 10
156.471421
 20
126.208048
 30
0.0
 10
156.471421
 20
126.997471
 30
0.0
  0
SPLINE
  5
13c
100
AcDbEntity
  8
Ebene_1
 62
5
100
AcDbSpline
 70
8
 71
3
 72
8
 73
4
 74
0
 40
0
 40
0
 40
0
 40
0
 40
1
 40
1
 40
1
 40
1
 10
156.471421
 20
126.997471
 30
0.0
 10
156.471421
 20
127.515115
 30
0.0
 10
156.265787
 20
128.011559
 30
0.0
 10
155.899757
 20
128.377589
 30
0.0
  0
SPLINE
  5
13d
100
AcDbEntity
  8
Ebene_1
 62
5
100
AcDbSpline
 70
8
 71
3
 72
8
 73
4
 74
0
 40
0
 40
0
 40
0
 40
0
 40
1
 40
1
 40
1
 40
1
 10
155.899757
 20
128.377589
 30
0.0
 10
155.533727
 20
128.743619
 30
0.0
 10
155.037283
 20
128.949253
 30
0.0
 10
154.519639
 20
128.949253
 30
0.0
  0
LWPOLYLINE
  5
13e
100
AcDbEntity
  8
Ebene_1
 62
5
100
AcDbPolyline
 90
1
 70
1
 10
156.319300
 20
86.374729
 30
0.0
  0
SPLINE
  5
13f
100
AcDbEntity
  8
Ebene_1
 62
5
100
AcDbSpline
 70
8
 71
3
 72
8
 73
4
 74
0
 40
0
 40
0
 40
0
 40
0
 40
1
 40
1
 40
1
 40
1
 10
124.239114
 20
130.436097
 30
0.0
 10
123.449692
 20
130.436097
 30
0.0
 10
122.738001
 20
129.960560
 30
0.0
 10
122.435902
 20
129.231229
 30
0.0
  0
SPLINE
  5
140
100
AcDbEntity
  8
Ebene_1
 62
5
100
AcDbSpline
 70
8
 71
3
 72
8
 73
4
 74
0
 40
0
 40
0
 40
0
 40
0
 40
1
 40
1
 40
1
 40
1
 10
122.435902
 20
129.231229
 30
0.0
 10
122.133803
 20
128.501898
 30
0.0
 10
122.300790
 20
127.662402
 30
0.0
 10
122.858996
 20
127.104196
 30
0.0
  0
SPLINE
  5
141
100
AcDbEntity
  8
Ebene_1
 62
5
100
AcDbSpline
 70
8
 71
3
 72
8
 73
4
 74
0
 40
0
 40
0
 40
0
 40
0
 40
1
 40
1
 40
1
 40
1
 10
122.858996
 20
127.104196
 30
0.0
 10
123.417201
 20
126.545990
 30
0.0
 10
124.256698
 20
126.379004
 30
0.0
 10
124.986029
 20
126.681103
 30
0.0
  0
SPLINE
  5
142
100
AcDbEntity
  8
Ebene_1
 62
5
100
AcDbSpline
 70
8
 71
3
 72
8
 73
4
 74
0
 40
0
 40
0
 40
0
 40
0
 40
1
 40
1
 40
1
 40
1
 10
124.986029
 20
126.681103
 30
0.0
 10
125.715360
 20
126.983202
 30
0.0
 10
126.190897
 20
127.694892
 30
0.0
 10
126.190897
 20
128.484314
 30
0.0
  0
SPLINE
  5
143
100
AcDbEntity
  8
Ebene_1
 62
5
100
AcDbSpline
 70
8
 71
3
 72
8
 73
4
 74
0
 40
0
 40
0
 40
0
 40
0
 40
1
 40
1
 40
1
 40
1
 10
126.190897
 20
128.484314
 30
0.0
 10
126.190897
 20
129.001959
 30
0.0
 10
125.985263
 20
129.498403
 30
0.0
 10
125.619233
 20
129.864433
 30
0.0
  0
SPLINE
  5
144
100
AcDbEntity
  8
Ebene_1
 62
5
100
AcDbSpline
 70
8
 71
3
 72
8
 73
4
 74
0
 40
0
 40
0
 40
0
 40
0
 40
1
 40
1
 40
1
 40
1
 10
125.619233
 20
129.864433
 30
0.0
 10
125.253203
 20
130.230463
 30
0.0
 10
124.756759
 20
130.436097
 30
0.0
 10
124.239114
 20
130.436097
 30
0.0
  0
LWPOLYLINE
  5
145
100
AcDbEntity
  8
Ebene_1
 62
5
100
AcDbPolyline
 90
1
 70
1
 10
154.519639
 20
128.949253
 30
0.0
  0
LWPOLYLINE
  5
146
100
AcDbEntity
  8
Ebene_1
 62
5
100
AcDbPolyline
 90
1
 70
1
 10
124.239114
 20
130.436097
 30
0.0
  0
ENDSEC
  0
SECTION
  2
OBJECTS
  0
DICTIONARY
  5
C
330
0
100
AcDbDictionary
  3
ACAD_GROUP
350
D
  3
ACAD_MLINESTYLE
350
17
  0
DICTIONARY
  5
D
330
C
100
AcDbDictionary
  0
DICTIONARY
  5
1A
330
C
100
AcDbDictionary
  0
DICTIONARY
  5
17
330
C
100
AcDbDictionary
  3
STANDARD
350
18
  0
DICTIONARY
  5
19
330
C
100
AcDbDictionary
  0
ENDSEC
  0
EOF
