  0
SECTION
  2
HEADER
  9
$ACADVER
  1
AC1014
  9
$HANDSEED
  5
FFFF
  9
$MEASUREMENT
 70
     1
  0
ENDSEC
  0
SECTION
  2
TABLES
  0
TABLE
  2
VPORT
  5
8
330
0
100
AcDbSymbolTable
 70
     4
  0
VPORT
  5
2E
330
8
100
AcDbSymbolTableRecord
100
AcDbViewportTableRecord
  2
*ACTIVE
 70
     0
 10
0.0
 20
0.0
 11
1.0
 21
1.0
 12
210.0
 22
148.5
 13
0.0
 23
0.0
 14
10.0
 24
10.0
 15
10.0
 25
10.0
 16
0.0
 26
0.0
 36
1.0
 17
0.0
 27
0.0
 37
0.0
 40
341.0
 41
1.24
 42
50.0
 43
0.0
 44
0.0
 50
0.0
 51
0.0
 71
     0
 72
   100
 73
     1
 74
     3
 75
     0
 76
     0
 77
     0
 78
     0
  0
ENDTAB
  0
TABLE
  2
LTYPE
  5
5
330
0
100
AcDbSymbolTable
 70
     1
  0
LTYPE
  5
14
330
5
100
AcDbSymbolTableRecord
100
AcDbLinetypeTableRecord
  2
BYBLOCK
 70
     0
  3

 72
    65
 73
     0
 40
0.0
  0
LTYPE
  5
15
330
5
100
AcDbSymbolTableRecord
100
AcDbLinetypeTableRecord
  2
BYLAYER
 70
     0
  3

 72
    65
 73
     0
 40
0.0
  0
LTYPE
  5
16
330
5
100
AcDbSymbolTableRecord
100
AcDbLinetypeTableRecord
  2
CONTINUOUS
 70
     0
  3
Solid line
 72
    65
 73
     0
 40
0.0
  0
ENDTAB
  0
TABLE
  2
LAYER
  5
2
100
AcDbSymbolTable
 70
2
  0
LAYER
  5
50
100
AcDbSymbolTableRecord
100
AcDbLayerTableRecord
  2
0
 70
0
  6
CONTINUOUS
  0
LAYER
  5
51
100
AcDbSymbolTableRecord
100
AcDbLayerTableRecord
  2
Ebene_1
 70
0
  6
CONTINUOUS
  0
ENDTAB
  0
TABLE
  2
STYLE
  5
3
330
0
100
AcDbSymbolTable
 70
     1
  0
STYLE
  5
11
330
3
100
AcDbSymbolTableRecord
100
AcDbTextStyleTableRecord
  2
STANDARD
 70
     0
 40
0.0
 41
1.0
 50
0.0
 71
     0
 42
2.5
  3
txt
  4

  0
ENDTAB
  0
TABLE
  2
VIEW
  5
6
330
0
100
AcDbSymbolTable
 70
     0
  0
ENDTAB
  0
TABLE
  2
UCS
  5
7
330
0
100
AcDbSymbolTable
 70
     0
  0
ENDTAB
  0
TABLE
  2
APPID
  5
9
330
0
100
AcDbSymbolTable
 70
     2
  0
APPID
  5
12
330
9
100
AcDbSymbolTableRecord
100
AcDbRegAppTableRecord
  2
ACAD
 70
     0
  0
ENDTAB
  0
TABLE
  2
DIMSTYLE
  5
A
330
0
100
AcDbSymbolTable
 70
     1
  0
DIMSTYLE
105
27
330
A
100
AcDbSymbolTableRecord
100
AcDbDimStyleTableRecord
  2
ISO-25
 70
     0
  3

  4

  5

  6

  7

 40
1.0
 41
2.5
 42
0.625
 43
3.75
 44
1.25
 45
0.0
 46
0.0
 47
0.0
 48
0.0
140
2.5
141
2.5
142
0.0
143
0.03937007874016
144
1.0
145
0.0
146
1.0
147
0.625
 71
     0
 72
     0
 73
     0
 74
     0
 75
     0
 76
     0
 77
     1
 78
     8
170
     0
171
     3
172
     1
173
     0
174
     0
175
     0
176
     0
177
     0
178
     0
270
     2
271
     2
272
     2
273
     2
274
     3
340
11
275
     0
280
     0
281
     0
282
     0
283
     0
284
     8
285
     0
286
     0
287
     3
288
     0
  0
ENDTAB
  0
TABLE
  2
BLOCK_RECORD
  5
1
330
0
100
AcDbSymbolTable
 70
     1
  0
BLOCK_RECORD
  5
1F
330
1
100
AcDbSymbolTableRecord
100
AcDbBlockTableRecord
  2
*MODEL_SPACE
  0
BLOCK_RECORD
  5
1B
330
1
100
AcDbSymbolTableRecord
100
AcDbBlockTableRecord
  2
*PAPER_SPACE
  0
ENDTAB
  0
ENDSEC
  0
SECTION
  2
BLOCKS
  0
BLOCK
  5
20
330
1F
100
AcDbEntity
  8
0
100
AcDbBlockBegin
  2
*MODEL_SPACE
 70
     0
 10
0.0
 20
0.0
 30
0.0
  3
*MODEL_SPACE
  1

  0
ENDBLK
  5
21
330
1F
100
AcDbEntity
  8
0
100
AcDbBlockEnd
  0
BLOCK
  5
1C
330
1B
100
AcDbEntity
 67
     1
  8
0
100
AcDbBlockBegin
  2
*PAPER_SPACE
  1

  0
ENDBLK
  5
1D
330
1B
100
AcDbEntity
 67
     1
  8
0
100
AcDbBlockEnd
  0
ENDSEC
  0
SECTION
  2
ENTITIES
  0
SPLINE
  5
100
100
AcDbEntity
  8
Ebene_1
 62
5
100
AcDbSpline
 70
8
 71
3
 72
8
 73
4
 74
0
 40
0
 40
0
 40
0
 40
0
 40
1
 40
1
 40
1
 40
1
 10
150.049896
 20
9.445430
 30
0.0
 10
150.049896
 20
10.177824
 30
0.0
 10
149.659169
 20
10.854584
 30
0.0
 10
149.024897
 20
11.220781
 30
0.0
  0
SPLINE
  5
101
100
AcDbEntity
  8
Ebene_1
 62
5
100
AcDbSpline
 70
8
 71
3
 72
8
 73
4
 74
0
 40
0
 40
0
 40
0
 40
0
 40
1
 40
1
 40
1
 40
1
 10
149.024897
 20
11.220781
 30
0.0
 10
148.390626
 20
11.586978
 30
0.0
 10
147.609171
 20
11.586978
 30
0.0
 10
146.974899
 20
11.220781
 30
0.0
  0
SPLINE
  5
102
100
AcDbEntity
  8
Ebene_1
 62
5
100
AcDbSpline
 70
8
 71
3
 72
8
 73
4
 74
0
 40
0
 40
0
 40
0
 40
0
 40
1
 40
1
 40
1
 40
1
 10
146.974899
 20
11.220781
 30
0.0
 10
146.340628
 20
10.854584
 30
0.0
 10
145.949901
 20
10.177824
 30
0.0
 10
145.949901
 20
9.445430
 30
0.0
  0
SPLINE
  5
103
100
AcDbEntity
  8
Ebene_1
 62
5
100
AcDbSpline
 70
8
 71
3
 72
8
 73
4
 74
0
 40
0
 40
0
 40
0
 40
0
 40
1
 40
1
 40
1
 40
1
 10
145.949901
 20
9.445430
 30
0.0
 10
145.949901
 20
8.713037
 30
0.0
 10
146.340628
 20
8.036277
 30
0.0
 10
146.974899
 20
7.670080
 30
0.0
  0
SPLINE
  5
104
100
AcDbEntity
  8
Ebene_1
 62
5
100
AcDbSpline
 70
8
 71
3
 72
8
 73
4
 74
0
 40
0
 40
0
 40
0
 40
0
 40
1
 40
1
 40
1
 40
1
 10
146.974899
 20
7.670080
 30
0.0
 10
147.609171
 20
7.303883
 30
0.0
 10
148.390626
 20
7.303883
 30
0.0
 10
149.024897
 20
7.670080
 30
0.0
  0
SPLINE
  5
105
100
AcDbEntity
  8
Ebene_1
 62
5
100
AcDbSpline
 70
8
 71
3
 72
8
 73
4
 74
0
 40
0
 40
0
 40
0
 40
0
 40
1
 40
1
 40
1
 40
1
 10
149.024897
 20
7.670080
 30
0.0
 10
149.659169
 20
8.036277
 30
0.0
 10
150.049896
 20
8.713037
 30
0.0
 10
150.049896
 20
9.445430
 30
0.0
  0
SPLINE
  5
106
100
AcDbEntity
  8
Ebene_1
 62
5
100
AcDbSpline
 70
8
 71
3
 72
8
 73
4
 74
0
 40
0
 40
0
 40
0
 40
0
 40
1
 40
1
 40
1
 40
1
 10
24.573465
 20
120.302078
 30
0.0
 10
24.573465
 20
121.034471
 30
0.0
 10
24.182738
 20
121.711231
 30
0.0
 10
23.548466
 20
122.077428
 30
0.0
  0
SPLINE
  5
107
100
AcDbEntity
  8
Ebene_1
 62
5
100
AcDbSpline
 70
8
 71
3
 72
8
 73
4
 74
0
 40
0
 40
0
 40
0
 40
0
 40
1
 40
1
 40
1
 40
1
 10
23.548466
 20
122.077428
 30
0.0
 10
22.914194
 20
122.443625
 30
0.0
 10
22.132740
 20
122.443625
 30
0.0
 10
21.498468
 20
122.077428
 30
0.0
  0
SPLINE
  5
108
100
AcDbEntity
  8
Ebene_1
 62
5
100
AcDbSpline
 70
8
 71
3
 72
8
 73
4
 74
0
 40
0
 40
0
 40
0
 40
0
 40
1
 40
1
 40
1
 40
1
 10
21.498468
 20
122.077428
 30
0.0
 10
20.864197
 20
121.711231
 30
0.0
 10
20.473469
 20
121.034471
 30
0.0
 10
20.473469
 20
120.302078
 30
0.0
  0
SPLINE
  5
109
100
AcDbEntity
  8
Ebene_1
 62
5
100
AcDbSpline
 70
8
 71
3
 72
8
 73
4
 74
0
 40
0
 40
0
 40
0
 40
0
 40
1
 40
1
 40
1
 40
1
 10
20.473469
 20
120.302078
 30
0.0
 10
20.473469
 20
119.569684
 30
0.0
 10
20.864197
 20
118.892924
 30
0.0
 10
21.498468
 20
118.526727
 30
0.0
  0
SPLINE
  5
10a
100
AcDbEntity
  8
Ebene_1
 62
5
100
AcDbSpline
 70
8
 71
3
 72
8
 73
4
 74
0
 40
0
 40
0
 40
0
 40
0
 40
1
 40
1
 40
1
 40
1
 10
21.498468
 20
118.526727
 30
0.0
 10
22.132740
 20
118.160530
 30
0.0
 10
22.914194
 20
118.160530
 30
0.0
 10
23.548466
 20
118.526727
 30
0.0
  0
SPLINE
  5
10b
100
AcDbEntity
  8
Ebene_1
 62
5
100
AcDbSpline
 70
8
 71
3
 72
8
 73
4
 74
0
 40
0
 40
0
 40
0
 40
0
 40
1
 40
1
 40
1
 40
1
 10
23.548466
 20
118.526727
 30
0.0
 10
24.182738
 20
118.892924
 30
0.0
 10
24.573465
 20
119.569684
 30
0.0
 10
24.573465
 20
120.302078
 30
0.0
  0
LWPOLYLINE
  5
10c
100
AcDbEntity
  8
Ebene_1
 62
5
100
AcDbPolyline
 90
1
 70
1
 10
150.049896
 20
9.445430
 30
0.0
  0
SPLINE
  5
10d
100
AcDbEntity
  8
Ebene_1
 62
5
100
AcDbSpline
 70
8
 71
3
 72
8
 73
4
 74
0
 40
0
 40
0
 40
0
 40
0
 40
1
 40
1
 40
1
 40
1
 10
24.700605
 20
36.064953
 30
0.0
 10
24.700605
 20
36.797347
 30
0.0
 10
24.309877
 20
37.474107
 30
0.0
 10
23.675606
 20
37.840304
 30
0.0
  0
SPLINE
  5
10e
100
AcDbEntity
  8
Ebene_1
 62
5
100
AcDbSpline
 70
8
 71
3
 72
8
 73
4
 74
0
 40
0
 40
0
 40
0
 40
0
 40
1
 40
1
 40
1
 40
1
 10
23.675606
 20
37.840304
 30
0.0
 10
23.041334
 20
38.206500
 30
0.0
 10
22.259880
 20
38.206500
 30
0.0
 10
21.625608
 20
37.840304
 30
0.0
  0
SPLINE
  5
10f
100
AcDbEntity
  8
Ebene_1
 62
5
100
AcDbSpline
 70
8
 71
3
 72
8
 73
4
 74
0
 40
0
 40
0
 40
0
 40
0
 40
1
 40
1
 40
1
 40
1
 10
21.625608
 20
37.840304
 30
0.0
 10
20.991336
 20
37.474107
 30
0.0
 10
20.600609
 20
36.797347
 30
0.0
 10
20.600609
 20
36.064953
 30
0.0
  0
SPLINE
  5
110
100
AcDbEntity
  8
Ebene_1
 62
5
100
AcDbSpline
 70
8
 71
3
 72
8
 73
4
 74
0
 40
0
 40
0
 40
0
 40
0
 40
1
 40
1
 40
1
 40
1
 10
20.600609
 20
36.064953
 30
0.0
 10
20.600609
 20
35.332560
 30
0.0
 10
20.991336
 20
34.655800
 30
0.0
 10
21.625608
 20
34.289603
 30
0.0
  0
SPLINE
  5
111
100
AcDbEntity
  8
Ebene_1
 62
5
100
AcDbSpline
 70
8
 71
3
 72
8
 73
4
 74
0
 40
0
 40
0
 40
0
 40
0
 40
1
 40
1
 40
1
 40
1
 10
21.625608
 20
34.289603
 30
0.0
 10
22.259880
 20
33.923406
 30
0.0
 10
23.041334
 20
33.923406
 30
0.0
 10
23.675606
 20
34.289603
 30
0.0
  0
SPLINE
  5
112
100
AcDbEntity
  8
Ebene_1
 62
5
100
AcDbSpline
 70
8
 71
3
 72
8
 73
4
 74
0
 40
0
 40
0
 40
0
 40
0
 40
1
 40
1
 40
1
 40
1
 10
23.675606
 20
34.289603
 30
0.0
 10
24.309877
 20
34.655800
 30
0.0
 10
24.700605
 20
35.332560
 30
0.0
 10
24.700605
 20
36.064953
 30
0.0
  0
LWPOLYLINE
  5
113
100
AcDbEntity
  8
Ebene_1
 62
5
100
AcDbPolyline
 90
1
 70
1
 10
24.573465
 20
120.302078
 30
0.0
  0
LWPOLYLINE
  5
114
100
AcDbEntity
  8
Ebene_1
 62
5
100
AcDbPolyline
 90
1
 70
1
 10
24.700605
 20
36.064953
 30
0.0
  0
SPLINE
  5
115
100
AcDbEntity
  8
Ebene_1
 62
5
100
AcDbSpline
 70
8
 71
3
 72
8
 73
4
 74
0
 40
0
 40
0
 40
0
 40
0
 40
1
 40
1
 40
1
 40
1
 10
121.128296
 20
27.635412
 30
0.0
 10
121.508580
 20
27.252281
 30
0.0
 10
122.065403
 20
27.103038
 30
0.0
 10
122.586324
 20
27.244622
 30
0.0
  0
LWPOLYLINE
  5
116
100
AcDbEntity
  8
Ebene_1
 62
5
100
AcDbPolyline
 90
2
 70
0
 10
115.160862
 20
29.234890
 30
0.0
 10
121.128296
 20
27.635412
 30
0.0
  0
LWPOLYLINE
  5
117
100
AcDbEntity
  8
Ebene_1
 62
5
100
AcDbPolyline
 90
5
 70
0
 10
122.586324
 20
27.244622
 30
0.0
 10
128.683808
 20
25.610314
 30
0.0
 10
132.305844
 20
39.133250
 30
0.0
 10
118.782898
 20
42.757827
 30
0.0
 10
115.160862
 20
29.234890
 30
0.0
  0
LWPOLYLINE
  5
118
100
AcDbEntity
  8
Ebene_1
 62
5
100
AcDbPolyline
 90
4
 70
1
 10
109.613507
 20
29.852110
 30
0.0
 10
109.613507
 20
43.852565
 30
0.0
 10
95.613033
 20
43.852565
 30
0.0
 10
95.613033
 20
29.852110
 30
0.0
  0
LWPOLYLINE
  5
119
100
AcDbEntity
  8
Ebene_1
 62
5
100
AcDbPolyline
 90
4
 70
1
 10
86.014382
 20
83.202204
 30
0.0
 10
86.014382
 20
69.204280
 30
0.0
 10
100.012307
 20
69.204280
 30
0.0
 10
100.012307
 20
83.202204
 30
0.0
  0
LWPOLYLINE
  5
11a
100
AcDbEntity
  8
Ebene_1
 62
5
100
AcDbPolyline
 90
4
 70
1
 10
28.912701
 20
99.702029
 30
0.0
 10
42.913166
 20
99.702029
 30
0.0
 10
42.913166
 20
113.702494
 30
0.0
 10
28.912701
 20
113.702494
 30
0.0
  0
LWPOLYLINE
  5
11b
100
AcDbEntity
  8
Ebene_1
 62
5
100
AcDbPolyline
 90
4
 70
1
 10
62.004087
 20
77.103672
 30
0.0
 10
47.914421
 20
77.103672
 30
0.0
 10
47.914421
 20
63.103206
 30
0.0
 10
62.004087
 20
63.103206
 30
0.0
  0
LWPOLYLINE
  5
11c
100
AcDbEntity
  8
Ebene_1
 62
5
100
AcDbPolyline
 90
4
 70
1
 10
124.114353
 20
46.504323
 30
0.0
 10
138.112268
 20
46.504323
 30
0.0
 10
138.112268
 20
60.502248
 30
0.0
 10
124.114353
 20
60.502248
 30
0.0
  0
LWPOLYLINE
  5
11d
100
AcDbEntity
  8
Ebene_1
 62
5
100
AcDbPolyline
 90
4
 70
1
 10
42.862366
 20
42.602887
 30
0.0
 10
42.862366
 20
56.603352
 30
0.0
 10
28.864441
 20
56.603352
 30
0.0
 10
28.864441
 20
42.602887
 30
0.0
  0
LWPOLYLINE
  5
11e
100
AcDbEntity
  8
Ebene_1
 62
5
100
AcDbPolyline
 90
4
 70
1
 10
28.912701
 20
94.802373
 30
0.0
 10
28.912701
 20
80.804447
 30
0.0
 10
42.913166
 20
80.804447
 30
0.0
 10
42.913166
 20
94.802373
 30
0.0
  0
LWPOLYLINE
  5
11f
100
AcDbEntity
  8
Ebene_1
 62
5
100
AcDbPolyline
 90
4
 70
1
 10
86.014382
 20
107.393141
 30
0.0
 10
100.012307
 20
107.393141
 30
0.0
 10
100.012307
 20
121.393607
 30
0.0
 10
86.014382
 20
121.393607
 30
0.0
  0
LWPOLYLINE
  5
120
100
AcDbEntity
  8
Ebene_1
 62
5
100
AcDbPolyline
 90
4
 70
1
 10
124.114353
 20
79.503968
 30
0.0
 10
124.114353
 20
65.503503
 30
0.0
 10
138.112268
 20
65.503503
 30
0.0
 10
138.112268
 20
79.503968
 30
0.0
  0
LWPOLYLINE
  5
121
100
AcDbEntity
  8
Ebene_1
 62
5
100
AcDbPolyline
 90
4
 70
1
 10
67.012662
 20
106.003762
 30
0.0
 10
81.013128
 20
106.003762
 30
0.0
 10
81.013128
 20
120.004228
 30
0.0
 10
67.012662
 20
120.004228
 30
0.0
  0
LWPOLYLINE
  5
122
100
AcDbEntity
  8
Ebene_1
 62
5
100
AcDbPolyline
 90
4
 70
1
 10
90.512718
 20
29.852110
 30
0.0
 10
90.512718
 20
43.852565
 30
0.0
 10
76.512252
 20
43.852565
 30
0.0
 10
76.512252
 20
29.852110
 30
0.0
  0
LWPOLYLINE
  5
123
100
AcDbEntity
  8
Ebene_1
 62
5
100
AcDbPolyline
 90
4
 70
1
 10
61.912347
 20
82.303045
 30
0.0
 10
61.912347
 20
96.303511
 30
0.0
 10
47.914421
 20
96.303511
 30
0.0
 10
47.914421
 20
82.303045
 30
0.0
  0
LWPOLYLINE
  5
124
100
AcDbEntity
  8
Ebene_1
 62
5
100
AcDbPolyline
 90
4
 70
1
 10
143.090673
 20
40.095909
 30
0.0
 10
136.090441
 20
27.969972
 30
0.0
 10
148.216388
 20
20.972279
 30
0.0
 10
155.216621
 20
33.095696
 30
0.0
  0
LWPOLYLINE
  5
125
100
AcDbEntity
  8
Ebene_1
 62
5
100
AcDbPolyline
 90
4
 70
1
 10
105.112632
 20
100.903447
 30
0.0
 10
105.112632
 20
86.902981
 30
0.0
 10
119.113098
 20
86.902981
 30
0.0
 10
119.113098
 20
100.903447
 30
0.0
  0
LWPOLYLINE
  5
126
100
AcDbEntity
  8
Ebene_1
 62
5
100
AcDbPolyline
 90
4
 70
1
 10
86.014382
 20
50.202559
 30
0.0
 10
100.012307
 20
50.202559
 30
0.0
 10
100.012307
 20
64.203025
 30
0.0
 10
86.014382
 20
64.203025
 30
0.0
  0
LWPOLYLINE
  5
127
100
AcDbEntity
  8
Ebene_1
 62
5
100
AcDbPolyline
 90
4
 70
1
 10
105.112632
 20
48.803020
 30
0.0
 10
119.113098
 20
48.803020
 30
0.0
 10
119.113098
 20
62.803486
 30
0.0
 10
105.112632
 20
62.803486
 30
0.0
  0
LWPOLYLINE
  5
128
100
AcDbEntity
  8
Ebene_1
 62
5
100
AcDbPolyline
 90
4
 70
1
 10
47.914421
 20
101.203167
 30
0.0
 10
61.912347
 20
101.203167
 30
0.0
 10
61.912347
 20
115.203633
 30
0.0
 10
47.914421
 20
115.203633
 30
0.0
  0
LWPOLYLINE
  5
129
100
AcDbEntity
  8
Ebene_1
 62
5
100
AcDbPolyline
 90
4
 70
1
 10
42.913166
 20
61.602067
 30
0.0
 10
42.913166
 20
75.602533
 30
0.0
 10
28.912701
 20
75.602533
 30
0.0
 10
28.912701
 20
61.602067
 30
0.0
  0
LWPOLYLINE
  5
12a
100
AcDbEntity
  8
Ebene_1
 62
5
100
AcDbPolyline
 90
4
 70
1
 10
119.113098
 20
81.904266
 30
0.0
 10
105.112632
 20
81.904266
 30
0.0
 10
105.112632
 20
67.903801
 30
0.0
 10
119.113098
 20
67.903801
 30
0.0
  0
LWPOLYLINE
  5
12b
100
AcDbEntity
  8
Ebene_1
 62
5
100
AcDbPolyline
 90
4
 70
1
 10
47.914421
 20
58.104491
 30
0.0
 10
47.914421
 20
44.104025
 30
0.0
 10
61.912347
 20
44.104025
 30
0.0
 10
61.912347
 20
58.104491
 30
0.0
  0
LWPOLYLINE
  5
12c
100
AcDbEntity
  8
Ebene_1
 62
5
100
AcDbPolyline
 90
4
 70
1
 10
57.414012
 20
39.702210
 30
0.0
 10
57.414012
 20
25.704294
 30
0.0
 10
71.414477
 20
25.704294
 30
0.0
 10
71.414477
 20
39.702210
 30
0.0
  0
LWPOLYLINE
  5
12d
100
AcDbEntity
  8
Ebene_1
 62
5
100
AcDbPolyline
 90
4
 70
1
 10
67.012662
 20
62.803486
 30
0.0
 10
67.012662
 20
48.803020
 30
0.0
 10
81.013128
 20
48.803020
 30
0.0
 10
81.013128
 20
62.803486
 30
0.0
  0
LWPOLYLINE
  5
12e
100
AcDbEntity
  8
Ebene_1
 62
5
100
AcDbPolyline
 90
4
 70
1
 10
124.114353
 20
98.503150
 30
0.0
 10
124.114353
 20
84.502683
 30
0.0
 10
138.112268
 20
84.502683
 30
0.0
 10
138.112268
 20
98.503150
 30
0.0
  0
LWPOLYLINE
  5
12f
100
AcDbEntity
  8
Ebene_1
 62
5
100
AcDbPolyline
 90
4
 70
1
 10
86.014382
 20
102.302986
 30
0.0
 10
86.014382
 20
88.302519
 30
0.0
 10
100.012307
 20
88.302519
 30
0.0
 10
100.012307
 20
102.302986
 30
0.0
  0
LWPOLYLINE
  5
130
100
AcDbEntity
  8
Ebene_1
 62
5
100
AcDbPolyline
 90
4
 70
1
 10
67.012662
 20
87.002040
 30
0.0
 10
81.013128
 20
87.002040
 30
0.0
 10
81.013128
 20
101.002507
 30
0.0
 10
67.012662
 20
101.002507
 30
0.0
  0
LWPOLYLINE
  5
131
100
AcDbEntity
  8
Ebene_1
 62
5
100
AcDbPolyline
 90
4
 70
1
 10
119.113088
 20
106.003722
 30
0.0
 10
119.113088
 20
120.004188
 30
0.0
 10
105.112622
 20
120.004188
 30
0.0
 10
105.112622
 20
106.003722
 30
0.0
  0
LWPOLYLINE
  5
132
100
AcDbEntity
  8
Ebene_1
 62
5
100
AcDbPolyline
 90
4
 70
1
 10
67.012662
 20
67.903801
 30
0.0
 10
81.013128
 20
67.903801
 30
0.0
 10
81.013128
 20
81.904266
 30
0.0
 10
67.012662
 20
81.904266
 30
0.0
  0
SPLINE
  5
133
100
AcDbEntity
  8
Ebene_1
 62
5
100
AcDbSpline
 70
8
 71
3
 72
8
 73
4
 74
0
 40
0
 40
0
 40
0
 40
0
 40
1
 40
1
 40
1
 40
1
 10
147.699909
 20
46.011053
 30
0.0
 10
147.701096
 20
46.404833
 30
0.0
 10
147.491698
 20
46.769210
 30
0.0
 10
147.150871
 20
46.966444
 30
0.0
  0
SPLINE
  5
134
100
AcDbEntity
  8
Ebene_1
 62
5
100
AcDbSpline
 70
8
 71
3
 72
8
 73
4
 74
0
 40
0
 40
0
 40
0
 40
0
 40
1
 40
1
 40
1
 40
1
 10
147.150871
 20
46.966444
 30
0.0
 10
146.810044
 20
47.163677
 30
0.0
 10
146.389785
 20
47.163677
 30
0.0
 10
146.048958
 20
46.966444
 30
0.0
  0
SPLINE
  5
135
100
AcDbEntity
  8
Ebene_1
 62
5
100
AcDbSpline
 70
8
 71
3
 72
8
 73
4
 74
0
 40
0
 40
0
 40
0
 40
0
 40
1
 40
1
 40
1
 40
1
 10
146.048958
 20
46.966444
 30
0.0
 10
145.708131
 20
46.769210
 30
0.0
 10
145.498734
 20
46.404833
 30
0.0
 10
145.499921
 20
46.011053
 30
0.0
  0
SPLINE
  5
136
100
AcDbEntity
  8
Ebene_1
 62
5
100
AcDbSpline
 70
8
 71
3
 72
8
 73
4
 74
0
 40
0
 40
0
 40
0
 40
0
 40
1
 40
1
 40
1
 40
1
 10
145.499921
 20
46.011053
 30
0.0
 10
145.498734
 20
45.617273
 30
0.0
 10
145.708131
 20
45.252896
 30
0.0
 10
146.048958
 20
45.055663
 30
0.0
  0
SPLINE
  5
137
100
AcDbEntity
  8
Ebene_1
 62
5
100
AcDbSpline
 70
8
 71
3
 72
8
 73
4
 74
0
 40
0
 40
0
 40
0
 40
0
 40
1
 40
1
 40
1
 40
1
 10
146.048958
 20
45.055663
 30
0.0
 10
146.389785
 20
44.858429
 30
0.0
 10
146.810044
 20
44.858429
 30
0.0
 10
147.150871
 20
45.055663
 30
0.0
  0
SPLINE
  5
138
100
AcDbEntity
  8
Ebene_1
 62
5
100
AcDbSpline
 70
8
 71
3
 72
8
 73
4
 74
0
 40
0
 40
0
 40
0
 40
0
 40
1
 40
1
 40
1
 40
1
 10
147.150871
 20
45.055663
 30
0.0
 10
147.491698
 20
45.252896
 30
0.0
 10
147.701096
 20
45.617273
 30
0.0
 10
147.699909
 20
46.011053
 30
0.0
  0
LWPOLYLINE
  5
139
100
AcDbEntity
  8
Ebene_1
 62
5
100
AcDbPolyline
 90
4
 70
1
 10
124.114343
 20
103.603425
 30
0.0
 10
138.112268
 20
103.603425
 30
0.0
 10
138.112268
 20
117.603890
 30
0.0
 10
124.114343
 20
117.603890
 30
0.0
  0
SPLINE
  5
13a
100
AcDbEntity
  8
Ebene_1
 62
5
100
AcDbSpline
 70
8
 71
3
 72
8
 73
4
 74
0
 40
0
 40
0
 40
0
 40
0
 40
1
 40
1
 40
1
 40
1
 10
46.900012
 20
60.811038
 30
0.0
 10
46.900012
 20
61.204030
 30
0.0
 10
46.690354
 20
61.567169
 30
0.0
 10
46.350013
 20
61.763665
 30
0.0
  0
SPLINE
  5
13b
100
AcDbEntity
  8
Ebene_1
 62
5
100
AcDbSpline
 70
8
 71
3
 72
8
 73
4
 74
0
 40
0
 40
0
 40
0
 40
0
 40
1
 40
1
 40
1
 40
1
 10
46.350013
 20
61.763665
 30
0.0
 10
46.009672
 20
61.960161
 30
0.0
 10
45.590355
 20
61.960161
 30
0.0
 10
45.250014
 20
61.763665
 30
0.0
  0
SPLINE
  5
13c
100
AcDbEntity
  8
Ebene_1
 62
5
100
AcDbSpline
 70
8
 71
3
 72
8
 73
4
 74
0
 40
0
 40
0
 40
0
 40
0
 40
1
 40
1
 40
1
 40
1
 10
45.250014
 20
61.763665
 30
0.0
 10
44.909673
 20
61.567169
 30
0.0
 10
44.700015
 20
61.204030
 30
0.0
 10
44.700015
 20
60.811038
 30
0.0
  0
SPLINE
  5
13d
100
AcDbEntity
  8
Ebene_1
 62
5
100
AcDbSpline
 70
8
 71
3
 72
8
 73
4
 74
0
 40
0
 40
0
 40
0
 40
0
 40
1
 40
1
 40
1
 40
1
 10
44.700015
 20
60.811038
 30
0.0
 10
44.700015
 20
60.418046
 30
0.0
 10
44.909673
 20
60.054907
 30
0.0
 10
45.250014
 20
59.858411
 30
0.0
  0
SPLINE
  5
13e
100
AcDbEntity
  8
Ebene_1
 62
5
100
AcDbSpline
 70
8
 71
3
 72
8
 73
4
 74
0
 40
0
 40
0
 40
0
 40
0
 40
1
 40
1
 40
1
 40
1
 10
45.250014
 20
59.858411
 30
0.0
 10
45.590355
 20
59.661915
 30
0.0
 10
46.009672
 20
59.661915
 30
0.0
 10
46.350013
 20
59.858411
 30
0.0
  0
SPLINE
  5
13f
100
AcDbEntity
  8
Ebene_1
 62
5
100
AcDbSpline
 70
8
 71
3
 72
8
 73
4
 74
0
 40
0
 40
0
 40
0
 40
0
 40
1
 40
1
 40
1
 40
1
 10
46.350013
 20
59.858411
 30
0.0
 10
46.690354
 20
60.054907
 30
0.0
 10
46.900012
 20
60.418046
 30
0.0
 10
46.900012
 20
60.811038
 30
0.0
  0
LWPOLYLINE
  5
140
100
AcDbEntity
  8
Ebene_1
 62
5
100
AcDbPolyline
 90
1
 70
1
 10
147.699909
 20
46.011053
 30
0.0
  0
SPLINE
  5
141
100
AcDbEntity
  8
Ebene_1
 62
5
100
AcDbSpline
 70
8
 71
3
 72
8
 73
4
 74
0
 40
0
 40
0
 40
0
 40
0
 40
1
 40
1
 40
1
 40
1
 10
123.099944
 20
63.211036
 30
0.0
 10
123.099944
 20
63.604027
 30
0.0
 10
122.890285
 20
63.967167
 30
0.0
 10
122.549944
 20
64.163663
 30
0.0
  0
SPLINE
  5
142
100
AcDbEntity
  8
Ebene_1
 62
5
100
AcDbSpline
 70
8
 71
3
 72
8
 73
4
 74
0
 40
0
 40
0
 40
0
 40
0
 40
1
 40
1
 40
1
 40
1
 10
122.549944
 20
64.163663
 30
0.0
 10
122.209603
 20
64.360159
 30
0.0
 10
121.790286
 20
64.360159
 30
0.0
 10
121.449945
 20
64.163663
 30
0.0
  0
SPLINE
  5
143
100
AcDbEntity
  8
Ebene_1
 62
5
100
AcDbSpline
 70
8
 71
3
 72
8
 73
4
 74
0
 40
0
 40
0
 40
0
 40
0
 40
1
 40
1
 40
1
 40
1
 10
121.449945
 20
64.163663
 30
0.0
 10
121.109605
 20
63.967167
 30
0.0
 10
120.899946
 20
63.604027
 30
0.0
 10
120.899946
 20
63.211036
 30
0.0
  0
SPLINE
  5
144
100
AcDbEntity
  8
Ebene_1
 62
5
100
AcDbSpline
 70
8
 71
3
 72
8
 73
4
 74
0
 40
0
 40
0
 40
0
 40
0
 40
1
 40
1
 40
1
 40
1
 10
120.899946
 20
63.211036
 30
0.0
 10
120.899946
 20
62.818044
 30
0.0
 10
121.109605
 20
62.454905
 30
0.0
 10
121.449945
 20
62.258409
 30
0.0
  0
SPLINE
  5
145
100
AcDbEntity
  8
Ebene_1
 62
5
100
AcDbSpline
 70
8
 71
3
 72
8
 73
4
 74
0
 40
0
 40
0
 40
0
 40
0
 40
1
 40
1
 40
1
 40
1
 10
121.449945
 20
62.258409
 30
0.0
 10
121.790286
 20
62.061913
 30
0.0
 10
122.209603
 20
62.061913
 30
0.0
 10
122.549944
 20
62.258409
 30
0.0
  0
SPLINE
  5
146
100
AcDbEntity
  8
Ebene_1
 62
5
100
AcDbSpline
 70
8
 71
3
 72
8
 73
4
 74
0
 40
0
 40
0
 40
0
 40
0
 40
1
 40
1
 40
1
 40
1
 10
122.549944
 20
62.258409
 30
0.0
 10
122.890285
 20
62.454905
 30
0.0
 10
123.099944
 20
62.818044
 30
0.0
 10
123.099944
 20
63.211036
 30
0.0
  0
LWPOLYLINE
  5
147
100
AcDbEntity
  8
Ebene_1
 62
5
100
AcDbPolyline
 90
1
 70
1
 10
46.900012
 20
60.811038
 30
0.0
  0
SPLINE
  5
148
100
AcDbEntity
  8
Ebene_1
 62
5
100
AcDbSpline
 70
8
 71
3
 72
8
 73
4
 74
0
 40
0
 40
0
 40
0
 40
0
 40
1
 40
1
 40
1
 40
1
 10
46.900012
 20
99.010999
 30
0.0
 10
46.900012
 20
99.403991
 30
0.0
 10
46.690354
 20
99.767130
 30
0.0
 10
46.350013
 20
99.963626
 30
0.0
  0
SPLINE
  5
149
100
AcDbEntity
  8
Ebene_1
 62
5
100
AcDbSpline
 70
8
 71
3
 72
8
 73
4
 74
0
 40
0
 40
0
 40
0
 40
0
 40
1
 40
1
 40
1
 40
1
 10
46.350013
 20
99.963626
 30
0.0
 10
46.009672
 20
100.160122
 30
0.0
 10
45.590355
 20
100.160122
 30
0.0
 10
45.250014
 20
99.963626
 30
0.0
  0
SPLINE
  5
14a
100
AcDbEntity
  8
Ebene_1
 62
5
100
AcDbSpline
 70
8
 71
3
 72
8
 73
4
 74
0
 40
0
 40
0
 40
0
 40
0
 40
1
 40
1
 40
1
 40
1
 10
45.250014
 20
99.963626
 30
0.0
 10
44.909673
 20
99.767130
 30
0.0
 10
44.700015
 20
99.403991
 30
0.0
 10
44.700015
 20
99.010999
 30
0.0
  0
SPLINE
  5
14b
100
AcDbEntity
  8
Ebene_1
 62
5
100
AcDbSpline
 70
8
 71
3
 72
8
 73
4
 74
0
 40
0
 40
0
 40
0
 40
0
 40
1
 40
1
 40
1
 40
1
 10
44.700015
 20
99.010999
 30
0.0
 10
44.700015
 20
98.618008
 30
0.0
 10
44.909673
 20
98.254868
 30
0.0
 10
45.250014
 20
98.058372
 30
0.0
  0
SPLINE
  5
14c
100
AcDbEntity
  8
Ebene_1
 62
5
100
AcDbSpline
 70
8
 71
3
 72
8
 73
4
 74
0
 40
0
 40
0
 40
0
 40
0
 40
1
 40
1
 40
1
 40
1
 10
45.250014
 20
98.058372
 30
0.0
 10
45.590355
 20
97.861876
 30
0.0
 10
46.009672
 20
97.861876
 30
0.0
 10
46.350013
 20
98.058372
 30
0.0
  0
SPLINE
  5
14d
100
AcDbEntity
  8
Ebene_1
 62
5
100
AcDbSpline
 70
8
 71
3
 72
8
 73
4
 74
0
 40
0
 40
0
 40
0
 40
0
 40
1
 40
1
 40
1
 40
1
 10
46.350013
 20
98.058372
 30
0.0
 10
46.690354
 20
98.254868
 30
0.0
 10
46.900012
 20
98.618008
 30
0.0
 10
46.900012
 20
99.010999
 30
0.0
  0
LWPOLYLINE
  5
14e
100
AcDbEntity
  8
Ebene_1
 62
5
100
AcDbPolyline
 90
1
 70
1
 10
123.099944
 20
63.211036
 30
0.0
  0
SPLINE
  5
14f
100
AcDbEntity
  8
Ebene_1
 62
5
100
AcDbSpline
 70
8
 71
3
 72
8
 73
4
 74
0
 40
0
 40
0
 40
0
 40
0
 40
1
 40
1
 40
1
 40
1
 10
123.099944
 20
101.210997
 30
0.0
 10
123.099944
 20
101.603989
 30
0.0
 10
122.890285
 20
101.967128
 30
0.0
 10
122.549944
 20
102.163624
 30
0.0
  0
SPLINE
  5
150
100
AcDbEntity
  8
Ebene_1
 62
5
100
AcDbSpline
 70
8
 71
3
 72
8
 73
4
 74
0
 40
0
 40
0
 40
0
 40
0
 40
1
 40
1
 40
1
 40
1
 10
122.549944
 20
102.163624
 30
0.0
 10
122.209603
 20
102.360120
 30
0.0
 10
121.790286
 20
102.360120
 30
0.0
 10
121.449945
 20
102.163624
 30
0.0
  0
SPLINE
  5
151
100
AcDbEntity
  8
Ebene_1
 62
5
100
AcDbSpline
 70
8
 71
3
 72
8
 73
4
 74
0
 40
0
 40
0
 40
0
 40
0
 40
1
 40
1
 40
1
 40
1
 10
121.449945
 20
102.163624
 30
0.0
 10
121.109605
 20
101.967128
 30
0.0
 10
120.899946
 20
101.603989
 30
0.0
 10
120.899946
 20
101.210997
 30
0.0
  0
SPLINE
  5
152
100
AcDbEntity
  8
Ebene_1
 62
5
100
AcDbSpline
 70
8
 71
3
 72
8
 73
4
 74
0
 40
0
 40
0
 40
0
 40
0
 40
1
 40
1
 40
1
 40
1
 10
120.899946
 20
101.210997
 30
0.0
 10
120.899946
 20
100.818005
 30
0.0
 10
121.109605
 20
100.454866
 30
0.0
 10
121.449945
 20
100.258370
 30
0.0
  0
SPLINE
  5
153
100
AcDbEntity
  8
Ebene_1
 62
5
100
AcDbSpline
 70
8
 71
3
 72
8
 73
4
 74
0
 40
0
 40
0
 40
0
 40
0
 40
1
 40
1
 40
1
 40
1
 10
121.449945
 20
100.258370
 30
0.0
 10
121.790286
 20
100.061874
 30
0.0
 10
122.209603
 20
100.061874
 30
0.0
 10
122.549944
 20
100.258370
 30
0.0
  0
SPLINE
  5
154
100
AcDbEntity
  8
Ebene_1
 62
5
100
AcDbSpline
 70
8
 71
3
 72
8
 73
4
 74
0
 40
0
 40
0
 40
0
 40
0
 40
1
 40
1
 40
1
 40
1
 10
122.549944
 20
100.258370
 30
0.0
 10
122.890285
 20
100.454866
 30
0.0
 10
123.099944
 20
100.818005
 30
0.0
 10
123.099944
 20
101.210997
 30
0.0
  0
LWPOLYLINE
  5
155
100
AcDbEntity
  8
Ebene_1
 62
5
100
AcDbPolyline
 90
1
 70
1
 10
46.900012
 20
99.010999
 30
0.0
  0
SPLINE
  5
156
100
AcDbEntity
  8
Ebene_1
 62
5
100
AcDbSpline
 70
8
 71
3
 72
8
 73
4
 74
0
 40
0
 40
0
 40
0
 40
0
 40
1
 40
1
 40
1
 40
1
 10
13.734426
 20
53.155796
 30
0.0
 10
13.734426
 20
54.084686
 30
0.0
 10
13.238869
 20
54.943015
 30
0.0
 10
12.434427
 20
55.407460
 30
0.0
  0
SPLINE
  5
157
100
AcDbEntity
  8
Ebene_1
 62
5
100
AcDbSpline
 70
8
 71
3
 72
8
 73
4
 74
0
 40
0
 40
0
 40
0
 40
0
 40
1
 40
1
 40
1
 40
1
 10
12.434427
 20
55.407460
 30
0.0
 10
11.629985
 20
55.871905
 30
0.0
 10
10.638871
 20
55.871905
 30
0.0
 10
9.834429
 20
55.407460
 30
0.0
  0
SPLINE
  5
158
100
AcDbEntity
  8
Ebene_1
 62
5
100
AcDbSpline
 70
8
 71
3
 72
8
 73
4
 74
0
 40
0
 40
0
 40
0
 40
0
 40
1
 40
1
 40
1
 40
1
 10
9.834429
 20
55.407460
 30
0.0
 10
9.029987
 20
54.943015
 30
0.0
 10
8.534430
 20
54.084686
 30
0.0
 10
8.534430
 20
53.155796
 30
0.0
  0
SPLINE
  5
159
100
AcDbEntity
  8
Ebene_1
 62
5
100
AcDbSpline
 70
8
 71
3
 72
8
 73
4
 74
0
 40
0
 40
0
 40
0
 40
0
 40
1
 40
1
 40
1
 40
1
 10
8.534430
 20
53.155796
 30
0.0
 10
8.534430
 20
52.226906
 30
0.0
 10
9.029987
 20
51.368576
 30
0.0
 10
9.834429
 20
50.904132
 30
0.0
  0
SPLINE
  5
15a
100
AcDbEntity
  8
Ebene_1
 62
5
100
AcDbSpline
 70
8
 71
3
 72
8
 73
4
 74
0
 40
0
 40
0
 40
0
 40
0
 40
1
 40
1
 40
1
 40
1
 10
9.834429
 20
50.904132
 30
0.0
 10
10.638871
 20
50.439687
 30
0.0
 10
11.629985
 20
50.439687
 30
0.0
 10
12.434427
 20
50.904132
 30
0.0
  0
SPLINE
  5
15b
100
AcDbEntity
  8
Ebene_1
 62
5
100
AcDbSpline
 70
8
 71
3
 72
8
 73
4
 74
0
 40
0
 40
0
 40
0
 40
0
 40
1
 40
1
 40
1
 40
1
 10
12.434427
 20
50.904132
 30
0.0
 10
13.238869
 20
51.368576
 30
0.0
 10
13.734426
 20
52.226906
 30
0.0
 10
13.734426
 20
53.155796
 30
0.0
  0
LWPOLYLINE
  5
15c
100
AcDbEntity
  8
Ebene_1
 62
5
100
AcDbPolyline
 90
1
 70
1
 10
123.099944
 20
101.210997
 30
0.0
  0
SPLINE
  5
15d
100
AcDbEntity
  8
Ebene_1
 62
5
100
AcDbSpline
 70
8
 71
3
 72
8
 73
4
 74
0
 40
0
 40
0
 40
0
 40
0
 40
1
 40
1
 40
1
 40
1
 10
13.752576
 20
104.155734
 30
0.0
 10
13.752576
 20
105.084624
 30
0.0
 10
13.257019
 20
105.942954
 30
0.0
 10
12.452577
 20
106.407398
 30
0.0
  0
SPLINE
  5
15e
100
AcDbEntity
  8
Ebene_1
 62
5
100
AcDbSpline
 70
8
 71
3
 72
8
 73
4
 74
0
 40
0
 40
0
 40
0
 40
0
 40
1
 40
1
 40
1
 40
1
 10
12.452577
 20
106.407398
 30
0.0
 10
11.648135
 20
106.871843
 30
0.0
 10
10.657021
 20
106.871843
 30
0.0
 10
9.852579
 20
106.407398
 30
0.0
  0
SPLINE
  5
15f
100
AcDbEntity
  8
Ebene_1
 62
5
100
AcDbSpline
 70
8
 71
3
 72
8
 73
4
 74
0
 40
0
 40
0
 40
0
 40
0
 40
1
 40
1
 40
1
 40
1
 10
9.852579
 20
106.407398
 30
0.0
 10
9.048137
 20
105.942954
 30
0.0
 10
8.552580
 20
105.084624
 30
0.0
 10
8.552580
 20
104.155734
 30
0.0
  0
SPLINE
  5
160
100
AcDbEntity
  8
Ebene_1
 62
5
100
AcDbSpline
 70
8
 71
3
 72
8
 73
4
 74
0
 40
0
 40
0
 40
0
 40
0
 40
1
 40
1
 40
1
 40
1
 10
8.552580
 20
104.155734
 30
0.0
 10
8.552580
 20
103.226844
 30
0.0
 10
9.048137
 20
102.368515
 30
0.0
 10
9.852579
 20
101.904070
 30
0.0
  0
SPLINE
  5
161
100
AcDbEntity
  8
Ebene_1
 62
5
100
AcDbSpline
 70
8
 71
3
 72
8
 73
4
 74
0
 40
0
 40
0
 40
0
 40
0
 40
1
 40
1
 40
1
 40
1
 10
9.852579
 20
101.904070
 30
0.0
 10
10.657021
 20
101.439625
 30
0.0
 10
11.648135
 20
101.439625
 30
0.0
 10
12.452577
 20
101.904070
 30
0.0
  0
SPLINE
  5
162
100
AcDbEntity
  8
Ebene_1
 62
5
100
AcDbSpline
 70
8
 71
3
 72
8
 73
4
 74
0
 40
0
 40
0
 40
0
 40
0
 40
1
 40
1
 40
1
 40
1
 10
12.452577
 20
101.904070
 30
0.0
 10
13.257019
 20
102.368515
 30
0.0
 10
13.752576
 20
103.226844
 30
0.0
 10
13.752576
 20
104.155734
 30
0.0
  0
LWPOLYLINE
  5
163
100
AcDbEntity
  8
Ebene_1
 62
5
100
AcDbPolyline
 90
1
 70
1
 10
13.734426
 20
53.155796
 30
0.0
  0
SPLINE
  5
164
100
AcDbEntity
  8
Ebene_1
 62
5
100
AcDbSpline
 70
8
 71
3
 72
8
 73
4
 74
0
 40
0
 40
0
 40
0
 40
0
 40
1
 40
1
 40
1
 40
1
 10
167.868858
 20
16.880453
 30
0.0
 10
167.869632
 20
17.809858
 30
0.0
 10
167.374244
 20
18.668994
 30
0.0
 10
166.569484
 20
19.133920
 30
0.0
  0
SPLINE
  5
165
100
AcDbEntity
  8
Ebene_1
 62
5
100
AcDbSpline
 70
8
 71
3
 72
8
 73
4
 74
0
 40
0
 40
0
 40
0
 40
0
 40
1
 40
1
 40
1
 40
1
 10
166.569484
 20
19.133920
 30
0.0
 10
165.764725
 20
19.598846
 30
0.0
 10
164.772997
 20
19.598846
 30
0.0
 10
163.968237
 20
19.133920
 30
0.0
  0
SPLINE
  5
166
100
AcDbEntity
  8
Ebene_1
 62
5
100
AcDbSpline
 70
8
 71
3
 72
8
 73
4
 74
0
 40
0
 40
0
 40
0
 40
0
 40
1
 40
1
 40
1
 40
1
 10
163.968237
 20
19.133920
 30
0.0
 10
163.163478
 20
18.668994
 30
0.0
 10
162.668090
 20
17.809858
 30
0.0
 10
162.668864
 20
16.880453
 30
0.0
  0
SPLINE
  5
167
100
AcDbEntity
  8
Ebene_1
 62
5
100
AcDbSpline
 70
8
 71
3
 72
8
 73
4
 74
0
 40
0
 40
0
 40
0
 40
0
 40
1
 40
1
 40
1
 40
1
 10
162.668864
 20
16.880453
 30
0.0
 10
162.668090
 20
15.951048
 30
0.0
 10
163.163478
 20
15.091911
 30
0.0
 10
163.968237
 20
14.626986
 30
0.0
  0
SPLINE
  5
168
100
AcDbEntity
  8
Ebene_1
 62
5
100
AcDbSpline
 70
8
 71
3
 72
8
 73
4
 74
0
 40
0
 40
0
 40
0
 40
0
 40
1
 40
1
 40
1
 40
1
 10
163.968237
 20
14.626986
 30
0.0
 10
164.772997
 20
14.162060
 30
0.0
 10
165.764725
 20
14.162060
 30
0.0
 10
166.569484
 20
14.626986
 30
0.0
  0
SPLINE
  5
169
100
AcDbEntity
  8
Ebene_1
 62
5
100
AcDbSpline
 70
8
 71
3
 72
8
 73
4
 74
0
 40
0
 40
0
 40
0
 40
0
 40
1
 40
1
 40
1
 40
1
 10
166.569484
 20
14.626986
 30
0.0
 10
167.374244
 20
15.091911
 30
0.0
 10
167.869632
 20
15.951048
 30
0.0
 10
167.868858
 20
16.880453
 30
0.0
  0
LWPOLYLINE
  5
16a
100
AcDbEntity
  8
Ebene_1
 62
5
100
AcDbPolyline
 90
1
 70
1
 10
13.752576
 20
104.155734
 30
0.0
  0
SPLINE
  5
16b
100
AcDbEntity
  8
Ebene_1
 62
5
100
AcDbSpline
 70
8
 71
3
 72
8
 73
4
 74
0
 40
0
 40
0
 40
0
 40
0
 40
1
 40
1
 40
1
 40
1
 10
138.298358
 20
128.485438
 30
0.0
 10
138.298358
 20
129.217832
 30
0.0
 10
137.907631
 20
129.894592
 30
0.0
 10
137.273359
 20
130.260789
 30
0.0
  0
SPLINE
  5
16c
100
AcDbEntity
  8
Ebene_1
 62
5
100
AcDbSpline
 70
8
 71
3
 72
8
 73
4
 74
0
 40
0
 40
0
 40
0
 40
0
 40
1
 40
1
 40
1
 40
1
 10
137.273359
 20
130.260789
 30
0.0
 10
136.639088
 20
130.626985
 30
0.0
 10
135.857633
 20
130.626985
 30
0.0
 10
135.223361
 20
130.260789
 30
0.0
  0
SPLINE
  5
16d
100
AcDbEntity
  8
Ebene_1
 62
5
100
AcDbSpline
 70
8
 71
3
 72
8
 73
4
 74
0
 40
0
 40
0
 40
0
 40
0
 40
1
 40
1
 40
1
 40
1
 10
135.223361
 20
130.260789
 30
0.0
 10
134.589090
 20
129.894592
 30
0.0
 10
134.198362
 20
129.217832
 30
0.0
 10
134.198362
 20
128.485438
 30
0.0
  0
SPLINE
  5
16e
100
AcDbEntity
  8
Ebene_1
 62
5
100
AcDbSpline
 70
8
 71
3
 72
8
 73
4
 74
0
 40
0
 40
0
 40
0
 40
0
 40
1
 40
1
 40
1
 40
1
 10
134.198362
 20
128.485438
 30
0.0
 10
134.198362
 20
127.753045
 30
0.0
 10
134.589090
 20
127.076285
 30
0.0
 10
135.223361
 20
126.710088
 30
0.0
  0
SPLINE
  5
16f
100
AcDbEntity
  8
Ebene_1
 62
5
100
AcDbSpline
 70
8
 71
3
 72
8
 73
4
 74
0
 40
0
 40
0
 40
0
 40
0
 40
1
 40
1
 40
1
 40
1
 10
135.223361
 20
126.710088
 30
0.0
 10
135.857633
 20
126.343891
 30
0.0
 10
136.639088
 20
126.343891
 30
0.0
 10
137.273359
 20
126.710088
 30
0.0
  0
SPLINE
  5
170
100
AcDbEntity
  8
Ebene_1
 62
5
100
AcDbSpline
 70
8
 71
3
 72
8
 73
4
 74
0
 40
0
 40
0
 40
0
 40
0
 40
1
 40
1
 40
1
 40
1
 10
137.273359
 20
126.710088
 30
0.0
 10
137.907631
 20
127.076285
 30
0.0
 10
138.298358
 20
127.753045
 30
0.0
 10
138.298358
 20
128.485438
 30
0.0
  0
LWPOLYLINE
  5
171
100
AcDbEntity
  8
Ebene_1
 62
5
100
AcDbPolyline
 90
1
 70
1
 10
167.868858
 20
16.880453
 30
0.0
  0
SPLINE
  5
172
100
AcDbEntity
  8
Ebene_1
 62
5
100
AcDbSpline
 70
8
 71
3
 72
8
 73
4
 74
0
 40
0
 40
0
 40
0
 40
0
 40
1
 40
1
 40
1
 40
1
 10
140.215306
 20
132.485434
 30
0.0
 10
141.872155
 20
132.485429
 30
0.0
 10
143.215293
 20
131.142286
 30
0.0
 10
143.215293
 20
129.485437
 30
0.0
  0
LWPOLYLINE
  5
173
100
AcDbEntity
  8
Ebene_1
 62
5
100
AcDbPolyline
 90
1
 70
1
 10
138.298358
 20
128.485438
 30
0.0
  0
SPLINE
  5
174
100
AcDbEntity
  8
Ebene_1
 62
5
100
AcDbSpline
 70
8
 71
3
 72
8
 73
4
 74
0
 40
0
 40
0
 40
0
 40
0
 40
1
 40
1
 40
1
 40
1
 10
140.546506
 20
65.438593
 30
0.0
 10
140.546505
 20
65.153403
 30
0.0
 10
140.659795
 20
64.879894
 30
0.0
 10
140.861455
 20
64.678234
 30
0.0
  0
SPLINE
  5
175
100
AcDbEntity
  8
Ebene_1
 62
5
100
AcDbSpline
 70
8
 71
3
 72
8
 73
4
 74
0
 40
0
 40
0
 40
0
 40
0
 40
1
 40
1
 40
1
 40
1
 10
140.861455
 20
64.678234
 30
0.0
 10
141.063115
 20
64.476574
 30
0.0
 10
141.336625
 20
64.363283
 30
0.0
 10
141.621815
 20
64.363285
 30
0.0
  0
LWPOLYLINE
  5
176
100
AcDbEntity
  8
Ebene_1
 62
5
100
AcDbPolyline
 90
6
 70
0
 10
143.215293
 20
129.485437
 30
0.0
 10
143.215293
 20
124.485523
 30
0.0
 10
140.546516
 20
124.485523
 30
0.0
 10
140.546516
 20
123.485524
 30
0.0
 10
140.546506
 20
122.248626
 30
0.0
 10
140.546506
 20
65.438593
 30
0.0
  0
SPLINE
  5
177
100
AcDbEntity
  8
Ebene_1
 62
5
100
AcDbSpline
 70
8
 71
3
 72
8
 73
4
 74
0
 40
0
 40
0
 40
0
 40
0
 40
1
 40
1
 40
1
 40
1
 10
164.322352
 20
69.285450
 30
0.0
 10
166.444082
 20
69.285450
 30
0.0
 10
168.478911
 20
68.442596
 30
0.0
 10
169.979200
 20
66.942306
 30
0.0
  0
SPLINE
  5
178
100
AcDbEntity
  8
Ebene_1
 62
5
100
AcDbSpline
 70
8
 71
3
 72
8
 73
4
 74
0
 40
0
 40
0
 40
0
 40
0
 40
1
 40
1
 40
1
 40
1
 10
169.979200
 20
66.942306
 30
0.0
 10
171.479490
 20
65.442017
 30
0.0
 10
172.322344
 20
63.407188
 30
0.0
 10
172.322344
 20
61.285458
 30
0.0
  0
LWPOLYLINE
  5
179
100
AcDbEntity
  8
Ebene_1
 62
5
100
AcDbPolyline
 90
5
 70
0
 10
141.621815
 20
64.363285
 30
0.0
 10
162.140334
 20
64.363285
 30
0.0
 10
164.294452
 20
64.362765
 30
0.0
 10
164.295452
 20
69.285450
 30
0.0
 10
164.322352
 20
69.285450
 30
0.0
  0
SPLINE
  5
17a
100
AcDbEntity
  8
Ebene_1
 62
5
100
AcDbSpline
 70
8
 71
3
 72
8
 73
4
 74
0
 40
0
 40
0
 40
0
 40
0
 40
1
 40
1
 40
1
 40
1
 10
172.322344
 20
45.531294
 30
0.0
 10
172.325629
 20
43.408196
 30
0.0
 10
171.856926
 20
41.310915
 30
0.0
 10
170.950145
 20
39.391200
 30
0.0
  0
LWPOLYLINE
  5
17b
100
AcDbEntity
  8
Ebene_1
 62
5
100
AcDbPolyline
 90
2
 70
0
 10
172.322344
 20
61.285458
 30
0.0
 10
172.322344
 20
45.531294
 30
0.0
  0
SPLINE
  5
17c
100
AcDbEntity
  8
Ebene_1
 62
5
100
AcDbSpline
 70
8
 71
3
 72
8
 73
4
 74
0
 40
0
 40
0
 40
0
 40
0
 40
1
 40
1
 40
1
 40
1
 10
165.504391
 20
29.624040
 30
0.0
 10
164.269766
 20
26.854483
 30
0.0
 10
165.392969
 20
23.601962
 30
0.0
 10
168.073528
 20
22.184447
 30
0.0
  0
SPLINE
  5
17d
100
AcDbEntity
  8
Ebene_1
 62
5
100
AcDbSpline
 70
8
 71
3
 72
8
 73
4
 74
0
 40
0
 40
0
 40
0
 40
0
 40
1
 40
1
 40
1
 40
1
 10
168.073528
 20
22.184447
 30
0.0
 10
169.983103
 20
21.174824
 30
0.0
 10
171.202597
 20
19.216694
 30
0.0
 10
171.266459
 20
17.057588
 30
0.0
  0
SPLINE
  5
17e
100
AcDbEntity
  8
Ebene_1
 62
5
100
AcDbSpline
 70
8
 71
3
 72
8
 73
4
 74
0
 40
0
 40
0
 40
0
 40
0
 40
1
 40
1
 40
1
 40
1
 10
171.266459
 20
17.057588
 30
0.0
 10
171.330320
 20
14.898482
 30
0.0
 10
170.228690
 20
12.871698
 30
0.0
 10
168.382125
 20
11.750978
 30
0.0
  0
SPLINE
  5
17f
100
AcDbEntity
  8
Ebene_1
 62
5
100
AcDbSpline
 70
8
 71
3
 72
8
 73
4
 74
0
 40
0
 40
0
 40
0
 40
0
 40
1
 40
1
 40
1
 40
1
 10
168.382125
 20
11.750978
 30
0.0
 10
166.535560
 20
10.630257
 30
0.0
 10
164.229111
 20
10.588603
 30
0.0
 10
162.343284
 20
11.641918
 30
0.0
  0
SPLINE
  5
180
100
AcDbEntity
  8
Ebene_1
 62
5
100
AcDbSpline
 70
8
 71
3
 72
8
 73
4
 74
0
 40
0
 40
0
 40
0
 40
0
 40
1
 40
1
 40
1
 40
1
 10
162.343284
 20
11.641918
 30
0.0
 10
159.724404
 20
13.104404
 30
0.0
 10
156.429635
 20
12.430732
 30
0.0
 10
154.595002
 20
10.057650
 30
0.0
  0
LWPOLYLINE
  5
181
100
AcDbEntity
  8
Ebene_1
 62
5
100
AcDbPolyline
 90
2
 70
0
 10
170.950145
 20
39.391200
 30
0.0
 10
165.504391
 20
29.624040
 30
0.0
  0
SPLINE
  5
182
100
AcDbEntity
  8
Ebene_1
 62
5
100
AcDbSpline
 70
8
 71
3
 72
8
 73
4
 74
0
 40
0
 40
0
 40
0
 40
0
 40
1
 40
1
 40
1
 40
1
 10
154.566202
 20
10.006050
 30
0.0
 10
152.148320
 20
5.810374
 30
0.0
 10
147.013464
 20
4.030753
 30
0.0
 10
142.517764
 20
5.830344
 30
0.0
  0
LWPOLYLINE
  5
183
100
AcDbEntity
  8
Ebene_1
 62
5
100
AcDbPolyline
 90
2
 70
0
 10
154.595002
 20
10.057650
 30
0.0
 10
154.566202
 20
10.006050
 30
0.0
  0
SPLINE
  5
184
100
AcDbEntity
  8
Ebene_1
 62
5
100
AcDbSpline
 70
8
 71
3
 72
8
 73
4
 74
0
 40
0
 40
0
 40
0
 40
0
 40
1
 40
1
 40
1
 40
1
 10
110.189347
 20
18.771151
 30
0.0
 10
109.985499
 20
18.852756
 30
0.0
 10
109.767943
 20
18.894687
 30
0.0
 10
109.548368
 20
18.894691
 30
0.0
  0
LWPOLYLINE
  5
185
100
AcDbEntity
  8
Ebene_1
 62
5
100
AcDbPolyline
 90
2
 70
0
 10
142.517764
 20
5.830344
 30
0.0
 10
110.189347
 20
18.771151
 30
0.0
  0
SPLINE
  5
186
100
AcDbEntity
  8
Ebene_1
 62
5
100
AcDbSpline
 70
8
 71
3
 72
8
 73
4
 74
0
 40
0
 40
0
 40
0
 40
0
 40
1
 40
1
 40
1
 40
1
 10
94.492134
 20
18.894691
 30
0.0
 10
93.995294
 20
18.894705
 30
0.0
 10
93.500749
 20
18.827300
 30
0.0
 10
93.022035
 20
18.694321
 30
0.0
  0
LWPOLYLINE
  5
187
100
AcDbEntity
  8
Ebene_1
 62
5
100
AcDbPolyline
 90
2
 70
0
 10
109.548368
 20
18.894691
 30
0.0
 10
94.492134
 20
18.894691
 30
0.0
  0
SPLINE
  5
188
100
AcDbEntity
  8
Ebene_1
 62
5
100
AcDbSpline
 70
8
 71
3
 72
8
 73
4
 74
0
 40
0
 40
0
 40
0
 40
0
 40
1
 40
1
 40
1
 40
1
 10
77.466201
 20
14.373125
 30
0.0
 10
75.726138
 20
13.889666
 30
0.0
 10
73.928513
 20
13.644590
 30
0.0
 10
72.122537
 20
13.644606
 30
0.0
  0
LWPOLYLINE
  5
189
100
AcDbEntity
  8
Ebene_1
 62
5
100
AcDbPolyline
 90
2
 70
0
 10
93.022035
 20
18.694321
 30
0.0
 10
77.466201
 20
14.373125
 30
0.0
  0
SPLINE
  5
18a
100
AcDbEntity
  8
Ebene_1
 62
5
100
AcDbSpline
 70
8
 71
3
 72
8
 73
4
 74
0
 40
0
 40
0
 40
0
 40
0
 40
1
 40
1
 40
1
 40
1
 10
56.001563
 20
13.644606
 30
0.0
 10
52.620764
 20
13.645792
 30
0.0
 10
49.484904
 20
15.408598
 30
0.0
 10
47.726721
 20
18.296261
 30
0.0
  0
LWPOLYLINE
  5
18b
100
AcDbEntity
  8
Ebene_1
 62
5
100
AcDbPolyline
 90
2
 70
0
 10
72.122537
 20
13.644606
 30
0.0
 10
56.001563
 20
13.644606
 30
0.0
  0
SPLINE
  5
18c
100
AcDbEntity
  8
Ebene_1
 62
5
100
AcDbSpline
 70
8
 71
3
 72
8
 73
4
 74
0
 40
0
 40
0
 40
0
 40
0
 40
1
 40
1
 40
1
 40
1
 10
41.719858
 20
28.161981
 30
0.0
 10
41.386502
 20
28.709489
 30
0.0
 10
40.810913
 20
29.064037
 30
0.0
 10
40.171969
 20
29.115440
 30
0.0
  0
LWPOLYLINE
  5
18d
100
AcDbEntity
  8
Ebene_1
 62
5
100
AcDbPolyline
 90
2
 70
0
 10
47.726721
 20
18.296261
 30
0.0
 10
41.719858
 20
28.161981
 30
0.0
  0
SPLINE
  5
18e
100
AcDbEntity
  8
Ebene_1
 62
5
100
AcDbSpline
 70
8
 71
3
 72
8
 73
4
 74
0
 40
0
 40
0
 40
0
 40
0
 40
1
 40
1
 40
1
 40
1
 10
26.087563
 20
30.248539
 30
0.0
 10
21.026742
 20
30.655986
 30
0.0
 10
17.127914
 20
34.882843
 30
0.0
 10
17.129733
 20
39.960039
 30
0.0
  0
LWPOLYLINE
  5
18f
100
AcDbEntity
  8
Ebene_1
 62
5
100
AcDbPolyline
 90
2
 70
0
 10
40.171969
 20
29.115440
 30
0.0
 10
26.087563
 20
30.248539
 30
0.0
  0
SPLINE
  5
190
100
AcDbEntity
  8
Ebene_1
 62
5
100
AcDbSpline
 70
8
 71
3
 72
8
 73
4
 74
0
 40
0
 40
0
 40
0
 40
0
 40
1
 40
1
 40
1
 40
1
 10
17.130523
 20
41.864597
 30
0.0
 10
16.747238
 20
44.887132
 30
0.0
 10
14.177016
 20
47.153634
 30
0.0
 10
11.130278
 20
47.155802
 30
0.0
  0
SPLINE
  5
191
100
AcDbEntity
  8
Ebene_1
 62
5
100
AcDbSpline
 70
8
 71
3
 72
8
 73
4
 74
0
 40
0
 40
0
 40
0
 40
0
 40
1
 40
1
 40
1
 40
1
 10
11.130278
 20
47.155802
 30
0.0
 10
8.986686
 20
47.156517
 30
0.0
 10
7.006307
 20
48.300769
 30
0.0
 10
5.935131
 20
50.157531
 30
0.0
  0
SPLINE
  5
192
100
AcDbEntity
  8
Ebene_1
 62
5
100
AcDbSpline
 70
8
 71
3
 72
8
 73
4
 74
0
 40
0
 40
0
 40
0
 40
0
 40
1
 40
1
 40
1
 40
1
 10
5.935131
 20
50.157531
 30
0.0
 10
4.863954
 20
52.014293
 30
0.0
 10
4.864716
 20
54.301478
 30
0.0
 10
5.937131
 20
56.157525
 30
0.0
  0
SPLINE
  5
193
100
AcDbEntity
  8
Ebene_1
 62
5
100
AcDbSpline
 70
8
 71
3
 72
8
 73
4
 74
0
 40
0
 40
0
 40
0
 40
0
 40
1
 40
1
 40
1
 40
1
 10
5.937131
 20
56.157525
 30
0.0
 10
7.009545
 20
58.013572
 30
0.0
 10
8.990686
 20
59.156504
 30
0.0
 10
11.134278
 20
59.155790
 30
0.0
  0
SPLINE
  5
194
100
AcDbEntity
  8
Ebene_1
 62
5
100
AcDbSpline
 70
8
 71
3
 72
8
 73
4
 74
0
 40
0
 40
0
 40
0
 40
0
 40
1
 40
1
 40
1
 40
1
 10
11.134278
 20
59.155790
 30
0.0
 10
14.181023
 20
59.155788
 30
0.0
 10
16.752862
 20
61.420467
 30
0.0
 10
17.138293
 20
64.442734
 30
0.0
  0
LWPOLYLINE
  5
195
100
AcDbEntity
  8
Ebene_1
 62
5
100
AcDbPolyline
 90
2
 70
0
 10
17.129733
 20
39.960039
 30
0.0
 10
17.130523
 20
41.864597
 30
0.0
  0
SPLINE
  5
196
100
AcDbEntity
  8
Ebene_1
 62
5
100
AcDbSpline
 70
8
 71
3
 72
8
 73
4
 74
0
 40
0
 40
0
 40
0
 40
0
 40
1
 40
1
 40
1
 40
1
 10
17.148393
 20
92.881135
 30
0.0
 10
16.757571
 20
95.896282
 30
0.0
 10
14.190638
 20
98.153581
 30
0.0
 10
11.150268
 20
98.155740
 30
0.0
  0
SPLINE
  5
197
100
AcDbEntity
  8
Ebene_1
 62
5
100
AcDbSpline
 70
8
 71
3
 72
8
 73
4
 74
0
 40
0
 40
0
 40
0
 40
0
 40
1
 40
1
 40
1
 40
1
 10
11.150268
 20
98.155740
 30
0.0
 10
7.837581
 20
98.158284
 30
0.0
 10
5.153777
 20
100.845046
 30
0.0
 10
5.154881
 20
104.157733
 30
0.0
  0
SPLINE
  5
198
100
AcDbEntity
  8
Ebene_1
 62
5
100
AcDbSpline
 70
8
 71
3
 72
8
 73
4
 74
0
 40
0
 40
0
 40
0
 40
0
 40
1
 40
1
 40
1
 40
1
 10
5.154881
 20
104.157733
 30
0.0
 10
5.155985
 20
107.470420
 30
0.0
 10
7.841580
 20
110.155392
 30
0.0
 10
11.154268
 20
110.155728
 30
0.0
  0
SPLINE
  5
199
100
AcDbEntity
  8
Ebene_1
 62
5
100
AcDbSpline
 70
8
 71
3
 72
8
 73
4
 74
0
 40
0
 40
0
 40
0
 40
0
 40
1
 40
1
 40
1
 40
1
 10
11.154268
 20
110.155728
 30
0.0
 10
14.194637
 20
110.155731
 30
0.0
 10
16.763170
 20
112.411205
 30
0.0
 10
17.156133
 20
115.426073
 30
0.0
  0
LWPOLYLINE
  5
19a
100
AcDbEntity
  8
Ebene_1
 62
5
100
AcDbPolyline
 90
2
 70
0
 10
17.138293
 20
64.442734
 30
0.0
 10
17.148393
 20
92.881135
 30
0.0
  0
SPLINE
  5
19b
100
AcDbEntity
  8
Ebene_1
 62
5
100
AcDbSpline
 70
8
 71
3
 72
8
 73
4
 74
0
 40
0
 40
0
 40
0
 40
0
 40
1
 40
1
 40
1
 40
1
 10
17.156663
 20
116.591831
 30
0.0
 10
17.158217
 20
121.362788
 30
0.0
 10
20.619142
 20
125.428680
 30
0.0
 10
25.328604
 20
126.192222
 30
0.0
  0
LWPOLYLINE
  5
19c
100
AcDbEntity
  8
Ebene_1
 62
5
100
AcDbPolyline
 90
2
 70
0
 10
17.156133
 20
115.426073
 30
0.0
 10
17.156663
 20
116.591831
 30
0.0
  0
SPLINE
  5
19d
100
AcDbEntity
  8
Ebene_1
 62
5
100
AcDbSpline
 70
8
 71
3
 72
8
 73
4
 74
0
 40
0
 40
0
 40
0
 40
0
 40
1
 40
1
 40
1
 40
1
 10
61.328168
 20
132.028025
 30
0.0
 10
63.206198
 20
132.332468
 30
0.0
 10
65.105665
 20
132.485431
 30
0.0
 10
67.008212
 20
132.485434
 30
0.0
  0
LWPOLYLINE
  5
19e
100
AcDbEntity
  8
Ebene_1
 62
5
100
AcDbPolyline
 90
2
 70
0
 10
25.328604
 20
126.192222
 30
0.0
 10
61.328168
 20
132.028025
 30
0.0
  0
SPLINE
  5
19f
100
AcDbEntity
  8
Ebene_1
 62
5
100
AcDbSpline
 70
8
 71
3
 72
8
 73
4
 74
0
 40
0
 40
0
 40
0
 40
0
 40
1
 40
1
 40
1
 40
1
 10
149.952196
 20
127.007234
 30
0.0
 10
149.952191
 20
127.802885
 30
0.0
 10
150.268257
 20
128.565950
 30
0.0
 10
150.830864
 20
129.128563
 30
0.0
  0
SPLINE
  5
1a0
100
AcDbEntity
  8
Ebene_1
 62
5
100
AcDbSpline
 70
8
 71
3
 72
8
 73
4
 74
0
 40
0
 40
0
 40
0
 40
0
 40
1
 40
1
 40
1
 40
1
 10
150.830864
 20
129.128563
 30
0.0
 10
151.393471
 20
129.691176
 30
0.0
 10
152.156533
 20
130.007250
 30
0.0
 10
152.952183
 20
130.007253
 30
0.0
  0
LWPOLYLINE
  5
1a1
100
AcDbEntity
  8
Ebene_1
 62
5
100
AcDbPolyline
 90
2
 70
0
 10
67.008212
 20
132.485434
 30
0.0
 10
140.215306
 20
132.485434
 30
0.0
  0
SPLINE
  5
1a2
100
AcDbEntity
  8
Ebene_1
 62
5
100
AcDbSpline
 70
8
 71
3
 72
8
 73
4
 74
0
 40
0
 40
0
 40
0
 40
0
 40
1
 40
1
 40
1
 40
1
 10
153.449983
 20
130.007253
 30
0.0
 10
158.536593
 20
130.007236
 30
0.0
 10
162.745586
 20
126.050388
 30
0.0
 10
163.059433
 20
120.973470
 30
0.0
  0
SPLINE
  5
1a3
100
AcDbEntity
  8
Ebene_1
 62
5
100
AcDbSpline
 70
8
 71
3
 72
8
 73
4
 74
0
 40
0
 40
0
 40
0
 40
0
 40
1
 40
1
 40
1
 40
1
 10
163.059433
 20
120.973470
 30
0.0
 10
163.442703
 20
117.950923
 30
0.0
 10
166.012928
 20
115.684403
 30
0.0
 10
169.059677
 20
115.682232
 30
0.0
  0
SPLINE
  5
1a4
100
AcDbEntity
  8
Ebene_1
 62
5
100
AcDbSpline
 70
8
 71
3
 72
8
 73
4
 74
0
 40
0
 40
0
 40
0
 40
0
 40
1
 40
1
 40
1
 40
1
 10
169.059677
 20
115.682232
 30
0.0
 10
172.369303
 20
115.675375
 30
0.0
 10
175.048344
 20
112.989883
 30
0.0
 10
175.047241
 20
109.680250
 30
0.0
  0
SPLINE
  5
1a5
100
AcDbEntity
  8
Ebene_1
 62
5
100
AcDbSpline
 70
8
 71
3
 72
8
 73
4
 74
0
 40
0
 40
0
 40
0
 40
0
 40
1
 40
1
 40
1
 40
1
 10
175.047241
 20
109.680250
 30
0.0
 10
175.046138
 20
106.370618
 30
0.0
 10
172.365307
 20
103.686912
 30
0.0
 10
169.055677
 20
103.682262
 30
0.0
  0
SPLINE
  5
1a6
100
AcDbEntity
  8
Ebene_1
 62
5
100
AcDbSpline
 70
8
 71
3
 72
8
 73
4
 74
0
 40
0
 40
0
 40
0
 40
0
 40
1
 40
1
 40
1
 40
1
 10
169.055677
 20
103.682262
 30
0.0
 10
166.032182
 20
103.682267
 30
0.0
 10
163.472446
 20
101.451089
 30
0.0
 10
163.059693
 20
98.455900
 30
0.0
  0
LWPOLYLINE
  5
1a7
100
AcDbEntity
  8
Ebene_1
 62
5
100
AcDbPolyline
 90
2
 70
0
 10
152.952183
 20
130.007253
 30
0.0
 10
153.449983
 20
130.007253
 30
0.0
  0
SPLINE
  5
1a8
100
AcDbEntity
  8
Ebene_1
 62
5
100
AcDbSpline
 70
8
 71
3
 72
8
 73
4
 74
0
 40
0
 40
0
 40
0
 40
0
 40
1
 40
1
 40
1
 40
1
 10
163.059693
 20
84.807259
 30
0.0
 10
163.059700
 20
80.388992
 30
0.0
 10
159.477998
 20
76.807271
 30
0.0
 10
155.059731
 20
76.807255
 30
0.0
  0
LWPOLYLINE
  5
1a9
100
AcDbEntity
  8
Ebene_1
 62
5
100
AcDbPolyline
 90
2
 70
0
 10
163.059693
 20
98.455900
 30
0.0
 10
163.059693
 20
84.807259
 30
0.0
  0
SPLINE
  5
1aa
100
AcDbEntity
  8
Ebene_1
 62
5
100
AcDbSpline
 70
8
 71
3
 72
8
 73
4
 74
0
 40
0
 40
0
 40
0
 40
0
 40
1
 40
1
 40
1
 40
1
 10
155.045231
 20
120.079215
 30
0.0
 10
155.008423
 20
121.154571
 30
0.0
 10
154.126019
 20
122.007302
 30
0.0
 10
153.050033
 20
122.007320
 30
0.0
  0
LWPOLYLINE
  5
1ab
100
AcDbEntity
  8
Ebene_1
 62
5
100
AcDbPolyline
 90
3
 70
0
 10
155.059731
 20
76.807255
 30
0.0
 10
155.035031
 20
76.807255
 30
0.0
 10
155.045231
 20
120.079215
 30
0.0
  0
SPLINE
  5
1ac
100
AcDbEntity
  8
Ebene_1
 62
5
100
AcDbSpline
 70
8
 71
3
 72
8
 73
4
 74
0
 40
0
 40
0
 40
0
 40
0
 40
1
 40
1
 40
1
 40
1
 10
159.315547
 20
124.516307
 30
0.0
 10
159.315547
 20
125.248705
 30
0.0
 10
158.924818
 20
125.925468
 30
0.0
 10
158.290543
 20
126.291666
 30
0.0
  0
SPLINE
  5
1ad
100
AcDbEntity
  8
Ebene_1
 62
5
100
AcDbSpline
 70
8
 71
3
 72
8
 73
4
 74
0
 40
0
 40
0
 40
0
 40
0
 40
1
 40
1
 40
1
 40
1
 10
158.290543
 20
126.291666
 30
0.0
 10
157.656268
 20
126.657865
 30
0.0
 10
156.874810
 20
126.657865
 30
0.0
 10
156.240535
 20
126.291666
 30
0.0
  0
SPLINE
  5
1ae
100
AcDbEntity
  8
Ebene_1
 62
5
100
AcDbSpline
 70
8
 71
3
 72
8
 73
4
 74
0
 40
0
 40
0
 40
0
 40
0
 40
1
 40
1
 40
1
 40
1
 10
156.240535
 20
126.291666
 30
0.0
 10
155.606260
 20
125.925468
 30
0.0
 10
155.215531
 20
125.248705
 30
0.0
 10
155.215531
 20
124.516307
 30
0.0
  0
SPLINE
  5
1af
100
AcDbEntity
  8
Ebene_1
 62
5
100
AcDbSpline
 70
8
 71
3
 72
8
 73
4
 74
0
 40
0
 40
0
 40
0
 40
0
 40
1
 40
1
 40
1
 40
1
 10
155.215531
 20
124.516307
 30
0.0
 10
155.215531
 20
123.783910
 30
0.0
 10
155.606260
 20
123.107147
 30
0.0
 10
156.240535
 20
122.740948
 30
0.0
  0
SPLINE
  5
1b0
100
AcDbEntity
  8
Ebene_1
 62
5
100
AcDbSpline
 70
8
 71
3
 72
8
 73
4
 74
0
 40
0
 40
0
 40
0
 40
0
 40
1
 40
1
 40
1
 40
1
 10
156.240535
 20
122.740948
 30
0.0
 10
156.874810
 20
122.374750
 30
0.0
 10
157.656268
 20
122.374750
 30
0.0
 10
158.290543
 20
122.740948
 30
0.0
  0
SPLINE
  5
1b1
100
AcDbEntity
  8
Ebene_1
 62
5
100
AcDbSpline
 70
8
 71
3
 72
8
 73
4
 74
0
 40
0
 40
0
 40
0
 40
0
 40
1
 40
1
 40
1
 40
1
 10
158.290543
 20
122.740948
 30
0.0
 10
158.924818
 20
123.107147
 30
0.0
 10
159.315547
 20
123.783910
 30
0.0
 10
159.315547
 20
124.516307
 30
0.0
  0
LWPOLYLINE
  5
1b2
100
AcDbEntity
  8
Ebene_1
 62
5
100
AcDbPolyline
 90
3
 70
0
 10
153.050033
 20
122.007320
 30
0.0
 10
149.952226
 20
122.007320
 30
0.0
 10
149.952196
 20
127.007234
 30
0.0
  0
SPLINE
  5
1b3
100
AcDbEntity
  8
Ebene_1
 62
5
100
AcDbSpline
 70
8
 71
3
 72
8
 73
4
 74
0
 40
0
 40
0
 40
0
 40
0
 40
1
 40
1
 40
1
 40
1
 10
161.109415
 20
81.941613
 30
0.0
 10
161.112252
 20
82.675890
 30
0.0
 10
160.722148
 20
83.355606
 30
0.0
 10
160.086714
 20
83.723566
 30
0.0
  0
SPLINE
  5
1b4
100
AcDbEntity
  8
Ebene_1
 62
5
100
AcDbSpline
 70
8
 71
3
 72
8
 73
4
 74
0
 40
0
 40
0
 40
0
 40
0
 40
1
 40
1
 40
1
 40
1
 10
160.086714
 20
83.723566
 30
0.0
 10
159.451280
 20
84.091526
 30
0.0
 10
158.667574
 20
84.091526
 30
0.0
 10
158.032140
 20
83.723566
 30
0.0
  0
SPLINE
  5
1b5
100
AcDbEntity
  8
Ebene_1
 62
5
100
AcDbSpline
 70
8
 71
3
 72
8
 73
4
 74
0
 40
0
 40
0
 40
0
 40
0
 40
1
 40
1
 40
1
 40
1
 10
158.032140
 20
83.723566
 30
0.0
 10
157.396706
 20
83.355606
 30
0.0
 10
157.006602
 20
82.675890
 30
0.0
 10
157.009439
 20
81.941613
 30
0.0
  0
SPLINE
  5
1b6
100
AcDbEntity
  8
Ebene_1
 62
5
100
AcDbSpline
 70
8
 71
3
 72
8
 73
4
 74
0
 40
0
 40
0
 40
0
 40
0
 40
1
 40
1
 40
1
 40
1
 10
157.009439
 20
81.941613
 30
0.0
 10
157.006602
 20
81.207336
 30
0.0
 10
157.396706
 20
80.527619
 30
0.0
 10
158.032140
 20
80.159659
 30
0.0
  0
SPLINE
  5
1b7
100
AcDbEntity
  8
Ebene_1
 62
5
100
AcDbSpline
 70
8
 71
3
 72
8
 73
4
 74
0
 40
0
 40
0
 40
0
 40
0
 40
1
 40
1
 40
1
 40
1
 10
158.032140
 20
80.159659
 30
0.0
 10
158.667574
 20
79.791699
 30
0.0
 10
159.451280
 20
79.791699
 30
0.0
 10
160.086714
 20
80.159659
 30
0.0
  0
SPLINE
  5
1b8
100
AcDbEntity
  8
Ebene_1
 62
5
100
AcDbSpline
 70
8
 71
3
 72
8
 73
4
 74
0
 40
0
 40
0
 40
0
 40
0
 40
1
 40
1
 40
1
 40
1
 10
160.086714
 20
80.159659
 30
0.0
 10
160.722148
 20
80.527619
 30
0.0
 10
161.112252
 20
81.207336
 30
0.0
 10
161.109415
 20
81.941613
 30
0.0
  0
LWPOLYLINE
  5
1b9
100
AcDbEntity
  8
Ebene_1
 62
5
100
AcDbPolyline
 90
1
 70
1
 10
159.315547
 20
124.516307
 30
0.0
  0
SPLINE
  5
1ba
100
AcDbEntity
  8
Ebene_1
 62
5
100
AcDbSpline
 70
8
 71
3
 72
8
 73
4
 74
0
 40
0
 40
0
 40
0
 40
0
 40
1
 40
1
 40
1
 40
1
 10
171.657534
 20
109.682264
 30
0.0
 10
171.660141
 20
110.612885
 30
0.0
 10
171.165157
 20
111.473932
 30
0.0
 10
170.359648
 20
111.939996
 30
0.0
  0
SPLINE
  5
1bb
100
AcDbEntity
  8
Ebene_1
 62
5
100
AcDbSpline
 70
8
 71
3
 72
8
 73
4
 74
0
 40
0
 40
0
 40
0
 40
0
 40
1
 40
1
 40
1
 40
1
 10
170.359648
 20
111.939996
 30
0.0
 10
169.554138
 20
112.406061
 30
0.0
 10
168.560956
 20
112.406061
 30
0.0
 10
167.755446
 20
111.939996
 30
0.0
  0
SPLINE
  5
1bc
100
AcDbEntity
  8
Ebene_1
 62
5
100
AcDbSpline
 70
8
 71
3
 72
8
 73
4
 74
0
 40
0
 40
0
 40
0
 40
0
 40
1
 40
1
 40
1
 40
1
 10
167.755446
 20
111.939996
 30
0.0
 10
166.949937
 20
111.473932
 30
0.0
 10
166.454953
 20
110.612885
 30
0.0
 10
166.457560
 20
109.682264
 30
0.0
  0
SPLINE
  5
1bd
100
AcDbEntity
  8
Ebene_1
 62
5
100
AcDbSpline
 70
8
 71
3
 72
8
 73
4
 74
0
 40
0
 40
0
 40
0
 40
0
 40
1
 40
1
 40
1
 40
1
 10
166.457560
 20
109.682264
 30
0.0
 10
166.454953
 20
108.751644
 30
0.0
 10
166.949937
 20
107.890597
 30
0.0
 10
167.755446
 20
107.424532
 30
0.0
  0
SPLINE
  5
1be
100
AcDbEntity
  8
Ebene_1
 62
5
100
AcDbSpline
 70
8
 71
3
 72
8
 73
4
 74
0
 40
0
 40
0
 40
0
 40
0
 40
1
 40
1
 40
1
 40
1
 10
167.755446
 20
107.424532
 30
0.0
 10
168.560956
 20
106.958468
 30
0.0
 10
169.554138
 20
106.958468
 30
0.0
 10
170.359648
 20
107.424532
 30
0.0
  0
SPLINE
  5
1bf
100
AcDbEntity
  8
Ebene_1
 62
5
100
AcDbSpline
 70
8
 71
3
 72
8
 73
4
 74
0
 40
0
 40
0
 40
0
 40
0
 40
1
 40
1
 40
1
 40
1
 10
170.359648
 20
107.424532
 30
0.0
 10
171.165157
 20
107.890597
 30
0.0
 10
171.660141
 20
108.751644
 30
0.0
 10
171.657534
 20
109.682264
 30
0.0
  0
LWPOLYLINE
  5
1c0
100
AcDbEntity
  8
Ebene_1
 62
5
100
AcDbPolyline
 90
1
 70
1
 10
161.109415
 20
81.941613
 30
0.0
  0
LWPOLYLINE
  5
1c1
100
AcDbEntity
  8
Ebene_1
 62
5
100
AcDbPolyline
 90
1
 70
1
 10
171.657534
 20
109.682264
 30
0.0
  0
LWPOLYLINE
  5
1c2
100
AcDbEntity
  8
Ebene_1
 62
5
100
AcDbPolyline
 90
4
 70
1
 10
143.251893
 20
49.713012
 30
0.0
 10
159.947936
 20
49.713012
 30
0.0
 10
159.947936
 20
62.909074
 30
0.0
 10
143.251893
 20
62.909074
 30
0.0
  0
ENDSEC
  0
SECTION
  2
OBJECTS
  0
DICTIONARY
  5
C
330
0
100
AcDbDictionary
  3
ACAD_GROUP
350
D
  3
ACAD_MLINESTYLE
350
17
  0
DICTIONARY
  5
D
330
C
100
AcDbDictionary
  0
DICTIONARY
  5
1A
330
C
100
AcDbDictionary
  0
DICTIONARY
  5
17
330
C
100
AcDbDictionary
  3
STANDARD
350
18
  0
DICTIONARY
  5
19
330
C
100
AcDbDictionary
  0
ENDSEC
  0
EOF
