<?xml version="1.0" encoding="UTF-8" standalone="no"?>
<svg
   xmlns:dc="http://purl.org/dc/elements/1.1/"
   xmlns:cc="http://creativecommons.org/ns#"
   xmlns:rdf="http://www.w3.org/1999/02/22-rdf-syntax-ns#"
   xmlns:svg="http://www.w3.org/2000/svg"
   xmlns="http://www.w3.org/2000/svg"
   xmlns:sodipodi="http://sodipodi.sourceforge.net/DTD/sodipodi-0.dtd"
   xmlns:inkscape="http://www.inkscape.org/namespaces/inkscape"
   width="177.45483mm"
   height="137.61786mm"
   viewBox="0 0 177.45483 137.61786"
   version="1.1"
   id="svg1144"
   inkscape:version="1.0.2-2 (e86c870879, 2021-01-15)"
   sodipodi:docname="Plate - Layer 0.svg">
  <defs
     id="defs1138" />
  <sodipodi:namedview
     id="base"
     pagecolor="#ffffff"
     bordercolor="#666666"
     borderopacity="1.0"
     inkscape:pageopacity="0.0"
     inkscape:pageshadow="2"
     inkscape:zoom="5.6"
     inkscape:cx="532.0502"
     inkscape:cy="321.2861"
     inkscape:document-units="mm"
     inkscape:current-layer="layer1"
     inkscape:document-rotation="0"
     showgrid="false"
     fit-margin-top="5"
     fit-margin-left="5"
     fit-margin-bottom="5"
     fit-margin-right="5"
     inkscape:window-width="1920"
     inkscape:window-height="1051"
     inkscape:window-x="-9"
     inkscape:window-y="-9"
     inkscape:window-maximized="1"
     inkscape:snap-bbox="true"
     inkscape:snap-bbox-midpoints="true"
     inkscape:snap-bbox-edge-midpoints="true"
     inkscape:bbox-paths="true" />
  <metadata
     id="metadata1141">
    <rdf:RDF>
      <cc:Work
         rdf:about="">
        <dc:format>image/svg+xml</dc:format>
        <dc:type
           rdf:resource="http://purl.org/dc/dcmitype/StillImage" />
        <dc:title />
      </cc:Work>
    </rdf:RDF>
  </metadata>
  <g
     inkscape:label="Ebene 1"
     inkscape:groupmode="layer"
     id="layer1"
     transform="translate(-0.47497085,-9.8101195)">
    <path
       d="m 150.52502,137.98254 a 2.05,2.05 0 1 0 -4.1,0 2.05,2.05 0 1 0 4.1,0 z"
       style="fill:none;stroke:#0000ff;stroke-width:0.265;stroke-opacity:1;stroke-miterlimit:4;stroke-dasharray:none"
       id="path2607" />
    <path
       d="m 25.048461,27.12578 a 2.05,2.05 0 1 0 -4.1,0 2.05,2.05 0 1 0 4.1,0 z"
       style="fill:none;stroke:#0000ff;stroke-width:0.265;stroke-opacity:1;stroke-miterlimit:4;stroke-dasharray:none"
       id="path2609" />
    <path
       d="m 25.175601,111.36299 a 2.05,2.05 0 1 0 -4.1,0 2.05,2.05 0 1 0 4.1,0 z"
       style="fill:none;stroke:#0000ff;stroke-width:0.265;stroke-opacity:1;stroke-miterlimit:4;stroke-dasharray:none"
       id="path2611" />
    <path
       d="m 115.63595,118.19306 5.96744,1.59948 a 1.4999999,1.4999999 0 0 0 1.45803,0.39079 l 6.09749,1.63431 3.62204,-13.52295 -13.52296,-3.62458 z"
       style="fill:none;stroke:#0000ff;stroke-width:0.265;stroke-opacity:1;stroke-miterlimit:4;stroke-dasharray:none"
       id="path2613" />
    <path
       d="M 110.08859,117.57584 V 103.57537 H 96.088101 v 14.00047 z"
       style="fill:none;stroke:#0000ff;stroke-width:0.265;stroke-opacity:1;stroke-miterlimit:4;stroke-dasharray:none"
       id="path2615" />
    <path
       d="M 86.489441,64.225691 V 78.22363 H 100.48738 V 64.225691 Z"
       style="fill:none;stroke:#0000ff;stroke-width:0.265;stroke-opacity:1;stroke-miterlimit:4;stroke-dasharray:none"
       id="path2617" />
    <path
       d="m 29.387701,47.72585 h 14.00048 V 33.72537 h -14.00048 z"
       style="fill:none;stroke:#0000ff;stroke-width:0.265;stroke-opacity:1;stroke-miterlimit:4;stroke-dasharray:none"
       id="path2619" />
    <path
       d="m 62.479121,70.32423 h -14.08968 v 14.00048 h 14.08968 z"
       style="fill:none;stroke:#0000ff;stroke-width:0.265;stroke-opacity:1;stroke-miterlimit:4;stroke-dasharray:none"
       id="path2621" />
    <path
       d="m 124.58945,100.92361 h 13.99793 V 86.92567 h -13.99793 z"
       style="fill:none;stroke:#0000ff;stroke-width:0.265;stroke-opacity:1;stroke-miterlimit:4;stroke-dasharray:none"
       id="path2623" />
    <path
       d="M 43.337381,104.82505 V 90.82457 h -13.99794 v 14.00048 z"
       style="fill:none;stroke:#0000ff;stroke-width:0.265;stroke-opacity:1;stroke-miterlimit:4;stroke-dasharray:none"
       id="path2625" />
    <path
       d="m 29.387701,52.625511 v 13.99794 h 14.00048 v -13.99794 z"
       style="fill:none;stroke:#0000ff;stroke-width:0.265;stroke-opacity:1;stroke-miterlimit:4;stroke-dasharray:none"
       id="path2627" />
    <path
       d="M 86.489441,40.03473 H 100.48738 V 26.03425 H 86.489441 Z"
       style="fill:none;stroke:#0000ff;stroke-width:0.265;stroke-opacity:1;stroke-miterlimit:4;stroke-dasharray:none"
       id="path2629" />
    <path
       d="M 124.58945,67.923931 V 81.92441 h 13.99793 V 67.923931 Z"
       style="fill:none;stroke:#0000ff;stroke-width:0.265;stroke-opacity:1;stroke-miterlimit:4;stroke-dasharray:none"
       id="path2631" />
    <path
       d="m 67.487701,41.42411 h 14.00048 V 27.42363 h -14.00048 z"
       style="fill:none;stroke:#0000ff;stroke-width:0.265;stroke-opacity:1;stroke-miterlimit:4;stroke-dasharray:none"
       id="path2633" />
    <path
       d="m 90.987781,117.57584 v -14.00047 h -14.00048 v 14.00047 z"
       style="fill:none;stroke:#0000ff;stroke-width:0.265;stroke-opacity:1;stroke-miterlimit:4;stroke-dasharray:none"
       id="path2635" />
    <path
       d="m 62.387381,65.124851 v -14.00048 h -13.99794 v 14.00048 z"
       style="fill:none;stroke:#0000ff;stroke-width:0.265;stroke-opacity:1;stroke-miterlimit:4;stroke-dasharray:none"
       id="path2637" />
    <path
       d="m 143.56579,107.33203 -7.00024,12.12595 12.12596,6.9977 7.00024,-12.12343 z"
       style="fill:none;stroke:#0000ff;stroke-width:0.265;stroke-opacity:1;stroke-miterlimit:4;stroke-dasharray:none"
       id="path2639" />
    <path
       d="m 105.58771,46.52443 v 14.000481 h 14.00048 V 46.52443 Z"
       style="fill:none;stroke:#0000ff;stroke-width:0.265;stroke-opacity:1;stroke-miterlimit:4;stroke-dasharray:none"
       id="path2641" />
    <path
       d="M 86.489441,97.22537 H 100.48738 V 83.22489 H 86.489441 Z"
       style="fill:none;stroke:#0000ff;stroke-width:0.265;stroke-opacity:1;stroke-miterlimit:4;stroke-dasharray:none"
       id="path2643" />
    <path
       d="m 105.58771,98.62491 h 14.00048 V 84.62443 h -14.00048 z"
       style="fill:none;stroke:#0000ff;stroke-width:0.265;stroke-opacity:1;stroke-miterlimit:4;stroke-dasharray:none"
       id="path2645" />
    <path
       d="m 48.389441,46.22471 h 13.99794 V 32.22423 h -13.99794 z"
       style="fill:none;stroke:#0000ff;stroke-width:0.265;stroke-opacity:1;stroke-miterlimit:4;stroke-dasharray:none"
       id="path2647" />
    <path
       d="M 43.388181,85.82585 V 71.82537 h -14.00048 v 14.00048 z"
       style="fill:none;stroke:#0000ff;stroke-width:0.265;stroke-opacity:1;stroke-miterlimit:4;stroke-dasharray:none"
       id="path2649" />
    <path
       d="M 119.58819,65.523631 H 105.58771 V 79.52411 h 14.00048 z"
       style="fill:none;stroke:#0000ff;stroke-width:0.265;stroke-opacity:1;stroke-miterlimit:4;stroke-dasharray:none"
       id="path2651" />
    <path
       d="m 48.389441,89.32343 v 14.00048 h 13.99794 V 89.32343 Z"
       style="fill:none;stroke:#0000ff;stroke-width:0.265;stroke-opacity:1;stroke-miterlimit:4;stroke-dasharray:none"
       id="path2653" />
    <path
       d="m 57.889041,107.72573 v 13.99793 h 14.00048 v -13.99793 z"
       style="fill:none;stroke:#0000ff;stroke-width:0.265;stroke-opacity:1;stroke-miterlimit:4;stroke-dasharray:none"
       id="path2655" />
    <path
       d="m 67.487701,84.62443 v 14.00048 h 14.00048 V 84.62443 Z"
       style="fill:none;stroke:#0000ff;stroke-width:0.265;stroke-opacity:1;stroke-miterlimit:4;stroke-dasharray:none"
       id="path2657" />
    <path
       d="m 124.58945,48.92473 v 14.000481 h 13.99793 V 48.92473 Z"
       style="fill:none;stroke:#0000ff;stroke-width:0.265;stroke-opacity:1;stroke-miterlimit:4;stroke-dasharray:none"
       id="path2659" />
    <path
       d="M 86.489441,45.12489 V 59.125371 H 100.48738 V 45.12489 Z"
       style="fill:none;stroke:#0000ff;stroke-width:0.265;stroke-opacity:1;stroke-miterlimit:4;stroke-dasharray:none"
       id="path2661" />
    <path
       d="m 67.487701,60.425851 h 14.00048 V 46.42537 h -14.00048 z"
       style="fill:none;stroke:#0000ff;stroke-width:0.265;stroke-opacity:1;stroke-miterlimit:4;stroke-dasharray:none"
       id="path2663" />
    <path
       d="M 119.58818,41.42415 V 27.42367 H 105.5877 v 14.00048 z"
       style="fill:none;stroke:#0000ff;stroke-width:0.265;stroke-opacity:1;stroke-miterlimit:4;stroke-dasharray:none"
       id="path2665" />
    <path
       d="m 67.487701,79.52411 h 14.00048 V 65.523631 h -14.00048 z"
       style="fill:none;stroke:#0000ff;stroke-width:0.265;stroke-opacity:1;stroke-miterlimit:4;stroke-dasharray:none"
       id="path2667" />
    <path
       d="m 124.58944,43.82445 h 13.99794 V 29.82397 h -13.99794 z"
       style="fill:none;stroke:#0000ff;stroke-width:0.265;stroke-opacity:1;stroke-miterlimit:4;stroke-dasharray:none"
       id="path2669" />
    <path
       d="m 148.17503,101.41688 a 1.1,1.1 0 1 0 -2.19999,0 1.1,1.1 0 1 0 2.19999,0 z"
       style="fill:none;stroke:#0000ff;stroke-width:0.265;stroke-opacity:1;stroke-miterlimit:4;stroke-dasharray:none"
       id="path2671" />
    <path
       d="m 47.375031,86.61688 a 1.1,1.1 0 1 0 -2.2,0 1.1,1.1 0 1 0 2.2,0 z"
       style="fill:none;stroke:#0000ff;stroke-width:0.265;stroke-opacity:1;stroke-miterlimit:4;stroke-dasharray:none"
       id="path2673" />
    <path
       d="m 123.57504,84.21688 a 1.1,1.1 0 1 0 -2.2,0 1.1,1.1 0 1 0 2.2,0 z"
       style="fill:none;stroke:#0000ff;stroke-width:0.265;stroke-opacity:1;stroke-miterlimit:4;stroke-dasharray:none"
       id="path2675" />
    <path
       d="m 47.375031,48.41688 a 1.1,1.1 0 1 0 -2.2,0 1.1,1.1 0 1 0 2.2,0 z"
       style="fill:none;stroke:#0000ff;stroke-width:0.265;stroke-opacity:1;stroke-miterlimit:4;stroke-dasharray:none"
       id="path2677" />
    <path
       d="m 123.57504,46.21688 a 1.1,1.1 0 1 0 -2.2,0 1.1,1.1 0 1 0 2.2,0 z"
       style="fill:none;stroke:#0000ff;stroke-width:0.265;stroke-opacity:1;stroke-miterlimit:4;stroke-dasharray:none"
       id="path2679" />
    <path
       d="m 14.209411,94.27213 a 2.6000007,2.6000007 0 1 0 -5.2000014,0 2.6000007,2.6000007 0 1 0 5.2000014,0 z"
       style="fill:none;stroke:#0000ff;stroke-width:0.265;stroke-opacity:1;stroke-miterlimit:4;stroke-dasharray:none"
       id="path2681" />
    <path
       d="m 14.227561,43.27214 a 2.6000007,2.6000007 0 1 0 -5.2000014,0 2.6000007,2.6000007 0 1 0 5.2000014,0 z"
       style="fill:none;stroke:#0000ff;stroke-width:0.265;stroke-opacity:1;stroke-miterlimit:4;stroke-dasharray:none"
       id="path2683" />
    <path
       d="m 168.344,130.54751 a 2.6000009,2.6000009 0 1 0 -5.2,0 2.6000009,2.6000009 0 1 0 5.2,0 z"
       style="fill:none;stroke:#0000ff;stroke-width:0.265;stroke-opacity:1;stroke-miterlimit:4;stroke-dasharray:none"
       id="path2685" />
    <path
       d="m 138.77347,18.942411 a 2.05,2.05 0 1 0 -4.1,0 2.05,2.05 0 1 0 4.1,0 z"
       style="fill:none;stroke:#0000ff;stroke-width:0.265;stroke-opacity:1;stroke-miterlimit:4;stroke-dasharray:none"
       id="path2687" />
    <path
       d="m 140.69042,14.942411 a 3.0000001,3.0000001 0 0 1 2.99999,3 v 4.999919 h -2.66878 v 1 l -10e-6,1.2369 v 56.81009 a 1.075305,1.075305 0 0 0 1.07531,1.07531 h 20.51854 l 2.15412,5.2e-4 0.001,-4.92269 h 0.0269 a 7.9999999,7.9999999 0 0 1 8,8 v 15.75418 a 14.32429,14.32429 0 0 1 -1.3722,6.1401 l -5.44576,9.76717 a 5.7619207,5.7619207 0 0 0 2.56914,7.4396 5.9999999,5.9999999 0 1 1 -5.73025,10.54254 6.0594698,6.0594698 0 0 0 -7.74829,1.58427 l -0.0288,0.0516 a 9.7317883,9.7317883 0 0 1 -12.04845,4.17571 l -32.32845,-12.94082 a 1.7247859,1.7247859 0 0 0 -0.64098,-0.12354 H 94.967201 a 5.4920377,5.4920377 0 0 0 -1.4701,0.20037 l -15.55585,4.3212 a 19.960772,19.960772 0 0 1 -5.34367,0.72852 h -16.12099 a 9.6919555,9.6919555 0 0 1 -8.27485,-4.65166 l -6.00687,-9.86573 a 2,2 0 0 0 -1.54789,-0.95346 l -14.08442,-1.1331 a 9.7394337,9.7394337 0 0 1 -8.95784,-9.71151 l 7.9e-4,-1.90456 a 6.0526443,6.0526443 0 0 0 -6.000251,-5.29121 6.0000003,6.0000003 0 0 1 0.004,-12 6.0526443,6.0526443 0 0 0 6.004021,-5.28695 l 0.0101,-28.438429 a 6.0526443,6.0526443 0 0 0 -5.998131,-5.274611 6.0000009,6.0000009 0 0 1 0.004,-12 6.0526443,6.0526443 0 0 0 6.001871,-5.27035 l 5.3e-4,-1.16576 a 9.7289694,9.7289694 0 0 1 8.17195,-9.6004 l 35.9996,-5.835809 a 35.496476,35.496476 0 0 1 5.68005,-0.45741 z"
       style="fill:none;stroke:#0000ff;stroke-width:0.265;stroke-opacity:1;stroke-miterlimit:4;stroke-dasharray:none"
       id="path2689" />
    <path
       d="m 150.42732,20.420617 a 3,3 0 0 1 2.99999,-3.000022 h 0.4978 a 9.6278356,9.6278356 0 0 1 9.60946,9.033792 6.0526445,6.0526445 0 0 0 6.00025,5.291243 6.0000009,6.0000009 0 0 1 -0.004,11.999983 6.0526445,6.0526445 0 0 0 -5.99599,5.226367 v 13.648655 a 7.9999997,7.9999997 0 0 1 -7.99997,8.000012 h -0.0247 l 0.0102,-43.272004 a 1.9964022,1.9964022 0 0 0 -1.9952,-1.928107 h -3.09781 z"
       style="fill:none;stroke:#0000ff;stroke-width:0.265;stroke-opacity:1;stroke-miterlimit:4;stroke-dasharray:none"
       id="path2526-7-1" />
    <path
       d="m 159.79068,22.911546 a 2.05001,2.05001 0 1 0 -4.10002,0 2.05001,2.05001 0 1 0 4.10002,0 z"
       style="fill:none;stroke:#0000ff;stroke-width:0.265;stroke-opacity:1;stroke-miterlimit:4;stroke-dasharray:none"
       id="path2528-8-0" />
    <path
       d="m 161.58455,65.486284 a 2.0500053,2.0500053 0 1 0 -4.09998,0 2.0500053,2.0500053 0 1 0 4.09998,0 z"
       style="fill:none;stroke:#0000ff;stroke-width:0.265;stroke-opacity:1;stroke-miterlimit:4;stroke-dasharray:none"
       id="path2530-2-0" />
    <path
       d="m 172.13268,37.745604 a 2.6000002,2.6000002 0 1 0 -5.19998,0 2.6000002,2.6000002 0 1 0 5.19998,0 z"
       style="fill:none;stroke:#0000ff;stroke-width:0.265;stroke-opacity:1;stroke-miterlimit:4;stroke-dasharray:none"
       id="path2532-3-5" />
    <path
       d="m 143.72701,97.714917 h 16.69606 V 84.518842 h -16.69606 z"
       style="fill:none;stroke:#0000ff;stroke-width:0.303926;stroke-miterlimit:4;stroke-dasharray:none;stroke-opacity:1"
       id="path2605-0" />
  </g>
</svg>
