  0
SECTION
  2
HEADER
  9
$ACADVER
  1
AC1014
  9
$HANDSEED
  5
FFFF
  9
$MEASUREMENT
 70
     1
  0
ENDSEC
  0
SECTION
  2
TABLES
  0
TABLE
  2
VPORT
  5
8
330
0
100
AcDbSymbolTable
 70
     4
  0
VPORT
  5
2E
330
8
100
AcDbSymbolTableRecord
100
AcDbViewportTableRecord
  2
*ACTIVE
 70
     0
 10
0.0
 20
0.0
 11
1.0
 21
1.0
 12
210.0
 22
148.5
 13
0.0
 23
0.0
 14
10.0
 24
10.0
 15
10.0
 25
10.0
 16
0.0
 26
0.0
 36
1.0
 17
0.0
 27
0.0
 37
0.0
 40
341.0
 41
1.24
 42
50.0
 43
0.0
 44
0.0
 50
0.0
 51
0.0
 71
     0
 72
   100
 73
     1
 74
     3
 75
     0
 76
     0
 77
     0
 78
     0
  0
ENDTAB
  0
TABLE
  2
LTYPE
  5
5
330
0
100
AcDbSymbolTable
 70
     1
  0
LTYPE
  5
14
330
5
100
AcDbSymbolTableRecord
100
AcDbLinetypeTableRecord
  2
BYBLOCK
 70
     0
  3

 72
    65
 73
     0
 40
0.0
  0
LTYPE
  5
15
330
5
100
AcDbSymbolTableRecord
100
AcDbLinetypeTableRecord
  2
BYLAYER
 70
     0
  3

 72
    65
 73
     0
 40
0.0
  0
LTYPE
  5
16
330
5
100
AcDbSymbolTableRecord
100
AcDbLinetypeTableRecord
  2
CONTINUOUS
 70
     0
  3
Solid line
 72
    65
 73
     0
 40
0.0
  0
ENDTAB
  0
TABLE
  2
LAYER
  5
2
100
AcDbSymbolTable
 70
2
  0
LAYER
  5
50
100
AcDbSymbolTableRecord
100
AcDbLayerTableRecord
  2
0
 70
0
  6
CONTINUOUS
  0
LAYER
  5
51
100
AcDbSymbolTableRecord
100
AcDbLayerTableRecord
  2
Ebene_1
 70
0
  6
CONTINUOUS
  0
ENDTAB
  0
TABLE
  2
STYLE
  5
3
330
0
100
AcDbSymbolTable
 70
     1
  0
STYLE
  5
11
330
3
100
AcDbSymbolTableRecord
100
AcDbTextStyleTableRecord
  2
STANDARD
 70
     0
 40
0.0
 41
1.0
 50
0.0
 71
     0
 42
2.5
  3
txt
  4

  0
ENDTAB
  0
TABLE
  2
VIEW
  5
6
330
0
100
AcDbSymbolTable
 70
     0
  0
ENDTAB
  0
TABLE
  2
UCS
  5
7
330
0
100
AcDbSymbolTable
 70
     0
  0
ENDTAB
  0
TABLE
  2
APPID
  5
9
330
0
100
AcDbSymbolTable
 70
     2
  0
APPID
  5
12
330
9
100
AcDbSymbolTableRecord
100
AcDbRegAppTableRecord
  2
ACAD
 70
     0
  0
ENDTAB
  0
TABLE
  2
DIMSTYLE
  5
A
330
0
100
AcDbSymbolTable
 70
     1
  0
DIMSTYLE
105
27
330
A
100
AcDbSymbolTableRecord
100
AcDbDimStyleTableRecord
  2
ISO-25
 70
     0
  3

  4

  5

  6

  7

 40
1.0
 41
2.5
 42
0.625
 43
3.75
 44
1.25
 45
0.0
 46
0.0
 47
0.0
 48
0.0
140
2.5
141
2.5
142
0.0
143
0.03937007874016
144
1.0
145
0.0
146
1.0
147
0.625
 71
     0
 72
     0
 73
     0
 74
     0
 75
     0
 76
     0
 77
     1
 78
     8
170
     0
171
     3
172
     1
173
     0
174
     0
175
     0
176
     0
177
     0
178
     0
270
     2
271
     2
272
     2
273
     2
274
     3
340
11
275
     0
280
     0
281
     0
282
     0
283
     0
284
     8
285
     0
286
     0
287
     3
288
     0
  0
ENDTAB
  0
TABLE
  2
BLOCK_RECORD
  5
1
330
0
100
AcDbSymbolTable
 70
     1
  0
BLOCK_RECORD
  5
1F
330
1
100
AcDbSymbolTableRecord
100
AcDbBlockTableRecord
  2
*MODEL_SPACE
  0
BLOCK_RECORD
  5
1B
330
1
100
AcDbSymbolTableRecord
100
AcDbBlockTableRecord
  2
*PAPER_SPACE
  0
ENDTAB
  0
ENDSEC
  0
SECTION
  2
BLOCKS
  0
BLOCK
  5
20
330
1F
100
AcDbEntity
  8
0
100
AcDbBlockBegin
  2
*MODEL_SPACE
 70
     0
 10
0.0
 20
0.0
 30
0.0
  3
*MODEL_SPACE
  1

  0
ENDBLK
  5
21
330
1F
100
AcDbEntity
  8
0
100
AcDbBlockEnd
  0
BLOCK
  5
1C
330
1B
100
AcDbEntity
 67
     1
  8
0
100
AcDbBlockBegin
  2
*PAPER_SPACE
  1

  0
ENDBLK
  5
1D
330
1B
100
AcDbEntity
 67
     1
  8
0
100
AcDbBlockEnd
  0
ENDSEC
  0
SECTION
  2
ENTITIES
  0
SPLINE
  5
100
100
AcDbEntity
  8
Ebene_1
 62
5
100
AcDbSpline
 70
8
 71
3
 72
8
 73
4
 74
0
 40
0
 40
0
 40
0
 40
0
 40
1
 40
1
 40
1
 40
1
 10
138.894776
 20
44.194816
 30
0.0
 10
138.725067
 20
44.538334
 30
0.0
 10
138.742188
 20
44.944668
 30
0.0
 10
138.940193
 20
45.272692
 30
0.0
  0
SPLINE
  5
101
100
AcDbEntity
  8
Ebene_1
 62
5
100
AcDbSpline
 70
8
 71
3
 72
8
 73
4
 74
0
 40
0
 40
0
 40
0
 40
0
 40
1
 40
1
 40
1
 40
1
 10
138.940193
 20
45.272692
 30
0.0
 10
139.138198
 20
45.600717
 30
0.0
 10
139.489765
 20
45.805169
 30
0.0
 10
139.872790
 20
45.815041
 30
0.0
  0
SPLINE
  5
102
100
AcDbEntity
  8
Ebene_1
 62
5
100
AcDbSpline
 70
8
 71
3
 72
8
 73
4
 74
0
 40
0
 40
0
 40
0
 40
0
 40
1
 40
1
 40
1
 40
1
 10
139.872790
 20
45.815041
 30
0.0
 10
144.475323
 20
45.933658
 30
0.0
 10
148.463718
 20
49.036805
 30
0.0
 10
149.710147
 20
53.468936
 30
0.0
  0
SPLINE
  5
103
100
AcDbEntity
  8
Ebene_1
 62
5
100
AcDbSpline
 70
8
 71
3
 72
8
 73
4
 74
0
 40
0
 40
0
 40
0
 40
0
 40
1
 40
1
 40
1
 40
1
 10
149.710147
 20
53.468936
 30
0.0
 10
150.956576
 20
57.901068
 30
0.0
 10
149.170259
 20
62.628211
 30
0.0
 10
145.304205
 20
65.128412
 30
0.0
  0
SPLINE
  5
104
100
AcDbEntity
  8
Ebene_1
 62
5
100
AcDbSpline
 70
8
 71
3
 72
8
 73
4
 74
0
 40
0
 40
0
 40
0
 40
0
 40
1
 40
1
 40
1
 40
1
 10
145.304205
 20
65.128412
 30
0.0
 10
141.438151
 20
67.628613
 30
0.0
 10
136.394274
 20
67.318598
 30
0.0
 10
132.863506
 20
64.363763
 30
0.0
  0
LWPOLYLINE
  5
105
100
AcDbEntity
  8
Ebene_1
 62
5
100
AcDbPolyline
 90
4
 70
0
 10
137.272363
 20
17.997928
 30
0.0
 10
146.322564
 20
33.671594
 30
0.0
 10
149.022360
 20
38.348227
 30
0.0
 10
138.894776
 20
44.194816
 30
0.0
  0
SPLINE
  5
106
100
AcDbEntity
  8
Ebene_1
 62
5
100
AcDbSpline
 70
8
 71
3
 72
8
 73
4
 74
0
 40
0
 40
0
 40
0
 40
0
 40
1
 40
1
 40
1
 40
1
 10
157.349873
 20
84.420246
 30
0.0
 10
157.350136
 20
84.786618
 30
0.0
 10
157.154830
 20
85.125272
 30
0.0
 10
156.837587
 20
85.308534
 30
0.0
  0
SPLINE
  5
107
100
AcDbEntity
  8
Ebene_1
 62
5
100
AcDbSpline
 70
8
 71
3
 72
8
 73
4
 74
0
 40
0
 40
0
 40
0
 40
0
 40
1
 40
1
 40
1
 40
1
 10
156.837587
 20
85.308534
 30
0.0
 10
156.520343
 20
85.491796
 30
0.0
 10
156.129407
 20
85.491796
 30
0.0
 10
155.812164
 20
85.308534
 30
0.0
  0
SPLINE
  5
108
100
AcDbEntity
  8
Ebene_1
 62
5
100
AcDbSpline
 70
8
 71
3
 72
8
 73
4
 74
0
 40
0
 40
0
 40
0
 40
0
 40
1
 40
1
 40
1
 40
1
 10
155.812164
 20
85.308534
 30
0.0
 10
155.494921
 20
85.125272
 30
0.0
 10
155.299615
 20
84.786618
 30
0.0
 10
155.299878
 20
84.420246
 30
0.0
  0
SPLINE
  5
109
100
AcDbEntity
  8
Ebene_1
 62
5
100
AcDbSpline
 70
8
 71
3
 72
8
 73
4
 74
0
 40
0
 40
0
 40
0
 40
0
 40
1
 40
1
 40
1
 40
1
 10
155.299878
 20
84.420246
 30
0.0
 10
155.299615
 20
84.053875
 30
0.0
 10
155.494921
 20
83.715220
 30
0.0
 10
155.812164
 20
83.531959
 30
0.0
  0
SPLINE
  5
10a
100
AcDbEntity
  8
Ebene_1
 62
5
100
AcDbSpline
 70
8
 71
3
 72
8
 73
4
 74
0
 40
0
 40
0
 40
0
 40
0
 40
1
 40
1
 40
1
 40
1
 10
155.812164
 20
83.531959
 30
0.0
 10
156.129407
 20
83.348697
 30
0.0
 10
156.520343
 20
83.348697
 30
0.0
 10
156.837587
 20
83.531959
 30
0.0
  0
SPLINE
  5
10b
100
AcDbEntity
  8
Ebene_1
 62
5
100
AcDbSpline
 70
8
 71
3
 72
8
 73
4
 74
0
 40
0
 40
0
 40
0
 40
0
 40
1
 40
1
 40
1
 40
1
 10
156.837587
 20
83.531959
 30
0.0
 10
157.154830
 20
83.715220
 30
0.0
 10
157.350136
 20
84.053875
 30
0.0
 10
157.349873
 20
84.420246
 30
0.0
  0
LWPOLYLINE
  5
10c
100
AcDbEntity
  8
Ebene_1
 62
5
100
AcDbPolyline
 90
32
 70
0
 10
132.863506
 20
64.363763
 30
0.0
 10
128.814650
 20
64.363763
 30
0.0
 10
128.814650
 20
79.477471
 30
0.0
 10
128.823460
 20
116.485931
 30
0.0
 10
128.815893
 20
116.485931
 30
0.0
 10
128.815893
 20
120.304282
 30
0.0
 10
110.517004
 20
120.304282
 30
0.0
 10
109.615745
 20
122.704576
 30
0.0
 10
91.398019
 20
122.704576
 30
0.0
 10
90.397711
 20
124.093987
 30
0.0
 10
71.613715
 20
124.093987
 30
0.0
 10
70.712459
 20
122.704610
 30
0.0
 10
52.436644
 20
122.704610
 30
0.0
 10
51.436325
 20
117.904022
 30
0.0
 10
33.499046
 20
117.904022
 30
0.0
 10
32.597788
 20
116.402883
 30
0.0
 10
14.215674
 20
116.402883
 30
0.0
 10
14.166772
 20
40.203394
 30
0.0
 10
33.107368
 20
40.203394
 30
0.0
 10
34.059427
 20
41.704532
 30
0.0
 10
43.016524
 20
41.704532
 30
0.0
 10
43.016524
 20
23.304821
 30
0.0
 10
62.051305
 20
23.304821
 30
0.0
 10
63.049084
 20
27.452631
 30
0.0
 10
99.690426
 20
27.452631
 30
0.0
 10
99.690426
 20
27.452631
 30
0.0
 10
100.603795
 20
27.437285
 30
0.0
 10
118.359377
 20
22.678210
 30
0.0
 10
134.573305
 20
13.321429
 30
0.0
 10
137.272326
 20
17.998404
 30
0.0
 10
137.532162
 20
17.848465
 30
0.0
 10
137.272363
 20
17.997928
 30
0.0
  0
SPLINE
  5
10d
100
AcDbEntity
  8
Ebene_1
 62
5
100
AcDbSpline
 70
8
 71
3
 72
8
 73
4
 74
0
 40
0
 40
0
 40
0
 40
0
 40
1
 40
1
 40
1
 40
1
 10
155.555970
 20
126.994876
 30
0.0
 10
155.556234
 20
127.361248
 30
0.0
 10
155.360928
 20
127.699902
 30
0.0
 10
155.043684
 20
127.883164
 30
0.0
  0
SPLINE
  5
10e
100
AcDbEntity
  8
Ebene_1
 62
5
100
AcDbSpline
 70
8
 71
3
 72
8
 73
4
 74
0
 40
0
 40
0
 40
0
 40
0
 40
1
 40
1
 40
1
 40
1
 10
155.043684
 20
127.883164
 30
0.0
 10
154.726441
 20
128.066426
 30
0.0
 10
154.335505
 20
128.066426
 30
0.0
 10
154.018262
 20
127.883164
 30
0.0
  0
SPLINE
  5
10f
100
AcDbEntity
  8
Ebene_1
 62
5
100
AcDbSpline
 70
8
 71
3
 72
8
 73
4
 74
0
 40
0
 40
0
 40
0
 40
0
 40
1
 40
1
 40
1
 40
1
 10
154.018262
 20
127.883164
 30
0.0
 10
153.701018
 20
127.699902
 30
0.0
 10
153.505713
 20
127.361248
 30
0.0
 10
153.505976
 20
126.994876
 30
0.0
  0
SPLINE
  5
110
100
AcDbEntity
  8
Ebene_1
 62
5
100
AcDbSpline
 70
8
 71
3
 72
8
 73
4
 74
0
 40
0
 40
0
 40
0
 40
0
 40
1
 40
1
 40
1
 40
1
 10
153.505976
 20
126.994876
 30
0.0
 10
153.505713
 20
126.628505
 30
0.0
 10
153.701018
 20
126.289851
 30
0.0
 10
154.018262
 20
126.106589
 30
0.0
  0
SPLINE
  5
111
100
AcDbEntity
  8
Ebene_1
 62
5
100
AcDbSpline
 70
8
 71
3
 72
8
 73
4
 74
0
 40
0
 40
0
 40
0
 40
0
 40
1
 40
1
 40
1
 40
1
 10
154.018262
 20
126.106589
 30
0.0
 10
154.335505
 20
125.923327
 30
0.0
 10
154.726441
 20
125.923327
 30
0.0
 10
155.043684
 20
126.106589
 30
0.0
  0
SPLINE
  5
112
100
AcDbEntity
  8
Ebene_1
 62
5
100
AcDbSpline
 70
8
 71
3
 72
8
 73
4
 74
0
 40
0
 40
0
 40
0
 40
0
 40
1
 40
1
 40
1
 40
1
 10
155.043684
 20
126.106589
 30
0.0
 10
155.360928
 20
126.289851
 30
0.0
 10
155.556234
 20
126.628505
 30
0.0
 10
155.555970
 20
126.994876
 30
0.0
  0
LWPOLYLINE
  5
113
100
AcDbEntity
  8
Ebene_1
 62
5
100
AcDbPolyline
 90
1
 70
1
 10
157.349873
 20
84.420246
 30
0.0
  0
SPLINE
  5
114
100
AcDbEntity
  8
Ebene_1
 62
5
100
AcDbSpline
 70
8
 71
3
 72
8
 73
4
 74
0
 40
0
 40
0
 40
0
 40
0
 40
1
 40
1
 40
1
 40
1
 10
137.027262
 20
9.445981
 30
0.0
 10
137.027262
 20
9.812177
 30
0.0
 10
136.831898
 20
10.150557
 30
0.0
 10
136.514762
 20
10.333655
 30
0.0
  0
SPLINE
  5
115
100
AcDbEntity
  8
Ebene_1
 62
5
100
AcDbSpline
 70
8
 71
3
 72
8
 73
4
 74
0
 40
0
 40
0
 40
0
 40
0
 40
1
 40
1
 40
1
 40
1
 10
136.514762
 20
10.333655
 30
0.0
 10
136.197627
 20
10.516754
 30
0.0
 10
135.806899
 20
10.516754
 30
0.0
 10
135.489764
 20
10.333655
 30
0.0
  0
SPLINE
  5
116
100
AcDbEntity
  8
Ebene_1
 62
5
100
AcDbSpline
 70
8
 71
3
 72
8
 73
4
 74
0
 40
0
 40
0
 40
0
 40
0
 40
1
 40
1
 40
1
 40
1
 10
135.489764
 20
10.333655
 30
0.0
 10
135.172628
 20
10.150557
 30
0.0
 10
134.977264
 20
9.812177
 30
0.0
 10
134.977264
 20
9.445981
 30
0.0
  0
SPLINE
  5
117
100
AcDbEntity
  8
Ebene_1
 62
5
100
AcDbSpline
 70
8
 71
3
 72
8
 73
4
 74
0
 40
0
 40
0
 40
0
 40
0
 40
1
 40
1
 40
1
 40
1
 10
134.977264
 20
9.445981
 30
0.0
 10
134.977264
 20
9.079784
 30
0.0
 10
135.172628
 20
8.741404
 30
0.0
 10
135.489764
 20
8.558306
 30
0.0
  0
SPLINE
  5
118
100
AcDbEntity
  8
Ebene_1
 62
5
100
AcDbSpline
 70
8
 71
3
 72
8
 73
4
 74
0
 40
0
 40
0
 40
0
 40
0
 40
1
 40
1
 40
1
 40
1
 10
135.489764
 20
8.558306
 30
0.0
 10
135.806899
 20
8.375207
 30
0.0
 10
136.197627
 20
8.375207
 30
0.0
 10
136.514762
 20
8.558306
 30
0.0
  0
SPLINE
  5
119
100
AcDbEntity
  8
Ebene_1
 62
5
100
AcDbSpline
 70
8
 71
3
 72
8
 73
4
 74
0
 40
0
 40
0
 40
0
 40
0
 40
1
 40
1
 40
1
 40
1
 10
136.514762
 20
8.558306
 30
0.0
 10
136.831898
 20
8.741404
 30
0.0
 10
137.027262
 20
9.079784
 30
0.0
 10
137.027262
 20
9.445981
 30
0.0
  0
LWPOLYLINE
  5
11a
100
AcDbEntity
  8
Ebene_1
 62
5
100
AcDbPolyline
 90
1
 70
1
 10
155.555970
 20
126.994876
 30
0.0
  0
SPLINE
  5
11b
100
AcDbEntity
  8
Ebene_1
 62
5
100
AcDbSpline
 70
8
 71
3
 72
8
 73
4
 74
0
 40
0
 40
0
 40
0
 40
0
 40
1
 40
1
 40
1
 40
1
 10
11.678159
 20
36.065458
 30
0.0
 10
11.678345
 20
36.431778
 30
0.0
 10
11.483022
 20
36.770352
 30
0.0
 10
11.165811
 20
36.953566
 30
0.0
  0
SPLINE
  5
11c
100
AcDbEntity
  8
Ebene_1
 62
5
100
AcDbSpline
 70
8
 71
3
 72
8
 73
4
 74
0
 40
0
 40
0
 40
0
 40
0
 40
1
 40
1
 40
1
 40
1
 10
11.165811
 20
36.953566
 30
0.0
 10
10.848599
 20
37.136780
 30
0.0
 10
10.457724
 20
37.136780
 30
0.0
 10
10.140512
 20
36.953566
 30
0.0
  0
SPLINE
  5
11d
100
AcDbEntity
  8
Ebene_1
 62
5
100
AcDbSpline
 70
8
 71
3
 72
8
 73
4
 74
0
 40
0
 40
0
 40
0
 40
0
 40
1
 40
1
 40
1
 40
1
 10
10.140512
 20
36.953566
 30
0.0
 10
9.823301
 20
36.770352
 30
0.0
 10
9.627978
 20
36.431778
 30
0.0
 10
9.628164
 20
36.065458
 30
0.0
  0
SPLINE
  5
11e
100
AcDbEntity
  8
Ebene_1
 62
5
100
AcDbSpline
 70
8
 71
3
 72
8
 73
4
 74
0
 40
0
 40
0
 40
0
 40
0
 40
1
 40
1
 40
1
 40
1
 10
9.628164
 20
36.065458
 30
0.0
 10
9.627978
 20
35.699138
 30
0.0
 10
9.823301
 20
35.360564
 30
0.0
 10
10.140512
 20
35.177350
 30
0.0
  0
SPLINE
  5
11f
100
AcDbEntity
  8
Ebene_1
 62
5
100
AcDbSpline
 70
8
 71
3
 72
8
 73
4
 74
0
 40
0
 40
0
 40
0
 40
0
 40
1
 40
1
 40
1
 40
1
 10
10.140512
 20
35.177350
 30
0.0
 10
10.457724
 20
34.994136
 30
0.0
 10
10.848599
 20
34.994136
 30
0.0
 10
11.165811
 20
35.177350
 30
0.0
  0
SPLINE
  5
120
100
AcDbEntity
  8
Ebene_1
 62
5
100
AcDbSpline
 70
8
 71
3
 72
8
 73
4
 74
0
 40
0
 40
0
 40
0
 40
0
 40
1
 40
1
 40
1
 40
1
 10
11.165811
 20
35.177350
 30
0.0
 10
11.483022
 20
35.360564
 30
0.0
 10
11.678345
 20
35.699138
 30
0.0
 10
11.678159
 20
36.065458
 30
0.0
  0
LWPOLYLINE
  5
121
100
AcDbEntity
  8
Ebene_1
 62
5
100
AcDbPolyline
 90
1
 70
1
 10
137.027262
 20
9.445981
 30
0.0
  0
SPLINE
  5
122
100
AcDbEntity
  8
Ebene_1
 62
5
100
AcDbSpline
 70
8
 71
3
 72
8
 73
4
 74
0
 40
0
 40
0
 40
0
 40
0
 40
1
 40
1
 40
1
 40
1
 10
11.551020
 20
120.302469
 30
0.0
 10
11.551020
 20
120.668666
 30
0.0
 10
11.355657
 20
121.007045
 30
0.0
 10
11.038521
 20
121.190143
 30
0.0
  0
SPLINE
  5
123
100
AcDbEntity
  8
Ebene_1
 62
5
100
AcDbSpline
 70
8
 71
3
 72
8
 73
4
 74
0
 40
0
 40
0
 40
0
 40
0
 40
1
 40
1
 40
1
 40
1
 10
11.038521
 20
121.190143
 30
0.0
 10
10.721386
 20
121.373241
 30
0.0
 10
10.330659
 20
121.373241
 30
0.0
 10
10.013524
 20
121.190143
 30
0.0
  0
SPLINE
  5
124
100
AcDbEntity
  8
Ebene_1
 62
5
100
AcDbSpline
 70
8
 71
3
 72
8
 73
4
 74
0
 40
0
 40
0
 40
0
 40
0
 40
1
 40
1
 40
1
 40
1
 10
10.013524
 20
121.190143
 30
0.0
 10
9.696389
 20
121.007045
 30
0.0
 10
9.501025
 20
120.668666
 30
0.0
 10
9.501025
 20
120.302469
 30
0.0
  0
SPLINE
  5
125
100
AcDbEntity
  8
Ebene_1
 62
5
100
AcDbSpline
 70
8
 71
3
 72
8
 73
4
 74
0
 40
0
 40
0
 40
0
 40
0
 40
1
 40
1
 40
1
 40
1
 10
9.501025
 20
120.302469
 30
0.0
 10
9.501025
 20
119.936273
 30
0.0
 10
9.696389
 20
119.597894
 30
0.0
 10
10.013524
 20
119.414796
 30
0.0
  0
SPLINE
  5
126
100
AcDbEntity
  8
Ebene_1
 62
5
100
AcDbSpline
 70
8
 71
3
 72
8
 73
4
 74
0
 40
0
 40
0
 40
0
 40
0
 40
1
 40
1
 40
1
 40
1
 10
10.013524
 20
119.414796
 30
0.0
 10
10.330659
 20
119.231697
 30
0.0
 10
10.721386
 20
119.231697
 30
0.0
 10
11.038521
 20
119.414796
 30
0.0
  0
SPLINE
  5
127
100
AcDbEntity
  8
Ebene_1
 62
5
100
AcDbSpline
 70
8
 71
3
 72
8
 73
4
 74
0
 40
0
 40
0
 40
0
 40
0
 40
1
 40
1
 40
1
 40
1
 10
11.038521
 20
119.414796
 30
0.0
 10
11.355657
 20
119.597894
 30
0.0
 10
11.551020
 20
119.936273
 30
0.0
 10
11.551020
 20
120.302469
 30
0.0
  0
LWPOLYLINE
  5
128
100
AcDbEntity
  8
Ebene_1
 62
5
100
AcDbPolyline
 90
1
 70
1
 10
11.678159
 20
36.065458
 30
0.0
  0
SPLINE
  5
129
100
AcDbEntity
  8
Ebene_1
 62
5
100
AcDbSpline
 70
8
 71
3
 72
8
 73
4
 74
0
 40
0
 40
0
 40
0
 40
0
 40
1
 40
1
 40
1
 40
1
 10
125.275735
 20
128.485821
 30
0.0
 10
125.275998
 20
128.852193
 30
0.0
 10
125.080692
 20
129.190847
 30
0.0
 10
124.763449
 20
129.374109
 30
0.0
  0
SPLINE
  5
12a
100
AcDbEntity
  8
Ebene_1
 62
5
100
AcDbSpline
 70
8
 71
3
 72
8
 73
4
 74
0
 40
0
 40
0
 40
0
 40
0
 40
1
 40
1
 40
1
 40
1
 10
124.763449
 20
129.374109
 30
0.0
 10
124.446206
 20
129.557370
 30
0.0
 10
124.055270
 20
129.557370
 30
0.0
 10
123.738026
 20
129.374109
 30
0.0
  0
SPLINE
  5
12b
100
AcDbEntity
  8
Ebene_1
 62
5
100
AcDbSpline
 70
8
 71
3
 72
8
 73
4
 74
0
 40
0
 40
0
 40
0
 40
0
 40
1
 40
1
 40
1
 40
1
 10
123.738026
 20
129.374109
 30
0.0
 10
123.420783
 20
129.190847
 30
0.0
 10
123.225477
 20
128.852193
 30
0.0
 10
123.225740
 20
128.485821
 30
0.0
  0
SPLINE
  5
12c
100
AcDbEntity
  8
Ebene_1
 62
5
100
AcDbSpline
 70
8
 71
3
 72
8
 73
4
 74
0
 40
0
 40
0
 40
0
 40
0
 40
1
 40
1
 40
1
 40
1
 10
123.225740
 20
128.485821
 30
0.0
 10
123.225477
 20
128.119449
 30
0.0
 10
123.420783
 20
127.780795
 30
0.0
 10
123.738026
 20
127.597533
 30
0.0
  0
SPLINE
  5
12d
100
AcDbEntity
  8
Ebene_1
 62
5
100
AcDbSpline
 70
8
 71
3
 72
8
 73
4
 74
0
 40
0
 40
0
 40
0
 40
0
 40
1
 40
1
 40
1
 40
1
 10
123.738026
 20
127.597533
 30
0.0
 10
124.055270
 20
127.414272
 30
0.0
 10
124.446206
 20
127.414272
 30
0.0
 10
124.763449
 20
127.597533
 30
0.0
  0
SPLINE
  5
12e
100
AcDbEntity
  8
Ebene_1
 62
5
100
AcDbSpline
 70
8
 71
3
 72
8
 73
4
 74
0
 40
0
 40
0
 40
0
 40
0
 40
1
 40
1
 40
1
 40
1
 10
124.763449
 20
127.597533
 30
0.0
 10
125.080692
 20
127.780795
 30
0.0
 10
125.275998
 20
128.119449
 30
0.0
 10
125.275735
 20
128.485821
 30
0.0
  0
LWPOLYLINE
  5
12f
100
AcDbEntity
  8
Ebene_1
 62
5
100
AcDbPolyline
 90
1
 70
1
 10
11.551020
 20
120.302469
 30
0.0
  0
SPLINE
  5
130
100
AcDbEntity
  8
Ebene_1
 62
5
100
AcDbSpline
 70
8
 71
3
 72
8
 73
4
 74
0
 40
0
 40
0
 40
0
 40
0
 40
1
 40
1
 40
1
 40
1
 10
49.331200
 20
132.028403
 30
0.0
 10
51.209226
 20
132.332846
 30
0.0
 10
53.108689
 20
132.485808
 30
0.0
 10
55.011231
 20
132.485811
 30
0.0
  0
LWPOLYLINE
  5
131
100
AcDbEntity
  8
Ebene_1
 62
5
100
AcDbPolyline
 90
1
 70
1
 10
125.275735
 20
128.485821
 30
0.0
  0
SPLINE
  5
132
100
AcDbEntity
  8
Ebene_1
 62
5
100
AcDbSpline
 70
8
 71
3
 72
8
 73
4
 74
0
 40
0
 40
0
 40
0
 40
0
 40
1
 40
1
 40
1
 40
1
 10
150.715399
 20
132.485811
 30
0.0
 10
155.802014
 20
132.485811
 30
0.0
 10
160.011020
 20
128.528964
 30
0.0
 10
160.324867
 20
123.452040
 30
0.0
  0
LWPOLYLINE
  5
133
100
AcDbEntity
  8
Ebene_1
 62
5
100
AcDbPolyline
 90
2
 70
0
 10
55.011231
 20
132.485811
 30
0.0
 10
150.715399
 20
132.485811
 30
0.0
  0
SPLINE
  5
134
100
AcDbEntity
  8
Ebene_1
 62
5
100
AcDbSpline
 70
8
 71
3
 72
8
 73
4
 74
0
 40
0
 40
0
 40
0
 40
0
 40
1
 40
1
 40
1
 40
1
 10
160.324867
 20
112.311123
 30
0.0
 10
160.322357
 20
112.210958
 30
0.0
 10
160.322357
 20
112.110746
 30
0.0
 10
160.324867
 20
112.010581
 30
0.0
  0
LWPOLYLINE
  5
135
100
AcDbEntity
  8
Ebene_1
 62
5
100
AcDbPolyline
 90
2
 70
0
 10
160.324867
 20
123.452040
 30
0.0
 10
160.324867
 20
112.311123
 30
0.0
  0
SPLINE
  5
136
100
AcDbEntity
  8
Ebene_1
 62
5
100
AcDbSpline
 70
8
 71
3
 72
8
 73
4
 74
0
 40
0
 40
0
 40
0
 40
0
 40
1
 40
1
 40
1
 40
1
 10
160.324867
 20
45.531816
 30
0.0
 10
160.328150
 20
43.408720
 30
0.0
 10
159.859444
 20
41.311442
 30
0.0
 10
158.952662
 20
39.391731
 30
0.0
  0
LWPOLYLINE
  5
137
100
AcDbEntity
  8
Ebene_1
 62
5
100
AcDbPolyline
 90
2
 70
0
 10
160.324867
 20
112.010581
 30
0.0
 10
160.324867
 20
45.531816
 30
0.0
  0
SPLINE
  5
138
100
AcDbEntity
  8
Ebene_1
 62
5
100
AcDbSpline
 70
8
 71
3
 72
8
 73
4
 74
0
 40
0
 40
0
 40
0
 40
0
 40
1
 40
1
 40
1
 40
1
 10
142.568790
 20
10.006631
 30
0.0
 10
140.150911
 20
5.810961
 30
0.0
 10
135.016060
 20
4.031344
 30
0.0
 10
130.520367
 20
5.830935
 30
0.0
  0
LWPOLYLINE
  5
139
100
AcDbEntity
  8
Ebene_1
 62
5
100
AcDbPolyline
 90
2
 70
0
 10
158.952662
 20
39.391731
 30
0.0
 10
142.568790
 20
10.006631
 30
0.0
  0
SPLINE
  5
13a
100
AcDbEntity
  8
Ebene_1
 62
5
100
AcDbSpline
 70
8
 71
3
 72
8
 73
4
 74
0
 40
0
 40
0
 40
0
 40
0
 40
1
 40
1
 40
1
 40
1
 10
98.192007
 20
18.771726
 30
0.0
 10
97.988157
 20
18.853329
 30
0.0
 10
97.770601
 20
18.895258
 30
0.0
 10
97.551024
 20
18.895260
 30
0.0
  0
LWPOLYLINE
  5
13b
100
AcDbEntity
  8
Ebene_1
 62
5
100
AcDbPolyline
 90
2
 70
0
 10
130.520367
 20
5.830935
 30
0.0
 10
98.192007
 20
18.771726
 30
0.0
  0
SPLINE
  5
13c
100
AcDbEntity
  8
Ebene_1
 62
5
100
AcDbSpline
 70
8
 71
3
 72
8
 73
4
 74
0
 40
0
 40
0
 40
0
 40
0
 40
1
 40
1
 40
1
 40
1
 10
82.494701
 20
18.895260
 30
0.0
 10
81.997861
 20
18.895275
 30
0.0
 10
81.503316
 20
18.827870
 30
0.0
 10
81.024603
 20
18.694891
 30
0.0
  0
LWPOLYLINE
  5
13d
100
AcDbEntity
  8
Ebene_1
 62
5
100
AcDbPolyline
 90
2
 70
0
 10
97.551024
 20
18.895260
 30
0.0
 10
82.494701
 20
18.895260
 30
0.0
  0
SPLINE
  5
13e
100
AcDbEntity
  8
Ebene_1
 62
5
100
AcDbSpline
 70
8
 71
3
 72
8
 73
4
 74
0
 40
0
 40
0
 40
0
 40
0
 40
1
 40
1
 40
1
 40
1
 10
65.468787
 20
14.373701
 30
0.0
 10
63.728727
 20
13.890238
 30
0.0
 10
61.931103
 20
13.645159
 30
0.0
 10
60.125128
 20
13.645172
 30
0.0
  0
LWPOLYLINE
  5
13f
100
AcDbEntity
  8
Ebene_1
 62
5
100
AcDbPolyline
 90
2
 70
0
 10
81.024603
 20
18.694891
 30
0.0
 10
65.468787
 20
14.373701
 30
0.0
  0
SPLINE
  5
140
100
AcDbEntity
  8
Ebene_1
 62
5
100
AcDbSpline
 70
8
 71
3
 72
8
 73
4
 74
0
 40
0
 40
0
 40
0
 40
0
 40
1
 40
1
 40
1
 40
1
 10
44.004182
 20
13.645172
 30
0.0
 10
40.623388
 20
13.646361
 30
0.0
 10
37.487534
 20
15.409166
 30
0.0
 10
35.729356
 20
18.296827
 30
0.0
  0
LWPOLYLINE
  5
141
100
AcDbEntity
  8
Ebene_1
 62
5
100
AcDbPolyline
 90
2
 70
0
 10
60.125128
 20
13.645172
 30
0.0
 10
44.004182
 20
13.645172
 30
0.0
  0
SPLINE
  5
142
100
AcDbEntity
  8
Ebene_1
 62
5
100
AcDbSpline
 70
8
 71
3
 72
8
 73
4
 74
0
 40
0
 40
0
 40
0
 40
0
 40
1
 40
1
 40
1
 40
1
 10
29.722503
 20
28.162532
 30
0.0
 10
29.389146
 20
28.710036
 30
0.0
 10
28.813559
 20
29.064581
 30
0.0
 10
28.174618
 20
29.115983
 30
0.0
  0
LWPOLYLINE
  5
143
100
AcDbEntity
  8
Ebene_1
 62
5
100
AcDbPolyline
 90
2
 70
0
 10
35.729356
 20
18.296827
 30
0.0
 10
29.722503
 20
28.162532
 30
0.0
  0
SPLINE
  5
144
100
AcDbEntity
  8
Ebene_1
 62
5
100
AcDbSpline
 70
8
 71
3
 72
8
 73
4
 74
0
 40
0
 40
0
 40
0
 40
0
 40
1
 40
1
 40
1
 40
1
 10
14.090230
 20
30.249084
 30
0.0
 10
9.029376
 20
30.656472
 30
0.0
 10
5.130490
 20
34.883327
 30
0.0
 10
5.132294
 20
39.960552
 30
0.0
  0
LWPOLYLINE
  5
145
100
AcDbEntity
  8
Ebene_1
 62
5
100
AcDbPolyline
 90
2
 70
0
 10
28.174618
 20
29.115983
 30
0.0
 10
14.090230
 20
30.249084
 30
0.0
  0
SPLINE
  5
146
100
AcDbEntity
  8
Ebene_1
 62
5
100
AcDbSpline
 70
8
 71
3
 72
8
 73
4
 74
0
 40
0
 40
0
 40
0
 40
0
 40
1
 40
1
 40
1
 40
1
 10
5.159557
 20
116.592232
 30
0.0
 10
5.161132
 20
121.363242
 30
0.0
 10
8.622155
 20
125.429146
 30
0.0
 10
13.331686
 20
126.192598
 30
0.0
  0
LWPOLYLINE
  5
147
100
AcDbEntity
  8
Ebene_1
 62
5
100
AcDbPolyline
 90
2
 70
0
 10
5.132294
 20
39.960552
 30
0.0
 10
5.159557
 20
116.592232
 30
0.0
  0
LWPOLYLINE
  5
148
100
AcDbEntity
  8
Ebene_1
 62
5
100
AcDbPolyline
 90
2
 70
0
 10
13.331686
 20
126.192598
 30
0.0
 10
49.331200
 20
132.028403
 30
0.0
  0
LWPOLYLINE
  5
149
100
AcDbEntity
  8
Ebene_1
 62
5
100
AcDbPolyline
 90
4
 70
1
 10
132.309229
 20
116.485931
 30
0.0
 10
132.309229
 20
89.235997
 30
0.0
 10
144.802722
 20
89.235997
 30
0.0
 10
144.809204
 20
116.485931
 30
0.0
  0
ENDSEC
  0
SECTION
  2
OBJECTS
  0
DICTIONARY
  5
C
330
0
100
AcDbDictionary
  3
ACAD_GROUP
350
D
  3
ACAD_MLINESTYLE
350
17
  0
DICTIONARY
  5
D
330
C
100
AcDbDictionary
  0
DICTIONARY
  5
1A
330
C
100
AcDbDictionary
  0
DICTIONARY
  5
17
330
C
100
AcDbDictionary
  3
STANDARD
350
18
  0
DICTIONARY
  5
19
330
C
100
AcDbDictionary
  0
ENDSEC
  0
EOF
