999
"DXF R12 Output" (www.mydxf.blogspot.com)
 0 
SECTION
 2 
HEADER
 9 
$ACADVER
 1 
AC1009
 9 
$EXTMIN
 10 
 0 
 20 
 0 
 9 
$EXTMAX
 10 
 8.5 
 20 
 11 
 0 
ENDSEC
 0 
SECTION
 2 
ENTITIES
0
LINE
8
Ebene 1
10
9.429810
20
1.528150
11
9.352806
21
1.818071
0
LINE
8
Ebene 1
10
9.352806
20
1.818071
11
9.140973
21
2.030463
0
LINE
8
Ebene 1
10
9.140973
20
2.030463
11
8.851255
21
2.108228
0
LINE
8
Ebene 1
10
8.851255
20
2.108228
11
8.561537
21
2.030463
0
LINE
8
Ebene 1
10
8.561537
20
2.030463
11
8.349704
21
1.818071
0
LINE
8
Ebene 1
10
8.349704
20
1.818071
11
8.272700
21
1.528150
0
LINE
8
Ebene 1
10
8.272700
20
1.528150
11
8.349704
21
1.238229
0
LINE
8
Ebene 1
10
8.349704
20
1.238229
11
8.561537
21
1.025837
0
LINE
8
Ebene 1
10
8.561537
20
1.025837
11
8.851255
21
0.948072
0
LINE
8
Ebene 1
10
8.851255
20
0.948072
11
9.140973
21
1.025837
0
LINE
8
Ebene 1
10
9.140973
20
1.025837
11
9.352806
21
1.238229
0
LINE
8
Ebene 1
10
9.352806
20
1.238229
11
9.429810
21
1.528150
0
LINE
8
Ebene 1
10
9.429810
20
1.528150
11
9.429810
21
1.528150
0
LINE
8
Ebene 1
10
41.525500
20
3.837680
11
41.447988
21
4.126957
0
LINE
8
Ebene 1
10
41.447988
20
4.126957
11
41.236222
21
4.338723
0
LINE
8
Ebene 1
10
41.236222
20
4.338723
11
40.946945
21
4.416235
0
LINE
8
Ebene 1
10
40.946945
20
4.416235
11
40.657667
21
4.338723
0
LINE
8
Ebene 1
10
40.657667
20
4.338723
11
40.445902
21
4.126957
0
LINE
8
Ebene 1
10
40.445902
20
4.126957
11
40.368390
21
3.837680
0
LINE
8
Ebene 1
10
40.368390
20
3.837680
11
40.445902
21
3.548402
0
LINE
8
Ebene 1
10
40.445902
20
3.548402
11
40.657667
21
3.336637
0
LINE
8
Ebene 1
10
40.657667
20
3.336637
11
40.946945
21
3.259125
0
LINE
8
Ebene 1
10
40.946945
20
3.259125
11
41.236222
21
3.336637
0
LINE
8
Ebene 1
10
41.236222
20
3.336637
11
41.447988
21
3.548402
0
LINE
8
Ebene 1
10
41.447988
20
3.548402
11
41.525500
21
3.837680
0
LINE
8
Ebene 1
10
41.525500
20
3.837680
11
41.525500
21
3.837680
0
LINE
8
Ebene 1
10
44.842100
20
-29.758100
11
44.764588
21
-29.468822
0
LINE
8
Ebene 1
10
44.764588
20
-29.468822
11
44.552822
21
-29.257057
0
LINE
8
Ebene 1
10
44.552822
20
-29.257057
11
44.263545
21
-29.179545
0
LINE
8
Ebene 1
10
44.263545
20
-29.179545
11
43.974267
21
-29.257057
0
LINE
8
Ebene 1
10
43.974267
20
-29.257057
11
43.762502
21
-29.468822
0
LINE
8
Ebene 1
10
43.762502
20
-29.468822
11
43.684990
21
-29.758100
0
LINE
8
Ebene 1
10
43.684990
20
-29.758100
11
43.762502
21
-30.047377
0
LINE
8
Ebene 1
10
43.762502
20
-30.047377
11
43.974267
21
-30.259143
0
LINE
8
Ebene 1
10
43.974267
20
-30.259143
11
44.263545
21
-30.336655
0
LINE
8
Ebene 1
10
44.263545
20
-30.336655
11
44.552822
21
-30.259143
0
LINE
8
Ebene 1
10
44.552822
20
-30.259143
11
44.764588
21
-30.047377
0
LINE
8
Ebene 1
10
44.764588
20
-30.047377
11
44.842100
21
-29.758100
0
LINE
8
Ebene 1
10
44.842100
20
-29.758100
11
44.842100
21
-29.758100
0
LINE
8
Ebene 1
10
47.170400
20
-14.767700
11
43.388600
21
-14.767700
0
LINE
8
Ebene 1
10
43.388600
20
-14.767700
11
43.388600
21
-18.295400
0
LINE
8
Ebene 1
10
43.388600
20
-18.295400
11
47.170400
21
-18.295400
0
LINE
8
Ebene 1
10
47.170400
20
-18.295400
11
47.170400
21
-14.767700
0
LINE
8
Ebene 1
10
9.465690
20
-22.245400
11
9.388178
21
-21.956122
0
LINE
8
Ebene 1
10
9.388178
20
-21.956122
11
9.176413
21
-21.744357
0
LINE
8
Ebene 1
10
9.176413
20
-21.744357
11
8.887135
21
-21.666845
0
LINE
8
Ebene 1
10
8.887135
20
-21.666845
11
8.597857
21
-21.744357
0
LINE
8
Ebene 1
10
8.597857
20
-21.744357
11
8.386092
21
-21.956122
0
LINE
8
Ebene 1
10
8.386092
20
-21.956122
11
8.308580
21
-22.245400
0
LINE
8
Ebene 1
10
8.308580
20
-22.245400
11
8.386092
21
-22.534678
0
LINE
8
Ebene 1
10
8.386092
20
-22.534678
11
8.597857
21
-22.746443
0
LINE
8
Ebene 1
10
8.597857
20
-22.746443
11
8.887135
21
-22.823955
0
LINE
8
Ebene 1
10
8.887135
20
-22.823955
11
9.176413
21
-22.746443
0
LINE
8
Ebene 1
10
9.176413
20
-22.746443
11
9.388178
21
-22.534678
0
LINE
8
Ebene 1
10
9.388178
20
-22.534678
11
9.465690
21
-22.245400
0
LINE
8
Ebene 1
10
9.465690
20
-22.245400
11
9.465690
21
-22.245400
0
LINE
8
Ebene 1
10
42.333800
20
-18.973100
11
42.263954
21
-18.944169
0
LINE
8
Ebene 1
10
42.263954
20
-18.944169
11
42.235022
21
-18.874322
0
LINE
8
Ebene 1
10
42.235022
20
-18.874322
11
42.235000
21
-12.869900
0
LINE
8
Ebene 1
10
42.235000
20
-12.869900
11
48.870100
21
-12.869900
0
LINE
8
Ebene 1
10
48.870100
20
-12.869900
11
49.734115
21
-13.041763
0
LINE
8
Ebene 1
10
49.734115
20
-13.041763
11
50.466592
21
-13.531188
0
LINE
8
Ebene 1
10
50.466592
20
-13.531188
11
50.956017
21
-14.263665
0
LINE
8
Ebene 1
10
50.956017
20
-14.263665
11
51.127880
21
-15.127680
0
LINE
8
Ebene 1
10
51.127880
20
-15.127680
11
51.127900
21
-19.573800
0
LINE
8
Ebene 1
10
51.127900
20
-19.573800
11
51.030581
21
-20.461760
0
LINE
8
Ebene 1
10
51.030581
20
-20.461760
11
50.740632
21
-21.306670
0
LINE
8
Ebene 1
10
50.740632
20
-21.306670
11
46.116732
21
-29.599810
0
LINE
8
Ebene 1
10
46.116732
20
-29.599810
11
45.475974
21
-30.354919
0
LINE
8
Ebene 1
10
45.475974
20
-30.354919
11
44.636466
21
-30.823552
0
LINE
8
Ebene 1
10
44.636466
20
-30.823552
11
43.687006
21
-30.974934
0
LINE
8
Ebene 1
10
43.687006
20
-30.974934
11
42.716392
21
-30.778290
0
LINE
8
Ebene 1
10
42.716392
20
-30.778290
11
33.592592
21
-27.126110
0
LINE
8
Ebene 1
10
33.592592
20
-27.126110
11
33.411691
21
-27.091244
0
LINE
8
Ebene 1
10
33.411691
20
-27.091244
11
29.162400
21
-27.091300
0
LINE
8
Ebene 1
10
29.162400
20
-27.091300
11
28.747505
21
-27.147849
0
LINE
8
Ebene 1
10
28.747505
20
-27.147849
11
24.357305
21
-28.367389
0
LINE
8
Ebene 1
10
24.357305
20
-28.367389
11
22.849205
21
-28.572996
0
LINE
8
Ebene 1
10
22.849205
20
-28.572996
11
18.299600
21
-28.573000
0
LINE
8
Ebene 1
10
18.299600
20
-28.573000
11
17.601955
21
-28.482337
0
LINE
8
Ebene 1
10
17.601955
20
-28.482337
11
16.960203
21
-28.222085
0
LINE
8
Ebene 1
10
16.960203
20
-28.222085
11
16.404315
21
-27.809090
0
LINE
8
Ebene 1
10
16.404315
20
-27.809090
11
15.964260
21
-27.260200
0
LINE
8
Ebene 1
10
15.964260
20
-27.260200
11
14.268990
21
-24.475870
0
LINE
8
Ebene 1
10
14.268990
20
-24.475870
11
13.832141
21
-24.206785
0
LINE
8
Ebene 1
10
13.832141
20
-24.206785
11
9.857211
21
-23.886996
0
LINE
8
Ebene 1
10
9.857211
20
-23.886996
11
8.859559
21
-23.611744
0
LINE
8
Ebene 1
10
8.859559
20
-23.611744
11
8.057346
21
-23.010821
0
LINE
8
Ebene 1
10
8.057346
20
-23.010821
11
7.523032
21
-22.162786
0
LINE
8
Ebene 1
10
7.523032
20
-22.162786
11
7.329081
21
-21.146196
0
LINE
8
Ebene 1
10
7.329081
20
-21.146196
11
7.336786
21
0.481004
0
LINE
8
Ebene 1
10
7.336786
20
0.481004
11
7.510433
21
1.442103
0
LINE
8
Ebene 1
10
7.510433
20
1.442103
11
7.991707
21
2.259858
0
LINE
8
Ebene 1
10
7.991707
20
2.259858
11
8.722110
21
2.865545
0
LINE
8
Ebene 1
10
8.722110
20
2.865545
11
9.643146
21
3.190444
0
LINE
8
Ebene 1
10
9.643146
20
3.190444
11
19.803046
21
4.837434
0
LINE
8
Ebene 1
10
19.803046
20
4.837434
11
21.406076
21
4.966525
0
LINE
8
Ebene 1
10
21.406076
20
4.966525
11
42.066500
21
4.966570
0
LINE
8
Ebene 1
10
42.066500
20
4.966570
11
42.665184
21
4.718586
0
LINE
8
Ebene 1
10
42.665184
20
4.718586
11
42.913166
21
4.119901
0
LINE
8
Ebene 1
10
42.913166
20
4.119901
11
42.913200
21
2.708810
0
LINE
8
Ebene 1
10
42.913200
20
2.708810
11
42.160000
21
2.708810
0
LINE
8
Ebene 1
10
42.160000
20
2.708810
11
42.160000
21
2.426590
0
LINE
8
Ebene 1
10
42.160000
20
2.426590
11
42.160000
21
2.077510
0
LINE
8
Ebene 1
10
42.160000
20
2.077510
11
42.160000
21
1.528660
0
LINE
8
Ebene 1
10
42.160000
20
1.528660
11
37.071000
21
1.528660
0
LINE
8
Ebene 1
10
37.071000
20
1.528660
11
36.816645
21
2.206077
0
LINE
8
Ebene 1
10
36.816645
20
2.206077
11
31.675200
21
2.206080
0
LINE
8
Ebene 1
10
31.675200
20
2.206080
11
31.392891
21
2.598199
0
LINE
8
Ebene 1
10
31.392891
20
2.598199
11
26.091600
21
2.598200
0
LINE
8
Ebene 1
10
26.091600
20
2.598200
11
25.837245
21
2.206086
0
LINE
8
Ebene 1
10
25.837245
20
2.206086
11
20.679400
21
2.206090
0
LINE
8
Ebene 1
10
20.679400
20
2.206090
11
20.397088
21
0.851260
0
LINE
8
Ebene 1
10
20.397088
20
0.851260
11
15.334800
21
0.851253
0
LINE
8
Ebene 1
10
15.334800
20
0.851253
11
15.080445
21
0.427598
0
LINE
8
Ebene 1
10
15.080445
20
0.427598
11
9.892560
21
0.427598
0
LINE
8
Ebene 1
10
9.892560
20
0.427598
11
9.878703
21
-21.162302
0
LINE
8
Ebene 1
10
9.878703
20
-21.162302
11
15.270800
21
-21.162300
0
LINE
8
Ebene 1
10
15.270800
20
-21.162300
11
15.539492
21
-20.738645
0
LINE
8
Ebene 1
10
15.539492
20
-20.738645
11
17.936100
21
-20.738600
0
LINE
8
Ebene 1
10
17.936100
20
-20.738600
11
17.936100
21
-25.931500
0
LINE
8
Ebene 1
10
17.936100
20
-25.931500
11
23.372500
21
-25.931500
0
LINE
8
Ebene 1
10
23.372500
20
-25.931500
11
23.654095
21
-24.760890
0
LINE
8
Ebene 1
10
23.654095
20
-24.760890
11
34.007000
21
-24.760800
0
LINE
8
Ebene 1
10
34.007000
20
-24.760800
11
34.261389
21
-24.765146
0
LINE
8
Ebene 1
10
34.261389
20
-24.765146
11
39.197709
21
-26.088226
0
LINE
8
Ebene 1
10
39.197709
20
-26.088226
11
39.393467
21
-26.086815
0
LINE
8
Ebene 1
10
39.393467
20
-26.086815
11
43.933537
21
-28.706825
0
LINE
8
Ebene 1
10
43.933537
20
-28.706825
11
44.695263
21
-27.386865
0
LINE
8
Ebene 1
10
44.695263
20
-27.386865
11
47.249433
21
-22.963395
0
LINE
8
Ebene 1
10
47.249433
20
-22.963395
11
48.011379
21
-21.643535
0
LINE
8
Ebene 1
10
48.011379
20
-21.643535
11
43.385579
21
-18.973085
0
LINE
8
Ebene 1
10
43.385579
20
-18.973085
11
42.333800
21
-18.973100
 0 
ENDSEC
 0 
EOF